<svg width="1064" height="639" viewBox="0 0 1064 639" fill="none" xmlns="http://www.w3.org/2000/svg">
<rect x="14" width="872" height="540" fill="#FFF2E4"/>
<g filter="url(#filter0_d_131_3220)">
<rect x="14" width="872" height="540" fill="#FFF2E4"/>
</g>
<rect x="55" y="41" width="790" height="458" fill="url(#paint0_linear_131_3220)"/>
<rect x="87" y="540" width="23" height="99" fill="#2C3A64"/>
<rect x="805" y="540" width="23" height="99" fill="#2C3A64"/>
<rect x="653" y="479" width="115" height="34" fill="#33579E"/>
<path d="M952.501 264.443H768.606V403.99H952.501V264.443Z" fill="#DC8E7A"/>
<path d="M952.501 264.443H768.606V403.99H952.501V264.443Z" fill="url(#paint1_linear_131_3220)"/>
<path d="M925.178 297.287H903.69V383.001H925.178V297.287Z" fill="#FFF2E4"/>
<path d="M889.85 290.794H868.362V383.001H889.85V290.794Z" fill="#F99746"/>
<path d="M855.594 302.212H834.106V383.001H855.594V302.212Z" fill="#FFF2E4"/>
<path opacity="0.3" d="M855.594 302.212H834.106V383.001H855.594V302.212Z" fill="#DC8E7A"/>
<path d="M820.815 314.827H799.327V383.001H820.815V314.827Z" fill="#F99746"/>
<path d="M925.178 297.287H903.69V383.001H925.178V297.287Z" fill="#F99746"/>
<path d="M941.472 383.311C941.472 383.668 906.16 383.958 862.611 383.958C819.046 383.958 783.742 383.668 783.742 383.311C783.742 382.954 819.046 382.664 862.611 382.664C906.16 382.664 941.472 382.954 941.472 383.311Z" fill="#AA3E39"/>
<path d="M786.055 366.672C785.874 367.194 786.151 367.764 786.672 367.945C787.194 368.126 787.764 367.849 787.945 367.328L786.055 366.672ZM810.831 340.132L810.478 339.196L810.831 340.132ZM889.771 307.249L889.712 306.25L889.771 307.249ZM928.973 287.771C928.847 287.233 928.309 286.9 927.771 287.027L919.01 289.088C918.473 289.215 918.139 289.753 918.266 290.291C918.392 290.828 918.931 291.161 919.468 291.035L927.256 289.202L929.088 296.99C929.215 297.527 929.753 297.861 930.291 297.734C930.828 297.608 931.161 297.069 931.035 296.532L928.973 287.771ZM787 367C787.945 367.328 787.945 367.328 787.945 367.328C787.945 367.328 787.945 367.328 787.945 367.328C787.945 367.328 787.945 367.327 787.945 367.326C787.946 367.325 787.947 367.322 787.948 367.317C787.951 367.309 787.956 367.296 787.962 367.278C787.975 367.242 787.995 367.187 788.022 367.115C788.076 366.969 788.158 366.752 788.269 366.472C788.491 365.912 788.828 365.1 789.285 364.104C790.199 362.11 791.59 359.387 793.493 356.472C797.311 350.623 803.122 344.107 811.184 341.068L810.478 339.196C801.846 342.45 795.742 349.368 791.818 355.379C789.849 358.395 788.413 361.209 787.467 363.27C786.994 364.301 786.643 365.146 786.41 365.735C786.293 366.03 786.205 366.261 786.146 366.42C786.117 366.5 786.095 366.561 786.08 366.604C786.072 366.625 786.066 366.641 786.062 366.653C786.06 366.658 786.058 366.663 786.057 366.666C786.057 366.668 786.056 366.669 786.056 366.67C786.056 366.671 786.056 366.671 786.056 366.671C786.055 366.672 786.055 366.672 787 367ZM811.184 341.068C818.429 338.337 824.576 338.525 831.047 338.626C837.52 338.726 844.271 338.733 852.413 335.445L851.664 333.591C843.919 336.719 837.514 336.726 831.078 336.626C824.641 336.526 818.127 336.313 810.478 339.196L811.184 341.068ZM852.413 335.445C855.654 334.136 858.296 331.766 860.745 329.039C861.972 327.673 863.168 326.197 864.37 324.701C865.578 323.198 866.794 321.673 868.083 320.178C873.216 314.22 879.389 308.86 889.83 308.247L889.712 306.25C878.487 306.91 871.854 312.737 866.568 318.872C865.251 320.4 864.011 321.955 862.812 323.448C861.607 324.947 860.443 326.382 859.257 327.703C856.88 330.349 854.484 332.452 851.664 333.591L852.413 335.445ZM889.83 308.247C903.703 307.432 913.445 302.537 919.726 297.823C922.863 295.468 925.133 293.161 926.623 291.436C927.369 290.573 927.92 289.855 928.287 289.348C928.471 289.095 928.609 288.894 928.702 288.754C928.749 288.684 928.784 288.63 928.809 288.592C928.821 288.572 928.831 288.557 928.838 288.546C928.841 288.541 928.844 288.536 928.846 288.533C928.847 288.531 928.848 288.53 928.849 288.529C928.849 288.528 928.849 288.528 928.85 288.527C928.85 288.527 928.85 288.526 928 288C927.15 287.474 927.15 287.473 927.15 287.473C927.15 287.473 927.15 287.473 927.15 287.473C927.15 287.473 927.15 287.473 927.15 287.473C927.149 287.474 927.148 287.476 927.146 287.479C927.142 287.485 927.136 287.496 927.127 287.51C927.108 287.538 927.079 287.583 927.039 287.643C926.959 287.762 926.836 287.942 926.668 288.174C926.331 288.639 925.815 289.312 925.11 290.128C923.699 291.762 921.532 293.966 918.525 296.223C912.518 300.732 903.146 305.461 889.712 306.25L889.83 308.247Z" fill="white"/>
<path d="M985 183.65C984.669 183.751 984.333 183.794 983.996 183.78C983.255 183.812 982.3 183.852 981.118 183.902C978.518 183.953 974.926 184.023 970.53 184.109C961.502 184.158 949.196 184.225 935.599 184.299C928.375 184.279 921.518 184.26 915.368 184.242L915.733 183.65C915.674 197.517 915.624 209.305 915.587 217.807C915.544 221.86 915.51 225.123 915.484 227.532C915.461 228.565 915.443 229.415 915.427 230.112C915.494 230.136 915.553 230.199 915.592 230.289C915.632 230.379 915.65 230.489 915.643 230.599C915.635 230.71 915.603 230.811 915.552 230.885C915.502 230.959 915.436 231 915.368 231C915.299 231 915.233 230.959 915.183 230.885C915.132 230.811 915.1 230.71 915.092 230.599C915.085 230.489 915.103 230.379 915.143 230.289C915.182 230.199 915.241 230.136 915.308 230.112C915.292 229.415 915.274 228.566 915.251 227.532C915.225 225.123 915.191 221.86 915.148 217.807C915.111 209.305 915.061 197.518 915.002 183.65L915 183.058L915.368 183.057C921.518 183.04 928.375 183.02 935.599 183C949.196 183.074 961.502 183.141 970.53 183.19C974.926 183.276 978.518 183.346 981.118 183.397C982.3 183.447 983.255 183.487 983.996 183.519C984.333 183.504 984.669 183.548 985 183.65V183.65Z" fill="#AA3E39"/>
<path d="M753.975 387.98C753.812 388.029 753.647 388.048 753.482 388.038C753.121 388.049 752.643 388.062 752.038 388.079C750.725 388.087 748.862 388.097 746.484 388.11C741.619 388.079 734.652 388.036 726.061 387.982C708.78 387.748 684.976 387.425 658.683 387.069C638.802 386.702 620.345 386.361 605.078 386.079L604.885 386.075L604.81 385.755C599.872 364.792 595.779 347.416 592.902 335.202C591.503 329.172 590.401 324.42 589.63 321.098C589.274 319.52 588.995 318.285 588.791 317.377C588.686 316.958 588.599 316.524 588.531 316.08C588.663 316.474 588.778 316.885 588.874 317.312C589.098 318.204 589.403 319.419 589.793 320.97C590.599 324.264 591.751 328.977 593.213 334.957C596.146 347.128 600.319 364.442 605.352 385.329L605.084 385.007C620.35 385.225 638.808 385.488 658.69 385.772C684.982 386.276 708.785 386.733 726.066 387.065C734.656 387.292 741.622 387.476 746.487 387.605C748.864 387.696 750.727 387.768 752.039 387.818C752.644 387.855 753.121 387.884 753.483 387.906C753.648 387.901 753.813 387.926 753.975 387.98V387.98Z" fill="#AA3E39"/>
<path d="M636.844 413.298C636.844 415.532 636.183 417.716 634.944 419.574C633.705 421.432 631.944 422.88 629.884 423.735C627.823 424.59 625.556 424.814 623.369 424.378C621.182 423.942 619.173 422.866 617.596 421.286C616.019 419.706 614.946 417.693 614.511 415.502C614.076 413.31 614.299 411.038 615.152 408.974C616.006 406.91 617.451 405.145 619.305 403.904C621.159 402.663 623.339 402 625.569 402C627.05 402 628.516 402.292 629.884 402.86C631.252 403.428 632.494 404.26 633.541 405.309C634.588 406.358 635.419 407.603 635.986 408.974C636.552 410.345 636.844 411.814 636.844 413.298V413.298Z" fill="#FFF2E4"/>
<path d="M612.086 343.485H544.208C541.948 343.485 539.711 343.039 537.623 342.173C535.535 341.306 533.638 340.036 532.04 338.435C530.442 336.834 529.175 334.933 528.31 332.841C527.445 330.749 527 328.507 527 326.243V326.243C527 323.978 527.445 321.736 528.31 319.644C529.175 317.552 530.442 315.651 532.04 314.05C533.638 312.449 535.535 311.179 537.623 310.312C539.711 309.446 541.948 309 544.208 309H612.086C614.346 309 616.584 309.446 618.671 310.312C620.759 311.179 622.656 312.449 624.254 314.05C625.852 315.651 627.12 317.552 627.984 319.644C628.849 321.736 629.294 323.978 629.294 326.243C629.294 328.507 628.849 330.749 627.984 332.841C627.12 334.933 625.852 336.834 624.254 338.435C622.656 340.036 620.759 341.306 618.671 342.173C616.584 343.039 614.346 343.485 612.086 343.485V343.485Z" fill="#DC8E7A"/>
<path d="M713.963 159.328H555.886V264.497H713.963V159.328Z" fill="#FFF2E4"/>
<path d="M747.305 191.033H642.337V232.792H747.305V191.033Z" fill="#F98968"/>
<path d="M622.961 192.838C614.791 193.484 606.592 193.7 598.399 193.485C590.205 193.7 582.006 193.484 573.835 192.838C582.006 192.192 590.205 191.976 598.399 192.191C606.592 191.976 614.791 192.192 622.961 192.838V192.838Z" fill="#FFF2E4"/>
<path d="M622.961 200.468C614.791 201.114 606.592 201.33 598.399 201.115C590.205 201.33 582.006 201.114 573.835 200.468C582.006 199.822 590.205 199.606 598.399 199.821C606.592 199.606 614.791 199.822 622.961 200.468V200.468Z" fill="#FFF2E4"/>
<path d="M622.961 208.097C614.791 208.744 606.592 208.96 598.399 208.744C590.205 208.96 582.006 208.744 573.835 208.097C582.006 207.451 590.205 207.236 598.399 207.451C606.592 207.236 614.791 207.452 622.961 208.097V208.097Z" fill="#FFF2E4"/>
<path d="M523.188 184.927C523.188 184.927 523.366 184.938 523.712 184.944L525.255 184.96C526.623 184.968 528.627 184.978 531.217 184.992C536.419 185.005 543.967 185.023 553.392 185.047C572.263 185.063 598.645 185.085 628.727 185.111L628.543 184.927C628.542 193.152 628.541 201.683 628.539 210.413C628.541 219.409 628.542 228.192 628.543 236.673L628.727 236.489C598.834 236.515 572.643 236.537 553.916 236.554C544.562 236.577 537.075 236.595 531.914 236.608C529.345 236.622 527.358 236.633 526.001 236.64L524.471 236.656C524.128 236.662 523.952 236.673 523.952 236.673C523.952 236.673 524.128 236.684 524.471 236.69L526.001 236.706C527.358 236.714 529.345 236.724 531.914 236.738C537.075 236.75 544.562 236.769 553.916 236.793C572.643 236.809 598.834 236.831 628.727 236.857L628.912 236.857L628.912 236.673C628.913 228.192 628.915 219.409 628.916 210.413C628.915 201.683 628.914 193.152 628.912 184.927V184.743L628.727 184.743C598.645 184.769 572.263 184.791 553.392 184.807C543.967 184.831 536.419 184.849 531.217 184.862C528.627 184.876 526.623 184.886 525.255 184.894L523.712 184.91C523.366 184.916 523.188 184.927 523.188 184.927Z" fill="#F1CDBA"/>
<path d="M523.188 193.639C523.188 193.742 546.816 193.826 575.955 193.826C605.105 193.826 628.727 193.742 628.727 193.639C628.727 193.535 605.105 193.451 575.955 193.451C546.816 193.451 523.188 193.535 523.188 193.639Z" fill="#F1CDBA"/>
<path d="M523.954 200.578C523.954 200.682 547.582 200.766 576.721 200.766C605.871 200.766 629.493 200.682 629.493 200.578C629.493 200.475 605.871 200.391 576.721 200.391C547.582 200.391 523.954 200.475 523.954 200.578Z" fill="#F1CDBA"/>
<path d="M523.188 207.894C523.188 207.997 546.816 208.081 575.955 208.081C605.105 208.081 628.727 207.997 628.727 207.894C628.727 207.79 605.105 207.706 575.955 207.706C546.816 207.706 523.188 207.79 523.188 207.894Z" fill="#F1CDBA"/>
<path d="M523.188 215.022C523.188 215.125 546.816 215.21 575.955 215.21C605.105 215.21 628.727 215.125 628.727 215.022C628.727 214.918 605.105 214.834 575.955 214.834C546.816 214.834 523.188 214.918 523.188 215.022Z" fill="#F1CDBA"/>
<path d="M523.188 222.149C523.188 222.253 546.816 222.337 575.955 222.337C605.105 222.337 628.727 222.253 628.727 222.149C628.727 222.045 605.105 221.961 575.955 221.961C546.816 221.961 523.188 222.045 523.188 222.149Z" fill="#F1CDBA"/>
<path d="M628.727 229.277C628.727 229.173 605.1 229.089 575.961 229.089C546.811 229.089 523.188 229.173 523.188 229.277C523.188 229.381 546.811 229.465 575.961 229.465C605.1 229.465 628.727 229.381 628.727 229.277Z" fill="#F1CDBA"/>
<path d="M607.828 237.461C607.932 237.461 608.016 225.7 608.016 211.195C608.016 196.686 607.932 184.927 607.828 184.927C607.724 184.927 607.64 196.686 607.64 211.195C607.64 225.7 607.724 237.461 607.828 237.461Z" fill="#F1CDBA"/>
<path d="M586.669 237.461C586.772 237.461 586.857 225.7 586.857 211.195C586.857 196.686 586.772 184.927 586.669 184.927C586.565 184.927 586.48 196.686 586.48 211.195C586.48 225.7 586.565 237.461 586.669 237.461Z" fill="#F1CDBA"/>
<path d="M565.509 237.461C565.613 237.461 565.697 225.7 565.697 211.195C565.697 196.686 565.613 184.927 565.509 184.927C565.405 184.927 565.32 196.686 565.32 211.195C565.32 225.7 565.405 237.461 565.509 237.461Z" fill="#F1CDBA"/>
<path d="M544.348 237.461C544.452 237.461 544.537 225.7 544.537 211.195C544.537 196.686 544.452 184.927 544.348 184.927C544.244 184.927 544.16 196.686 544.16 211.195C544.16 225.7 544.244 237.461 544.348 237.461Z" fill="#F1CDBA"/>
<path d="M523.188 237.461C523.292 237.461 523.376 225.7 523.376 211.195C523.376 196.686 523.292 184.927 523.188 184.927C523.084 184.927 523 196.686 523 211.195C523 225.7 523.084 237.461 523.188 237.461Z" fill="#F1CDBA"/>
<path d="M523.188 193.639C523.435 193.868 523.701 194.075 523.984 194.257C524.539 194.649 525.332 195.21 526.351 195.929C528.444 197.372 531.458 199.448 535.209 202.033C542.752 207.193 553.306 214.359 565.3 222.457L565.453 222.56L565.627 222.501C568.515 221.53 571.537 220.513 574.617 219.478C578.801 218.065 582.881 216.688 586.786 215.37L586.463 215.326C594.449 220.671 601.69 225.518 607.666 229.517L607.698 229.538L607.732 229.55C614.152 231.766 619.387 233.572 623.035 234.831C624.843 235.436 626.257 235.908 627.238 236.236C627.709 236.384 628.076 236.499 628.341 236.582C628.335 236.631 628.348 236.68 628.376 236.72C628.404 236.761 628.446 236.789 628.493 236.801C628.541 236.812 628.592 236.805 628.635 236.782C628.678 236.758 628.711 236.72 628.727 236.674C628.744 236.627 628.743 236.577 628.724 236.531C628.705 236.486 628.671 236.449 628.626 236.428C628.582 236.406 628.532 236.402 628.484 236.415C628.437 236.429 628.397 236.459 628.37 236.501C628.111 236.399 627.754 236.258 627.295 236.076C626.326 235.714 624.93 235.192 623.145 234.525C619.516 233.209 614.311 231.32 607.926 229.004L607.991 229.037C602.04 225.001 594.828 220.111 586.874 214.717L586.724 214.616L586.551 214.674C582.643 215.987 578.562 217.359 574.376 218.766C571.298 219.804 568.276 220.824 565.39 221.798L565.716 221.842C553.706 213.768 543.1 206.678 535.484 201.626C531.68 199.12 528.623 197.107 526.5 195.709C525.451 195.036 524.633 194.511 524.061 194.144C523.786 193.949 523.494 193.78 523.188 193.639V193.639Z" fill="#F99746"/>
<path d="M606.54 229.277C606.54 229.531 606.616 229.78 606.757 229.991C606.899 230.202 607.1 230.367 607.335 230.465C607.571 230.562 607.83 230.587 608.079 230.538C608.329 230.488 608.559 230.366 608.739 230.186C608.919 230.006 609.042 229.777 609.091 229.528C609.141 229.278 609.116 229.02 609.018 228.785C608.921 228.55 608.756 228.349 608.544 228.208C608.332 228.067 608.083 227.991 607.828 227.991C607.659 227.991 607.492 228.024 607.335 228.089C607.179 228.154 607.037 228.248 606.917 228.368C606.798 228.487 606.703 228.629 606.638 228.785C606.573 228.941 606.54 229.108 606.54 229.277Z" fill="#F99746"/>
<path d="M585.38 215.022C585.38 215.276 585.455 215.525 585.597 215.736C585.738 215.947 585.94 216.112 586.175 216.21C586.41 216.307 586.669 216.332 586.919 216.283C587.169 216.233 587.399 216.111 587.579 215.931C587.759 215.751 587.882 215.522 587.931 215.273C587.981 215.023 587.955 214.765 587.858 214.53C587.761 214.295 587.595 214.094 587.384 213.953C587.172 213.812 586.923 213.736 586.668 213.736C586.326 213.736 585.999 213.872 585.757 214.113C585.516 214.354 585.38 214.681 585.38 215.022V215.022Z" fill="#F99746"/>
<path d="M564.22 222.027C564.22 222.281 564.295 222.53 564.437 222.741C564.578 222.952 564.78 223.117 565.015 223.215C565.25 223.312 565.509 223.337 565.759 223.288C566.009 223.238 566.239 223.116 566.419 222.936C566.599 222.756 566.721 222.527 566.771 222.278C566.821 222.028 566.795 221.77 566.698 221.535C566.6 221.3 566.435 221.099 566.223 220.958C566.012 220.817 565.763 220.741 565.508 220.741C565.339 220.741 565.171 220.774 565.015 220.839C564.859 220.904 564.717 220.998 564.597 221.118C564.477 221.237 564.382 221.379 564.318 221.535C564.253 221.691 564.22 221.858 564.22 222.027V222.027Z" fill="#F99746"/>
<path d="M542.845 207.956C542.845 208.21 542.92 208.458 543.062 208.67C543.203 208.881 543.405 209.046 543.64 209.143C543.875 209.241 544.134 209.266 544.384 209.216C544.634 209.167 544.863 209.044 545.044 208.865C545.224 208.685 545.346 208.456 545.396 208.206C545.446 207.957 545.42 207.698 545.323 207.464C545.225 207.229 545.06 207.028 544.848 206.887C544.637 206.745 544.388 206.67 544.133 206.67C543.791 206.67 543.464 206.805 543.222 207.047C542.981 207.288 542.845 207.615 542.845 207.956V207.956Z" fill="#F99746"/>
<path d="M523.188 229.277C523.331 229.222 523.465 229.15 523.589 229.061C523.857 228.894 524.233 228.66 524.716 228.359C525.71 227.718 527.15 226.789 528.991 225.6C532.689 223.169 537.999 219.677 544.51 215.397H544.187C550.213 219.442 557.416 224.279 565.307 229.578L565.593 229.77L565.8 229.492C569.289 224.798 573.046 219.744 576.927 214.522C580.395 209.844 583.763 205.3 586.962 200.983L586.409 201.022C594.499 209.15 601.76 216.445 607.631 222.344L607.679 222.391L607.741 222.412C614.365 224.559 619.736 226.299 623.468 227.509C625.32 228.09 626.764 228.544 627.762 228.858C628.243 229 628.617 229.11 628.885 229.189C628.879 229.239 628.892 229.289 628.921 229.329C628.95 229.37 628.993 229.399 629.042 229.409C629.09 229.42 629.141 229.412 629.185 229.388C629.228 229.363 629.261 229.323 629.277 229.276C629.292 229.229 629.29 229.177 629.27 229.132C629.249 229.086 629.213 229.049 629.167 229.029C629.122 229.009 629.07 229.006 629.023 229.022C628.975 229.037 628.935 229.07 628.91 229.113C628.648 229.016 628.282 228.88 627.812 228.706C626.825 228.36 625.397 227.86 623.566 227.218C619.852 225.953 614.508 224.132 607.916 221.887L608.026 221.955C602.189 216.023 594.97 208.685 586.928 200.51L586.63 200.207L586.375 200.549C583.17 204.862 579.796 209.401 576.322 214.075C572.449 219.303 568.699 224.362 565.217 229.062L565.71 228.976C557.789 223.723 550.558 218.927 544.51 214.915L544.347 214.807L544.187 214.915C537.736 219.284 532.474 222.848 528.81 225.33C527.006 226.574 525.596 227.547 524.622 228.218C524.158 228.55 523.798 228.807 523.541 228.99C523.412 229.07 523.293 229.167 523.188 229.277V229.277Z" fill="#35488B"/>
<path d="M585.38 200.766C585.38 201.02 585.455 201.269 585.597 201.48C585.739 201.692 585.94 201.856 586.175 201.954C586.41 202.051 586.669 202.077 586.919 202.027C587.169 201.977 587.399 201.855 587.579 201.675C587.759 201.495 587.882 201.266 587.931 201.017C587.981 200.767 587.955 200.509 587.858 200.274C587.761 200.039 587.595 199.838 587.384 199.697C587.172 199.556 586.923 199.48 586.668 199.48C586.499 199.48 586.331 199.514 586.175 199.578C586.019 199.643 585.877 199.738 585.757 199.857C585.638 199.976 585.543 200.118 585.478 200.274C585.413 200.43 585.38 200.597 585.38 200.766V200.766Z" fill="#35488B"/>
<path d="M606.54 222.149C606.54 222.404 606.616 222.652 606.757 222.864C606.899 223.075 607.1 223.24 607.335 223.337C607.57 223.434 607.829 223.46 608.079 223.41C608.329 223.361 608.559 223.238 608.739 223.058C608.919 222.879 609.042 222.65 609.091 222.4C609.141 222.151 609.116 221.892 609.018 221.657C608.921 221.423 608.756 221.222 608.544 221.08C608.332 220.939 608.083 220.864 607.828 220.864C607.487 220.864 607.159 220.999 606.917 221.24C606.676 221.481 606.54 221.808 606.54 222.149V222.149Z" fill="#35488B"/>
<path d="M564.22 229.277C564.22 229.531 564.295 229.78 564.437 229.991C564.578 230.202 564.78 230.367 565.015 230.465C565.25 230.562 565.509 230.587 565.759 230.538C566.009 230.488 566.239 230.366 566.419 230.186C566.599 230.006 566.721 229.777 566.771 229.528C566.821 229.278 566.795 229.02 566.698 228.785C566.6 228.55 566.435 228.349 566.223 228.208C566.012 228.067 565.763 227.991 565.508 227.991C565.339 227.991 565.171 228.024 565.015 228.089C564.859 228.154 564.717 228.248 564.597 228.368C564.477 228.487 564.382 228.629 564.318 228.785C564.253 228.941 564.22 229.108 564.22 229.277Z" fill="#35488B"/>
<path d="M543.061 216.307C543.061 216.561 543.136 216.81 543.278 217.021C543.419 217.233 543.62 217.397 543.856 217.495C544.091 217.592 544.35 217.618 544.6 217.568C544.85 217.518 545.079 217.396 545.259 217.216C545.44 217.036 545.562 216.807 545.612 216.558C545.662 216.309 545.636 216.05 545.539 215.815C545.441 215.58 545.276 215.379 545.064 215.238C544.852 215.097 544.603 215.021 544.349 215.021C544.18 215.021 544.012 215.055 543.856 215.119C543.699 215.184 543.557 215.279 543.438 215.398C543.318 215.517 543.223 215.659 543.159 215.815C543.094 215.971 543.061 216.138 543.061 216.307V216.307Z" fill="#35488B"/>
<path d="M616.664 242.573C618.011 242.823 619.392 242.823 620.739 242.573C619.392 242.322 618.011 242.322 616.664 242.573V242.573Z" fill="#F1CDBA"/>
<path d="M595.036 242.573C596.383 242.823 597.764 242.823 599.111 242.573C597.764 242.322 596.383 242.322 595.036 242.573Z" fill="#F1CDBA"/>
<path d="M573.408 242.573C574.755 242.823 576.136 242.823 577.483 242.573C576.136 242.322 574.755 242.322 573.408 242.573V242.573Z" fill="#F1CDBA"/>
<path d="M551.781 242.573C553.128 242.823 554.509 242.823 555.856 242.573C554.509 242.322 553.128 242.322 551.781 242.573V242.573Z" fill="#F1CDBA"/>
<path d="M530.153 242.573C531.5 242.823 532.882 242.823 534.228 242.573C532.881 242.322 531.5 242.322 530.153 242.573V242.573Z" fill="#F1CDBA"/>
<path d="M631.709 236.385C632.792 236.636 633.917 236.636 635 236.385C633.917 236.135 632.792 236.135 631.709 236.385V236.385Z" fill="#F1CDBA"/>
<path d="M631.709 228.095C632.792 228.346 633.917 228.346 635 228.095C633.917 227.845 632.792 227.845 631.709 228.095V228.095Z" fill="#F1CDBA"/>
<path d="M631.709 219.805C632.792 220.055 633.917 220.055 635 219.805C633.917 219.555 632.792 219.555 631.709 219.805V219.805Z" fill="#F1CDBA"/>
<path d="M631.709 211.514C632.792 211.765 633.917 211.765 635 211.514C633.917 211.264 632.792 211.264 631.709 211.514V211.514Z" fill="#F1CDBA"/>
<path d="M631.709 203.224C632.792 203.475 633.917 203.475 635 203.224C633.917 202.974 632.792 202.974 631.709 203.224V203.224Z" fill="#F1CDBA"/>
<path d="M631.709 194.934C632.792 195.185 633.917 195.185 635 194.934C633.917 194.684 632.792 194.684 631.709 194.934V194.934Z" fill="#F1CDBA"/>
<path d="M631.709 186.644C632.792 186.895 633.917 186.895 635 186.644C633.917 186.394 632.792 186.394 631.709 186.644V186.644Z" fill="#F1CDBA"/>
<path d="M598.957 169.148H629.276V167H598.957V169.148Z" fill="#F99746"/>
<path d="M544.806 173.267C544.806 173.371 563.763 173.455 587.143 173.455C610.531 173.455 629.484 173.371 629.484 173.267C629.484 173.163 610.531 173.079 587.143 173.079C563.763 173.079 544.806 173.163 544.806 173.267Z" fill="#2C3A64"/>
<path d="M575.753 252.919C575.753 253.022 587.312 253.107 601.567 253.107C615.827 253.107 627.384 253.022 627.384 252.919C627.384 252.815 615.827 252.731 601.567 252.731C587.312 252.731 575.753 252.815 575.753 252.919Z" fill="#2C3A64"/>
<path d="M614.992 256.812C618.659 257.063 622.339 257.063 626.007 256.812C622.339 256.562 618.659 256.562 614.992 256.812Z" fill="#2C3A64"/>
<path d="M528.94 252.232C528.94 252.336 537.16 252.42 547.297 252.42C557.438 252.42 565.656 252.336 565.656 252.232C565.656 252.128 557.438 252.044 547.297 252.044C537.16 252.044 528.94 252.128 528.94 252.232Z" fill="#2C3A64"/>
<path d="M548.904 254.751C552.725 255.002 556.557 255.002 560.378 254.751C556.557 254.501 552.725 254.501 548.904 254.751V254.751Z" fill="#2C3A64"/>
<path d="M712.711 174.767C712.711 175.124 677.602 175.414 634.302 175.414C590.988 175.414 555.886 175.124 555.886 174.767C555.886 174.41 590.988 174.12 634.302 174.12C677.602 174.12 712.711 174.41 712.711 174.767Z" fill="#FFF2E4"/>
<path d="M976.937 490.831C976.891 490.452 976.87 490.07 976.874 489.688C976.858 488.868 976.836 487.808 976.809 486.479C976.774 483.59 976.725 479.543 976.663 474.446C976.594 464.067 976.496 449.432 976.379 431.913L976.937 432.472C959.822 432.498 939.657 432.527 918.142 432.559C917.994 432.698 919.359 431.339 918.782 431.923V433.926L918.782 435.936C918.781 437.274 918.781 438.606 918.781 439.932C918.779 442.583 918.778 445.208 918.776 447.809C918.77 453.006 918.765 458.091 918.759 463.039C918.736 472.926 918.715 482.26 918.695 490.831L918.137 490.272C935.623 490.389 950.229 490.487 960.586 490.557C965.673 490.619 969.712 490.668 972.595 490.703C973.92 490.73 974.978 490.751 975.796 490.768C976.177 490.764 976.559 490.785 976.937 490.831C976.6 490.882 976.259 490.904 975.919 490.894C975.128 490.911 974.106 490.932 972.825 490.959C969.972 490.994 965.976 491.044 960.943 491.105C950.498 491.175 935.769 491.273 918.137 491.391L917.579 491.394L917.578 490.831C917.558 482.26 917.536 472.926 917.514 463.039C917.508 458.091 917.502 453.006 917.497 447.809C917.495 445.21 917.494 442.584 917.492 439.932C917.492 438.606 917.491 437.274 917.491 435.936L917.491 433.926V431.923C916.914 432.496 918.275 431.123 918.142 431.265C939.657 431.297 959.822 431.327 976.937 431.353L977.499 431.354L977.496 431.913C977.378 449.579 977.28 464.337 977.211 474.803C977.149 479.847 977.1 483.851 977.065 486.71C977.038 487.994 977.017 489.018 977 489.81C977.009 490.152 976.988 490.493 976.937 490.831V490.831Z" fill="#AA3E39"/>
<path d="M1046.09 201.013H978.208C973.644 201.013 969.267 199.197 966.04 195.963C962.813 192.729 961 188.344 961 183.771V183.771C961 179.198 962.813 174.812 966.04 171.578C969.267 168.345 973.644 166.528 978.208 166.528H1046.09C1050.65 166.528 1055.03 168.345 1058.25 171.578C1061.48 174.812 1063.29 179.198 1063.29 183.771V183.771C1063.29 186.035 1062.85 188.277 1061.98 190.369C1061.12 192.461 1059.85 194.362 1058.25 195.963C1056.66 197.564 1054.76 198.834 1052.67 199.701C1050.58 200.567 1048.35 201.013 1046.09 201.013V201.013Z" fill="#DC8E7A"/>
<path d="M705.6 355.692C711.827 355.692 716.875 350.634 716.875 344.394C716.875 338.155 711.827 333.097 705.6 333.097C699.373 333.097 694.325 338.155 694.325 344.394C694.325 350.634 699.373 355.692 705.6 355.692Z" fill="#FFF2E4"/>
<path d="M820.398 222.887C826.625 222.887 831.673 217.829 831.673 211.59C831.673 205.35 826.625 200.292 820.398 200.292C814.171 200.292 809.123 205.35 809.123 211.59C809.123 217.829 814.171 222.887 820.398 222.887Z" fill="#FFF2E4"/>
<path d="M971.328 101.251H941.928V130.71H971.328V101.251Z" fill="#FFF2E4"/>
<path d="M791 284.944C790.622 284.989 790.239 285.004 789.856 284.991L786.523 285C783.502 284.979 779.244 284.95 773.869 284.912C762.863 284.779 747.302 284.59 728.633 284.364L728.094 284.357L728.093 283.949C728.066 269.475 728.034 252.308 728 233.948C728.074 207.206 728.14 183.002 728.189 165.393C728.275 156.678 728.344 149.6 728.394 144.618C728.445 142.223 728.485 140.335 728.515 138.969L728.578 137.501C728.497 137.488 728.424 137.453 728.375 137.403C728.325 137.353 728.302 137.29 728.31 137.228C728.318 137.165 728.357 137.108 728.419 137.065C728.481 137.023 728.561 137 728.644 137C728.728 137 728.808 137.023 728.87 137.065C728.932 137.108 728.97 137.165 728.979 137.228C728.987 137.29 728.964 137.353 728.914 137.403C728.865 137.453 728.792 137.488 728.71 137.501L728.774 138.969C728.803 140.335 728.844 142.223 728.895 144.618C728.944 149.6 729.014 156.678 729.1 165.393C729.148 183.002 729.215 207.206 729.289 233.948C729.254 252.308 729.223 269.475 729.196 283.949L728.656 283.534C747.321 283.904 762.879 284.212 773.883 284.43C779.255 284.564 783.511 284.67 786.531 284.746C787.918 284.794 789.02 284.832 789.86 284.861C790.242 284.861 790.624 284.888 791 284.944V284.944Z" fill="#AA3E39"/>
<path d="M692.127 99.1867C692.683 99.1039 693.244 99.0485 693.807 99.0208L693.856 100.02C694.121 100.007 694.386 100 694.652 100H695.65V99H697.646V100H699.643V99H701.639V100H703.636V99H705.632V100H707.628V99H709.625V100H711.621V99H713.618V100H715.614V99H717.61V100H719.607V99H721.603V100H723.6V99H725.596V100H727.593V99H729.589V100H731.585V99H733.582V100H735.578V99H737.575V100H739.571V99H741.567V100H743.564V99H745.56V100H747.557V99H749.553V100H751.55V99H753.546V100H755.542V99H757.539V100H759.535V99H761.532V100H762.53C762.885 100 763.238 100.012 763.59 100.035L763.656 99.0369C764.409 99.0864 765.154 99.1852 765.888 99.3315L765.693 100.312C766.388 100.451 767.072 100.635 767.741 100.862L768.063 99.9156C768.774 100.158 769.469 100.446 770.142 100.779L769.699 101.675C770.332 101.988 770.946 102.343 771.535 102.738L772.091 101.907C772.713 102.323 773.309 102.781 773.876 103.279L773.216 104.03C773.481 104.263 773.739 104.505 773.99 104.757C774.241 105.008 774.483 105.267 774.716 105.533L775.468 104.874C775.966 105.443 776.423 106.041 776.839 106.664L776.007 107.219C776.401 107.81 776.755 108.425 777.067 109.059L777.964 108.618C778.296 109.293 778.584 109.989 778.825 110.702L777.878 111.022C778.105 111.692 778.288 112.378 778.427 113.074L779.408 112.88C779.553 113.615 779.652 114.361 779.701 115.115L778.703 115.18C778.726 115.533 778.738 115.887 778.738 116.243V116.243H779.738V116.243H778.738V116.243C778.738 116.598 778.726 116.953 778.703 117.305L779.701 117.37C779.652 118.124 779.553 118.871 779.408 119.606L778.427 119.411C778.288 120.108 778.105 120.793 777.878 121.463L778.825 121.784C778.584 122.496 778.296 123.192 777.964 123.867L777.067 123.426C776.755 124.061 776.401 124.676 776.007 125.266L776.839 125.821C776.423 126.444 775.966 127.043 775.468 127.611L774.716 126.953C774.483 127.218 774.241 127.477 773.99 127.729C773.739 127.98 773.481 128.222 773.216 128.455L773.876 129.206C773.309 129.704 772.713 130.163 772.091 130.579L771.535 129.748C770.946 130.142 770.332 130.497 769.699 130.81L770.142 131.706C769.469 132.039 768.774 132.328 768.063 132.57L767.741 131.623C767.072 131.851 766.388 132.035 765.693 132.173L765.888 133.154C765.154 133.3 764.409 133.399 763.656 133.449L763.59 132.451C763.238 132.474 762.885 132.485 762.53 132.485H761.532V133.485H759.535V132.485H757.539V133.485H755.542V132.485H753.546V133.485H751.549V132.485H749.553V133.485H747.557V132.485H745.56V133.485H743.564V132.485H741.567V133.485H739.571V132.485H737.574V133.485H735.578V132.485H733.582V133.485H731.585V132.485H729.589V133.485H727.592V132.485H725.596V133.485H723.6V132.485H721.603V133.485H719.607V132.485H717.61V133.485H715.614V132.485H713.617V133.485H711.621V132.485H709.625V133.485H707.628V132.485H705.632V133.485H703.635V132.485H701.639V133.485H699.642V132.485H697.646V133.485H695.65V132.485H694.651C694.297 132.485 693.943 132.474 693.591 132.451L693.525 133.449C692.772 133.399 692.027 133.3 691.293 133.154L691.489 132.173C690.793 132.035 690.109 131.851 689.441 131.623L689.118 132.57C688.407 132.328 687.713 132.039 687.039 131.706L687.482 130.81C686.849 130.497 686.236 130.142 685.646 129.748L685.09 130.579C684.468 130.163 683.872 129.704 683.305 129.206L683.965 128.455C683.7 128.222 683.442 127.98 683.191 127.729C682.94 127.477 682.698 127.218 682.466 126.953L681.713 127.611C681.216 127.043 680.758 126.445 680.343 125.821L681.175 125.266C680.781 124.676 680.427 124.061 680.114 123.426L679.217 123.867C678.885 123.192 678.597 122.496 678.356 121.784L679.303 121.463C679.076 120.793 678.893 120.108 678.755 119.411L677.774 119.606C677.628 118.871 677.529 118.124 677.48 117.37L678.478 117.305C678.455 116.953 678.443 116.598 678.443 116.243C678.443 115.977 678.45 115.711 678.463 115.446L677.464 115.397C677.492 114.833 677.547 114.271 677.63 113.713L678.619 113.859C678.697 113.334 678.8 112.812 678.929 112.296L677.959 112.053C678.096 111.507 678.259 110.966 678.449 110.434L679.391 110.77C679.48 110.52 679.576 110.272 679.677 110.026C679.779 109.781 679.886 109.538 680 109.298L679.095 108.871C679.336 108.36 679.602 107.862 679.891 107.379L680.75 107.892C681.022 107.436 681.317 106.994 681.633 106.567L680.829 105.972C681.165 105.519 681.522 105.082 681.901 104.663L682.643 105.334C682.821 105.137 683.004 104.945 683.191 104.757C683.379 104.569 683.571 104.385 683.767 104.207L683.095 103.467C683.513 103.088 683.948 102.729 684.4 102.394L684.997 103.196C685.423 102.88 685.864 102.584 686.319 102.311L685.804 101.453C686.287 101.164 686.784 100.897 687.294 100.656L687.722 101.559C687.962 101.446 688.204 101.338 688.45 101.236C688.695 101.134 688.942 101.039 689.192 100.949L688.854 100.008C689.385 99.8176 689.924 99.6538 690.47 99.5168L690.714 100.487C691.228 100.358 691.749 100.254 692.274 100.176L692.127 99.1867Z" stroke="#33579E" stroke-width="2" stroke-dasharray="2 2"/>
<defs>
<filter id="filter0_d_131_3220" x="0" y="0" width="900" height="570" filterUnits="userSpaceOnUse" color-interpolation-filters="sRGB">
<feFlood flood-opacity="0" result="BackgroundImageFix"/>
<feColorMatrix in="SourceAlpha" type="matrix" values="0 0 0 0 0 0 0 0 0 0 0 0 0 0 0 0 0 0 127 0" result="hardAlpha"/>
<feMorphology radius="7" operator="erode" in="SourceAlpha" result="effect1_dropShadow_131_3220"/>
<feOffset dy="16"/>
<feGaussianBlur stdDeviation="10.5"/>
<feComposite in2="hardAlpha" operator="out"/>
<feColorMatrix type="matrix" values="0 0 0 0 0.666667 0 0 0 0 0.243137 0 0 0 0 0.223529 0 0 0 1 0"/>
<feBlend mode="overlay" in2="BackgroundImageFix" result="effect1_dropShadow_131_3220"/>
<feBlend mode="normal" in="SourceGraphic" in2="effect1_dropShadow_131_3220" result="shape"/>
</filter>
<linearGradient id="paint0_linear_131_3220" x1="450" y1="41" x2="450" y2="499" gradientUnits="userSpaceOnUse">
<stop stop-color="#F1CDBA"/>
<stop offset="1" stop-color="#F1CDBA" stop-opacity="0"/>
</linearGradient>
<linearGradient id="paint1_linear_131_3220" x1="860.554" y1="264.443" x2="860.554" y2="403.99" gradientUnits="userSpaceOnUse">
<stop stop-color="#B84C42"/>
<stop offset="1" stop-color="#B84C42" stop-opacity="0"/>
</linearGradient>
</defs>
</svg>
