<?xml version="1.0" encoding="UTF-8"?>
<svg width="296" height="599" viewBox="0 0 296 599" fill="none" xmlns="http://www.w3.org/2000/svg">
<g clip-path="url(#clip0)">
<path d="M143.268 304.486H0V447.787H143.268V304.486Z" fill="#006BB6"/>
<path d="M104.377 355.345C104.678 362.799 102.054 370.076 97.0638 375.621C90.4157 382.602 79.7786 386.259 67.8119 386.259C64.4599 386.326 61.1119 385.992 57.8397 385.261V423.488H45.5405V329.084C53.3343 327.732 61.2315 327.065 69.1416 327.09C81.4408 327.09 90.0833 330.081 96.0667 335.068C98.7795 337.688 100.919 340.844 102.349 344.334C103.78 347.824 104.47 351.574 104.377 355.345ZM92.0777 356.342C92.0777 343.71 83.1027 337.727 69.474 337.727C65.5688 337.543 61.6566 337.879 57.8397 338.724V375.621C61.0829 376.519 64.4553 376.856 67.8119 376.619C83.1027 376.619 92.0777 369.306 92.0777 356.342Z" fill="white"/>
<path d="M295.511 304.486H152.243V447.754H295.511V304.486Z" fill="#006BB6"/>
<path d="M199.445 423.821V382.935C199.445 366.979 199.445 355.677 198.78 343.71H199.113C204.285 354.719 210.17 365.379 216.73 375.622L247.312 424.153H259.611V328.087H247.977V368.309C247.816 381.404 248.371 394.498 249.639 407.533H248.974C244.003 396.87 238.34 386.543 232.021 376.619L201.439 328.087H187.811V423.821H199.445Z" fill="white"/>
<path d="M143.268 455.732H0V599H143.268V455.732Z" fill="#006BB6"/>
<path d="M36.2324 479.665V535.842C36.2324 565.759 51.1909 576.729 70.803 576.729C90.4151 576.729 107.035 564.762 107.035 535.51V479.665H94.4039V536.507C94.4039 557.449 85.0965 566.756 71.1353 566.756C57.1742 566.756 48.8639 557.781 48.8639 536.507V479.665H36.2324Z" fill="white"/>
<path d="M295.511 455.732H152.243V599H295.511V455.732Z" fill="#006BB6"/>
<path d="M266.591 524.541C266.591 540.164 261.605 553.128 252.63 561.77C243.655 570.413 229.029 575.399 210.414 575.399C202.866 575.628 195.31 575.294 187.811 574.402V480.33C196.511 479.093 205.283 478.427 214.071 478.336C232.021 478.336 244.652 482.325 252.963 489.97C261.273 497.616 266.591 509.25 266.591 524.541ZM253.628 524.873C253.628 502.269 240.996 487.976 214.736 487.976C209.829 487.942 204.93 488.388 200.11 489.305V565.094C204.292 565.694 208.519 565.917 212.741 565.759C239.001 565.759 253.628 550.801 253.628 524.873Z" fill="white"/>
<path d="M295.511 0H0V295.578H295.511V0Z" fill="#006BB6"/>
<path d="M223.046 210.415C216.398 212.409 209.085 212.741 202.437 215.068C213.738 205.428 213.074 190.802 220.387 179.5C222.523 176.154 224.854 172.935 227.367 169.861C223.046 178.836 225.04 190.802 219.722 199.445C217.62 203.082 214.923 206.34 211.744 209.085C212.769 209.001 213.721 208.525 214.403 207.755C223.046 199.113 234.015 196.786 243.323 190.138C247.02 187.205 249.98 183.449 251.965 179.168C249.971 193.129 236.342 206.426 223.046 210.415Z" fill="white"/>
<path d="M253.628 153.905C249.017 159.444 244.69 165.213 240.664 171.19C240.996 166.537 241.661 160.553 239.667 156.232C236.29 146.42 233.95 136.282 232.686 125.983V121.994C235.013 132.631 245.65 140.276 244.985 152.243C245.058 155.072 244.608 157.889 243.656 160.553H244.32C245.473 154.44 247.141 148.435 249.306 142.603C252.631 134.626 256.952 126.648 255.29 117.008C260.609 128.31 258.946 143.601 253.295 154.238" fill="white"/>
<path d="M246.979 92.4096C250.5 97.5084 252.654 103.425 253.236 109.594C253.818 115.763 252.808 121.978 250.303 127.645C248.624 132.418 247.291 137.306 246.314 142.271C245.982 141.606 245.982 140.276 245.65 139.279C242.99 128.642 233.018 121.329 228.697 111.024C227.352 107.815 226.349 104.472 225.705 101.052C230.026 109.03 240.996 113.351 243.988 122.326C244.847 124.82 245.514 127.376 245.982 129.972H246.314C245.097 120.585 245.209 111.073 246.647 101.717C246.779 96.9584 245.631 92.2518 243.323 88.0883C244.985 89.4179 245.65 91.4123 246.979 92.742" fill="white"/>
<path d="M241.993 90.7475C243.988 99.0577 241.328 107.036 242.99 115.346C238.337 106.703 228.697 102.382 222.049 95.4012C218.62 91.0839 216.436 85.9114 215.733 80.4428C219.722 89.7503 229.694 91.7447 235.677 99.3901C237.672 101.052 238.004 103.379 239.334 105.373H239.666C236.839 97.8894 234.507 90.2275 232.686 82.4373C231.607 78.8374 229.24 75.7607 226.037 73.7947C229.936 75.0001 233.455 77.1956 236.251 80.1669C239.048 83.1381 241.026 86.7836 241.993 90.7475Z" fill="white"/>
<path d="M221.716 71.8001C226.919 76.7994 230.409 83.3143 231.689 90.415L232.686 92.7419C224.19 86.5306 216.968 78.7439 211.412 69.8057L204.764 63.4899C210.415 65.8168 216.73 67.1464 221.716 71.8001Z" fill="white"/>
<path d="M89.0857 64.4873C83.8005 69.7091 79.1175 75.5071 75.1245 81.7725C71.0177 86.2106 66.5722 90.3227 61.8281 94.0717C64.155 89.0856 64.4874 83.1022 67.8114 78.7809C71.1355 74.4596 81.4403 67.479 89.0857 64.4873Z" fill="white"/>
<path d="M57.5073 82.1049C60.1096 78.7384 63.7203 76.2923 67.8119 75.1243C60.1665 80.4428 60.4988 90.0827 58.172 98.0605C57.5071 101.052 55.8452 103.711 55.1804 106.703H55.5127C57.0638 103.159 59.1988 99.9005 61.8286 97.0632C67.4795 92.0771 75.7897 88.753 78.449 81.4401C78.449 91.7447 69.4739 100.055 61.1637 106.038C57.569 108.805 54.6199 112.321 52.5212 116.343C52.1888 113.684 52.8536 111.024 52.5212 108.365C51.8564 99.0577 51.1915 88.753 57.5073 81.7724" fill="white"/>
<path d="M41.8832 113.684C41.7738 104.864 44.9764 96.3235 50.8583 89.7503H51.1906C45.2073 99.0577 50.1933 110.36 49.8609 120.664L49.1963 131.301C49.1963 131.39 49.2311 131.474 49.2934 131.536C49.3558 131.599 49.4404 131.634 49.5286 131.634C49.861 130.304 49.861 129.307 50.1934 127.977C51.5231 119.335 59.1684 113.351 65.4841 107.368C66.9572 105.981 68.094 104.275 68.8082 102.382C68.4088 106.788 67.1676 111.076 65.1518 115.013C60.1657 124.986 50.8583 132.963 49.1963 144.265C48.199 133.296 40.886 125.318 41.8832 114.016" fill="white"/>
<path d="M37.2296 126.648C37.6945 123.8 38.475 121.013 39.5565 118.337C37.2296 130.636 45.5397 139.279 48.199 149.916C49.5286 153.905 49.5287 158.226 51.1908 161.883C52.8528 165.539 51.5231 161.883 51.5231 161.883C47.5342 150.581 53.5177 139.944 59.1686 130.969C60.6453 128.635 61.6608 126.04 62.1602 123.323C62.3656 128.786 61.9194 134.254 60.8307 139.612C59.5011 146.26 57.1741 152.908 55.512 159.556C54.3976 163.793 54.2839 168.231 55.1797 172.52L54.5149 171.855C50.1935 164.21 41.8834 157.894 39.2241 149.251C36.8878 141.959 36.2063 134.237 37.2296 126.648Z" fill="white"/>
<path d="M36.8971 150.913C37.8943 163.877 51.8553 170.858 58.1711 181.495C59.644 183.847 61.3119 186.071 63.1572 188.143C62.8248 186.813 61.4953 185.484 61.1629 184.154C58.7676 179.319 57.8431 173.887 58.5036 168.531C59.1685 161.883 61.8278 155.9 60.8305 148.919C66.4815 161.218 64.8193 176.509 68.1434 189.805C69.0186 192.714 70.2467 195.505 71.8 198.115C59.8333 190.138 43.8776 182.492 38.8915 167.866C36.7316 162.493 36.0432 156.641 36.8971 150.913Z" fill="white"/>
<path d="M43.8784 180.83C50.5266 195.456 66.8146 196.786 77.7841 205.761C79.67 207.498 81.7974 208.954 84.1 210.082H84.4323C81.5752 207.84 79.1048 205.145 77.1193 202.104C70.8035 193.129 72.7979 180.83 68.1442 171.19C72.5158 176.224 76.2043 181.812 79.1138 187.811C83.1027 197.451 84.4323 208.42 93.7397 215.733C83.7674 212.409 72.1332 213.406 63.4906 207.423C54.848 201.44 45.5405 191.467 43.8784 180.83Z" fill="white"/>
<path d="M60.499 208.42C71.1361 220.387 88.4215 216.398 102.383 219.39C104.214 219.934 106.126 220.159 108.033 220.054C106.371 219.057 104.045 219.39 102.383 218.392C91.4131 214.403 89.751 202.437 83.7676 194.459C91.2149 200.118 98.2161 206.341 104.709 213.074C109.836 217.08 115.9 219.712 122.327 220.719C120.665 221.384 118.671 221.052 117.008 221.716C105.707 224.376 92.7428 229.029 80.7761 225.041C72.2254 222.142 65.0191 216.236 60.499 208.42Z" fill="white"/>
<path d="M203.101 236.342C191.134 240.664 178.835 236.01 169.528 229.029C165.871 226.703 162.547 223.046 157.893 223.378C156.203 223.223 154.498 223.45 152.907 224.043C162.151 228.326 170.586 234.174 177.838 241.329L173.184 245.317C166.351 237.142 157.997 230.369 148.586 225.373C146.808 225.872 145.124 226.658 143.6 227.7C135.863 232.479 129.005 238.55 123.323 245.65L118.669 241.661C125.825 234.305 134.277 228.333 143.6 224.043C134.625 221.052 128.642 228.697 121.993 232.354C117.904 235.404 113.123 237.396 108.077 238.15C103.031 238.904 97.8765 238.397 93.0738 236.675C87.6433 234.935 82.8077 231.711 79.1128 227.367C83.191 229.774 87.7582 231.233 92.4765 231.636C97.1947 232.038 101.943 231.375 106.37 229.694C118.004 224.708 129.971 218.06 143.932 221.384C146.259 221.384 148.254 223.378 150.248 221.716C160.659 219.208 171.624 220.505 181.162 225.373L190.47 229.029C194.805 230.678 199.464 231.296 204.079 230.834C208.695 230.373 213.139 228.844 217.062 226.37C213.406 230.906 208.578 234.355 203.101 236.342Z" fill="white"/>
<path d="M215.733 224.043C202.436 229.03 189.14 222.714 176.508 220.719H173.849C180.056 219.646 185.889 217.015 190.802 213.074C197.782 206.426 204.098 199.113 212.076 193.794C206.093 201.44 205.76 212.077 195.788 217.063C193.461 218.392 190.47 218.725 188.143 220.054C191.467 220.054 194.791 218.725 198.447 218.392C211.411 216.398 226.037 218.392 235.345 207.423C231.199 215.361 224.187 221.422 215.733 224.376" fill="white"/>
<path d="M239.666 186.481C234.68 190.138 229.362 193.129 224.375 197.118C232.021 184.154 228.032 166.537 233.018 152.576L234.68 147.589C233.683 156.564 237.672 163.877 237.34 172.852C237.043 177.989 235.316 182.94 232.353 187.146H233.018C236.376 181.947 240.039 176.953 243.988 172.188C250.968 165.539 257.949 158.559 258.946 149.584C261.273 164.875 252.63 178.171 239.666 186.814" fill="white"/>
<path d="M218.724 101.717C212.342 88.3315 202.312 77.0191 189.787 69.0806C177.262 61.1421 162.75 56.8999 147.921 56.8418C135.477 56.8326 123.196 59.6755 112.021 65.152C102.22 70.1764 93.5599 77.1679 86.5823 85.6898C79.6046 94.2117 74.459 104.081 71.4673 114.681C62.8246 148.254 74.4591 182.16 103.379 201.772C123.988 216.73 156.896 219.39 180.165 208.088C190.712 203.273 200.093 196.236 207.666 187.457C215.24 178.679 220.826 168.368 224.043 157.229C229.192 138.704 227.297 118.928 218.724 101.717ZM222.381 129.639C222.713 130.969 222.381 132.631 223.046 133.628H211.744L210.746 134.293V133.628C210.661 125.079 208.614 116.663 204.763 109.03C204.763 105.706 201.439 103.379 200.109 100.72C198.78 98.0605 196.785 95.7336 193.794 94.0716C190.802 92.4096 193.129 92.742 192.132 92.4096H193.794C196.6 89.8881 199.16 87.1055 201.439 84.0993C213.22 96.6721 220.472 112.814 222.048 129.972L222.381 129.639ZM190.137 172.52C189.14 171.523 189.14 169.528 187.478 169.861C185.816 170.193 186.481 170.193 186.481 170.526V171.523L182.824 168.199C184.486 167.534 185.816 165.207 187.146 163.545C190.205 158.935 192.558 153.893 194.126 148.587C194.362 148.775 194.655 148.878 194.957 148.878C195.259 148.878 195.552 148.775 195.788 148.587C195.947 148.527 196.088 148.428 196.198 148.299C196.308 148.17 196.384 148.014 196.417 147.848C196.45 147.682 196.44 147.509 196.388 147.348C196.337 147.186 196.244 147.041 196.12 146.925L194.791 145.262C194.791 142.936 195.456 140.609 195.456 138.282H207.422L206.758 138.947C206.394 152.973 200.825 166.362 191.134 176.509C191.467 175.179 190.137 173.85 190.47 172.52H190.137ZM181.162 183.822C179.168 181.827 182.492 180.498 183.157 178.503C183.821 176.509 180.83 175.844 179.168 175.179C177.506 174.514 178.503 173.85 178.503 173.185C179.237 172.555 179.807 171.757 180.165 170.858V171.855L185.151 176.841C185.028 177.37 185.093 177.925 185.336 178.411C185.579 178.897 185.984 179.282 186.481 179.501H187.81C185.726 181.762 183.383 183.77 180.83 185.484L180.165 186.149C179.832 185.484 181.495 185.152 180.83 184.154L181.162 183.822ZM158.891 122.991C158.605 123.193 158.277 123.328 157.932 123.385C157.586 123.443 157.232 123.422 156.896 123.324C156.231 122.659 155.234 121.661 154.237 121.661C153.24 121.661 152.907 122.991 151.91 122.326C150.913 121.661 155.899 120.664 156.896 118.337C157.276 117.382 157.5 116.372 157.561 115.346C157.417 115.048 157.166 114.815 156.859 114.692C156.551 114.569 156.209 114.565 155.899 114.681C155.234 116.011 153.24 116.343 152.575 117.673L149.583 116.675C149.653 114.012 149.542 111.346 149.251 108.698L153.905 109.695C157.919 110.727 161.737 112.412 165.206 114.681C164.209 115.013 163.544 116.011 162.88 116.675C162.215 117.34 163.545 117.008 163.877 117.673H164.542C163.212 120.664 159.223 119.999 158.891 123.324V122.991ZM162.215 155.9C162.215 157.562 160.22 157.562 159.223 158.559C158.226 159.556 158.891 157.562 159.223 157.229C160.042 156.462 161.096 155.993 162.215 155.9ZM184.486 118.337C185.816 118.67 186.481 119.999 187.81 120.332C188.871 122.203 189.655 124.219 190.137 126.315C189.14 127.645 188.808 130.304 186.481 129.639C184.154 128.974 187.478 127.645 187.146 126.648C186.813 125.65 188.475 125.983 188.475 125.318C188.475 124.653 186.813 124.653 186.481 123.324C186.148 121.994 185.483 122.659 184.819 122.326C184.154 121.994 181.827 125.65 181.495 122.659C181.735 122.464 181.899 122.191 181.96 121.888C182.021 121.584 181.974 121.269 181.827 120.997C180.497 120.332 180.497 118.67 178.835 118.005C177.173 117.34 175.179 117.008 173.517 117.34C171.855 117.673 170.857 116.343 169.86 117.673C168.863 119.002 169.195 119.335 169.195 120.332L167.866 119.335L179.168 107.7C181.302 109.729 183.097 112.085 184.486 114.681C184.819 116.011 181.827 117.673 184.486 118.67V118.337ZM191.467 139.612C190.802 141.606 190.802 143.933 190.137 146.26C190.152 146.44 190.131 146.621 190.074 146.793C190.016 146.964 189.925 147.122 189.805 147.257C189.307 145.798 188.38 144.523 187.146 143.6C185.816 142.936 186.481 140.941 185.484 140.276L184.154 138.947C186.518 139.68 189.01 139.906 191.467 139.612ZM174.846 106.038C172.852 108.365 170.193 110.692 168.531 113.019V112.354C163.34 108.302 157.126 105.77 150.581 105.041H149.583V94.0716L148.919 93.4067C153.305 93.94 157.64 94.8294 161.882 96.066C166.945 97.9361 171.662 100.632 175.844 104.044L176.841 104.709L174.846 106.038ZM164.209 164.542C167.486 164.854 170.718 165.523 173.849 166.537C174.262 166.618 174.688 166.6 175.092 166.484C175.497 166.369 175.868 166.159 176.176 165.872C175.843 164.542 177.506 164.21 177.506 162.88C177.506 161.55 177.506 160.221 178.503 159.224C178.683 157.816 178.327 156.392 177.506 155.235C176.841 154.57 175.844 155.567 175.179 155.567C174.514 155.567 174.514 158.226 172.852 157.894C172.792 158.053 172.693 158.194 172.564 158.304C172.435 158.414 172.28 158.489 172.113 158.523C171.947 158.556 171.775 158.546 171.613 158.494C171.452 158.443 171.306 158.35 171.19 158.226C171.102 158.226 171.017 158.191 170.955 158.129C170.893 158.067 170.857 157.982 170.857 157.894C171.855 157.229 174.182 157.562 174.182 155.567C174.182 153.573 176.508 155.235 177.173 154.238C177.801 153.399 178.357 152.51 178.835 151.578C178.956 151.443 179.047 151.285 179.104 151.114C179.161 150.942 179.183 150.761 179.168 150.581C179.5 150.913 179.5 151.911 180.165 152.243C180.83 152.575 181.494 151.578 181.827 150.913C182.159 150.249 182.159 150.249 182.492 150.581C182.824 150.913 184.819 150.581 185.816 150.913L189.14 150.249C187.901 154.675 185.874 158.841 183.157 162.548L180.165 166.204C179.832 165.207 179.832 163.877 179.168 163.213H178.835C178.171 164.542 176.841 165.539 176.841 167.201C176.841 168.864 173.517 167.201 172.187 168.199C170.858 169.196 169.528 166.869 168.198 166.537L163.544 165.207C163.544 165.031 163.615 164.862 163.739 164.737C163.864 164.612 164.033 164.542 164.209 164.542ZM156.896 62.8252C172.562 64.7265 187.165 71.736 198.447 82.7697H197.45C195.189 84.8539 193.181 87.1969 191.467 89.7503C191.467 89.0855 190.47 88.4206 190.137 87.7558C189.817 86.6215 189.269 85.5646 188.526 84.65C187.783 83.7354 186.861 82.9824 185.816 82.4373C184.154 82.1049 183.821 79.778 182.159 80.4428C180.497 81.1077 178.503 80.1104 176.841 81.1076C169.344 76.6884 160.924 74.0711 152.243 73.4622H150.913C151.245 73.1298 151.245 72.1326 151.245 71.8002C151.245 71.4678 150.581 70.803 149.916 71.1354C149.795 71.2703 149.704 71.4283 149.647 71.5997C149.59 71.7712 149.568 71.9525 149.583 72.1326C149.978 68.4783 149.867 64.7869 149.251 61.1631C151.859 61.8204 154.539 62.1553 157.229 62.1604L156.896 62.8252ZM153.905 78.116C160.578 78.8249 167.091 80.6215 173.184 83.4345C174.182 84.7641 175.843 85.429 176.176 87.091C176.508 88.753 179.168 89.7503 177.506 92.0771C175.844 94.404 177.838 93.4068 178.17 93.7392C178.503 94.0716 178.171 95.4012 178.835 96.066C179.5 96.7308 180.83 94.404 182.492 94.7364C183.223 95.4712 183.781 96.3595 184.126 97.337C184.471 98.3144 184.594 99.3564 184.486 100.387C184.647 101.03 184.979 101.617 185.448 102.085C185.916 102.553 186.503 102.886 187.146 103.047C189.472 102.382 188.143 105.041 189.805 105.706C191.467 106.371 192.464 108.365 194.458 108.033C196.176 109.531 197.736 111.202 199.112 113.019C198.78 113.351 199.112 113.684 199.445 113.684C199.777 113.684 201.107 113.351 201.771 113.019C204.791 119.487 206.487 126.495 206.758 133.628L207.422 134.293H195.788C195.456 131.966 195.788 129.639 194.458 127.977C194.997 126.604 195.224 125.128 195.123 123.656H194.126C192.796 124.986 192.796 126.648 192.132 127.977C191.63 128.82 191.312 129.758 191.197 130.732C191.083 131.706 191.175 132.692 191.467 133.628V134.293H187.478C188.475 133.628 186.481 132.631 187.81 131.301H189.805C190.47 129.972 191.799 128.974 191.799 126.98C192.362 126.579 192.769 125.996 192.951 125.33C193.132 124.663 193.078 123.954 192.796 123.324C191.799 120.997 194.458 119.002 192.464 116.675C190.47 114.348 192.464 115.346 191.467 115.346C190.47 115.346 190.137 115.346 190.137 114.681C190.137 114.016 191.467 113.351 191.467 112.686C191.467 112.022 190.137 112.354 189.472 112.354C188.807 112.354 191.134 110.36 189.472 109.695C187.81 109.03 187.81 110.692 186.813 110.36C186.573 110.165 186.408 109.892 186.348 109.588C186.287 109.285 186.334 108.97 186.481 108.698L184.154 105.706C183.821 105.373 183.157 106.038 183.157 105.373C183.157 104.709 180.497 101.717 180.165 99.3901C179.832 97.0632 180.165 97.0633 179.168 96.3985C178.17 95.7336 177.838 95.4012 176.841 95.7336L173.517 91.7447H172.52C172.852 92.7419 173.849 93.4068 173.849 94.7364H173.517C173.575 95.322 173.753 95.8893 174.039 96.4038C174.325 96.9182 174.713 97.3689 175.179 97.7281C168.921 93.1154 161.607 90.1441 153.905 89.0855C152.575 89.0855 150.913 88.4207 149.583 89.0855C148.254 89.7503 149.583 81.7725 149.583 78.116V77.4512C151.107 77.8339 152.667 78.0567 154.237 78.116H153.905ZM147.589 122.659H148.254C147.257 122.659 146.259 122.326 145.594 122.991C144.93 123.656 145.594 123.988 145.594 124.321C145.594 124.653 147.256 127.312 149.251 126.315C149.64 126.301 150.027 126.385 150.375 126.559C150.724 126.734 151.023 126.993 151.245 127.312C152.575 127.977 152.575 129.972 154.237 129.307C155.899 128.642 153.905 131.634 154.569 131.966C155.234 132.299 153.572 132.963 153.572 133.961C153.572 134.958 153.24 134.625 153.572 134.958C153.905 135.29 154.902 136.62 155.567 137.617C155.392 138.157 155.395 138.738 155.574 139.277C155.753 139.815 156.1 140.282 156.564 140.609C156.416 141.916 155.961 143.169 155.234 144.265C153.572 144.93 151.245 142.936 150.581 145.927C149.916 148.919 150.581 148.919 148.919 148.919C147.395 149.16 145.838 149.078 144.349 148.677C142.86 148.276 141.472 147.566 140.276 146.592C141.605 145.595 144.597 146.924 144.93 144.598C145.262 142.271 145.594 143.6 145.594 142.936C146.233 142.161 146.687 141.252 146.924 140.276C146.259 139.612 146.592 139.279 146.592 138.614C146.592 137.949 142.935 137.95 140.941 137.95C138.946 137.95 140.941 139.944 139.944 140.941C138.946 141.938 138.282 142.603 137.284 143.6C136.964 143.378 136.705 143.079 136.531 142.73C136.357 142.382 136.273 141.995 136.287 141.606C136.308 141.862 136.427 142.1 136.619 142.271C138.281 142.603 137.617 140.941 138.281 140.276C138.946 139.612 140.608 137.95 138.946 137.285C137.284 136.62 139.279 136.287 138.614 136.287C137.949 136.287 137.284 136.287 136.952 137.285C137.05 137.621 137.071 137.975 137.014 138.32C136.956 138.665 136.821 138.993 136.619 139.279H136.287C136.287 138.614 135.955 138.282 135.622 138.282C135.29 138.282 133.96 138.947 132.963 138.614L128.974 139.279C128.974 138.614 129.971 138.614 130.304 137.95C130.43 136.999 130.771 136.089 131.301 135.29H133.96V134.625C134.957 135.29 134.293 138.614 136.619 137.285C136.679 135.715 136.902 134.155 137.284 132.631C136.952 131.301 138.281 130.969 138.614 129.972C138.946 128.974 139.611 128.974 140.276 128.31C142.224 127.893 143.978 126.841 145.262 125.318C144.597 124.321 144.93 122.991 144.265 121.994C143.6 120.997 146.592 121.329 147.257 121.994L147.589 122.659ZM145.262 195.124L144.265 194.459C130.086 193.347 116.661 187.627 106.038 178.171C107.7 177.838 108.365 180.165 110.359 179.501C112.354 178.836 114.348 177.838 116.342 178.171C118.337 178.503 119.002 178.171 119.666 176.841C120.331 175.512 118.669 175.179 118.337 174.182C125.74 179.833 134.64 183.186 143.932 183.822H144.93V195.456L145.262 195.124ZM104.376 138.947L103.711 137.95C104.237 138.322 104.852 138.55 105.494 138.608C106.137 138.666 106.783 138.554 107.368 138.282C105.705 138.947 106.37 141.274 105.705 142.936C105.041 144.598 106.37 143.6 106.37 144.598C106.37 145.595 105.373 145.927 105.041 146.592C104.984 144.032 104.762 141.478 104.376 138.947ZM92.4091 152.576C91.4119 152.576 91.7443 153.905 91.0794 154.57C90.9865 151.755 90.5397 148.963 89.7497 146.26L88.7525 138.947V138.282C92.391 138.73 96.063 138.842 99.722 138.614H100.387C100.12 139.571 100.072 140.575 100.244 141.553C100.417 142.531 100.806 143.458 101.384 144.265C101.052 143.933 100.387 142.603 99.3896 142.603C98.3924 142.603 97.0628 145.262 95.0684 145.262C93.6524 146.68 92.8217 148.579 92.7415 150.581C93.4063 151.246 92.4091 151.911 92.7415 152.908L92.4091 152.576ZM100.719 134.625H89.0851C89.7331 122.872 93.5211 111.508 100.055 101.717L104.376 96.3985V95.7336C106.891 98.7472 109.672 101.528 112.686 104.044C104.991 112.023 100.495 122.552 100.055 133.628C100.039 133.808 100.061 133.99 100.118 134.161C100.175 134.333 100.267 134.491 100.387 134.625H100.719ZM145.262 88.753C143.151 88.6979 141.04 88.8091 138.946 89.0855C130.145 90.876 121.991 95.0104 115.345 101.052V100.387C112.848 97.7789 110.183 95.3361 107.368 93.0744L114.68 87.7558C123.698 81.5055 134.3 77.9332 145.262 77.4512C145.04 81.2209 145.151 85.0029 145.594 88.753H145.262ZM127.644 147.922C127.644 148.254 127.977 148.587 128.309 148.254C128.642 147.922 127.644 146.592 128.642 146.26C129.639 145.927 128.974 148.254 129.306 148.919C129.575 149.429 129.69 150.007 129.639 150.581C128.642 151.911 126.979 152.908 126.315 154.57C125.65 156.232 123.988 151.246 123.323 149.584C122.658 147.922 121.661 144.93 120.331 142.936C119.002 140.941 123.988 142.936 123.988 145.262H125.317C125.317 145.595 126.315 145.927 125.65 146.26C125.793 146.73 126.05 147.159 126.397 147.507C126.745 147.855 127.174 148.111 127.644 148.254V147.922ZM139.279 178.836L140.941 179.833C133.7 178.387 126.881 175.318 120.996 170.858C119.999 170.193 119.334 168.864 118.004 168.864L125.982 160.886C127.352 162.544 129.05 163.902 130.968 164.875C133.628 166.204 136.952 168.863 140.276 168.199C139.14 168.627 138.117 169.309 137.284 170.193C136.952 171.19 136.952 172.52 135.622 173.185C134.293 173.85 137.617 177.174 139.279 178.836ZM114.016 164.875V162.548C111.689 160.553 112.354 157.229 112.021 154.57C111.689 151.911 111.689 151.246 110.692 149.916C109.694 148.587 107.035 146.592 108.365 144.265C108.051 143.976 107.823 143.605 107.706 143.195C107.589 142.785 107.587 142.35 107.7 141.938C108.365 141.274 110.027 141.938 110.359 140.941V138.614C111.356 138.282 112.353 139.279 113.018 138.282C113.683 137.285 110.027 133.961 113.351 132.631C116.675 131.301 115.678 132.299 116.01 133.628C116.443 135.139 116.556 136.724 116.342 138.282C117.34 138.614 116.342 139.612 116.342 140.276C116.342 140.941 115.013 141.274 114.348 140.941C113.683 140.609 113.351 139.612 112.686 139.612C112.021 139.612 113.018 141.274 112.686 142.271C112.788 142.847 112.669 143.44 112.354 143.933H111.356C110.691 144.265 111.356 144.93 111.356 145.595C111.356 146.26 112.686 146.592 113.351 146.592H114.016C113.683 145.262 114.348 144.265 114.348 142.936L115.678 143.6C116.689 148.514 118.728 153.159 121.661 157.229L122.991 158.559C119.666 161.55 116.01 165.539 113.018 168.864C113.018 168.864 112.686 168.199 112.354 168.531C112.021 168.863 114.681 167.201 114.016 165.539V164.875ZM119.666 119.002C118.543 119.614 117.619 120.538 117.007 121.661C116.01 122.326 114.681 122.326 114.016 123.324C113.351 124.321 114.348 124.321 114.016 124.653C113.683 124.986 111.024 124.653 110.692 126.315C110.359 127.977 108.697 128.31 109.03 129.972C109.362 131.634 108.032 131.966 108.032 132.963C108.032 133.961 108.032 134.625 109.03 135.29C107.404 134.8 105.669 134.8 104.043 135.29C104.708 133.628 104.376 131.301 105.041 129.307C106.472 121.31 110.031 113.846 115.345 107.7C118.178 110.533 121.175 113.197 124.32 115.678C121.993 115.678 121.993 119.002 119.666 119.002ZM143.932 161.55C143.489 162.6 143.373 163.758 143.6 164.875C138.327 163.976 133.391 161.68 129.306 158.226C131.995 155.931 134.445 153.369 136.619 150.581C136.952 151.578 138.281 152.243 139.279 152.908C140.281 153.612 141.422 154.094 142.626 154.323C143.829 154.552 145.068 154.523 146.259 154.238C146.259 154.57 145.927 154.57 145.927 154.902C145.927 155.235 145.262 156.232 146.259 156.897C147.256 157.562 145.594 157.229 145.594 157.562C145.594 157.894 145.262 159.556 146.592 159.888C146.648 159.973 146.684 160.069 146.698 160.169C146.712 160.27 146.702 160.372 146.67 160.469C146.638 160.565 146.584 160.652 146.513 160.725C146.442 160.797 146.355 160.852 146.259 160.886C145.262 160.553 144.265 160.553 143.932 161.55ZM131.301 149.584C131.672 149.309 131.982 148.961 132.211 148.56C132.439 148.16 132.582 147.716 132.63 147.257L133.96 147.922C132.963 147.922 132.298 149.251 131.301 149.916V149.584ZM142.27 117.673C141.938 117.008 142.603 116.343 141.938 116.011C141.273 115.678 140.941 119.002 139.611 120.332C138.281 121.661 137.949 120.664 137.284 121.329C136.619 121.994 135.955 120.664 135.29 120.997C134.625 121.329 134.293 119.002 133.295 119.999C132.298 120.997 133.295 120.997 132.298 120.997L131.633 120.332C131.633 119.667 132.631 119.999 132.298 119.335C131.966 118.67 130.304 118.005 129.306 117.008H128.309C132.905 112.574 138.897 109.872 145.262 109.362C144.875 112.241 144.988 115.165 145.594 118.005C144.597 116.675 143.268 118.005 142.27 117.673ZM145.262 105.041C143.243 104.764 141.187 104.992 139.279 105.706C134.932 106.886 130.864 108.92 127.312 111.689L126.647 112.686C123.988 110.36 121.329 107.036 118.337 104.709C125.681 98.3204 134.891 94.4732 144.597 93.7392H145.262C144.929 97.6101 144.929 101.503 145.262 105.373V105.041ZM102.714 77.4512C114.948 68.262 129.649 62.9374 144.93 62.1604V73.7947C129.88 74.2438 115.539 80.2885 104.708 90.7475V91.4123C102.082 88.2877 99.1902 85.3961 96.0656 82.7697H95.7332C98.0601 81.4401 100.054 79.1132 102.714 77.4512ZM73.1293 126.98C75.2804 110.93 82.3662 95.9457 93.4063 84.0993V85.0965L101.384 93.0744C99.2741 94.7416 97.4739 96.7669 96.0656 99.0577C89.08 108.943 84.941 120.556 84.0989 132.631V134.293H72.1321C72.4645 131.966 72.1322 129.307 72.4646 126.98H73.1293ZM81.772 173.185C76.028 162.521 72.7347 150.711 72.1321 138.614H84.0989C83.7665 139.279 84.0989 139.944 84.0989 140.609H84.4313C84.0989 140.941 84.7636 140.941 84.7636 141.274C85.1033 145.31 85.7704 149.312 86.7582 153.24V153.905L85.0961 151.578C84.0989 151.911 83.1017 151.911 82.4369 152.576C81.7721 153.24 81.7719 153.24 81.4395 153.573L80.4423 152.908C79.7775 152.908 78.7804 152.908 78.448 153.905C78.1155 154.902 77.7831 154.57 77.7831 155.235C77.7831 155.9 76.7858 159.224 78.1154 160.886C78.1492 161.524 78.3144 162.149 78.6003 162.721C78.8863 163.293 79.2869 163.8 79.7775 164.21L80.7749 163.545C81.7721 164.542 82.1044 166.537 83.7664 166.204C85.4285 165.872 84.0989 165.207 84.4313 164.875C84.7637 164.542 85.4285 167.534 87.0905 167.534C88.7525 167.534 87.7554 168.531 88.4202 168.531C89.085 168.531 89.4174 170.525 90.4146 171.19C91.4118 171.855 92.0767 173.185 93.4063 172.52V171.855C94.0712 172.188 93.7388 172.852 94.0712 173.517C94.8744 174.656 96.0501 175.479 97.3953 175.844C98.3489 177.302 99.5937 178.547 101.052 179.501L100.055 180.165L92.0766 188.143C88.3445 183.484 84.9031 178.6 81.772 173.517V173.185ZM137.284 210.747C121.639 208.669 107.015 201.821 95.4007 191.135L103.379 182.825C114.212 193.325 128.526 199.477 143.6 200.11H144.93V212.409C142.405 211.913 139.851 211.58 137.284 211.412V210.747ZM146.924 166.869H144.597C144.265 166.869 144.265 166.537 144.265 166.204C144.265 165.872 145.927 164.875 146.924 165.207C147.921 165.539 147.921 163.212 148.919 162.88C149.916 162.548 149.916 162.548 149.916 162.215L151.578 161.55C152.243 162.88 153.905 162.215 154.569 163.545C155.234 164.875 155.234 163.213 155.234 163.213V162.548C156.231 162.548 156.896 164.21 158.226 163.213C158.39 163.03 158.48 162.793 158.48 162.548C158.48 162.302 158.39 162.066 158.226 161.883C158.182 161.883 158.139 161.874 158.099 161.858C158.058 161.841 158.022 161.816 157.991 161.786C157.96 161.755 157.936 161.718 157.919 161.678C157.902 161.637 157.893 161.594 157.893 161.55C158.891 161.218 159.223 162.88 160.553 162.215C161.883 161.551 161.882 160.553 163.212 160.553H163.544C163.413 161.628 163.008 162.651 162.368 163.524C161.728 164.398 160.874 165.091 159.888 165.539C158.891 165.872 156.564 165.872 156.896 167.534C157.229 169.196 154.237 166.869 152.575 167.534C150.913 168.199 152.575 165.872 151.578 165.872C150.581 165.872 147.921 164.875 146.924 166.869ZM149.583 186.814C151.245 187.478 153.572 186.149 154.237 187.811C154.902 189.473 153.24 189.473 153.572 190.802C153.905 192.132 154.902 194.127 156.896 194.127C158.891 194.127 157.893 194.791 158.558 195.124C155.322 195.381 152.104 195.825 148.919 196.453C149.252 193.249 149.252 190.018 148.919 186.814V185.816L149.916 186.814H149.583ZM150.248 212.077H149.251C149.583 207.984 149.583 203.87 149.251 199.777C151.343 200.107 153.474 200.107 155.567 199.777L161.55 198.78C164.542 199.113 166.536 204.099 169.86 201.107C173.184 198.115 173.184 199.777 173.849 198.115C174.514 196.453 176.176 195.124 177.506 194.127C178.835 193.129 183.157 189.805 185.816 187.146C187.745 185.659 189.526 183.989 191.134 182.16V182.825L199.445 190.802C186.134 203.528 168.646 210.972 150.248 211.744V212.077ZM222.381 139.612C221.716 157.386 214.766 174.348 202.769 187.478V188.143C200.142 185.019 197.251 182.127 194.126 179.501C195.788 178.171 197.118 176.176 198.78 174.514C206.167 164.313 210.439 152.19 211.079 139.612V138.282L211.744 138.947H223.71L222.381 139.612Z" fill="white"/>
<path d="M182.824 76.7863C182.492 77.4511 182.824 77.7835 182.824 78.1159C182.824 78.4483 184.819 81.1076 186.813 80.4428C188.808 79.778 186.481 79.1132 186.813 78.1159C186.591 77.7688 186.298 77.4714 185.955 77.2426C185.612 77.0138 185.225 76.8584 184.819 76.7863C184.154 77.4511 183.489 76.1215 182.824 76.7863Z" fill="white"/>
<path d="M151.245 70.1382C153.24 72.7975 156.896 71.4679 159.556 70.8031C160.41 71.208 161.38 71.2966 162.293 71.0531C163.206 70.8096 164.003 70.2498 164.542 69.4734C162.902 67.9866 160.772 67.1579 158.558 67.1465L152.907 69.8058C152.243 69.4734 151.578 69.141 151.245 69.8058C151.157 69.8058 151.073 69.8408 151.01 69.9032C150.948 69.9655 150.913 70.05 150.913 70.1382C150.913 70.2264 150.948 70.3109 151.01 70.3732C151.073 70.4356 151.157 70.4706 151.245 70.4706" fill="white"/>
</g>
<defs>
<clipPath id="clip0">
<rect width="295.511" height="599" fill="white"/>
</clipPath>
</defs>
</svg>
