<?xml version="1.0" encoding="UTF-8"?>
<svg width="295" height="599" viewBox="0 0 295 599" fill="none" xmlns="http://www.w3.org/2000/svg">
<g clip-path="url(#clip0)">
<path fill-rule="evenodd" clip-rule="evenodd" d="M0 447.211H143.063V303.933H0V447.211Z" fill="#006BB6"/>
<path fill-rule="evenodd" clip-rule="evenodd" d="M36.2085 327.34V383.729C36.2085 413.519 51.1182 424.513 70.6429 424.513C91.2326 424.513 106.852 412.455 106.852 383.374V327.34H94.4275V384.083C94.4275 405.008 85.1977 414.583 70.9979 414.583C58.2181 414.583 48.6333 405.362 48.6333 384.083V327.34H36.2085Z" fill="#FEFEFE"/>
<path fill-rule="evenodd" clip-rule="evenodd" d="M151.937 447.211H294.999V303.933H151.937V447.211Z" fill="#006BB6"/>
<path fill-rule="evenodd" clip-rule="evenodd" d="M199.151 423.449V382.665C199.151 366.706 199.151 355.357 198.441 343.299H198.796C203.411 353.584 209.801 364.578 216.546 375.217L247.075 423.804H259.5V327.694H247.785V367.77C247.785 382.665 248.14 394.014 249.205 406.781H248.85C244.591 396.851 238.911 386.921 231.811 375.572L201.281 327.34H187.792V422.74H199.151V423.449Z" fill="#FEFEFE"/>
<path fill-rule="evenodd" clip-rule="evenodd" d="M151.937 599H294.999V456.077H151.937V599Z" fill="#006BB6"/>
<path fill-rule="evenodd" clip-rule="evenodd" d="M247.786 486.577C242.106 481.612 233.231 478.774 220.806 478.774C210.866 478.774 203.056 479.484 197.021 480.902V575.239H209.446V536.937C212.286 537.646 215.836 537.646 219.386 537.646C231.456 537.646 242.106 534.099 248.496 527.007C253.466 522.041 255.95 515.303 255.95 506.437C256.305 498.28 253.111 491.187 247.786 486.577Z" fill="#FEFEFE"/>
<path fill-rule="evenodd" clip-rule="evenodd" d="M219.741 528.07C215.836 528.07 212.286 527.716 209.446 527.007V489.769C211.576 489.414 215.836 488.705 221.161 488.705C234.651 488.705 243.881 494.734 243.881 507.501C243.881 520.978 234.651 528.07 219.741 528.07Z" fill="#006BB6"/>
<path fill-rule="evenodd" clip-rule="evenodd" d="M-0.355469 599H143.062V456.077H-0.355469V599Z" fill="#006BB6"/>
<path fill-rule="evenodd" clip-rule="evenodd" d="M100.463 490.478C91.9431 482.676 79.5183 478.774 61.7686 478.774C51.8287 478.774 42.9539 479.484 35.499 480.902V574.529C41.8889 575.239 48.9888 575.593 58.2186 575.593C76.6783 575.593 91.5881 570.983 100.818 561.762C109.693 552.896 114.663 540.128 114.663 524.524C113.953 509.274 108.983 498.28 100.463 490.478Z" fill="#FEFEFE"/>
<path fill-rule="evenodd" clip-rule="evenodd" d="M60.3486 565.663C55.3787 565.663 51.1188 565.663 47.9238 564.954V489.414C51.1188 488.705 56.0887 487.995 62.4786 487.995C88.7481 487.995 101.528 502.181 101.173 524.879C100.818 551.123 86.6182 566.018 60.3486 565.663Z" fill="#006BB6"/>
<path fill-rule="evenodd" clip-rule="evenodd" d="M0 295.067H295.355V-0.354675H0V295.067Z" fill="#006BB6"/>
<path fill-rule="evenodd" clip-rule="evenodd" d="M253.466 153.562C249.206 159.237 244.236 164.911 240.331 170.94C240.686 166.33 241.396 160.301 239.621 156.045C236.426 146.47 233.586 136.539 232.876 125.9V121.999C235.361 132.638 246.011 140.086 245.301 152.499C245.656 155.336 244.591 157.818 244.236 160.655L244.591 161.01L244.946 160.301C246.366 154.272 247.431 148.243 249.916 142.568C253.466 134.766 257.726 126.609 255.951 117.034C260.566 127.673 259.146 142.923 253.466 153.562Z" fill="#FEFEFE"/>
<path fill-rule="evenodd" clip-rule="evenodd" d="M246.721 92.2084C253.82 101.784 255.24 116.679 250.27 127.318C248.496 131.929 247.076 136.894 246.366 141.859C246.011 141.15 246.011 139.731 245.656 138.667C242.816 128.028 232.876 120.58 228.616 110.65C227.196 107.458 226.131 103.912 225.421 100.365C229.681 108.522 240.686 112.778 243.526 121.644C244.591 123.772 244.591 126.609 245.301 129.092C245.301 129.092 245.656 129.092 245.656 128.737C244.236 119.516 244.591 109.941 246.011 100.72C246.011 95.7548 245.301 91.1444 242.816 87.2433C244.591 88.6619 245.656 90.7898 246.721 92.2084Z" fill="#FEFEFE"/>
<path fill-rule="evenodd" clip-rule="evenodd" d="M241.75 90.4351C243.525 98.592 241.04 106.749 242.46 115.26C237.845 106.394 228.26 102.138 221.87 95.0455C217.965 90.7898 216.545 85.8247 215.48 80.1503C219.385 89.3712 229.325 91.1444 235.36 98.9467C237.49 100.72 237.845 103.202 239.265 105.33L239.62 104.976C236.425 97.8827 235.005 89.7258 232.875 82.2782C231.81 79.0864 229.325 75.5399 226.13 73.7667C233.585 75.1853 240.33 83.3422 241.75 90.4351Z" fill="#FEFEFE"/>
<path fill-rule="evenodd" clip-rule="evenodd" d="M221.515 71.6388C227.195 76.9585 230.035 83.3422 231.455 90.4351L232.52 92.563C224 86.534 216.545 78.3771 211.22 69.8656L204.831 63.1273C210.155 65.6098 216.545 67.0284 221.515 71.6388Z" fill="#FEFEFE"/>
<path fill-rule="evenodd" clip-rule="evenodd" d="M111.823 65.2552C122.828 59.9355 134.542 57.0983 147.677 56.7437C177.497 56.7437 205.541 74.1214 218.676 101.784C226.841 117.388 229.326 139.377 224.001 157.109C218.676 178.033 200.926 199.312 180.337 208.178C156.907 219.172 123.893 216.335 102.948 201.44C74.1933 181.58 62.4785 147.888 70.9984 114.197C76.6783 94.3363 92.298 74.476 111.823 65.2552Z" fill="#FEFEFE"/>
<path fill-rule="evenodd" clip-rule="evenodd" d="M89.1031 64.1912C83.4232 69.1563 79.1633 75.5399 74.9033 81.569C70.9984 86.1794 66.0285 89.3712 61.7686 93.627C64.2535 88.6619 64.2535 82.9876 67.4485 78.3771C72.4184 70.2202 81.2932 67.3831 89.1031 64.1912Z" fill="#FEFEFE"/>
<path fill-rule="evenodd" clip-rule="evenodd" d="M57.509 81.9236C60.349 78.3771 63.8989 75.8946 67.8038 74.8306C59.994 80.1503 60.349 89.7258 58.219 97.8827C57.509 100.72 56.089 103.557 55.3791 106.394H55.734C57.154 102.848 59.284 99.656 62.1239 96.8188C67.8038 91.8537 75.9687 88.6619 78.4537 80.8596C78.4537 91.4991 69.5788 99.656 61.059 105.685C57.509 108.877 54.3141 112.069 52.1841 115.97C51.8291 113.487 52.5391 110.65 52.5391 107.813C51.4741 99.3013 50.7641 88.6619 57.509 81.9236Z" fill="#FEFEFE"/>
<path fill-rule="evenodd" clip-rule="evenodd" d="M41.5339 113.487C41.1789 104.266 45.0839 96.4642 50.7638 89.7259L51.1188 89.3712C45.0839 98.5921 50.0538 109.941 49.6988 120.226L48.9888 130.865C48.9888 130.865 48.9888 131.22 49.3438 131.22C49.6988 130.156 49.6988 128.737 50.0538 127.673C51.4738 119.162 58.9286 113.133 65.3185 107.104C66.7385 105.685 67.8035 103.912 68.5135 102.139C68.1585 106.394 66.7385 110.65 64.9635 114.551C59.9936 124.481 50.4088 132.284 48.9888 143.632C48.2788 132.993 40.8239 124.836 41.5339 113.487Z" fill="#FEFEFE"/>
<path fill-rule="evenodd" clip-rule="evenodd" d="M36.9188 126.609C37.6287 123.772 37.9837 120.58 39.4037 118.098C36.9188 130.51 45.0836 139.377 47.9236 150.016C48.9886 153.917 49.3435 158.173 51.1185 162.074C51.1185 162.074 51.4735 162.074 51.4735 161.719C47.5686 150.371 53.2485 139.731 59.2834 130.865C60.7034 128.382 61.4133 125.9 62.1233 123.063C62.8333 128.028 61.4133 134.057 60.7034 139.377C59.2834 146.115 57.1534 152.499 55.3784 159.237C54.3135 163.138 54.3135 168.103 55.0235 172.359L54.3135 172.004C50.0535 164.202 41.5337 157.818 39.0487 149.307C36.9188 142.214 35.4988 134.057 36.9188 126.609Z" fill="#FEFEFE"/>
<path fill-rule="evenodd" clip-rule="evenodd" d="M36.5641 150.725C37.6291 163.847 51.4739 170.586 57.8638 181.58C59.2837 183.708 60.7037 186.19 62.8337 187.963C62.4787 186.545 61.0587 185.481 60.7037 184.062C58.5738 179.452 57.5088 174.132 58.2188 168.812C58.9288 162.074 61.7687 156.045 60.7037 148.952C66.3836 161.365 64.6087 176.615 67.8036 190.091C68.5136 192.928 70.2886 195.766 71.3535 198.248C59.6387 190.091 43.664 182.644 38.3391 168.103C36.5641 162.429 36.2091 156.4 36.5641 150.725Z" fill="#FEFEFE"/>
<path fill-rule="evenodd" clip-rule="evenodd" d="M43.6636 180.516C50.0535 195.411 66.7382 196.475 77.743 205.696C79.873 207.469 82.0029 208.887 84.1329 209.951C81.6479 207.824 78.808 204.986 77.033 202.149C70.6431 193.283 72.7731 180.87 68.1582 170.94C72.4181 176.26 76.678 181.58 79.163 187.609C83.0679 197.184 84.4879 208.178 93.7177 215.626C83.7779 212.434 72.4181 213.143 63.5432 207.114C53.9584 201.085 45.4385 191.155 43.6636 180.516Z" fill="#FEFEFE"/>
<path fill-rule="evenodd" clip-rule="evenodd" d="M60.3486 208.178C70.6435 220.236 88.0382 215.98 101.883 219.172C104.013 219.527 105.788 220.236 107.918 219.882C106.143 218.818 104.013 218.818 102.238 218.108C91.2331 214.207 89.8131 202.504 83.7782 194.347C91.2331 199.312 97.623 206.05 104.723 212.789C109.693 217.044 115.728 219.172 122.118 220.591C120.698 221.3 118.568 220.946 116.793 221.3C105.433 224.137 92.6531 228.748 80.5833 224.492C72.7734 222.009 64.6086 215.98 60.3486 208.178Z" fill="#FEFEFE"/>
<path fill-rule="evenodd" clip-rule="evenodd" d="M202.701 235.841C190.986 240.096 178.561 235.486 169.332 228.748C165.782 226.265 162.232 223.073 157.617 223.428C155.842 223.428 154.067 223.428 152.647 223.783C161.522 228.038 170.042 233.713 177.496 241.16C176.076 242.579 174.656 243.998 172.882 245.416C165.427 237.614 157.262 229.812 148.387 225.556C146.612 225.911 144.837 226.975 143.417 227.684C135.962 232.294 128.507 238.323 123.182 245.771L118.567 241.16C126.022 233.358 134.542 227.684 143.772 223.428C134.897 220.591 128.862 228.038 122.117 231.94C114.307 237.614 102.593 240.096 93.0079 236.195C87.6829 234.067 82.713 231.23 79.1631 226.62C86.618 231.94 97.9778 232.294 106.498 229.102C118.212 224.137 129.927 217.754 143.772 220.945C145.902 220.945 148.032 223.073 150.162 221.3C160.457 218.463 172.172 220.591 181.046 225.201L190.276 228.748C198.796 231.94 209.801 230.876 217.256 225.911C213.351 230.521 208.026 234.067 202.701 235.841Z" fill="#FEFEFE"/>
<path fill-rule="evenodd" clip-rule="evenodd" d="M215.481 223.428C202.346 228.393 188.857 222.364 176.077 220.236L173.592 219.882C179.627 218.463 185.662 216.69 190.277 212.434C197.376 205.696 203.766 198.603 211.576 193.283C205.541 200.731 205.186 211.37 195.246 216.335C192.761 217.754 189.922 218.108 187.437 219.527C190.986 219.527 194.181 218.463 197.731 218.108C210.866 215.98 225.421 218.108 234.651 207.114C231.811 214.562 223.291 220.946 215.481 223.428Z" fill="#FEFEFE"/>
<path fill-rule="evenodd" clip-rule="evenodd" d="M222.936 209.951C216.191 211.725 209.091 212.434 202.346 214.562C213.351 204.986 212.996 190.091 220.451 179.097C222.936 175.905 224.711 172.713 227.551 169.522C222.936 178.742 225.066 190.446 219.741 199.312C217.611 202.858 214.771 206.05 211.576 208.887C212.641 208.887 213.706 207.824 214.416 207.469C222.936 198.957 233.941 196.829 243.171 189.736C246.72 186.899 250.27 182.998 251.69 178.742C249.915 192.928 236.071 206.05 222.936 209.951Z" fill="#FEFEFE"/>
<path fill-rule="evenodd" clip-rule="evenodd" d="M239.621 186.19C234.296 189.737 228.971 192.928 224.001 196.829V196.475C231.811 183.708 227.906 165.975 232.521 152.144L234.296 147.533C233.231 156.4 237.136 163.847 236.781 172.713C236.426 178.033 234.651 182.644 231.811 186.899H232.166C236.071 181.934 238.911 176.615 243.171 172.004C249.916 165.266 257.016 158.528 257.726 149.307C260.921 164.202 252.401 177.679 239.621 186.19Z" fill="#FEFEFE"/>
<path fill-rule="evenodd" clip-rule="evenodd" d="M180.337 185.126L181.047 184.417C183.532 182.644 186.017 180.87 188.147 178.388C187.792 178.388 187.082 178.742 186.372 178.388C185.307 178.033 184.952 176.969 184.952 175.905L179.982 170.94V170.231C179.627 171.295 178.917 171.649 178.207 172.359C178.207 173.068 177.852 173.777 178.917 174.487C180.337 174.841 182.467 175.905 182.822 178.033C182.112 179.806 178.917 181.225 181.047 183.353C181.757 184.062 179.982 184.417 180.337 185.126Z" fill="#006BB6"/>
<path fill-rule="evenodd" clip-rule="evenodd" d="M152.293 121.289C153.358 121.644 153.713 120.935 154.423 120.58C155.488 120.58 156.198 121.644 156.908 122.353C157.618 122.708 158.327 122.353 159.037 121.999C159.392 118.807 163.652 119.162 164.717 115.97L164.007 116.324C163.652 115.97 162.942 115.97 162.942 115.26C163.652 114.551 164.362 113.487 165.427 113.487C161.877 111.359 158.327 109.231 154.068 108.522C152.648 108.167 150.873 108.167 149.453 107.458C150.163 109.586 149.453 113.133 150.163 115.615L153.003 116.679C153.713 115.26 155.488 114.906 156.553 113.842C156.908 113.487 157.618 113.842 157.972 114.197C157.972 115.26 157.973 116.324 157.618 117.388C156.198 119.516 153.713 119.871 152.293 121.289Z" fill="#006BB6"/>
<path fill-rule="evenodd" clip-rule="evenodd" d="M194.182 147.888C192.407 153.208 190.632 158.173 187.437 162.783C186.017 164.557 184.952 166.684 183.177 167.748L186.727 170.94C187.082 170.586 186.727 170.586 186.727 170.231C186.727 169.876 187.082 169.167 187.437 169.167C189.212 169.167 189.212 170.94 190.277 172.004C189.922 173.423 191.342 174.841 190.987 175.905C200.926 165.266 205.896 152.499 206.961 138.313L207.316 137.603C203.766 137.958 199.861 137.603 196.312 137.603L195.602 137.249C195.957 139.731 195.247 141.859 194.892 144.342L196.312 145.76C196.667 146.469 196.667 147.179 195.957 147.533C195.247 148.243 194.537 148.243 194.182 147.888Z" fill="#006BB6"/>
<path fill-rule="evenodd" clip-rule="evenodd" d="M184.596 113.133C183.176 110.65 181.046 108.522 179.271 106.04V106.394C175.721 110.295 171.817 114.197 168.267 117.743C168.622 118.098 168.977 118.807 169.332 118.807C169.332 117.743 170.042 117.034 170.042 115.97C171.107 114.551 172.527 115.615 173.592 115.615C175.366 115.26 177.141 115.97 179.271 115.97C180.691 116.679 180.691 118.452 182.111 119.162C182.466 119.516 182.111 120.226 181.756 120.58C182.111 123.417 183.531 119.871 184.951 120.58C185.661 120.935 186.371 120.58 186.726 121.289C187.081 122.353 188.501 122.353 188.501 123.417C188.501 124.127 187.791 124.127 187.436 124.481C187.791 125.545 186.371 126.255 186.726 127.673C188.856 128.028 189.211 125.545 190.276 124.127C189.566 121.999 189.211 119.871 188.146 118.098C186.726 117.743 186.016 116.324 184.596 115.97C182.111 115.97 184.951 114.551 184.596 113.133Z" fill="#006BB6"/>
<path fill-rule="evenodd" clip-rule="evenodd" d="M149.452 195.056C152.292 193.992 155.842 194.347 159.037 193.638C158.327 193.283 157.617 193.283 157.262 192.574C155.487 192.574 154.422 190.446 154.067 189.027C153.712 187.963 154.422 187.254 154.777 186.19C154.067 184.417 151.582 185.835 150.162 185.126C149.807 184.771 149.452 184.417 149.097 184.417L149.807 185.126C149.452 188.673 149.807 191.864 149.452 195.056Z" fill="#006BB6"/>
<path fill-rule="evenodd" clip-rule="evenodd" d="M151.937 164.557C153.002 164.911 152.292 165.975 153.002 166.33C154.777 165.975 155.842 167.748 157.262 166.684C157.262 164.911 159.392 164.911 160.457 164.557C162.232 163.493 164.362 162.074 164.007 159.591L163.652 159.237C162.587 159.237 161.877 160.301 160.812 161.01C159.747 161.719 159.037 159.946 158.327 160.301C158.327 160.655 158.682 160.655 158.682 160.655C159.037 161.01 159.037 161.365 158.682 161.719C157.262 162.783 156.552 161.01 155.487 161.365V161.719C155.487 162.074 155.487 162.429 155.132 162.429C154.422 161.01 152.647 161.719 151.937 160.301C151.582 159.946 150.872 160.301 150.517 160.655C150.162 161.365 149.097 160.655 149.452 161.719C148.387 162.074 148.387 163.138 147.677 163.847C146.612 163.493 145.902 164.911 144.837 164.911C144.837 165.266 144.837 165.62 145.192 165.62C145.902 165.975 146.612 165.975 147.322 165.975C148.387 163.493 150.517 165.266 151.937 164.557Z" fill="#006BB6"/>
<path fill-rule="evenodd" clip-rule="evenodd" d="M163.652 149.307C163.652 150.016 163.652 150.725 164.362 151.08C165.782 150.725 165.072 152.853 166.492 152.853C167.202 152.499 166.492 151.789 166.847 151.435C166.492 150.371 165.427 150.016 164.717 149.307C164.717 148.952 164.717 148.952 165.072 148.597C164.362 148.243 164.007 148.597 163.652 149.307Z" fill="#006BB6"/>
<path fill-rule="evenodd" clip-rule="evenodd" d="M161.877 94.6909C157.972 93.2724 153.357 92.5631 149.097 91.8538L149.452 92.5631V103.202L150.517 102.848C156.907 103.912 162.942 105.685 168.267 109.941L168.622 110.65C170.397 108.168 172.882 106.04 175.012 103.557L177.142 102.493L176.077 102.139C171.817 99.3014 167.202 96.8188 161.877 94.6909Z" fill="#006BB6"/>
<path fill-rule="evenodd" clip-rule="evenodd" d="M88.7476 138.667L89.4576 145.76C89.8126 148.597 90.8776 151.08 90.8776 153.917C91.2325 153.208 90.8776 152.144 91.9425 152.144C91.5875 151.435 92.6525 150.371 91.9425 149.661C92.2975 147.888 92.6525 145.76 94.0725 144.342C96.2025 144.342 96.2025 141.504 98.3324 141.504C99.3974 141.504 100.107 142.923 100.462 143.278C99.0424 141.859 99.3974 139.377 99.7524 137.603L99.0424 138.313C95.4925 138.313 91.5875 138.667 88.0376 137.958L88.7476 138.667Z" fill="#006BB6"/>
<path fill-rule="evenodd" clip-rule="evenodd" d="M159.392 157.109C160.457 156.045 162.232 156.045 162.587 154.626C161.167 154.272 160.457 155.336 159.392 156.045C159.037 156.4 158.682 157.109 159.392 157.109Z" fill="#006BB6"/>
<path fill-rule="evenodd" clip-rule="evenodd" d="M184.241 137.249L185.306 138.313C186.371 139.022 185.661 140.795 187.081 141.504C188.501 142.214 189.211 143.987 189.921 145.406C190.276 145.051 190.276 144.696 190.276 144.342C190.631 142.214 190.631 139.731 191.341 137.603C189.211 137.958 186.371 138.313 184.241 137.249Z" fill="#006BB6"/>
<path fill-rule="evenodd" clip-rule="evenodd" d="M168.622 164.911C170.042 165.266 170.752 167.039 172.527 166.33C173.947 165.62 176.432 166.684 177.142 165.266C177.142 163.847 178.207 162.783 178.917 161.365H179.272C179.982 162.074 179.982 163.493 180.337 164.202C181.402 163.138 182.467 161.719 183.177 160.655C185.662 156.754 188.146 152.853 188.856 148.597C187.791 148.597 186.726 148.952 185.662 149.307C184.597 149.307 183.177 150.016 182.112 148.952C181.757 148.597 181.402 148.952 181.402 149.307C181.047 150.016 180.692 150.725 179.627 150.371C178.917 150.016 178.917 149.307 178.562 148.597C178.562 148.952 178.562 149.307 178.207 149.661C177.497 150.371 177.142 151.435 176.432 152.144C175.722 153.208 174.302 152.853 173.237 153.562C173.237 155.336 171.107 154.981 169.687 155.69C169.687 156.045 170.042 156.045 170.042 156.045C170.752 156.045 171.462 156.045 171.817 155.69C173.592 156.045 173.237 153.917 173.947 153.208C174.657 153.208 175.722 152.498 176.432 152.853C177.142 153.917 177.497 155.336 177.497 156.754C176.432 157.818 177.142 159.237 176.432 160.301C176.432 161.719 175.012 162.074 175.367 163.493C175.012 164.202 173.947 164.202 173.237 164.202C170.042 163.138 166.847 162.429 163.297 162.074C162.942 162.074 162.942 162.429 162.942 162.783C165.072 164.202 166.847 164.202 168.622 164.911Z" fill="#006BB6"/>
<path fill-rule="evenodd" clip-rule="evenodd" d="M144.837 199.312L145.192 198.603L144.127 198.957C128.863 197.893 115.018 192.574 104.013 181.58V181.934L95.8481 190.446C108.273 201.085 122.118 207.824 137.737 209.951C140.222 210.306 143.062 210.306 145.547 211.015L144.837 209.951V199.312Z" fill="#006BB6"/>
<path fill-rule="evenodd" clip-rule="evenodd" d="M129.217 157.109C133.477 160.655 138.092 162.783 143.417 163.493C143.772 162.429 143.417 161.01 143.772 160.301C144.127 159.591 145.192 159.591 145.902 159.591C146.257 159.591 146.612 158.882 146.257 158.527C145.192 158.173 145.547 157.109 145.192 156.4C145.192 156.045 145.902 156.045 145.902 155.69C145.192 154.981 146.257 154.272 145.547 153.562C145.902 153.562 145.902 153.208 145.902 153.208C143.417 154.272 140.932 152.853 138.802 151.789C137.737 151.08 136.317 150.725 135.962 149.307C134.542 151.789 131.347 154.626 129.217 157.109Z" fill="#006BB6"/>
<path fill-rule="evenodd" clip-rule="evenodd" d="M124.957 144.696C124.602 144.342 124.602 144.696 124.247 145.051C123.892 145.051 123.892 145.051 123.537 145.051C123.537 142.923 121.052 143.987 119.987 142.923C121.052 145.051 121.762 147.179 122.827 149.307C123.537 151.08 124.957 152.498 125.667 154.272C126.377 152.853 127.797 151.789 128.862 150.371C128.862 149.661 128.862 149.307 128.507 148.952C128.152 148.243 128.507 146.824 127.797 146.115C126.732 146.469 128.152 147.533 127.797 148.243C127.442 148.597 126.732 148.243 126.732 147.888C125.667 147.888 124.957 146.824 124.957 146.115C126.022 145.406 125.312 145.051 124.957 144.696Z" fill="#006BB6"/>
<path fill-rule="evenodd" clip-rule="evenodd" d="M132.767 145.76C132.412 146.824 131.702 147.533 130.992 148.243C132.057 147.533 132.767 146.469 133.832 146.115L132.767 145.76Z" fill="#006BB6"/>
<path fill-rule="evenodd" clip-rule="evenodd" d="M144.127 184.062C134.542 183.708 126.022 180.161 118.567 174.487C118.922 175.551 119.987 175.905 119.632 177.324C118.922 178.388 117.502 178.388 116.437 178.388C114.307 178.033 112.532 179.806 110.403 179.806C108.628 180.516 107.918 178.033 106.143 178.388C117.147 187.963 129.572 193.992 144.127 194.702L145.192 195.411L144.837 193.992V183.708L144.127 184.062Z" fill="#006BB6"/>
<path fill-rule="evenodd" clip-rule="evenodd" d="M101.528 179.097C100.108 178.033 99.043 176.615 97.978 175.196C96.5581 174.841 95.4931 173.777 94.7831 172.713C94.4281 172.359 94.7831 171.649 94.4281 171.295L94.0731 172.004C92.6531 172.713 92.2981 171.295 91.2331 170.586C90.1682 169.876 90.5232 167.748 89.1032 168.103C88.3932 168.103 88.3932 167.394 88.0382 167.039C86.6182 167.039 86.2632 165.62 85.1982 164.557C85.1982 164.911 85.1982 165.266 84.8432 165.62C83.4233 165.975 82.7133 164.202 81.6483 163.138C81.2933 163.138 81.2933 163.493 80.9383 163.493C79.8733 162.783 79.5183 161.365 79.1633 160.301C77.7434 158.882 78.4534 156.4 78.8084 154.626C79.1633 154.272 79.8733 153.917 79.5183 153.208C79.8733 152.498 80.5833 152.144 81.6483 152.144C82.0033 152.144 82.3583 152.498 82.3583 152.853C82.7133 152.498 84.1333 152.853 83.4233 151.789C84.1333 151.08 85.1982 151.08 85.9082 150.725C86.6182 151.435 86.9732 152.498 87.6832 153.208L86.6182 152.498C85.5532 148.597 84.8432 144.696 84.8432 140.44C84.8432 140.086 84.4883 140.086 84.4883 139.731C84.4883 139.022 84.4883 137.958 84.4883 137.603L83.4233 138.313H72.4185C73.1284 150.725 76.3234 162.429 82.0033 172.713C84.8433 178.033 88.7482 182.644 92.2981 187.254L100.108 179.097H101.528Z" fill="#006BB6"/>
<path fill-rule="evenodd" clip-rule="evenodd" d="M113.953 87.2433C111.468 89.0166 109.338 91.1445 106.853 92.5631C109.693 94.3363 112.178 97.5281 114.663 100.011L115.018 100.72C121.763 94.3363 129.928 90.4352 138.802 88.6619C140.932 88.3073 143.062 87.598 144.837 88.3073C144.837 84.4062 144.482 80.505 144.837 76.9586C133.478 77.6679 123.183 81.2143 113.953 87.2433Z" fill="#006BB6"/>
<path fill-rule="evenodd" clip-rule="evenodd" d="M104.722 128.382C104.367 130.156 104.367 132.284 103.657 134.411C105.077 133.702 107.207 134.057 108.627 134.057C107.917 133.702 108.627 132.284 107.917 131.929C107.917 130.865 107.562 129.801 108.627 129.092C108.627 127.319 110.402 126.609 110.402 125.191C110.757 123.417 112.887 124.481 113.597 123.772C114.307 123.417 113.597 123.063 113.597 122.353C114.307 121.289 115.727 121.289 116.437 120.58C117.147 119.516 117.857 118.452 118.922 117.743C121.407 117.743 121.407 114.551 123.537 114.551C120.342 112.069 117.502 109.231 114.662 106.394C110.047 112.778 106.142 120.226 104.722 128.382Z" fill="#006BB6"/>
<path fill-rule="evenodd" clip-rule="evenodd" d="M106.142 144.342C106.142 143.632 105.077 143.278 105.432 142.568C106.142 141.15 105.432 138.667 107.562 137.958C106.142 138.313 105.077 138.313 103.657 137.603L104.367 138.667C104.367 141.15 105.432 143.632 105.077 146.469C105.077 145.76 105.432 144.696 106.142 144.342Z" fill="#006BB6"/>
<path fill-rule="evenodd" clip-rule="evenodd" d="M117.147 172.713L116.792 172.359L117.147 172.713Z" fill="#006BB6"/>
<path fill-rule="evenodd" clip-rule="evenodd" d="M104.013 95.7548L99.7529 101.075C92.653 110.65 89.458 121.644 88.3931 133.702L99.0429 133.347L100.108 133.702C99.7529 133.347 99.7529 132.993 99.7529 132.638C100.463 121.289 104.723 111.359 112.178 103.202C109.338 100.72 106.498 97.8827 104.013 95.0455V95.7548Z" fill="#006BB6"/>
<path fill-rule="evenodd" clip-rule="evenodd" d="M137.382 169.522C138.092 168.458 139.157 168.103 140.222 167.748C136.672 168.458 133.477 165.975 130.637 164.557C128.862 163.138 126.732 162.429 125.667 160.301C123.182 163.138 120.697 165.975 117.857 168.458C118.922 168.458 119.632 169.876 120.697 170.586C126.732 175.551 133.832 178.033 140.932 179.452L139.157 178.742C137.737 176.969 135.607 175.196 135.607 173.068C137.027 172.004 136.672 170.586 137.382 169.522Z" fill="#006BB6"/>
<path fill-rule="evenodd" clip-rule="evenodd" d="M110.404 138.313L110.049 140.086C109.694 141.15 107.919 140.44 107.209 141.15C106.854 141.859 107.209 142.923 107.564 143.278C106.499 145.76 110.049 146.469 110.049 148.952C111.113 150.371 110.049 152.498 111.468 153.562C111.823 156.045 111.113 159.591 113.243 161.719L113.598 164.202C113.953 165.975 111.468 165.62 111.823 167.039C112.178 166.684 112.533 167.394 112.533 167.748C115.728 164.202 118.923 160.655 122.473 157.464L121.053 156.045C118.213 151.789 116.083 147.533 115.018 142.568L114.308 141.859C114.308 143.278 113.598 143.987 113.598 145.406L113.243 145.76C112.533 145.76 111.823 145.051 111.113 144.696C111.113 144.342 110.404 143.632 111.113 143.278C111.468 143.278 111.823 143.278 112.178 143.632C112.533 143.278 112.533 142.568 112.533 142.214C112.533 141.15 111.823 140.44 112.533 139.731C113.243 139.731 113.953 140.44 114.308 141.15C115.018 141.504 115.728 140.795 116.438 140.44C116.438 139.731 117.503 139.022 116.438 138.313C117.148 136.894 116.438 135.121 116.438 133.702C116.083 132.284 114.663 132.638 113.598 132.638C110.404 133.702 113.953 136.185 113.243 137.958C112.178 138.667 111.113 137.603 110.404 138.313Z" fill="#006BB6"/>
<path fill-rule="evenodd" clip-rule="evenodd" d="M211.221 137.958L210.511 137.603L210.866 138.667C210.156 151.789 205.896 163.493 198.442 173.777C197.022 175.551 195.602 177.678 193.827 178.742C196.667 181.225 200.217 184.771 202.702 187.254L203.057 186.545C215.126 172.713 221.871 156.754 222.581 138.667L222.936 137.603L222.226 137.958H211.221Z" fill="#006BB6"/>
<path fill-rule="evenodd" clip-rule="evenodd" d="M104.368 89.7258L104.723 89.0166C116.082 78.7318 129.572 72.7028 144.837 71.9935L144.482 70.9295V61.354L144.837 60.2901C128.862 60.9994 115.017 66.3191 102.593 75.1853C100.108 76.9585 97.9776 79.4411 95.4927 80.8597H95.8477C99.0426 83.6968 101.883 86.8887 104.368 89.7258Z" fill="#006BB6"/>
<path fill-rule="evenodd" clip-rule="evenodd" d="M144.482 92.5631C134.542 93.2724 125.667 97.5281 118.212 103.557C121.052 105.685 123.892 108.877 126.732 111.359C127.087 111.005 127.087 110.65 127.442 110.65C131.347 107.813 134.897 105.685 139.512 104.266C141.642 103.912 143.417 103.202 145.547 103.557C145.192 100.011 145.192 95.7549 145.547 91.8538L144.482 92.5631Z" fill="#006BB6"/>
<path fill-rule="evenodd" clip-rule="evenodd" d="M144.838 108.168C138.448 108.877 132.768 111.005 128.153 115.97H128.863C129.928 117.034 131.348 116.679 132.058 118.098C132.413 118.807 131.348 118.807 131.348 119.162C131.703 119.162 131.703 119.516 132.058 119.516C132.768 119.871 132.768 119.162 132.768 118.807C133.833 117.743 133.833 119.871 134.898 119.871C135.608 119.516 136.673 119.516 137.028 120.226C137.738 119.516 139.158 120.226 139.158 119.162C140.223 117.743 139.868 115.97 141.643 114.906C142.353 115.26 141.643 115.97 141.998 116.324C143.063 116.679 144.483 115.26 145.548 116.679C144.838 114.197 144.838 111.005 144.838 108.168Z" fill="#006BB6"/>
<path fill-rule="evenodd" clip-rule="evenodd" d="M145.547 125.545C144.482 127.673 142.352 128.028 140.577 128.382C140.222 129.092 140.222 130.51 138.802 130.156C138.447 130.865 137.027 131.574 137.737 132.638C137.027 134.057 137.382 135.83 137.027 137.249C134.542 138.667 135.252 135.475 134.187 134.766L133.832 135.475C133.477 135.475 133.122 135.475 132.767 135.121C132.412 135.121 131.702 134.766 131.347 135.121C130.992 135.83 129.927 136.539 130.282 137.958C129.927 138.667 128.862 138.313 128.862 139.022C130.282 139.022 131.702 138.667 132.767 138.313C133.832 138.667 134.542 137.958 135.252 137.958C135.607 137.958 135.962 138.313 135.962 139.022H136.317C137.027 138.667 137.382 137.958 137.027 137.249C137.027 136.539 138.092 136.539 138.447 136.185C138.802 136.539 138.802 136.894 138.802 137.249C140.577 137.958 138.447 139.377 138.092 140.086C137.737 140.795 138.092 142.568 136.672 142.214C136.317 142.214 136.317 141.859 136.317 141.504H135.962C135.962 142.214 136.317 142.923 137.027 143.278C138.092 142.214 138.092 140.795 139.867 140.795C140.577 140.086 139.512 138.667 140.577 137.958C142.707 137.958 144.837 136.894 146.257 138.667C146.257 139.377 145.902 139.731 146.612 140.44C146.257 141.504 145.902 142.214 145.192 142.923C145.547 143.278 145.192 143.987 144.837 144.342C144.127 146.824 141.642 145.76 139.867 146.469C142.352 148.243 145.192 148.952 148.386 148.952C150.161 148.952 149.451 146.824 150.161 145.76C150.871 142.923 153.356 145.051 154.776 143.987C155.486 142.923 155.841 141.504 156.196 140.44C155.131 139.731 154.776 138.667 155.131 137.603C154.421 136.539 154.421 135.121 153.001 134.766C152.646 134.411 153.001 134.057 153.001 133.702C153.001 132.993 153.711 132.638 154.066 131.929C153.001 131.22 153.356 130.156 153.356 129.446C151.936 129.801 151.581 128.028 150.516 127.318C150.161 126.255 149.096 126.255 148.386 126.255C146.612 127.318 146.257 124.836 144.837 124.127C144.837 123.772 144.482 123.063 144.837 122.708C145.547 121.999 146.612 122.708 147.322 122.708L146.612 122.353C145.902 121.644 144.482 121.999 143.772 122.353C145.192 123.417 144.837 124.836 145.547 125.545Z" fill="#006BB6"/>
<path fill-rule="evenodd" clip-rule="evenodd" d="M84.8432 134.057L84.4883 132.638C85.1982 120.226 89.1032 108.877 96.2031 98.9467C97.978 96.8188 99.398 94.3363 101.528 92.9177C99.043 90.4352 96.2031 87.598 93.7181 85.1155L93.3631 84.0515C82.0033 96.4642 75.2584 110.65 73.1284 126.964C72.7735 129.446 73.1284 131.929 72.4185 134.057C76.3234 133.702 80.5833 133.702 84.8432 134.057Z" fill="#006BB6"/>
<path fill-rule="evenodd" clip-rule="evenodd" d="M191.341 180.87C190.276 182.998 187.791 184.417 186.016 186.19C183.531 188.673 179.271 189.382 177.851 192.928C176.431 194.347 176.076 196.12 173.946 196.83C173.236 198.603 171.106 198.603 170.041 200.021C166.846 202.859 164.716 198.248 161.521 197.539L155.842 198.603C153.712 198.603 151.582 199.312 149.807 198.603C150.162 202.504 150.162 207.114 149.807 211.015L150.517 210.661C169.331 209.951 186.016 202.504 199.861 189.737L191.696 181.934L191.341 180.87Z" fill="#006BB6"/>
<path fill-rule="evenodd" clip-rule="evenodd" d="M149.452 71.2842C149.452 70.9295 149.452 70.5749 149.807 70.2202C150.517 69.8656 150.872 70.2202 150.872 70.9295C150.872 71.6388 151.227 72.3481 150.517 72.7027C150.872 72.7027 151.227 72.3481 151.582 72.3481C160.457 73.0574 168.977 75.5399 176.432 79.7957V79.441C177.852 78.7318 179.982 77.6678 181.402 79.0864C183.177 78.3771 183.532 80.8596 185.307 80.8596C187.082 81.9236 189.211 84.0515 189.566 86.1794C189.921 86.8886 190.986 87.2433 191.341 88.3072C192.761 85.4701 195.246 83.6968 197.376 81.5689L198.796 80.8596C187.082 69.5109 172.882 63.1273 156.907 60.9994C154.422 60.6447 151.582 60.6447 149.097 59.9354C149.807 63.4819 149.452 67.7377 149.452 71.2842Z" fill="#006BB6"/>
<path fill-rule="evenodd" clip-rule="evenodd" d="M149.453 88.3073C150.873 87.9526 152.648 88.3073 154.068 88.3073C161.877 89.7259 168.977 92.2084 175.367 96.8188C174.657 96.1095 173.592 95.0456 173.592 93.9817C173.592 93.9817 173.947 93.627 173.947 93.9817C173.947 92.9177 172.882 92.2084 172.527 91.1445C172.882 90.7898 172.882 90.7898 173.237 90.7898C174.657 92.2084 175.722 93.2724 176.787 94.691C177.497 94.3363 178.207 95.0456 178.917 95.4002C179.982 96.1095 179.272 97.5281 180.337 98.2374C180.337 100.72 183.177 101.784 183.177 104.266C183.177 104.976 183.887 104.266 184.242 104.621L186.727 107.458C186.372 108.168 186.727 108.522 187.082 109.232C188.147 109.586 188.857 108.522 189.922 108.522C191.342 109.232 189.567 110.295 189.922 111.359C190.632 111.359 191.342 111.005 191.697 111.359C192.052 112.069 190.987 112.778 190.632 113.487C190.632 114.197 191.342 114.197 192.052 114.197C192.762 114.197 193.117 114.906 193.117 115.615C195.247 117.743 192.407 119.871 193.472 121.999C194.182 123.417 193.472 124.836 192.407 125.9C192.407 127.673 190.987 128.737 190.277 130.156L188.147 130.51C187.082 131.574 189.212 132.993 188.147 133.702H192.407L192.052 133.348C191.342 131.574 191.697 129.446 192.762 127.673C193.472 126.255 193.472 124.481 194.892 123.417C195.247 123.417 195.602 122.708 195.957 123.417C195.957 124.836 195.957 126.255 195.247 127.319C196.667 129.092 196.312 131.574 196.312 133.702C200.217 133.348 204.122 133.348 208.027 133.348L207.672 132.638C206.962 125.545 205.542 118.452 202.702 112.423C201.992 112.423 201.282 113.133 200.217 112.778C199.862 112.778 199.862 112.423 199.862 112.069C198.442 110.65 197.377 108.522 195.602 107.104C193.472 107.458 192.762 104.976 190.987 104.621C189.212 103.912 190.632 101.429 188.147 102.139C187.082 101.784 186.017 100.72 185.662 99.656C185.662 97.5281 185.307 95.4002 183.532 93.9817C182.112 93.627 181.402 95.4002 179.982 95.0456C179.272 94.6909 179.627 93.627 179.272 92.9177C178.917 92.2084 178.207 91.8538 178.562 91.1445C180.337 88.6619 176.432 88.6619 177.142 86.1794C176.787 84.4062 175.012 83.6969 174.302 82.2783C168.267 79.4411 162.232 77.6679 155.133 76.9586C153.358 76.6039 151.938 76.9586 150.518 76.2493L150.873 76.9586C149.453 80.8597 149.808 84.7608 149.453 88.3073Z" fill="#006BB6"/>
<path fill-rule="evenodd" clip-rule="evenodd" d="M192.406 92.2084C193.116 92.5631 193.471 93.2724 194.181 93.9817C197.021 95.4002 197.731 98.5921 200.216 100.365C201.636 103.202 204.831 105.685 205.186 108.877C208.735 116.324 210.865 124.481 211.22 133.348L210.865 133.702C211.22 133.702 211.575 133.702 211.93 133.348L223.29 132.993C222.58 131.929 222.935 130.156 222.58 129.092C221.16 111.714 213.705 96.4642 201.991 83.3422C199.861 86.1794 197.021 89.0166 194.181 91.8538L192.406 92.2084Z" fill="#006BB6"/>
<path fill-rule="evenodd" clip-rule="evenodd" d="M150.872 69.5109C151.227 68.8016 152.292 69.1562 152.647 69.1562L158.327 66.6737C160.457 67.0284 162.942 67.0284 164.362 69.1562V69.5109C162.942 70.5748 161.167 71.6388 159.392 70.9295C156.907 71.2841 153.002 73.0574 151.227 70.2202C150.872 69.8655 150.872 69.5109 150.872 69.5109Z" fill="#FEFEFE"/>
<path fill-rule="evenodd" clip-rule="evenodd" d="M184.951 76.6039C185.661 76.9585 186.371 77.3132 186.726 78.0225C186.371 78.7318 187.436 79.7957 187.081 80.505C184.596 80.8596 184.596 78.3771 182.821 78.0225C182.466 77.6678 182.466 77.3132 182.466 76.9585C183.176 75.8946 183.886 77.3132 184.951 76.6039Z" fill="#FEFEFE"/>
</g>
<defs>
<clipPath id="clip0">
<rect width="295" height="599" fill="white"/>
</clipPath>
</defs>
</svg>
