<svg width="1163" height="768" viewBox="0 0 1163 768" fill="none" xmlns="http://www.w3.org/2000/svg">
<path d="M1048.23 737.224H1028.81V533.994H1048.23V737.224Z" fill="#C7C7C7"/>
<path d="M943.817 531.809C943.817 531.809 994.143 554.763 1043.1 554.763C1088.44 554.763 1139.15 531.956 1139.15 531.956L943.817 531.809Z" fill="#B4BFD1"/>
<path d="M1125.56 740.724H953.238V728.808H1125.56V740.724Z" fill="#B4BFD1"/>
<path d="M973.443 745.858C973.443 748.457 972.672 750.998 971.227 753.159C969.782 755.321 967.728 757.005 965.325 758C962.922 758.995 960.278 759.255 957.727 758.748C955.176 758.241 952.832 756.989 950.993 755.151C949.154 753.313 947.901 750.971 947.394 748.422C946.887 745.873 947.147 743.23 948.142 740.829C949.138 738.427 950.823 736.375 952.986 734.931C955.149 733.487 957.691 732.716 960.292 732.716C963.78 732.716 967.125 734.1 969.592 736.565C972.058 739.03 973.443 742.372 973.443 745.858Z" fill="#421C0E"/>
<path d="M1050.01 745.858C1050.01 748.457 1049.24 750.998 1047.8 753.159C1046.35 755.321 1044.3 757.005 1041.9 758C1039.49 758.995 1036.85 759.255 1034.3 758.748C1031.75 758.241 1029.4 756.989 1027.56 755.151C1025.72 753.313 1024.47 750.972 1023.96 748.422C1023.46 745.873 1023.72 743.23 1024.71 740.829C1025.71 738.427 1027.39 736.375 1029.56 734.931C1031.72 733.487 1034.26 732.716 1036.86 732.716C1040.35 732.716 1043.7 734.1 1046.16 736.565C1048.63 739.03 1050.01 742.372 1050.01 745.858Z" fill="#421C0E"/>
<path d="M1138.71 745.858C1138.71 748.457 1137.94 750.998 1136.49 753.159C1135.05 755.321 1133 757.005 1130.59 758C1128.19 758.995 1125.55 759.255 1122.99 758.748C1120.44 758.241 1118.1 756.989 1116.26 755.151C1114.42 753.313 1113.17 750.971 1112.66 748.422C1112.15 745.873 1112.41 743.23 1113.41 740.829C1114.41 738.427 1116.09 736.375 1118.25 734.931C1120.42 733.487 1122.96 732.716 1125.56 732.716C1127.29 732.716 1129 733.056 1130.59 733.716C1132.19 734.377 1133.64 735.345 1134.86 736.565C1136.08 737.785 1137.05 739.234 1137.71 740.829C1138.37 742.423 1138.71 744.132 1138.71 745.858Z" fill="#421C0E"/>
<path d="M1043.1 618.062H1016.69V607.14H1043.1V618.062Z" fill="#C7C7C7"/>
<path d="M1021.5 625.706H1011.88V599.495H1021.5V625.706Z" fill="#B4BFD1"/>
<path d="M1143.49 531.808H927.895C924.024 531.808 920.311 530.272 917.574 527.536C914.836 524.801 913.299 521.091 913.299 517.222C913.299 513.354 914.836 509.643 917.574 506.908C920.311 504.173 924.024 502.636 927.895 502.636H1162.41V512.902C1162.41 515.385 1161.92 517.843 1160.97 520.137C1160.02 522.431 1158.63 524.515 1156.87 526.271C1155.11 528.026 1153.03 529.419 1150.73 530.369C1148.44 531.319 1145.98 531.808 1143.49 531.808Z" fill="url(#paint0_linear_467_4077)"/>
<path d="M994.478 218.663L1146.63 220.541C1150.24 220.586 1153.69 222.044 1156.24 224.602C1158.79 227.16 1160.24 230.615 1160.26 234.225L1162.41 502.636L957.419 505.434L980.552 231.298C980.845 227.823 982.445 224.588 985.028 222.243C987.612 219.899 990.988 218.62 994.478 218.663Z" fill="url(#paint1_linear_467_4077)"/>
<path d="M920.525 509.645C920.525 509.954 967.523 510.204 1025.48 510.204C1083.47 510.204 1130.45 509.954 1130.45 509.645C1130.45 509.337 1083.47 509.087 1025.48 509.087C967.523 509.087 920.525 509.337 920.525 509.645Z" fill="#421C0E"/>
<path d="M1131.18 395.351C1130.87 395.351 1130.62 420.69 1130.62 451.94C1130.62 483.201 1130.87 508.535 1131.18 508.535C1131.49 508.535 1131.74 483.201 1131.74 451.94C1131.74 420.69 1131.49 395.351 1131.18 395.351Z" fill="#421C0E"/>
<path d="M959.538 99.7915C953.301 92.534 949.81 83.3199 949.673 73.7546C951.496 74.766 953.525 75.352 955.607 75.4687C957.688 75.5854 959.77 75.2297 961.694 74.4283C959.532 69.5245 957.37 64.6205 955.208 59.7164C954.791 59.0411 954.524 58.2846 954.424 57.4976C954.323 56.7105 954.393 55.9112 954.627 55.1532C955.167 54.4109 955.898 53.828 956.742 53.4662C957.586 53.1044 958.512 52.9771 959.423 53.0976C968.424 53.0532 978.121 57.3099 985.975 52.9144C991.685 49.7192 994.293 42.9549 999.006 38.4169C1005.08 32.5688 1014.36 30.9353 1022.62 32.6376C1030.88 34.3397 1035.4 35.9895 1041.95 41.3028L1010.85 136.703C1005.24 138.892 999.226 139.852 993.212 139.518C987.199 139.184 981.327 137.565 975.993 134.768C970.66 131.972 965.989 128.065 962.296 123.31C958.603 118.555 955.974 113.063 954.588 107.206C953.969 105.335 954.004 103.309 954.689 101.461C954.881 101.018 955.162 100.62 955.516 100.293C955.87 99.9649 956.289 99.7145 956.745 99.5574C957.201 99.4003 957.685 99.34 958.166 99.3803C958.647 99.4206 959.114 99.5606 959.538 99.7915Z" fill="url(#paint2_linear_467_4077)"/>
<path d="M1066.01 44.9297C1070.71 49.9026 1072.81 56.701 1075.49 62.9969C1078.16 69.2929 1082.05 75.7388 1088.45 78.1777C1093.63 80.1544 1099.74 79.173 1104.6 81.849C1109.86 84.7442 1112.2 91.3196 1111.78 97.3063C1111.37 103.293 1108.73 108.868 1106.13 114.279C1107.53 115.819 1109.22 117.061 1111.12 117.93C1113.01 118.8 1115.05 119.28 1117.13 119.341C1114.98 123.316 1111.59 126.478 1107.46 128.341C1104.74 129.182 1102.18 130.454 1099.86 132.108C1097.93 134.177 1096.67 136.771 1096.22 139.561C1095.83 141.15 1095.09 142.63 1094.05 143.892C1093 145.153 1091.69 146.163 1090.2 146.845C1088.71 147.527 1087.09 147.864 1085.46 147.831C1083.82 147.798 1082.21 147.396 1080.75 146.655C1077.62 145.103 1074.66 143.237 1071.91 141.083C1071.91 141.083 1074.38 146.021 1068.51 149.945C1066.53 149.358 1064.71 148.304 1063.22 146.871C1061.72 145.438 1060.59 143.669 1059.92 141.711L1038.78 41.1544C1043.1 38.7134 1048.11 37.7607 1053.03 38.4428C1057.95 39.125 1062.51 41.4042 1066.01 44.9297Z" fill="url(#paint3_linear_467_4077)"/>
<path d="M982.732 87.0335C983.516 75.822 988.496 65.3167 996.68 57.6082C1004.86 49.8998 1015.65 45.5535 1026.9 45.4343L1029.22 45.4097C1054.22 46.6012 1067.17 68.4864 1065.29 93.4287L1061.8 208.617L1004.53 209.112L1004.71 171.63C1004.71 171.63 980.647 168.154 980.094 144.158C979.827 132.568 981.22 108.658 982.732 87.0335Z" fill="#F1CDBA"/>
<path d="M1004.51 171.597C1015.66 171.484 1026.55 168.173 1035.88 162.057C1035.88 162.057 1028.66 179.408 1004.68 177.503L1004.51 171.597Z" fill="url(#paint4_linear_467_4077)"/>
<path d="M1061.85 111.235C1062.26 111.054 1078.3 106.181 1077.95 122.595C1077.6 139.008 1061.18 135.272 1061.16 134.801C1061.15 134.33 1061.85 111.235 1061.85 111.235Z" fill="#F1CDBA"/>
<path d="M1064.87 128.702C1064.94 128.651 1065.15 128.908 1065.63 129.14C1066.31 129.444 1067.07 129.476 1067.77 129.229C1069.52 128.629 1071.04 125.907 1071.18 122.951C1071.25 121.545 1071.01 120.14 1070.47 118.84C1070.32 118.324 1070.06 117.851 1069.69 117.461C1069.32 117.07 1068.87 116.775 1068.36 116.6C1068.03 116.506 1067.68 116.529 1067.37 116.666C1067.06 116.802 1066.81 117.044 1066.65 117.348C1066.42 117.802 1066.52 118.132 1066.43 118.158C1066.39 118.198 1066.09 117.876 1066.23 117.2C1066.33 116.796 1066.57 116.438 1066.9 116.186C1067.36 115.854 1067.93 115.716 1068.49 115.802C1069.17 115.949 1069.79 116.267 1070.3 116.723C1070.82 117.18 1071.2 117.76 1071.43 118.41C1072.1 119.846 1072.4 121.423 1072.32 123.005C1072.15 126.311 1070.39 129.37 1068 130.005C1067.56 130.124 1067.09 130.142 1066.64 130.057C1066.19 129.972 1065.76 129.787 1065.39 129.515C1064.89 129.099 1064.81 128.73 1064.87 128.702Z" fill="url(#paint5_linear_467_4077)"/>
<path d="M978.406 64.467C983.101 60.7297 988.53 58.0208 994.341 56.5159C996.329 51.135 1001.84 47.9125 1007.14 45.6561C1017.38 40.9479 1028.85 39.6287 1039.89 41.8907C1052.18 43.9759 1067.68 49.5867 1073.33 60.6942C1076.57 67.5534 1078.02 75.1188 1077.56 82.6886C1077.08 90.2232 1075.97 97.7042 1074.24 105.053L1065.77 108.269C1065.33 111.099 1062.75 117.484 1059.91 117.897C1058.36 118.122 1057.5 114.184 1056.54 112.948C1055.66 111.656 1055.03 110.203 1054.7 108.67C1052.25 99.6333 1051.48 90.2219 1052.45 80.908C1052.72 79.8419 1052.77 78.7324 1052.6 77.6459C1052.43 76.5594 1052.04 75.5184 1051.46 74.5854C1049.87 73.3103 1047.94 72.5295 1045.91 72.3398C1043.96 71.8169 1042.14 70.9045 1040.55 69.6579C1038.97 68.4113 1037.65 66.8563 1036.69 65.0871C1035.83 63.4953 1035.16 61.6548 1034.21 60.1282C1031.04 61.0683 1028.04 62.4694 1025.28 64.2861C1021.06 67.0217 1016.83 70.6435 1011.81 70.4365C1009.03 70.0508 1006.33 69.2477 1003.79 68.0546C1002.52 67.4649 1001.14 67.1476 999.733 67.1229C998.331 67.0982 996.938 67.3666 995.645 67.9111C992.367 69.7157 991.583 73.9677 989.717 77.2106C987.872 80.3718 984.874 82.6965 981.352 83.697C977.822 84.6647 974.056 84.2609 970.812 82.5668C970.689 79.1801 971.304 75.8072 972.616 72.6819C973.927 69.5566 975.903 66.7535 978.406 64.467Z" fill="url(#paint6_linear_467_4077)"/>
<path d="M819.912 676.998L820.751 728.833C820.751 728.833 768.31 747.094 767.532 756.689L868.163 758.672L870.172 677.853L819.912 676.998Z" fill="#57624F"/>
<path d="M851.953 725.09C852.916 725.403 853.728 726.06 854.235 726.936C854.743 727.811 854.909 728.842 854.703 729.832C854.425 730.804 853.785 731.632 852.914 732.147C852.043 732.661 851.008 732.822 850.022 732.596C849.003 732.262 848.144 731.562 847.611 730.632C847.078 729.701 846.909 728.606 847.138 727.559C847.532 726.574 848.293 725.781 849.26 725.345C850.227 724.909 851.326 724.866 852.325 725.223" fill="#C7C7C7"/>
<path d="M868.163 758.673L868.496 750.514L771.606 751.666C771.606 751.666 767.088 753.526 767.532 756.689L868.163 758.673Z" fill="#C7C7C7"/>
<path d="M819.129 728.29C819.135 728.781 821.588 729.052 823.974 730.679C826.403 732.243 827.608 734.395 828.064 734.209C828.519 734.123 827.844 731.173 824.92 729.254C822.013 727.31 819.031 727.837 819.129 728.29Z" fill="#421C0E"/>
<path d="M808.489 732.445C808.367 732.918 810.478 733.795 812.106 735.905C813.796 737.967 814.173 740.221 814.663 740.21C815.123 740.296 815.52 737.427 813.446 734.842C811.395 732.239 808.508 731.977 808.489 732.445Z" fill="#421C0E"/>
<path d="M802.243 744.95C802.688 745.063 803.42 742.623 802.212 739.909C801.022 737.186 798.726 736.079 798.51 736.485C798.224 736.883 799.688 738.355 800.646 740.599C801.656 742.818 801.756 744.892 802.243 744.95Z" fill="#421C0E"/>
<path d="M820.251 716.456C820.448 716.907 822.716 716.274 825.49 716.518C828.269 716.704 830.411 717.679 830.676 717.263C830.967 716.913 828.893 715.054 825.622 714.813C822.353 714.548 820.017 716.065 820.251 716.456Z" fill="#421C0E"/>
<path d="M971.099 410.534C971.099 410.534 941.298 415.016 910.6 420.714C873.797 427.545 834.62 436.084 829.368 440.208C819.736 447.771 817.672 468.397 813.544 493.837C809.415 519.276 808.483 708.534 808.483 708.534L876.84 710.524L890.359 511.958C890.359 511.958 990.163 511.947 1010.7 511.799C1027.27 511.68 1071.82 513.526 1088.73 504.623C1115.34 490.618 1110.36 437.249 1110.36 437.249C1103.72 431.54 989.913 397.85 989.913 397.85L971.099 410.534Z" fill="url(#paint7_linear_467_4077)"/>
<path d="M802.786 552.501L792.951 604.752C792.951 604.752 736.502 612.31 733.743 621.789L834.438 644.485L853.105 563.701L802.786 552.501Z" fill="#57624F"/>
<path d="M825.073 607.411C825.975 607.924 826.656 608.751 826.985 609.735C827.315 610.718 827.269 611.789 826.858 612.741C826.379 613.66 825.565 614.361 824.584 614.698C823.603 615.036 822.531 614.985 821.587 614.555C820.631 614.01 819.912 613.13 819.568 612.085C819.225 611.041 819.281 609.906 819.726 608.901C820.325 607.993 821.252 607.352 822.314 607.113C823.376 606.875 824.488 607.057 825.419 607.621" fill="#C7C7C7"/>
<path d="M834.033 646.619L835.85 638.794L738.872 617.581C738.872 617.581 733.949 618.52 733.744 621.79L834.033 646.619Z" fill="#C7C7C7"/>
<path d="M791.436 603.873C791.341 604.368 793.749 605.145 795.812 607.27C797.93 609.342 798.697 611.752 799.193 611.659C799.668 611.665 799.598 608.563 797.055 606.033C794.536 603.482 791.431 603.398 791.436 603.873Z" fill="#421C0E"/>
<path d="M779.889 605.858C779.669 606.308 781.61 607.624 782.811 610.079C784.084 612.498 783.998 614.84 784.492 614.929C784.937 615.111 785.927 612.31 784.375 609.286C782.851 606.25 780.005 605.392 779.889 605.858Z" fill="#421C0E"/>
<path d="M771.038 617.138C771.462 617.343 772.7 615.043 772.045 612.067C771.411 609.086 769.332 607.502 769.031 607.865C768.662 608.206 769.829 609.986 770.33 612.438C770.888 614.876 770.561 616.979 771.038 617.138Z" fill="#421C0E"/>
<path d="M794.998 592.213C795.102 592.708 797.511 592.538 800.248 593.353C803.001 594.113 804.953 595.532 805.305 595.169C805.67 594.878 803.968 592.583 800.732 591.668C797.503 590.729 794.843 591.773 794.998 592.213Z" fill="#421C0E"/>
<path d="M851.727 371.804C851.727 371.804 828.183 370.138 823.125 390.277C816.114 418.193 785.216 585.048 785.216 585.048L854.807 598.493L891.5 435.655L957.419 424.934L984.59 414.072C984.59 414.072 969.239 397.716 937.433 387.595C915.787 380.706 851.727 371.804 851.727 371.804Z" fill="url(#paint8_linear_467_4077)"/>
<path d="M891.27 439.868C888.947 436.17 886.165 432.781 882.989 429.783C879.568 427.068 875.824 424.785 871.842 422.985C876.298 423.771 880.427 425.842 883.72 428.942C886.127 431.023 888.168 433.493 889.758 436.248C890.499 437.341 891.013 438.572 891.27 439.868Z" fill="url(#paint9_linear_467_4077)"/>
<path d="M876.105 406.829C876.154 406.769 876.612 407.074 877.405 407.681C878.517 408.548 879.561 409.498 880.528 410.525C887.025 417.354 890.909 426.251 891.499 435.655C891.595 437.062 891.582 438.474 891.461 439.878C891.471 440.4 891.383 440.919 891.202 441.41C891.01 441.4 891.097 439.207 890.714 435.722C889.711 426.599 885.955 417.995 879.945 411.055C877.649 408.404 875.981 406.975 876.105 406.829Z" fill="url(#paint10_linear_467_4077)"/>
<path d="M819.966 406.825C819.966 406.825 819.879 407.111 819.752 407.681C819.622 408.289 819.443 409.129 819.21 410.221L817.198 420.086C815.473 428.743 812.971 441.299 809.829 457.067C803.608 488.714 794.855 533.243 784.691 584.945L784.588 585.469L785.114 585.571C806.833 589.775 830.343 594.326 854.701 599.041L855.233 599.145L855.352 598.616C855.717 596.997 856.112 595.246 856.507 593.49C869.995 533.417 882.376 478.272 891.923 435.751L891.57 436.083C920.612 431.279 944.301 427.361 960.772 424.636C968.953 423.254 975.339 422.176 979.723 421.435C981.864 421.06 983.51 420.771 984.663 420.569C985.776 420.366 986.342 420.23 986.342 420.23C986.342 420.23 985.762 420.28 984.642 420.441C983.482 420.615 981.829 420.862 979.682 421.184C975.29 421.871 968.891 422.872 960.694 424.154C944.208 426.79 920.498 430.58 891.43 435.227L891.141 435.273L891.076 435.56C881.464 478.067 868.997 533.192 855.417 593.244C855.021 595 854.626 596.752 854.262 598.371L854.913 597.945C830.552 593.247 807.038 588.713 785.317 584.524L785.739 585.149C795.744 533.417 804.361 488.86 810.485 457.195C813.497 441.401 815.896 428.825 817.55 420.155C818.347 415.866 818.965 412.546 819.391 410.256L819.843 407.699C819.94 407.123 819.966 406.825 819.966 406.825Z" fill="url(#paint11_linear_467_4077)"/>
<path d="M970.645 200.398L997.661 187.19L1004.68 177.503L1012.61 197.256L1065.47 167.099V178.546C1065.47 178.546 1115.17 199.967 1121.45 205.681C1129.15 212.691 1108.11 329.629 1108.11 329.629C1108.11 329.629 1115.75 423.464 1112.94 442.138C1092.6 436.382 1071.92 431.855 1051.03 428.581C1022.94 424.739 988.998 413.966 988.998 413.966L958.346 395.019L970.645 200.398Z" fill="#3D4538"/>
<path d="M970.643 200.398L997.659 187.19L1004.68 177.503L1012.6 197.256L1065.47 167.099V178.546C1065.47 178.546 1115.17 199.967 1121.45 205.681C1129.15 212.691 1108.11 329.629 1108.11 329.629C1108.11 329.629 1115.74 423.464 1112.94 442.138C1092.59 436.382 1071.92 431.855 1051.03 428.581C1022.94 424.739 988.996 413.966 988.996 413.966L958.344 395.019L970.643 200.398Z" fill="url(#paint12_linear_467_4077)"/>
<path d="M1012.61 197.255C1013.21 197.166 1013.8 197.002 1014.36 196.766C1015.65 196.311 1017.24 195.753 1019.15 195.084L1018.73 194.872C1019.86 198.898 1021.34 204.169 1023.05 210.253L1023.24 210.936L1023.84 210.534C1027.53 208.034 1031.56 205.243 1035.74 202.26C1044.16 196.271 1051.62 190.632 1056.94 186.451C1059.6 184.364 1061.73 182.641 1063.18 181.429C1063.97 180.845 1064.7 180.183 1065.37 179.454C1064.5 179.916 1063.68 180.462 1062.92 181.086C1061.22 182.333 1059.05 183.922 1056.46 185.823C1051.02 189.839 1043.5 195.37 1035.1 201.35C1030.91 204.299 1026.91 207.108 1023.25 209.685L1024.04 209.965C1022.18 203.924 1020.58 198.689 1019.35 194.691L1019.24 194.347L1018.93 194.479C1017.06 195.261 1015.5 195.913 1014.24 196.443C1013.66 196.645 1013.11 196.917 1012.61 197.255Z" fill="#57624F"/>
<path d="M997.66 187.19C998.219 189.162 998.96 191.078 999.871 192.914C1001.37 196.393 1003.51 201.167 1005.93 206.411C1006.23 207.065 1006.53 207.712 1006.83 208.345L1007.67 210.167L1007.88 208.159C1008.5 202.245 1009.04 197.059 1009.57 193.771L1009 193.927C1009.92 195.015 1010.95 195.997 1012.09 196.857C1011.35 195.639 1010.48 194.506 1009.5 193.478L1009.07 192.975L1008.92 193.635C1007.94 198.397 1007.23 203.207 1006.78 208.046L1007.83 207.861C1007.54 207.228 1007.24 206.581 1006.94 205.926C1004.52 200.689 1002.27 195.974 1000.59 192.583C999.78 190.7 998.799 188.894 997.66 187.19Z" fill="#57624F"/>
<path d="M1008.7 338.226C1009.01 338.236 1010.25 308.041 1011.47 270.792C1012.7 233.53 1013.44 203.325 1013.13 203.314C1012.82 203.304 1011.58 233.493 1010.36 270.755C1009.13 308.004 1008.39 338.216 1008.7 338.226Z" fill="#57624F"/>
<path d="M963.509 320.033C963.494 320.069 963.762 320.204 964.288 320.431C965.052 320.779 965.843 321.061 966.654 321.275C969.643 322.112 972.762 322.382 975.851 322.069C980.466 321.635 984.898 320.049 988.738 317.455C993.453 314.223 996.975 309.534 998.763 304.108C1000.48 298.752 1001.31 293.154 1001.22 287.533C1001.25 282.386 1000.96 277.786 1000.9 273.925C1000.82 270.065 1000.93 266.947 1001.1 264.796C1001.25 263.684 1001.33 262.565 1001.34 261.443C1001.21 261.708 1001.13 261.992 1001.1 262.284C1000.96 262.842 1000.82 263.674 1000.67 264.75C1000.28 267.795 1000.1 270.861 1000.11 273.931C1000.07 277.812 1000.27 282.425 1000.19 287.518C1000.22 293.021 999.38 298.494 997.709 303.737C995.997 308.944 992.646 313.459 988.156 316.607C984.468 319.149 980.215 320.755 975.766 321.283C972.762 321.655 969.716 321.509 966.761 320.853C964.662 320.398 963.552 319.916 963.509 320.033Z" fill="#57624F"/>
<path d="M966.494 261.798C972.22 262.355 977.977 262.542 983.727 262.356C989.478 262.542 995.234 262.355 1000.96 261.798C995.234 261.24 989.478 261.054 983.727 261.239C977.977 261.054 972.22 261.24 966.494 261.798Z" fill="#57624F"/>
<path d="M967.571 274.356C972.997 274.913 978.454 275.1 983.906 274.914C989.358 275.1 994.816 274.913 1000.24 274.356C994.816 273.798 989.358 273.611 983.906 273.797C978.454 273.611 972.997 273.798 967.571 274.356Z" fill="#57624F"/>
<path d="M970.645 200.397C970.645 200.397 949.495 213.857 947.142 231.959C944.788 250.061 937.408 299.286 937.408 299.286L827.687 342.958C829.073 343.646 847.631 375.395 847.631 375.395L961.349 353.293L958.345 395.019" fill="#3D4538"/>
<path d="M966.681 249.624C966.581 250.14 966.53 250.665 966.528 251.192C966.473 252.33 966.399 253.826 966.307 255.693C966.125 259.727 965.872 265.352 965.561 272.248C964.921 286.226 963.929 305.531 962.703 326.845C961.454 348.165 960.2 367.456 959.143 381.408C958.598 388.289 958.154 393.9 957.836 397.925C957.684 399.787 957.562 401.279 957.47 402.415C957.403 402.938 957.386 403.465 957.418 403.99C957.559 403.483 957.651 402.964 957.694 402.44C957.839 401.309 958.03 399.823 958.269 397.968C958.722 394.08 959.307 388.444 959.931 381.472C961.19 367.529 962.57 348.237 963.818 326.91C965.045 305.589 965.913 286.271 966.35 272.279C966.575 265.284 966.697 259.62 966.743 255.705C966.747 253.836 966.751 252.337 966.754 251.197C966.78 250.671 966.755 250.145 966.681 249.624Z" fill="#57624F"/>
<path d="M1093.73 240.057C1093.93 240.045 1093.65 237.554 1094.21 233.625C1094.89 228.504 1096.84 223.633 1099.87 219.446C1102.9 215.259 1106.92 211.885 1111.57 209.626C1115.13 207.867 1117.58 207.349 1117.53 207.155C1116.94 207.126 1116.35 207.205 1115.78 207.388C1114.22 207.75 1112.7 208.26 1111.23 208.91C1106.33 211.049 1102.1 214.461 1098.96 218.791C1095.83 223.121 1093.92 228.211 1093.42 233.531C1093.26 235.126 1093.26 236.731 1093.4 238.327C1093.4 238.919 1093.51 239.505 1093.73 240.057Z" fill="#57624F"/>
<path d="M1158.94 395.019L1052.86 396.289C1052.48 396.302 1052.1 396.396 1051.75 396.566C1051.41 396.735 1051.1 396.975 1050.85 397.271C1050.6 397.567 1050.42 397.911 1050.32 398.282C1050.21 398.653 1050.18 399.042 1050.24 399.423L1066.14 531.858H1041.24L1028.39 386.074C1028.24 384.898 1028.35 383.705 1028.69 382.57C1029.03 381.435 1029.6 380.383 1030.37 379.482C1031.14 378.58 1032.09 377.849 1033.16 377.333C1034.23 376.818 1035.39 376.529 1036.58 376.487L1160.52 375.761L1158.94 395.019Z" fill="url(#paint13_linear_467_4077)"/>
<path d="M961.202 362.612L976.043 347.54L1006.57 340.154C1006.57 340.154 1034.55 348.167 1035.21 348.144C1035.88 348.121 1059.91 340.154 1059.91 340.154L1067.84 370.98L1025.19 373.773L976.503 371.909C976.503 371.909 973.963 369.648 975.468 368.103C976.973 366.557 967.329 370.716 966.192 370.765C965.078 370.815 962.854 371.649 961.351 369.91C960.326 368.725 958.933 364.916 961.202 362.612Z" fill="#F1CDBA"/>
<path d="M975.468 368.102C977.122 367.811 978.745 367.37 980.319 366.782C983.277 365.885 987.372 364.684 991.952 363.562C996.534 362.443 1000.73 361.611 1003.77 361.028C1005.44 360.816 1007.09 360.449 1008.69 359.932C1007 359.856 1005.31 359.979 1003.64 360.297C999.619 360.83 995.625 361.581 991.68 362.546C987.744 363.506 983.865 364.687 980.061 366.083C978.455 366.569 976.912 367.247 975.468 368.102Z" fill="url(#paint14_linear_467_4077)"/>
<path d="M961.201 362.611C963.494 362.035 965.755 361.338 967.974 360.522C972.13 359.181 977.937 357.54 984.396 355.816C989.777 353.991 995.319 352.682 1000.95 351.907C1003.29 351.8 1005.65 351.888 1007.98 352.17C1007.41 351.871 1006.79 351.672 1006.15 351.581C1004.42 351.223 1002.66 351.084 1000.9 351.167C996.402 351.226 990.481 352.994 984.097 354.807C977.636 356.532 971.823 358.297 967.713 359.823C965.654 360.577 964.013 361.247 962.894 361.74C962.289 361.945 961.719 362.238 961.201 362.611Z" fill="url(#paint15_linear_467_4077)"/>
<path d="M1067.16 395.791C1067.16 396.099 1084.99 396.35 1106.98 396.35C1128.98 396.35 1146.8 396.099 1146.8 395.791C1146.8 395.483 1128.98 395.232 1106.98 395.232C1084.99 395.232 1067.16 395.483 1067.16 395.791Z" fill="#421C0E"/>
<path d="M1101.44 375.233C1101.44 375.542 1112.07 375.792 1125.18 375.792C1138.29 375.792 1148.91 375.542 1148.91 375.233C1148.91 374.925 1138.29 374.675 1125.18 374.675C1112.07 374.675 1101.44 374.925 1101.44 375.233Z" fill="#421C0E"/>
<path d="M1121.79 205.681C1121.79 205.681 1132.62 212.475 1137.98 233.547C1143.33 254.619 1166.53 340.663 1161.77 353.541C1157.01 366.418 1044.96 384.092 1044.96 384.092L1032.93 345.929L1106.2 321.673C1106.2 321.673 1095.47 279.776 1094.88 262.801C1094.28 245.827 1121.79 205.681 1121.79 205.681Z" fill="#3D4538"/>
<path d="M1127.28 329.551C1124.64 326.556 1121.3 324.262 1117.55 322.875C1113.81 321.487 1109.78 321.05 1105.83 321.602C1113.62 321.983 1121.11 324.759 1127.28 329.551Z" fill="#57624F"/>
<path d="M1138.93 364.527C1138.78 364.538 1138.62 364.569 1138.47 364.619C1138.13 364.713 1137.69 364.83 1137.15 364.976C1136 365.325 1134.27 365.749 1132.02 366.297C1127.52 367.374 1120.93 368.849 1112.6 370.553C1095.94 373.985 1072.37 378.533 1044.86 383.571L1045.46 383.933C1041.73 372.065 1037.67 359.163 1033.46 345.761L1033.1 346.458C1034.41 346.025 1035.83 345.556 1037.25 345.086C1062.64 336.648 1086.37 328.763 1106.34 322.126L1106.74 321.995L1106.66 321.586C1102.89 301.671 1099.75 285.089 1097.53 273.41C1096.41 267.664 1095.53 263.129 1094.91 259.954C1094.6 258.457 1094.36 257.283 1094.18 256.419C1094.11 256.011 1094.01 255.608 1093.88 255.216C1093.9 255.629 1093.95 256.041 1094.03 256.446C1094.18 257.316 1094.37 258.499 1094.62 260.007C1095.18 263.193 1095.98 267.745 1096.99 273.511C1099.11 285.208 1102.11 301.814 1105.72 321.76L1106.04 321.221C1086.05 327.813 1062.31 335.644 1036.9 344.026C1035.48 344.496 1034.06 344.965 1032.75 345.399L1032.23 345.572L1032.39 346.097C1036.63 359.492 1040.7 372.389 1044.45 384.251L1044.59 384.699L1045.05 384.613C1072.56 379.499 1096.11 374.812 1112.74 371.197C1121.05 369.402 1127.63 367.825 1132.11 366.638C1134.35 366.035 1136.07 365.556 1137.21 365.148L1138.5 364.706C1138.65 364.665 1138.8 364.605 1138.93 364.527Z" fill="#57624F"/>
<path d="M890.31 282.456L935.991 363.247L1041.68 365.543L1041.95 370.445L937.09 369.666L933.766 369.553L823.035 369.771L800.66 331.207L772.954 286.352C772.53 285.745 772.281 285.034 772.234 284.296C772.188 283.557 772.345 282.82 772.688 282.165C773.032 281.51 773.549 280.961 774.183 280.579C774.817 280.198 775.544 279.997 776.284 280L886.816 280.422C887.526 280.424 888.222 280.614 888.836 280.971C889.449 281.328 889.957 281.84 890.31 282.456Z" fill="#C7C7C7"/>
<path d="M854.918 324.081C855.426 324.82 855.71 325.69 855.736 326.587C855.762 327.484 855.529 328.369 855.065 329.137C854.601 329.904 853.926 330.522 853.119 330.916C852.313 331.31 851.41 331.464 850.519 331.359C849.627 331.253 848.785 330.894 848.093 330.323C847.401 329.752 846.888 328.993 846.616 328.139C846.343 327.284 846.323 326.369 846.558 325.503C846.792 324.637 847.271 323.857 847.938 323.256C848.975 322.446 850.291 322.078 851.598 322.233C852.905 322.387 854.099 323.051 854.918 324.081Z" fill="white"/>
<path d="M878.26 280.401C877.992 280.554 889.143 300.624 903.163 325.223C917.189 349.83 928.772 369.648 929.04 369.495C929.308 369.343 918.16 349.277 904.135 324.67C890.114 300.071 878.528 280.249 878.26 280.401Z" fill="#421C0E"/>
<path d="M800.66 333.984C800.66 333.984 794.97 339.195 795.869 343.623C796.767 348.051 796.468 351.343 800.66 351.642C800.597 353.256 801.15 354.833 802.206 356.056C803.262 357.278 804.744 358.054 806.351 358.226C806.351 358.226 805.067 365.168 813.153 366.365C813.153 366.365 815.634 373.789 820.726 371.993C823.647 370.987 826.457 369.683 829.111 368.102L830.609 365.409C830.609 365.409 838.11 362.591 836.262 358.358C835.14 355.789 831.26 355.121 831.26 355.121C831.705 354.064 831.893 352.917 831.81 351.773C831.726 350.629 831.373 349.522 830.78 348.54C828.981 346.124 823.126 348.121 823.126 348.121C823.252 346.046 822.589 344.001 821.271 342.394C819.278 340.031 809.955 346.452 809.955 346.452L804.869 340.381L800.66 333.984Z" fill="#F1CDBA"/>
<path d="M813.152 366.365C819.558 363.248 825.626 359.48 831.26 355.121C824.854 358.239 818.786 362.006 813.152 366.365Z" fill="url(#paint16_linear_467_4077)"/>
<path d="M806.35 358.226C812.302 355.494 817.928 352.104 823.125 348.12C817.173 350.853 811.547 354.242 806.35 358.226Z" fill="url(#paint17_linear_467_4077)"/>
<path d="M815.621 342.992C812.871 343.965 810.28 345.339 807.933 347.072C805.426 348.519 803.011 350.12 800.702 351.865C800.855 352.223 804.47 350.584 808.513 348.001C811.047 346.578 813.429 344.899 815.621 342.992Z" fill="url(#paint18_linear_467_4077)"/>
<path d="M153.183 745.964H172.791L172.791 540.604H153.183L153.183 745.964Z" fill="#C7C7C7"/>
<path d="M75.0836 749.5H249.107V737.46H75.0836V749.5Z" fill="#B4BFD1"/>
<path d="M228.705 754.688C228.705 757.315 229.484 759.882 230.943 762.066C232.403 764.25 234.477 765.952 236.904 766.957C239.33 767.962 242.001 768.225 244.577 767.713C247.153 767.201 249.52 765.936 251.377 764.078C253.235 762.221 254.5 759.855 255.012 757.279C255.524 754.703 255.261 752.033 254.256 749.606C253.251 747.179 251.549 745.105 249.365 743.646C247.181 742.187 244.613 741.408 241.986 741.408C238.464 741.408 235.086 742.807 232.595 745.298C230.104 747.788 228.705 751.166 228.705 754.688Z" fill="url(#paint19_linear_467_4077)"/>
<path d="M151.377 754.688C151.377 757.315 152.156 759.882 153.615 762.066C155.074 764.25 157.149 765.952 159.575 766.957C162.002 767.962 164.673 768.226 167.249 767.713C169.825 767.201 172.192 765.936 174.049 764.079C175.906 762.222 177.171 759.855 177.684 757.279C178.196 754.703 177.933 752.033 176.928 749.606C175.923 747.18 174.221 745.106 172.037 743.646C169.853 742.187 167.285 741.408 164.658 741.408C161.136 741.408 157.758 742.807 155.267 745.298C152.776 747.788 151.377 751.166 151.377 754.688Z" fill="url(#paint20_linear_467_4077)"/>
<path d="M61.8027 754.688C61.8027 757.315 62.5816 759.882 64.041 762.066C65.5003 764.25 67.5744 765.952 70.0012 766.957C72.428 767.962 75.0983 768.225 77.6746 767.713C80.2508 767.201 82.6173 765.936 84.4747 764.079C86.3321 762.221 87.597 759.855 88.1095 757.279C88.6219 754.703 88.3589 752.033 87.3537 749.606C86.3486 747.18 84.6464 745.106 82.4623 743.646C80.2783 742.187 77.7105 741.408 75.0838 741.408C73.3397 741.408 71.6127 741.752 70.0014 742.419C68.3901 743.086 66.926 744.065 65.6927 745.298C64.4595 746.531 63.4812 747.995 62.8138 749.606C62.1463 751.217 61.8027 752.944 61.8027 754.688Z" fill="url(#paint21_linear_467_4077)"/>
<path d="M158.36 625.552H185.029V614.516H158.36V625.552Z" fill="#C7C7C7"/>
<path d="M180.172 633.277H189.885V606.791H180.172V633.277Z" fill="#B4BFD1"/>
<path d="M207.463 221.969L53.8054 223.867C50.1577 223.912 46.6729 225.385 44.099 227.97C41.5251 230.555 40.0672 234.046 40.038 237.693L37.8711 508.917L244.888 511.745L221.526 234.736C221.23 231.224 219.615 227.955 217.006 225.587C214.396 223.218 210.987 221.925 207.463 221.969Z" fill="url(#paint22_linear_467_4077)"/>
<path d="M207.463 221.969L53.8054 223.867C50.1577 223.912 46.6729 225.385 44.099 227.97C41.5251 230.555 40.0672 234.046 40.038 237.693L37.8711 508.917L244.888 511.745L221.526 234.736C221.23 231.224 219.615 227.955 217.006 225.587C214.396 223.218 210.987 221.925 207.463 221.969Z" fill="url(#paint23_linear_467_4077)"/>
<path d="M258.621 538.396C258.621 538.396 207.798 561.591 158.358 561.591C112.572 561.591 61.3594 538.545 61.3594 538.545L258.621 538.396Z" fill="#A4B0C6"/>
<path d="M282.146 516.001C282.146 516.312 234.683 516.565 176.149 516.565C117.595 516.565 70.1426 516.312 70.1426 516.001C70.1426 515.689 117.595 515.437 176.149 515.437C234.683 515.437 282.146 515.689 282.146 516.001Z" fill="url(#paint24_linear_467_4077)"/>
<path d="M69.4099 400.508C69.7219 400.508 69.9746 426.113 69.9746 457.69C69.9746 489.279 69.7219 514.878 69.4099 514.878C69.0984 514.878 68.8457 489.279 68.8457 457.69C68.8457 426.113 69.0984 400.508 69.4099 400.508Z" fill="url(#paint25_linear_467_4077)"/>
<path d="M56.9768 538.395H274.704C278.613 538.395 282.362 536.842 285.127 534.078C287.891 531.314 289.444 527.565 289.444 523.656C289.444 519.747 287.891 515.998 285.127 513.234C282.362 510.47 278.613 508.917 274.704 508.917H37.8711V519.291C37.8711 521.8 38.3653 524.284 39.3254 526.602C40.2856 528.92 41.6929 531.026 43.467 532.8C45.2412 534.574 47.3474 535.981 49.6654 536.941C51.9834 537.901 54.4678 538.395 56.9768 538.395Z" fill="url(#paint26_linear_467_4077)"/>
<path d="M278.791 312.865L328.043 312.771L367.456 305.871L386.893 304.053L400.333 315.219C401.277 316.004 402.033 316.991 402.546 318.108C403.058 319.224 403.314 320.442 403.294 321.67L403.134 331.454L401.098 332.746L402.789 337.429C403.156 338.447 403.215 339.551 402.958 340.602C402.701 341.653 402.14 342.605 401.345 343.338L387.957 329.686L395.732 345.049C394.697 345.597 393.561 345.93 392.394 346.029C391.227 346.127 390.052 345.989 388.939 345.623C384.302 344.603 375.019 326.765 375.019 326.765L367.54 324.408L381.052 344.221C381.052 344.221 381.568 345.79 377.944 346.522C374.321 347.254 358.501 330.733 358.501 330.733C354.418 334.624 349.421 337.423 343.972 338.871C336.116 340.434 229.543 354.626 229.543 354.626L261.956 279.74L278.791 312.865Z" fill="#B36148"/>
<path d="M395.734 345.049C394.602 343.436 393.616 341.723 392.789 339.933C391.088 336.711 388.8 332.222 386.334 327.239C385.52 324.861 383.844 322.876 381.637 321.677C379.531 320.722 377.414 320.028 375.751 319.34C373.884 318.719 372.076 317.931 370.35 316.987C372.28 317.37 374.172 317.924 376.003 318.645C377.73 319.259 379.763 319.832 382.056 320.81C384.513 322.071 386.391 324.232 387.3 326.843C389.757 331.804 391.929 336.32 393.455 339.615C394.375 341.355 395.138 343.173 395.734 345.049Z" fill="#421C0E"/>
<path d="M400.639 332.925C399.583 331.506 398.618 330.022 397.749 328.48C395.505 324.876 393.059 321.401 390.422 318.074C389.636 317.108 388.871 316.167 388.125 315.25C387.752 314.798 387.385 314.353 387.024 313.913L386.488 313.267C386.411 313.184 386.288 313.004 386.243 312.995C386.228 313.008 386.253 313.014 386.227 312.998L386.058 312.943C384.09 312.402 382.088 312.142 380.503 311.852C378.741 311.662 376.999 311.316 375.299 310.817C377.073 310.723 378.852 310.825 380.604 311.12C382.541 311.298 384.465 311.602 386.363 312.029L386.582 312.097C386.703 312.151 386.817 312.219 386.922 312.3C387.036 312.401 387.141 312.512 387.236 312.631L387.786 313.27L388.911 314.595C389.665 315.512 390.44 316.453 391.235 317.419C393.912 320.773 396.302 324.346 398.381 328.1C399.348 329.599 400.107 331.222 400.639 332.925Z" fill="#421C0E"/>
<path d="M329.031 331.849C329.081 331.76 329.939 332.275 331.623 332.801C334.004 333.503 336.523 333.596 338.949 333.071C340.601 332.701 342.169 332.022 343.571 331.071C345.085 330.043 346.51 328.636 348.202 327.294C349.994 325.857 352.09 324.85 354.331 324.35C356.622 323.872 358.851 323.133 360.974 322.147C362.031 321.629 363.047 321.032 364.014 320.359C364.485 320.031 364.959 319.669 365.381 319.327C365.547 319.196 365.685 319.034 365.787 318.85C365.846 318.713 365.82 318.692 365.788 318.635C365.699 318.492 365.148 318.41 364.583 318.419C364.018 318.402 363.459 318.386 362.905 318.369C361.8 318.335 360.717 318.301 359.657 318.268C355.491 318.117 351.7 317.98 348.421 317.861C345.404 317.713 342.868 317.588 340.848 317.488C339.916 317.49 338.986 317.392 338.075 317.196C338.995 317.045 339.928 316.994 340.859 317.043C342.881 317.046 345.42 317.049 348.441 317.053C351.722 317.1 355.515 317.155 359.683 317.215C360.743 317.235 361.826 317.256 362.932 317.278C363.486 317.289 364.046 317.301 364.61 317.312C364.97 317.267 365.335 317.297 365.683 317.398C366.031 317.499 366.355 317.671 366.634 317.902C366.797 318.095 366.9 318.332 366.931 318.582C366.963 318.833 366.921 319.088 366.811 319.315C366.644 319.65 366.408 319.946 366.118 320.183C365.633 320.582 365.168 320.937 364.664 321.292C363.652 322.001 362.586 322.631 361.476 323.174C359.285 324.194 356.982 324.952 354.614 325.434C352.511 325.88 350.538 326.801 348.845 328.127C347.202 329.391 345.725 330.802 344.096 331.86C342.579 332.843 340.886 333.523 339.112 333.863C336.557 334.346 333.919 334.125 331.48 333.223C330.829 332.972 330.202 332.663 329.607 332.298C329.208 332.036 329.011 331.883 329.031 331.849Z" fill="#421C0E"/>
<path d="M358.423 428.218C358.423 428.218 401.7 442.664 389.658 489.797C380.416 525.97 280.033 704.864 280.033 704.864L243.393 687.44L321.937 500.265L151.508 483.479L219.067 381.525L358.423 428.218Z" fill="#B36148"/>
<path d="M287.764 693.739L286.63 696.325C286.63 696.325 322.538 733.31 319.325 741.818L232.766 702.828L246.899 674.513C251.934 680.466 258.19 685.264 265.241 688.581C272.293 691.899 279.974 693.658 287.764 693.739Z" fill="#2C3A64"/>
<g opacity="0.6">
<path opacity="0.6" d="M251.52 687.684C250.573 687.563 249.615 687.796 248.829 688.338C248.044 688.88 247.485 689.694 247.261 690.623C247.105 691.565 247.316 692.531 247.851 693.322C248.385 694.113 249.202 694.669 250.133 694.875C251.137 695.002 252.152 694.752 252.982 694.172C253.812 693.593 254.398 692.726 254.626 691.739C254.688 690.739 254.361 689.754 253.712 688.991C253.064 688.228 252.145 687.746 251.15 687.647" fill="white"/>
</g>
<g opacity="0.6">
<path opacity="0.6" d="M232.766 702.829L236.165 696.019L317.883 735.882C317.883 735.882 320.982 739.297 319.326 741.819L232.766 702.829Z" fill="white"/>
</g>
<path d="M286.824 696.704C286.62 697.121 284.42 696.361 281.729 696.785C279.027 697.139 277.132 698.49 276.818 698.147C276.465 697.889 278.232 695.642 281.499 695.186C284.761 694.7 287.09 696.357 286.824 696.704Z" fill="#2F2929"/>
<path d="M294.215 704.554C294.128 705.008 291.974 704.903 289.734 706.047C287.461 707.124 286.23 708.897 285.817 708.689C285.39 708.576 286.211 705.965 289.023 704.597C291.821 703.204 294.388 704.146 294.215 704.554Z" fill="#2F2929"/>
<path d="M294.484 717.759C294.06 717.676 294.422 715.296 296.548 713.467C298.662 711.622 301.066 711.606 301.086 712.039C301.169 712.495 299.326 713.16 297.604 714.689C295.846 716.176 294.923 717.906 294.484 717.759Z" fill="#2F2929"/>
<path d="M105.848 443.742C105.848 443.742 328.048 433.376 341.97 437.11C355.892 440.844 364.245 447.982 367.03 464.944C369.814 481.905 412.63 706.844 412.63 706.844L373.664 718.464C373.664 718.464 319.019 591.787 316.699 570.585C314.379 549.383 306.701 505.934 306.701 505.934C306.701 505.934 222.24 507.348 160.055 505.934C97.869 504.521 106.222 446.098 106.222 446.098L105.848 443.742Z" fill="#B36148"/>
<path d="M105.848 443.742C105.848 443.742 328.048 433.376 341.97 437.11C355.892 440.844 364.245 447.982 367.03 464.944C369.814 481.905 412.63 706.844 412.63 706.844L373.664 718.464C373.664 718.464 319.019 591.787 316.699 570.585C314.379 549.383 306.701 505.934 306.701 505.934C306.701 505.934 222.24 507.348 160.055 505.934C97.869 504.521 106.222 446.098 106.222 446.098L105.848 443.742Z" fill="#B36148"/>
<path d="M373.538 718.464L373.243 717.78C371.01 712.603 318.521 590.743 316.214 569.655C314.084 550.2 307.35 511.488 306.347 505.769C298.013 505.9 218.86 507.087 160.381 505.758C141.068 505.319 126.51 499.376 117.111 488.096C102.874 471.01 105.474 447.101 105.724 445.088L105.219 441.914L106.154 441.871C115.232 441.447 328.638 431.542 342.528 435.267C358.123 439.448 365.562 447.709 368.199 463.781C370.95 480.538 413.367 703.41 413.796 705.659L413.94 706.416L373.538 718.464ZM307.742 504.05L307.867 504.761C307.944 505.194 315.577 548.48 317.875 569.467C320.066 589.499 370.146 706.336 374.48 716.417L412.012 705.223C409.271 690.821 369.225 480.346 366.552 464.059C364.04 448.756 356.955 440.889 342.101 436.906C328.928 433.375 122.913 442.794 107.166 443.521L107.413 445.068L107.394 445.195C107.36 445.44 104.081 469.844 118.395 487.012C127.472 497.897 141.61 503.634 160.418 504.062C221.873 505.461 306.185 504.077 307.032 504.062L307.742 504.05Z" fill="#421C0E"/>
<path d="M412.914 697.416L413.872 700.072C413.872 700.072 465.343 702.078 468.872 710.46L379.326 741.967L370.074 711.698C377.82 712.534 385.655 711.692 393.047 709.228C400.438 706.763 407.214 702.735 412.914 697.416Z" fill="#2C3A64"/>
<g opacity="0.6">
<path opacity="0.6" d="M382.487 718.049C381.718 718.615 381.185 719.445 380.989 720.38C380.793 721.315 380.948 722.29 381.425 723.118C381.961 723.908 382.779 724.462 383.711 724.666C384.642 724.871 385.617 724.71 386.433 724.216C387.247 723.615 387.81 722.733 388.013 721.74C388.216 720.748 388.044 719.715 387.53 718.842C386.887 718.075 385.971 717.588 384.976 717.482C383.981 717.377 382.984 717.662 382.195 718.278" fill="white"/>
</g>
<g opacity="0.6">
<path opacity="0.6" d="M379.325 741.968L377.1 734.687L463.739 707.155C463.739 707.155 468.335 707.49 468.871 710.46L379.325 741.968Z" fill="white"/>
</g>
<path d="M414.272 700.212C414.411 700.655 412.294 701.622 410.637 703.788C408.923 705.909 408.479 708.196 408.016 708.165C407.583 708.221 407.317 705.374 409.369 702.788C411.399 700.184 414.226 699.777 414.272 700.212Z" fill="#2F2929"/>
<path d="M425.029 700.798C425.279 701.187 423.646 702.598 422.81 704.973C421.906 707.322 422.233 709.457 421.792 709.591C421.404 709.804 420.202 707.346 421.297 704.414C422.365 701.472 424.874 700.383 425.029 700.798Z" fill="#2F2929"/>
<path d="M434.313 710.178C433.949 710.411 432.572 708.437 432.854 705.644C433.116 702.848 434.846 701.177 435.159 701.477C435.532 701.75 434.656 703.504 434.46 705.801C434.21 708.091 434.733 709.982 434.313 710.178Z" fill="#2F2929"/>
<path d="M156.038 145.569C150.732 142.998 146.15 139.142 142.707 134.351C139.264 129.559 137.069 123.983 136.321 118.128C135.741 113.185 136.219 108.117 135.108 103.266C133.516 96.3088 128.72 90.0287 129.009 82.8973C129.2 78.1569 131.648 73.8008 132.43 69.1217C133.185 64.6045 132.361 59.9756 132.622 55.403C133.057 49.5712 135.207 43.999 138.799 39.388C142.391 34.7771 147.265 31.3338 152.807 29.4918L182.083 20.1475L224.467 41.3987C224.467 41.3987 247.493 67.5173 236.488 116.746L156.038 145.569Z" fill="#F98968"/>
<path d="M231.378 120.737C232.292 119.727 233.435 118.953 234.712 118.481L234.455 118.468C234.691 118.407 234.931 118.363 235.173 118.337C235.608 118.204 236.066 118.161 236.519 118.211C236.971 118.262 237.408 118.404 237.804 118.63L237.779 118.628C239.249 119.137 240.475 120.18 241.216 121.55C241.794 122.767 242.027 124.12 241.891 125.461C241.755 126.801 241.254 128.079 240.443 129.155C239.859 130.132 238.992 130.908 237.958 131.382C236.925 131.856 235.771 132.005 234.651 131.81C233.531 131.614 232.496 131.083 231.683 130.286C230.871 129.49 230.318 128.465 230.099 127.348C229.739 126.227 229.668 125.034 229.891 123.878C230.115 122.723 230.626 121.642 231.378 120.737Z" fill="#F1CDBA"/>
<path d="M234.377 75.1691C232.702 59.0552 221.206 39.6705 205.201 42.0302L155.526 56.7872C153.181 57.1329 151.05 58.3472 149.556 60.1901C148.061 62.033 147.312 64.3704 147.455 66.7401L153.54 174.37C154.333 188.394 195.762 233.719 209.642 235.746C227.423 238.344 212.485 190.763 212.532 172.768C212.551 165.374 212.581 159.819 212.585 159.854C212.585 159.854 233.055 155.585 236.227 128.481C237.805 115.002 236.238 93.0716 234.377 75.1691Z" fill="#B36148"/>
<path d="M378.999 282.482L332.867 364.119L226.133 366.439L225.861 371.392L331.756 370.605L335.114 370.491L446.938 370.712L469.535 331.743L497.515 286.419C497.943 285.805 498.194 285.087 498.241 284.341C498.289 283.594 498.13 282.85 497.783 282.188C497.436 281.525 496.914 280.971 496.273 280.585C495.633 280.2 494.899 279.997 494.151 280L382.527 280.426C381.811 280.429 381.107 280.62 380.488 280.981C379.868 281.342 379.355 281.859 378.999 282.482Z" fill="#A4B0C6"/>
<path d="M414.74 324.543C414.227 325.29 413.94 326.169 413.914 327.075C413.888 327.981 414.123 328.876 414.592 329.652C415.06 330.427 415.743 331.052 416.557 331.45C417.371 331.848 418.283 332.004 419.183 331.897C420.084 331.791 420.934 331.427 421.633 330.85C422.332 330.273 422.85 329.507 423.125 328.643C423.4 327.78 423.42 326.855 423.183 325.98C422.947 325.105 422.463 324.317 421.79 323.71C420.742 322.891 419.414 322.519 418.094 322.675C416.773 322.831 415.568 323.503 414.74 324.543Z" fill="white"/>
<path d="M391.169 280.405C391.44 280.56 380.179 300.84 366.02 325.696C351.856 350.562 340.159 370.587 339.888 370.433C339.617 370.279 350.875 350.003 365.039 325.137C379.198 300.281 390.899 280.251 391.169 280.405Z" fill="#F9DDBF"/>
<path d="M151.512 111.366C151.101 111.834 148.406 110.005 144.698 110.166C140.99 110.274 138.344 112.297 137.923 111.859C137.718 111.665 138.115 110.835 139.271 109.922C140.831 108.741 142.717 108.073 144.671 108.009C146.601 107.924 148.508 108.455 150.116 109.527C151.29 110.357 151.712 111.156 151.512 111.366Z" fill="#2F2929"/>
<path opacity="0.5" d="M212.585 159.854C199.931 160.565 187.328 157.744 176.18 151.706C176.18 151.706 185.671 169.848 212.482 166.228L212.585 159.854Z" fill="url(#paint27_linear_467_4077)"/>
<path d="M184.104 47.0162C171.792 46.7893 159.553 48.9525 148.062 53.3862C144.525 54.421 141.408 56.5566 139.163 59.4838C137.653 62.3498 136.989 65.5874 137.251 68.8172C137.331 78.906 141.341 91.2692 145.146 100.611L149.805 108.692C156.81 107.093 163.009 89.1734 162.572 80.7764C165.948 79.2473 168.827 76.8003 170.883 73.7135C172.939 70.6267 174.088 67.0241 174.201 63.3155C176.97 61.5204 179.299 59.1223 181.014 56.3C182.729 53.4778 183.785 50.3043 184.104 47.0162Z" fill="#2F2929"/>
<path d="M157.536 104.155C157.177 98.3852 150.107 97.2383 145.145 100.193C142.422 101.815 140.363 105.034 140.691 111.161C141.566 127.498 157.763 123.248 157.767 122.779C157.768 122.487 157.957 110.911 157.536 104.155Z" fill="#B36148"/>
<path d="M152.453 116.856C152.379 116.808 152.179 117.071 151.711 117.317C151.051 117.643 150.29 117.699 149.589 117.476C148.5 116.862 147.593 115.97 146.962 114.891C146.331 113.811 145.998 112.583 145.997 111.331C145.881 109.933 146.078 108.526 146.575 107.214C146.7 106.696 146.949 106.215 147.301 105.815C147.653 105.414 148.097 105.105 148.595 104.915C148.917 104.811 149.265 104.823 149.579 104.949C149.893 105.075 150.153 105.307 150.314 105.605C150.557 106.05 150.471 106.382 150.559 106.405C150.607 106.443 150.894 106.112 150.727 105.445C150.614 105.045 150.369 104.696 150.03 104.455C149.563 104.14 148.991 104.021 148.437 104.124C147.774 104.293 147.166 104.629 146.67 105.1C146.174 105.572 145.807 106.162 145.604 106.816C144.985 108.268 144.73 109.85 144.862 111.423C145.143 114.709 146.99 117.699 149.385 118.255C149.83 118.359 150.292 118.362 150.738 118.263C151.184 118.164 151.602 117.966 151.961 117.684C152.445 117.252 152.512 116.883 152.453 116.856Z" fill="#421C0E"/>
<path d="M143.313 120.475C144.227 119.466 145.371 118.692 146.647 118.219L146.39 118.207C146.626 118.145 146.866 118.101 147.109 118.075C147.544 117.942 148.002 117.899 148.454 117.95C148.906 118 149.344 118.142 149.739 118.368L149.714 118.367C151.184 118.876 152.411 119.918 153.151 121.289C153.729 122.506 153.963 123.858 153.826 125.199C153.69 126.54 153.189 127.817 152.378 128.893C151.794 129.87 150.928 130.646 149.894 131.12C148.86 131.594 147.707 131.743 146.587 131.548C145.466 131.352 144.432 130.821 143.619 130.024C142.806 129.228 142.254 128.204 142.034 127.086C141.674 125.966 141.603 124.772 141.827 123.616C142.05 122.461 142.562 121.38 143.313 120.475Z" fill="#F1CDBA"/>
<path d="M136.625 45.9667C140.566 38.5933 148.929 34.4416 157.219 33.4299C159.647 33.151 162.093 33.0676 164.534 33.1805C163.831 29.9182 163.744 26.5532 164.276 23.2587C165.171 18.5082 167.258 14.0637 170.34 10.343C173.422 6.62239 177.398 3.74784 181.895 1.98968C190.648 -1.07694 200.253 -0.583407 208.647 3.36429C216.967 6.72308 223.657 13.1919 227.3 21.402C230.749 29.9083 229.574 40.986 223.169 47.292C215.861 53.0205 207.79 55.0751 198.891 56.2136C191.049 57.3128 183.074 55.5287 176.444 51.1916C154.762 66.3791 147.503 93.713 142.176 118.545C134.523 102.244 134.023 83.62 133.66 65.6113C133.526 58.9124 133.468 51.8738 136.625 45.9667Z" fill="#F98968"/>
<path d="M160.588 49.669C160.367 49.4297 161.621 47.9177 163.386 46.2928C165.151 44.6672 166.761 43.544 166.981 43.7837C167.201 44.023 165.948 45.5346 164.182 47.1602C162.417 48.7851 160.807 49.9088 160.588 49.669Z" fill="#2F2929"/>
<path d="M208.351 45.0617C208.215 44.9054 210.08 43.416 212.357 40.402C215.348 36.5012 217.325 31.9172 218.109 27.062C218.893 22.2068 218.46 17.2325 216.849 12.5863C215.637 9.00719 214.337 7.00555 214.514 6.89994C214.577 6.85954 214.968 7.31313 215.559 8.21747C216.38 9.50778 217.073 10.8748 217.63 12.2994C219.518 17.0426 220.085 22.2098 219.271 27.2503C218.457 32.2907 216.292 37.0156 213.008 40.9212C212.031 42.0973 210.942 43.1755 209.757 44.1409C208.911 44.8128 208.397 45.1197 208.351 45.0617Z" fill="#2F2929"/>
<path d="M199.221 30.2617C199.117 30.1309 200.276 29.0476 202.175 27.3542C204.669 25.2122 206.993 22.8789 209.125 20.3755C211.214 17.8721 212.818 15.0005 213.855 11.9081C214.617 9.52399 214.694 7.9364 214.887 7.94584C215.176 9.33659 215.096 10.7788 214.657 12.1294C213.814 15.4367 212.234 18.5102 210.037 21.1198C207.87 23.6923 205.409 26.0007 202.704 27.9975C201.664 28.9239 200.49 29.6872 199.221 30.2617Z" fill="#2F2929"/>
<g opacity="0.3">
<path opacity="0.3" d="M164.026 25.1753C163.713 30.2108 164.674 35.2439 166.82 39.8085C168.966 44.3731 172.228 48.3217 176.303 51.2885L175.984 51.7265C172.997 51.5421 170.116 50.5446 167.654 48.8416C165.191 47.1386 163.239 44.7947 162.009 42.0626C160.778 39.3305 160.316 36.3139 160.671 33.338C161.027 30.362 162.186 27.5397 164.026 25.1753Z" fill="#2F2929"/>
</g>
<path d="M141.81 59.3418C143.659 60.1789 145.412 61.215 147.038 62.4318C148.863 63.3219 150.586 64.4082 152.176 65.6715C150.093 65.4602 148.106 64.6884 146.426 63.438C143.487 61.6526 141.595 59.569 141.81 59.3418Z" fill="white"/>
<path d="M130.531 75.2568C132.959 75.4957 135.364 75.9163 137.729 76.5151C140.158 76.7317 142.568 77.1303 144.938 77.7075C142.503 78.2961 139.962 78.2855 137.532 77.6767C135.038 77.4475 132.636 76.6172 130.531 75.2568Z" fill="white"/>
<path d="M154.323 29.2637C154.65 29.3906 153.133 33.6681 152.269 39.1472C151.367 44.6226 151.463 49.1597 151.113 49.1772C150.007 42.3664 151.133 35.38 154.323 29.2637Z" fill="white"/>
<path d="M158.128 58.3965C158.213 58.0676 160.229 58.3592 162.687 58.4927C165.146 58.6327 167.181 58.5662 167.23 58.9026C165.824 59.6717 164.2 59.942 162.622 59.6695C160.012 59.5246 158.041 58.6942 158.128 58.3965Z" fill="white"/>
<path d="M140.539 88.1235C143.803 91.1351 146.054 95.0862 146.983 99.4324C145.652 97.7099 144.522 95.8407 143.614 93.8611C142.374 92.0722 141.342 90.1472 140.539 88.1235Z" fill="white"/>
<path d="M185.652 45.3168C186.38 43.157 187.281 41.0601 188.348 39.0469C190.272 34.8958 192.641 29.7862 195.26 24.136C197.813 18.4534 200.121 13.3157 201.996 9.1422C202.818 7.01687 203.811 4.96204 204.966 2.99805C204.434 5.21703 203.697 7.38156 202.764 9.46361C201.241 13.3942 199 18.7719 196.33 24.6258C193.658 30.4767 191.064 35.6919 189.094 39.4177C188.132 41.4867 186.98 43.4616 185.652 45.3168Z" fill="white"/>
<path d="M173.977 13.01C175.236 11.9859 176.636 11.1487 178.134 10.5242C185.131 7.05936 192.598 4.64074 200.296 3.34552C201.875 2.97357 203.5 2.83102 205.12 2.92224C205.174 3.27747 197.904 4.43625 189.314 7.243C180.712 10.0047 174.139 13.3301 173.977 13.01Z" fill="white"/>
<path d="M219.559 26.1943C221.755 28.5606 223.383 31.3975 224.319 34.4891C225.255 37.5807 225.473 40.8454 224.959 44.0344C224.6 44.0261 224.715 39.7604 223.193 34.8304C221.727 29.8852 219.266 26.4005 219.559 26.1943Z" fill="white"/>
<path d="M186.488 55.3813C188.725 55.1776 190.937 54.763 193.096 54.143C195.123 53.175 197.055 52.0172 198.864 50.6851C197.66 52.7779 195.769 54.389 193.513 55.2449C191.257 56.1009 188.775 56.1491 186.488 55.3813Z" fill="white"/>
<path d="M165.221 36.8373C165.458 34.662 166.24 32.582 167.493 30.7899C168.747 28.9979 170.433 27.5519 172.393 26.5859C172.596 26.867 170.401 28.6528 168.457 31.4664C166.481 34.2562 165.554 36.9325 165.221 36.8373Z" fill="white"/>
<path d="M234.561 76.4848C234.388 76.1985 235.18 75.4188 235.957 74.367C236.752 73.3274 237.281 72.3506 237.604 72.4375C237.913 72.5041 237.841 73.8264 236.897 75.0759C235.96 76.3293 234.71 76.7638 234.561 76.4848Z" fill="white"/>
<path d="M169.066 45.8423C169.207 45.9925 166.402 48.6413 162.316 53.3156C151.637 65.5093 143.503 79.7198 138.393 95.1101C136.43 101.004 135.565 104.766 135.365 104.72C135.4 103.812 135.538 102.91 135.776 102.033C136.099 100.315 136.712 97.8571 137.599 94.8578C142.323 79.1684 150.565 64.768 161.698 52.7575C163.833 50.4751 165.641 48.7028 166.959 47.5557C167.595 46.9066 168.302 46.3318 169.066 45.8423Z" fill="#2F2929"/>
<path d="M132.391 70.6825C133.387 68.6189 134.624 66.6803 136.074 64.9068C142.694 56.0258 150.934 48.481 160.358 42.6715C162.251 41.3833 164.289 40.3234 166.431 39.5137C164.63 40.9042 162.754 42.1921 160.809 43.3714C151.745 49.4965 143.631 56.9256 136.73 65.4194C135.383 67.254 133.935 69.0112 132.391 70.6825Z" fill="#2F2929"/>
<path d="M178.829 4.11632C178.925 4.19536 178.054 5.17872 176.864 7.19398C175.213 10.0495 174.091 13.1797 173.551 16.4343C172.751 21.2502 173.197 26.1912 174.847 30.7853C176.973 36.3725 180.742 41.182 185.656 44.5784C190.538 48.0315 196.266 50.0898 202.226 50.533C207.089 50.966 211.988 50.3662 216.603 48.7727C219.706 47.6718 222.539 45.9225 224.914 43.6409C226.579 42.0019 227.249 40.8611 227.364 40.9432C227.399 40.9652 227.24 41.251 226.904 41.7793C226.42 42.5565 225.865 43.2864 225.244 43.9592C222.925 46.4365 220.07 48.3495 216.899 49.5519C212.189 51.3075 207.154 52.0119 202.145 51.6157C195.972 51.2186 190.029 49.1158 184.977 45.5409C179.87 42.0095 175.975 36.9846 173.827 31.1532C172.163 26.3803 171.785 21.2521 172.732 16.2863C173.357 12.9592 174.629 9.78749 176.475 6.95139C176.978 6.18876 177.538 5.46478 178.148 4.7855C178.565 4.31983 178.798 4.08976 178.829 4.11632Z" fill="#2F2929"/>
<path d="M165.437 19.7627C165.631 19.8064 165.054 22.1819 164.82 26.0669C164.445 31.1032 165.272 36.1565 167.231 40.81C169.285 45.4123 172.777 49.2215 177.181 51.664C179.07 52.5621 181.026 53.3111 183.031 53.9038C182.457 53.9986 181.869 53.9735 181.304 53.8303C179.744 53.5751 178.229 53.096 176.806 52.4078C172.065 50.0665 168.297 46.1323 166.157 41.2919C164.104 36.4735 163.357 31.1977 163.991 25.9975C164.156 24.4396 164.441 22.8968 164.842 21.3825C164.937 20.81 165.139 20.2604 165.437 19.7627Z" fill="#2F2929"/>
<g opacity="0.3">
<path opacity="0.3" d="M149.743 69.3804C145.315 77.5224 141.551 86.0096 138.488 94.759C137.099 97.5508 136.554 100.688 136.919 103.786C137.046 104.38 137.471 105.099 138.056 104.938C138.433 104.834 138.609 104.412 138.734 104.04C143.676 89.3593 149.484 74.9852 156.129 60.9941L149.743 69.3804Z" fill="#2F2929"/>
</g>
<g opacity="0.3">
<path opacity="0.3" d="M216.813 10.2056C220.511 22.5029 218.836 35.5811 208.986 44.8027C211.038 44.5115 212.981 43.7008 214.632 42.4475C216.283 41.1942 217.588 39.5397 218.422 37.6405C220.457 33.2952 221.376 28.5096 221.094 23.7185C220.813 18.9274 219.342 14.2824 216.813 10.2056Z" fill="#2F2929"/>
</g>
<path d="M219.066 175.86C219.066 175.86 240.886 184.743 245.074 196.127C249.262 207.511 280.999 301.403 280.999 301.403L244.165 315.558L227.334 238.282L219.066 175.86Z" fill="#F98968"/>
<path d="M121.416 321.06L127.098 356.208C127.098 356.208 102.442 402.961 99.6739 443.158C99.6328 443.754 99.6035 444.369 99.5858 445.004C98.696 476.59 123.359 503.056 154.805 505.671C183.012 508.016 218.405 510.321 242.878 509.679L292.819 507.502L340.959 419.775L250.917 383.868L238.976 353.773L246.417 314.784C246.417 314.784 256.501 286.755 257.347 278.468C259.138 260.954 258.392 243.257 240.946 220.569L219.065 175.86L211.759 172.538L215.233 226.679L152.334 166.767L125.168 175.86L111.463 220.863L121.416 321.06Z" fill="#F98968"/>
<path d="M246.42 314.784C246.47 314.438 246.558 314.098 246.684 313.772C246.923 313.031 247.227 312.088 247.602 310.926C248.413 308.46 249.611 304.901 250.984 300.472C252.621 295.302 253.992 290.05 255.09 284.739C256.452 278.251 257.058 271.628 256.895 265C256.283 252.933 252.902 241.17 247.012 230.625C245.265 227.415 243.344 224.303 241.257 221.302C240.54 220.223 239.921 219.429 239.54 218.861C239.321 218.588 239.134 218.292 238.98 217.977C239.242 218.208 239.478 218.468 239.681 218.752C240.108 219.286 240.772 220.049 241.535 221.101C243.742 224.04 245.753 227.12 247.558 230.322C250.26 235.07 252.481 240.076 254.188 245.266C256.292 251.635 257.5 258.266 257.776 264.969C257.942 271.665 257.308 278.357 255.886 284.902C254.747 290.232 253.308 295.494 251.578 300.662C250.126 305.077 248.836 308.608 247.926 311.04C247.487 312.18 247.131 313.105 246.851 313.831C246.744 314.164 246.599 314.484 246.42 314.784Z" fill="#2F2929"/>
<path d="M210.459 261.982C210.547 262.771 210.559 263.566 210.492 264.357C210.492 265.287 210.424 266.217 210.291 267.137C210.176 268.365 209.99 269.585 209.734 270.792C209.464 272.264 209.103 273.717 208.654 275.144C208.168 276.792 207.594 278.413 206.935 280C203.879 287.3 199.154 293.78 193.142 298.919C191.834 300.032 190.467 301.073 189.047 302.038C187.827 302.901 186.554 303.689 185.237 304.395C184.167 305.006 183.063 305.555 181.931 306.039C181.095 306.447 180.232 306.794 179.347 307.078C178.616 307.382 177.856 307.614 177.079 307.769C177.007 307.582 180.252 306.579 184.928 303.852C186.206 303.119 187.442 302.313 188.628 301.438C190.007 300.461 191.336 299.415 192.61 298.304C198.461 293.183 203.099 286.821 206.188 279.68C206.856 278.126 207.446 276.54 207.955 274.927C208.426 273.529 208.816 272.105 209.124 270.663C210.294 265.372 210.259 261.971 210.459 261.982Z" fill="#2F2929"/>
<path d="M256.98 277.396C256.886 277.302 256.806 277.194 256.743 277.077C256.576 276.812 256.374 276.491 256.128 276.1C255.567 275.171 254.806 273.909 253.844 272.315C252.72 270.725 251.368 268.811 249.806 266.601C248.157 264.428 246.22 261.996 244.102 259.294C235.406 248.651 222.546 234.656 207.818 219.721C193.043 204.821 179.258 191.743 169.103 182.476C166.554 180.186 164.243 178.11 162.203 176.276C160.164 174.493 158.399 172.948 156.933 171.664C155.512 170.461 154.386 169.507 153.556 168.804C153.209 168.498 152.925 168.249 152.691 168.042C152.499 167.866 152.405 167.77 152.415 167.758C152.535 167.812 152.647 167.884 152.747 167.971C152.996 168.159 153.298 168.387 153.667 168.664C154.523 169.337 155.685 170.249 157.153 171.4C158.648 172.654 160.448 174.162 162.526 175.904C164.595 177.71 166.937 179.756 169.52 182.012C179.791 191.168 193.655 204.185 208.445 219.1C223.187 234.049 235.995 248.133 244.587 258.902C246.681 261.637 248.588 264.102 250.204 266.31C251.724 268.561 253.04 270.51 254.133 272.13C255.039 273.765 255.756 275.061 256.285 276.017C256.501 276.425 256.677 276.759 256.823 277.036C256.893 277.147 256.946 277.269 256.98 277.396Z" fill="#2F2929"/>
<path d="M224.094 355.849C223.783 355.951 223.46 356.016 223.134 356.042C222.404 356.143 221.487 356.27 220.363 356.425C217.955 356.749 214.459 357.126 210.132 357.509C201.478 358.282 189.475 358.919 176.212 358.759C162.944 358.585 150.96 357.644 142.328 356.653C138.012 356.161 134.527 355.696 132.128 355.312C131.008 355.128 130.095 354.978 129.368 354.859C129.042 354.825 128.722 354.752 128.414 354.641C128.741 354.616 129.069 354.63 129.392 354.683C130.124 354.758 131.045 354.854 132.173 354.971C134.583 355.251 138.075 355.62 142.393 356.032C151.027 356.862 162.987 357.702 176.223 357.876C189.454 358.036 201.431 357.498 210.083 356.887C214.409 356.584 217.91 356.302 220.327 356.083C221.458 355.995 222.38 355.923 223.114 355.865C223.439 355.821 223.768 355.815 224.094 355.849Z" fill="#2F2929"/>
<path d="M85.5808 270.576C85.5808 270.576 79.2368 330.103 79.2344 338.277C79.2296 353.262 89.3163 367.28 104.152 367.158C114.192 367.075 229.543 341.07 229.543 341.07L223.788 312.951L130.333 313.129L131.939 274.05L85.5808 270.576Z" fill="#B36148"/>
<path d="M168.414 313.057L223.788 312.952L263.201 306.052L282.638 304.233L296.078 315.4C297.022 316.185 297.779 317.172 298.291 318.288C298.804 319.405 299.059 320.622 299.039 321.851L298.879 331.635L296.844 332.926L298.534 337.61C298.901 338.628 298.96 339.732 298.703 340.783C298.446 341.834 297.885 342.786 297.09 343.519L283.702 329.867L291.478 345.23C290.442 345.778 289.307 346.111 288.139 346.21C286.972 346.308 285.797 346.17 284.684 345.803C280.047 344.784 270.765 326.946 270.765 326.946L263.285 324.588L276.798 344.402C276.798 344.402 277.313 345.97 273.689 346.703C270.066 347.435 254.247 330.914 254.247 330.914C250.163 334.805 245.166 337.604 239.717 339.051C231.862 340.615 215.356 343.881 215.356 343.881L168.414 313.057Z" fill="#B36148"/>
<path d="M291.479 345.23C290.346 343.617 289.36 341.905 288.534 340.114C286.832 336.892 284.545 332.403 282.078 327.42C281.264 325.042 279.588 323.057 277.381 321.858C275.276 320.903 273.158 320.209 271.496 319.52C269.628 318.899 267.821 318.112 266.094 317.168C268.024 317.551 269.916 318.105 271.747 318.826C273.475 319.439 275.507 320.013 277.8 320.991C280.257 322.252 282.135 324.412 283.044 327.023C285.502 331.985 287.673 336.501 289.199 339.796C290.119 341.536 290.882 343.354 291.479 345.23Z" fill="#421C0E"/>
<path d="M296.383 333.106C295.327 331.687 294.362 330.202 293.493 328.661C291.249 325.056 288.803 321.582 286.166 318.254C285.38 317.289 284.615 316.347 283.869 315.43C283.496 314.978 283.129 314.533 282.768 314.094L282.232 313.448C282.156 313.365 282.033 313.185 281.988 313.176C281.972 313.189 281.997 313.195 281.971 313.178L281.803 313.123C279.834 312.583 277.833 312.322 276.247 312.033C274.485 311.843 272.744 311.496 271.043 310.998C272.817 310.904 274.596 311.006 276.348 311.301C278.285 311.479 280.209 311.783 282.107 312.209L282.327 312.278C282.447 312.332 282.562 312.4 282.667 312.48C282.78 312.582 282.885 312.693 282.98 312.812L283.53 313.451C283.899 313.886 284.274 314.327 284.655 314.775C285.409 315.692 286.184 316.634 286.979 317.599C289.656 320.953 292.046 324.526 294.125 328.281C295.092 329.78 295.852 331.403 296.383 333.106Z" fill="#421C0E"/>
<path d="M211.886 345.019C212.132 344.922 212.386 344.848 212.646 344.799C213.207 344.665 213.954 344.486 214.905 344.259C216.959 343.794 219.889 343.13 223.645 342.28C227.475 341.432 232.14 340.399 237.565 339.199C243.767 338.053 249.483 335.07 253.974 330.636L254.259 330.369L254.527 330.644C257.588 333.774 260.933 337.052 264.622 340.31C266.488 341.991 268.465 343.547 270.538 344.965C271.062 345.314 271.612 345.624 272.181 345.894C272.665 346.185 273.238 346.294 273.795 346.2C274.405 346.084 274.994 345.876 275.542 345.583C276.062 345.327 276.42 344.791 276.348 344.55L276.406 344.669C272.178 338.493 267.624 331.843 262.856 324.881L262.008 323.643L263.441 324.092C265.765 324.821 268.328 325.624 270.924 326.438L271.13 326.503L271.235 326.7C273.55 331.113 276.137 335.378 278.981 339.47C280.351 341.579 282.076 343.435 284.078 344.956C285.207 345.405 286.415 345.621 287.629 345.59C288.844 345.56 290.04 345.283 291.144 344.778L290.977 345.483C288.504 340.602 285.869 335.402 283.195 330.124L281.531 326.839L284.108 329.467C287.209 332.629 290.515 335.999 293.854 339.402C295.073 340.646 296.288 341.884 297.497 343.118L296.704 343.097C297.336 342.512 297.803 341.771 298.061 340.949C298.318 340.126 298.356 339.25 298.171 338.409C297.656 336.729 296.919 334.866 296.309 333.119L296.158 332.687L296.54 332.445C297.223 332.012 297.901 331.582 298.576 331.154L298.312 331.625C298.363 328.628 298.412 325.658 298.462 322.713C298.61 321.338 298.398 319.948 297.845 318.681C297.292 317.413 296.419 316.313 295.311 315.487C290.876 311.796 286.537 308.183 282.293 304.65L282.689 304.772C275.987 305.39 269.507 305.987 263.249 306.564L263.289 306.559C248.77 309.066 235.515 311.355 223.861 313.367L223.824 313.374L223.788 313.374C206.749 313.327 192.922 313.289 183.288 313.263C178.55 313.224 174.847 313.193 172.261 313.171C171.046 313.148 170.095 313.13 169.392 313.117C169.065 313.124 168.738 313.104 168.414 313.057C168.738 313.008 169.065 312.987 169.392 312.993C170.094 312.977 171.045 312.955 172.261 312.927C174.846 312.896 178.55 312.851 183.287 312.794C192.921 312.73 206.748 312.64 223.787 312.529L223.715 312.535C235.36 310.469 248.605 308.118 263.112 305.544L263.132 305.54L263.153 305.538C269.406 304.945 275.884 304.329 282.588 303.693L282.811 303.672L282.984 303.816C287.23 307.337 291.576 310.941 296.022 314.628C297.256 315.557 298.233 316.786 298.862 318.198C299.465 319.629 299.714 321.184 299.588 322.732C299.541 325.676 299.494 328.646 299.446 331.643L299.442 331.949L299.183 332.114C298.507 332.543 297.829 332.973 297.148 333.406L297.378 332.733C298.007 334.542 298.687 336.201 299.283 338.161C299.512 339.198 299.465 340.277 299.148 341.29C298.832 342.304 298.255 343.217 297.477 343.938L297.068 344.311L296.683 343.918C295.474 342.686 294.26 341.448 293.039 340.203C289.702 336.799 286.397 333.428 283.296 330.265L284.209 329.609C286.879 334.889 289.509 340.092 291.978 344.975L292.211 345.436L291.811 345.681C290.545 346.397 289.108 346.749 287.656 346.702C286.968 346.697 286.282 346.643 285.602 346.538C285.264 346.491 284.933 346.414 284.599 346.353C284.247 346.231 283.886 346.075 283.536 345.926C281.388 344.329 279.544 342.36 278.09 340.111C275.224 335.972 272.62 331.657 270.294 327.191L270.605 327.452C268.011 326.631 265.451 325.819 263.129 325.084L263.714 324.295C268.455 331.275 272.983 337.943 277.189 344.134L277.253 344.229L277.248 344.254C276.386 348.274 271.831 347.328 270.043 345.728C267.94 344.276 265.937 342.683 264.048 340.961C260.349 337.656 257.022 334.353 253.967 331.182L254.519 331.19C249.899 335.69 244.033 338.69 237.685 339.8C232.248 340.928 227.572 341.899 223.733 342.696C219.959 343.46 217.015 344.056 214.951 344.474C213.991 344.656 213.236 344.8 212.67 344.908C212.413 344.969 212.15 345.006 211.886 345.019Z" fill="#421C0E"/>
<path d="M66.8711 295.385L108.171 298.025L141.436 295.938L140.048 239.656L130.858 174.085C130.858 174.085 93.9907 183.079 86.0185 211.151C80.1081 231.962 66.8711 295.385 66.8711 295.385Z" fill="#F98968"/>
<path d="M132.104 208.427C132.555 209.35 132.896 210.323 133.121 211.326C133.871 214.018 134.455 216.754 134.871 219.517C135.993 228.644 136.624 237.825 136.763 247.021C137.183 257.769 137.499 267.5 137.671 274.546C137.729 277.9 137.778 280.702 137.816 282.892C137.881 283.916 137.847 284.943 137.713 285.959C137.501 284.956 137.386 283.935 137.372 282.91C137.239 280.723 137.068 277.926 136.865 274.578C136.486 267.54 136.042 257.813 135.622 247.065C135.195 236.317 135.006 226.59 134.071 219.629C133.632 216.147 133.101 213.355 132.69 211.434C132.417 210.448 132.221 209.443 132.104 208.427Z" fill="#2F2929"/>
<path d="M41.3793 400.173L148.498 401.456C148.888 401.469 149.27 401.565 149.62 401.736C149.97 401.907 150.28 402.15 150.53 402.448C150.78 402.747 150.965 403.095 151.071 403.47C151.178 403.845 151.204 404.238 151.149 404.623L135.087 538.446H160.234L173.215 391.135C173.361 389.946 173.258 388.74 172.913 387.593C172.568 386.446 171.988 385.384 171.21 384.473C170.433 383.562 169.475 382.823 168.396 382.302C167.318 381.781 166.143 381.49 164.946 381.447L39.7812 380.713L41.3793 400.173Z" fill="url(#paint28_linear_467_4077)"/>
<path d="M508.532 381.571H526.021V385.449L487.514 758.669H469.555L508.532 381.571Z" fill="#B36148"/>
<path d="M508.532 381.571H526.021V385.449L487.514 758.669H469.555L508.532 381.571Z" fill="url(#paint29_linear_467_4077)"/>
<path d="M73.0554 381.571H90.5444V385.449L52.4601 758.183L32.7578 758.669L73.0554 381.571Z" fill="#B36148"/>
<path d="M973.069 381.571H955.582V385.529L992.019 758.669H1009.98L973.069 381.571Z" fill="#B36148"/>
<path d="M973.858 386.458C973.858 386.458 973.899 387.125 974.012 388.394C974.129 389.68 974.301 391.555 974.525 394.009C974.992 398.951 975.678 406.207 976.561 415.555C978.357 434.267 980.954 461.338 984.173 494.879C990.681 561.909 999.698 654.779 1009.74 758.229L1010.23 757.694L992.535 757.694H992.267L992.753 758.134C975.73 585.361 961.31 439.011 956.521 390.402L956.521 390.416C956.515 388.583 956.511 387.495 956.508 386.458L956.37 386.595L969.57 386.517C970.998 386.503 972.06 386.492 972.788 386.485C973.498 386.475 973.858 386.458 973.858 386.458C973.858 386.458 973.53 386.44 972.834 386.431C972.112 386.423 971.061 386.412 969.645 386.398C966.741 386.381 962.363 386.355 956.37 386.32L956.233 386.319L956.232 386.458C956.229 387.495 956.225 388.583 956.219 390.416V390.423L956.22 390.431C960.921 439.05 975.073 585.425 991.781 758.229L991.824 758.67H992.535C998.595 758.669 1004.62 758.669 1010.23 758.669H1010.76L1010.71 758.134C1000.5 654.566 991.336 561.59 984.72 494.484C981.381 461 978.687 433.974 976.824 415.295C975.883 405.999 975.153 398.784 974.655 393.869C974.403 391.445 974.21 389.596 974.077 388.322C973.943 387.077 973.858 386.458 973.858 386.458Z" fill="#DC8E7A"/>
<path d="M0 385.449L1014.78 386.117L1015.15 369.604H0V385.449Z" fill="#DC8E7A"/>
<path d="M2.33203 386.116C2.33203 385.804 228.994 385.552 508.531 385.552C788.165 385.552 1014.78 385.804 1014.78 386.116C1014.78 386.428 788.165 386.681 508.531 386.681C228.994 386.681 2.33203 386.428 2.33203 386.116Z" fill="url(#paint30_linear_467_4077)"/>
<defs>
<linearGradient id="paint0_linear_467_4077" x1="1102.73" y1="496.465" x2="1100.43" y2="541.907" gradientUnits="userSpaceOnUse">
<stop stop-color="#B84C42"/>
<stop offset="1" stop-color="#57201B"/>
</linearGradient>
<linearGradient id="paint1_linear_467_4077" x1="1113.3" y1="157.999" x2="915.142" y2="486.212" gradientUnits="userSpaceOnUse">
<stop stop-color="#B84C42"/>
<stop offset="1" stop-color="#57201B"/>
</linearGradient>
<linearGradient id="paint2_linear_467_4077" x1="1019.84" y1="9.2421" x2="952.384" y2="143.311" gradientUnits="userSpaceOnUse">
<stop stop-color="#B84C42"/>
<stop offset="1" stop-color="#57201B"/>
</linearGradient>
<linearGradient id="paint3_linear_467_4077" x1="1098.36" y1="14.5955" x2="1020.49" y2="141.147" gradientUnits="userSpaceOnUse">
<stop stop-color="#B84C42"/>
<stop offset="1" stop-color="#57201B"/>
</linearGradient>
<linearGradient id="paint4_linear_467_4077" x1="1020.19" y1="162.057" x2="1020.19" y2="177.649" gradientUnits="userSpaceOnUse">
<stop stop-color="#B84C42"/>
<stop offset="1" stop-color="#B84C42" stop-opacity="0"/>
</linearGradient>
<linearGradient id="paint5_linear_467_4077" x1="1068.59" y1="115.777" x2="1068.59" y2="130.109" gradientUnits="userSpaceOnUse">
<stop stop-color="#B84C42"/>
<stop offset="1" stop-color="#B84C42" stop-opacity="0"/>
</linearGradient>
<linearGradient id="paint6_linear_467_4077" x1="1052.04" y1="24.5049" x2="1017.87" y2="134.258" gradientUnits="userSpaceOnUse">
<stop stop-color="#B84C42"/>
<stop offset="1" stop-color="#57201B"/>
</linearGradient>
<linearGradient id="paint7_linear_467_4077" x1="959.607" y1="397.85" x2="1104.41" y2="575.113" gradientUnits="userSpaceOnUse">
<stop stop-color="#2C3A64"/>
<stop offset="1" stop-color="#0A1432"/>
</linearGradient>
<linearGradient id="paint8_linear_467_4077" x1="884.903" y1="371.77" x2="991.437" y2="490.413" gradientUnits="userSpaceOnUse">
<stop stop-color="#2C3A64"/>
<stop offset="1" stop-color="#0A1432"/>
</linearGradient>
<linearGradient id="paint9_linear_467_4077" x1="881.556" y1="422.985" x2="881.556" y2="439.868" gradientUnits="userSpaceOnUse">
<stop stop-color="#E1BEB1"/>
<stop offset="1" stop-color="#E1BEB1" stop-opacity="0"/>
</linearGradient>
<linearGradient id="paint10_linear_467_4077" x1="883.831" y1="406.821" x2="883.831" y2="441.41" gradientUnits="userSpaceOnUse">
<stop stop-color="#E1BEB1"/>
<stop offset="1" stop-color="#E1BEB1" stop-opacity="0"/>
</linearGradient>
<linearGradient id="paint11_linear_467_4077" x1="885.465" y1="406.825" x2="885.465" y2="599.145" gradientUnits="userSpaceOnUse">
<stop stop-color="#E1BEB1"/>
<stop offset="1" stop-color="#E1BEB1" stop-opacity="0"/>
</linearGradient>
<linearGradient id="paint12_linear_467_4077" x1="1040.74" y1="167.099" x2="1040.74" y2="442.138" gradientUnits="userSpaceOnUse">
<stop stop-color="#454E3F"/>
<stop offset="1" stop-color="#21241F" stop-opacity="0.45"/>
</linearGradient>
<linearGradient id="paint13_linear_467_4077" x1="1128.85" y1="342.74" x2="1030.23" y2="536.258" gradientUnits="userSpaceOnUse">
<stop stop-color="#B84C42"/>
<stop offset="1" stop-color="#57201B"/>
</linearGradient>
<linearGradient id="paint14_linear_467_4077" x1="992.077" y1="359.91" x2="992.077" y2="368.102" gradientUnits="userSpaceOnUse">
<stop stop-color="#B84C42"/>
<stop offset="1" stop-color="#B84C42" stop-opacity="0"/>
</linearGradient>
<linearGradient id="paint15_linear_467_4077" x1="984.589" y1="351.144" x2="984.589" y2="362.611" gradientUnits="userSpaceOnUse">
<stop stop-color="#B84C42"/>
<stop offset="1" stop-color="#B84C42" stop-opacity="0"/>
</linearGradient>
<linearGradient id="paint16_linear_467_4077" x1="822.206" y1="355.121" x2="822.206" y2="366.365" gradientUnits="userSpaceOnUse">
<stop stop-color="#B84C42"/>
<stop offset="1" stop-color="#B84C42" stop-opacity="0"/>
</linearGradient>
<linearGradient id="paint17_linear_467_4077" x1="814.737" y1="348.12" x2="814.737" y2="358.226" gradientUnits="userSpaceOnUse">
<stop stop-color="#B84C42"/>
<stop offset="1" stop-color="#B84C42" stop-opacity="0"/>
</linearGradient>
<linearGradient id="paint18_linear_467_4077" x1="808.161" y1="342.992" x2="808.161" y2="351.914" gradientUnits="userSpaceOnUse">
<stop stop-color="#B84C42"/>
<stop offset="1" stop-color="#B84C42" stop-opacity="0"/>
</linearGradient>
<linearGradient id="paint19_linear_467_4077" x1="235.069" y1="735.79" x2="250.158" y2="770.756" gradientUnits="userSpaceOnUse">
<stop stop-color="#B84C42"/>
<stop offset="1" stop-color="#57201B"/>
</linearGradient>
<linearGradient id="paint20_linear_467_4077" x1="157.741" y1="735.79" x2="172.83" y2="770.757" gradientUnits="userSpaceOnUse">
<stop stop-color="#B84C42"/>
<stop offset="1" stop-color="#57201B"/>
</linearGradient>
<linearGradient id="paint21_linear_467_4077" x1="68.1665" y1="735.79" x2="83.2559" y2="770.756" gradientUnits="userSpaceOnUse">
<stop stop-color="#B84C42"/>
<stop offset="1" stop-color="#57201B"/>
</linearGradient>
<linearGradient id="paint22_linear_467_4077" x1="87.4689" y1="160.669" x2="287.756" y2="492.217" gradientUnits="userSpaceOnUse">
<stop stop-color="#B84C42"/>
<stop offset="1" stop-color="#57201B"/>
</linearGradient>
<linearGradient id="paint23_linear_467_4077" x1="87.4689" y1="160.669" x2="287.756" y2="492.217" gradientUnits="userSpaceOnUse">
<stop stop-color="#B84C42"/>
<stop offset="1" stop-color="#57201B"/>
</linearGradient>
<linearGradient id="paint24_linear_467_4077" x1="120.935" y1="515.198" x2="120.939" y2="516.96" gradientUnits="userSpaceOnUse">
<stop stop-color="#B84C42"/>
<stop offset="1" stop-color="#57201B"/>
</linearGradient>
<linearGradient id="paint25_linear_467_4077" x1="69.1162" y1="376.314" x2="73.1991" y2="376.407" gradientUnits="userSpaceOnUse">
<stop stop-color="#B84C42"/>
<stop offset="1" stop-color="#57201B"/>
</linearGradient>
<linearGradient id="paint26_linear_467_4077" x1="98.1438" y1="502.681" x2="100.466" y2="548.6" gradientUnits="userSpaceOnUse">
<stop stop-color="#B84C42"/>
<stop offset="1" stop-color="#57201B"/>
</linearGradient>
<linearGradient id="paint27_linear_467_4077" x1="184.902" y1="148.533" x2="188.939" y2="171.239" gradientUnits="userSpaceOnUse">
<stop stop-color="#B84C42"/>
<stop offset="1" stop-color="#57201B"/>
</linearGradient>
<linearGradient id="paint28_linear_467_4077" x1="71.7652" y1="347.346" x2="171.452" y2="542.844" gradientUnits="userSpaceOnUse">
<stop stop-color="#B84C42"/>
<stop offset="1" stop-color="#57201B"/>
</linearGradient>
<linearGradient id="paint29_linear_467_4077" x1="497.788" y1="381.571" x2="497.788" y2="758.669" gradientUnits="userSpaceOnUse">
<stop stop-color="#B84C42"/>
<stop offset="1" stop-color="#B84C42" stop-opacity="0"/>
</linearGradient>
<linearGradient id="paint30_linear_467_4077" x1="244.897" y1="385.313" x2="244.898" y2="387.076" gradientUnits="userSpaceOnUse">
<stop stop-color="#B84C42"/>
<stop offset="1" stop-color="#57201B"/>
</linearGradient>
</defs>
</svg>
