<svg width="100%" height="100%" viewBox="0 0 49 48" fill="none" xmlns="http://www.w3.org/2000/svg">
<path fill-rule="evenodd" clip-rule="evenodd" d="M6.3418 24C6.3418 32.9 12.8418 40.3 21.3418 41.8L21.4421 41.7197C21.4087 41.7133 21.3752 41.7067 21.3418 41.7V29H16.8418V24H21.3418V20C21.3418 15.5 24.2418 13 28.3418 13C29.6418 13 31.0418 13.2 32.3418 13.4V18H30.0418C27.8418 18 27.3418 19.1 27.3418 20.5V24H32.1418L31.3418 29H27.3418V41.7C27.3084 41.7067 27.2749 41.7133 27.2415 41.7197L27.3418 41.8C35.8418 40.3 42.3418 32.9 42.3418 24C42.3418 14.1 34.2418 6 24.3418 6C14.4418 6 6.3418 14.1 6.3418 24Z" fill="#232E3D"/>
</svg>

