<svg width="49" height="48" viewBox="0 0 49 48" fill="none" xmlns="http://www.w3.org/2000/svg">
<path d="M24.3422 6.54541C19.602 6.54541 19.0071 6.56614 17.1453 6.65087C15.2872 6.73596 14.0189 7.03014 12.9091 7.46177C11.7611 7.90759 10.7873 8.50396 9.81718 9.4745C8.8463 10.4447 8.24995 11.4185 7.80269 12.5661C7.36998 13.6763 7.07544 14.945 6.99181 16.8025C6.90854 18.6643 6.88672 19.2596 6.88672 24C6.88672 28.7403 6.90781 29.3334 6.99217 31.1952C7.07762 33.0534 7.3718 34.3218 7.80305 35.4316C8.24922 36.5796 8.84557 37.5534 9.81608 38.5236C10.7859 39.4945 11.7597 40.0923 12.9069 40.5381C14.0174 40.9698 15.2861 41.264 17.1439 41.349C19.0056 41.4338 19.6002 41.4545 24.34 41.4545C29.0806 41.4545 29.6737 41.4338 31.5354 41.349C33.3936 41.264 34.6633 40.9698 35.7738 40.5381C36.9214 40.0923 37.8938 39.4945 38.8636 38.5236C39.8344 37.5534 40.4308 36.5796 40.8781 35.432C41.3071 34.3218 41.6017 33.053 41.6889 31.1956C41.7726 29.3338 41.7944 28.7403 41.7944 24C41.7944 19.2596 41.7726 18.6647 41.6889 16.8029C41.6017 14.9447 41.3071 13.6763 40.8781 12.5665C40.4308 11.4185 39.8344 10.4447 38.8636 9.4745C37.8927 8.50359 36.9218 7.90723 35.7728 7.46177C34.6601 7.03014 33.391 6.73596 31.5329 6.65087C29.6711 6.56614 29.0784 6.54541 24.3367 6.54541H24.3422ZM22.7764 9.69086C23.2411 9.69014 23.7597 9.69086 24.3422 9.69086C29.0024 9.69086 29.5548 9.70759 31.3951 9.79123C33.0968 9.86905 34.0204 10.1534 34.6357 10.3923C35.4502 10.7087 36.0309 11.0869 36.6415 11.6978C37.2523 12.3087 37.6305 12.8905 37.9476 13.705C38.1865 14.3196 38.4712 15.2432 38.5487 16.945C38.6323 18.785 38.6505 19.3378 38.6505 23.996C38.6505 28.6541 38.6323 29.2069 38.5487 31.0469C38.4709 32.7487 38.1865 33.6723 37.9476 34.2869C37.6312 35.1014 37.2523 35.6814 36.6415 36.292C36.0306 36.9029 35.4506 37.281 34.6357 37.5974C34.0212 37.8374 33.0968 38.121 31.3951 38.1989C29.5551 38.2825 29.0024 38.3007 24.3422 38.3007C19.6816 38.3007 19.1293 38.2825 17.2893 38.1989C15.5875 38.1203 14.6639 37.836 14.0483 37.597C13.2338 37.2807 12.652 36.9025 12.0411 36.2916C11.4302 35.6807 11.052 35.1003 10.735 34.2854C10.4961 33.6709 10.2113 32.7472 10.1339 31.0454C10.0503 29.2054 10.0335 28.6527 10.0335 23.9916C10.0335 19.3305 10.0503 18.7807 10.1339 16.9407C10.2117 15.2389 10.4961 14.3152 10.735 13.7C11.0513 12.8854 11.4302 12.3036 12.0411 11.6927C12.652 11.0818 13.2338 10.7036 14.0483 10.3865C14.6636 10.1465 15.5875 9.86286 17.2893 9.78468C18.8994 9.71196 19.5234 9.69014 22.7764 9.6865V9.69086ZM33.659 12.589C32.5027 12.589 31.5645 13.5261 31.5645 14.6829C31.5645 15.8392 32.5027 16.7774 33.659 16.7774C34.8153 16.7774 35.7535 15.8392 35.7535 14.6829C35.7535 13.5265 34.8153 12.5883 33.659 12.5883V12.589ZM24.3422 15.0363C19.3922 15.0363 15.3788 19.0498 15.3788 24C15.3788 28.9501 19.3922 32.9618 24.3422 32.9618C29.2922 32.9618 33.3041 28.9501 33.3041 24C33.3041 19.0498 29.2919 15.0363 24.3418 15.0363H24.3422ZM24.3422 18.1818C27.5552 18.1818 30.1602 20.7865 30.1602 24C30.1602 27.213 27.5552 29.8181 24.3422 29.8181C21.1288 29.8181 18.5242 27.213 18.5242 24C18.5242 20.7865 21.1288 18.1818 24.3422 18.1818Z" fill="white"/>
</svg>
