<svg width="30" height="28" viewBox="0 0 49 48" fill="none" xmlns="http://www.w3.org/2000/svg">
<path fill-rule="evenodd" clip-rule="evenodd" d="M9.75513 7C8.42228 7 7.3418 8.08048 7.3418 9.41333V38.5866C7.3418 39.9194 8.42228 40.9999 9.75513 40.9999H38.9285C40.2613 40.9999 41.3418 39.9194 41.3418 38.5866V9.41333C41.3418 8.08048 40.2613 7 38.9285 7H9.75513ZM14.9732 17.5587C16.6022 17.5587 17.9227 16.2382 17.9227 14.6092C17.9227 12.9803 16.6022 11.6597 14.9732 11.6597C13.3443 11.6597 12.0237 12.9803 12.0237 14.6092C12.0237 16.2382 13.3443 17.5587 14.9732 17.5587ZM20.624 19.7385H25.5122V21.9778C25.5122 21.9778 26.8387 19.3248 30.4479 19.3248C33.6675 19.3248 36.3346 20.9109 36.3346 25.7452V35.9395H31.2689V26.9805C31.2689 24.1287 29.7464 23.815 28.5862 23.815C26.1785 23.815 25.7663 25.8919 25.7663 27.3525V35.9395H20.624V19.7385ZM17.5444 19.7385H12.4021V35.9395H17.5444V19.7385Z" fill="#232E3D"/>
</svg>
