<svg width="49" height="48" viewBox="0 0 49 48" fill="none" xmlns="http://www.w3.org/2000/svg">
<path fill-rule="evenodd" clip-rule="evenodd" d="M39.886 16.1775C39.8996 16.5273 39.9041 16.8769 39.9041 17.2267C39.9041 27.8311 32.4444 40.0732 18.8032 40.0732C14.6129 40.0732 10.7165 38.7377 7.43359 36.4642C8.01391 36.5278 8.60327 36.5756 9.20168 36.5756C12.676 36.5756 15.8761 35.2876 18.4144 33.1253C15.1691 33.0776 12.4288 30.7405 11.4838 27.5608C11.9375 27.6562 12.4047 27.704 12.8825 27.704C13.5563 27.704 14.2104 27.6087 14.8375 27.418C11.4415 26.6866 8.88364 23.4434 8.88364 19.5482C8.88364 19.5005 8.88364 19.4845 8.88364 19.4527C9.88449 20.041 11.03 20.4065 12.2464 20.4542C10.2538 19.0074 8.9439 16.5431 8.9439 13.7609C8.9439 12.2982 9.30866 10.915 9.95078 9.72256C13.6075 14.5875 19.0746 17.7832 25.238 18.1171C25.1114 17.5288 25.0465 16.909 25.0465 16.2889C25.0465 11.8532 28.3671 8.26001 32.464 8.26001C34.5968 8.26001 36.5232 9.22997 37.8752 10.788C39.568 10.4383 41.1537 9.77057 42.5886 8.84845C42.0324 10.7245 40.8582 12.2981 39.3238 13.2838C40.8251 13.0931 42.257 12.6641 43.585 12.0282C42.5886 13.6339 41.3345 15.0487 39.886 16.1775Z" fill="#232E3D"/>
</svg>
