<?xml version="1.0" standalone="no"?>
<!DOCTYPE svg PUBLIC "-//W3C//DTD SVG 1.1//EN" "http://www.w3.org/Graphics/SVG/1.1/DTD/svg11.dtd" >
<svg xmlns="http://www.w3.org/2000/svg" xmlns:xlink="http://www.w3.org/1999/xlink" version="1.1">
<metadata>
Created by FontForge 20170731 at Mon Jul 26 11:06:43 2021
 By Aleksey,,,
Copyright 2021, Kris Sowersby, Klim Type Foundry.
</metadata>
<defs>
<font id="SohneBreit-Fett" horiz-adv-x="1638" >
  <font-face 
    font-family="So:hne Breit Fett"
    font-weight="800"
    font-stretch="expanded"
    units-per-em="2048"
    panose-1="2 11 9 5 3 2 2 6 2 3"
    ascent="1597"
    descent="-451"
    x-height="1081"
    cap-height="1470"
    bbox="-553 -459 2914 2058"
    underline-thickness="274"
    underline-position="-532"
    unicode-range="U+0020-FB02"
  />
<missing-glyph horiz-adv-x="1228" 
d="M0 0h1229v1470h-1229v-1470zM270 496l240 241l-240 240l105 104l239 -239l242 239l102 -104l-237 -240l237 -241l-102 -105l-242 240l-239 -240z" />
    <glyph glyph-name="fi" unicode="fi" horiz-adv-x="1556" 
d="M223 1096q0 194 136 296.5t401 102.5q121 0 235 -29l-49 -286q-78 16 -153 16q-183 0 -183 -106v-9h344v-315h-344v-766h-387v766h-225v315h225v15zM1065 1167v303h393v-303h-393zM1456 1081v-1081h-389v1081h389z" />
    <glyph glyph-name="fl" unicode="fl" horiz-adv-x="1556" 
d="M223 1096q0 194 136 296.5t401 102.5q121 0 235 -29l-49 -286q-78 16 -153 16q-183 0 -183 -106v-9h344v-315h-344v-766h-387v766h-225v315h225v15zM1456 1470v-1470h-389v1470h389z" />
    <glyph glyph-name="f_b" unicode="fb" horiz-adv-x="2439" 
d="M223 1096q0 194 136 296.5t401 102.5q121 0 235 -29l-49 -286q-78 16 -153 16q-183 0 -183 -106v-9h344v-315h-344v-766h-387v766h-225v315h225v15zM1456 113v-113h-389v1470h389v-501q54 60 151.5 98.5t219.5 38.5q178 0 311 -77t199.5 -204t66.5 -284
q0 -117 -39 -219.5t-111 -180t-182.5 -122t-244.5 -44.5q-122 0 -219.5 38.5t-151.5 99.5zM1446 547v-12q0 -109 82.5 -179.5t204.5 -70.5q124 0 206 68t82 188t-82 188t-206 68q-122 0 -204.5 -70.5t-82.5 -179.5z" />
    <glyph glyph-name="f_f" unicode="ff" horiz-adv-x="1857" 
d="M223 1096q0 194 136 296.5t401 102.5q161 0 262 -37l-43 -284q-96 22 -186 22q-183 0 -183 -106v-9h455v15q0 194 136 296.5t401 102.5q173 0 286 -45l-43 -285q-105 31 -211 31q-182 0 -182 -106v-9h379v-315h-379v-766h-387v766h-455v-766h-387v766h-225v315h225v15z
" />
    <glyph glyph-name="f_h" unicode="fh" horiz-adv-x="2398" 
d="M223 1096q0 194 136 296.5t401 102.5q121 0 235 -29l-49 -286q-78 16 -153 16q-183 0 -183 -106v-9h344v-315h-344v-766h-387v766h-225v315h225v15zM1067 0v1470h389v-512q66 69 165.5 108.5t221.5 39.5q207 0 341 -127t134 -344v-635h-389v500q0 130 -57.5 198
t-167.5 68q-117 0 -182.5 -69t-65.5 -199v-498h-389z" />
    <glyph glyph-name="f_j" unicode="fj" horiz-adv-x="1542" 
d="M223 1096q0 194 136 296.5t401 102.5q121 0 235 -29l-49 -286q-78 16 -153 16q-183 0 -183 -106v-9h344v-315h-344v-766h-387v766h-225v315h225v15zM1065 1167v303h393v-303h-393zM1456 49q0 -426 -508 -426q-68 0 -142 11t-116 28l55 272q85 -24 160 -24q85 0 123.5 33
t38.5 116v1022h389v-1032z" />
    <glyph glyph-name="f_k" unicode="fk" horiz-adv-x="2402" 
d="M223 1096q0 194 136 296.5t401 102.5q121 0 235 -29l-49 -286q-78 16 -153 16q-183 0 -183 -106v-9h344v-315h-344v-766h-387v766h-225v315h225v15zM1456 1470v-788l449 399h516l-512 -438l520 -643h-473l-328 403l-172 -147v-256h-389v1470h389z" />
    <glyph glyph-name="f_f_i" unicode="ffi" horiz-adv-x="2383" 
d="M223 1096q0 194 136 296.5t401 102.5q161 0 262 -37l-43 -284q-96 22 -186 22q-183 0 -183 -106v-9h455v15q0 194 136 296.5t401 102.5q121 0 235 -29l-49 -286q-78 16 -154 16q-182 0 -182 -106v-9h344v-315h-344v-766h-387v766h-455v-766h-387v766h-225v315h225v15z
M1907 1167v303h393v-303h-393zM2298 1081v-1081h-389v1081h389z" />
    <glyph glyph-name="f_f_l" unicode="ffl" horiz-adv-x="2383" 
d="M223 1096q0 194 136 296.5t401 102.5q161 0 262 -37l-43 -284q-96 22 -186 22q-183 0 -183 -106v-9h455v15q0 194 136 296.5t401 102.5q121 0 235 -29l-49 -286q-78 16 -154 16q-182 0 -182 -106v-9h344v-315h-344v-766h-387v766h-455v-766h-387v766h-225v315h225v15z
M2298 1470v-1470h-389v1470h389z" />
    <glyph glyph-name="f_idieresis" unicode="f&#xef;" horiz-adv-x="1562" 
d="M223 1096q0 194 136 296.5t401 102.5q174 0 287 -45l-43 -285q-105 31 -211 31q-183 0 -183 -106v-9h379v-315h-379v-766h-387v766h-225v315h225v15zM1341 1167v303h379v-303h-379zM1475 1081v-1081h-390v1081h390z" />
    <glyph glyph-name=".notdef" horiz-adv-x="1228" 
d="M0 0h1229v1470h-1229v-1470zM270 496l240 241l-240 240l105 104l239 -239l242 239l102 -104l-237 -240l237 -241l-102 -105l-242 240l-239 -240z" />
    <glyph glyph-name=".null" horiz-adv-x="0" 
 />
    <glyph glyph-name="nonmarkingreturn" horiz-adv-x="682" 
 />
    <glyph glyph-name="space" unicode=" " horiz-adv-x="587" 
 />
    <glyph glyph-name="exclam" unicode="!" horiz-adv-x="632" 
d="M164 492l-101 978h506l-100 -978h-305zM92 0v397h447v-397h-447z" />
    <glyph glyph-name="quotedbl" unicode="&#x22;" horiz-adv-x="1003" 
d="M117 797l-84 673h442l-84 -673h-274zM612 797l-84 673h443l-84 -673h-275z" />
    <glyph glyph-name="numbersign" unicode="#" horiz-adv-x="1650" 
d="M147 0l95 344h-201v272h274l66 238h-283v272h357l94 344h321l-94 -344h326l94 344h322l-95 -344h189v-272h-262l-66 -238h270v-272h-344l-94 -344h-323l94 344h-326l-94 -344h-320zM637 616h326l63 238h-326z" />
    <glyph glyph-name="dollar" unicode="$" horiz-adv-x="1695" 
d="M-27 268l234 277q182 -171 493 -219v268q-79 8 -143.5 18t-131.5 26.5t-118.5 37.5t-97.5 52t-76 69.5t-47.5 90t-17.5 113.5q0 205 169 325t463 142v201h326v-209q193 -23 351.5 -84.5t254.5 -146.5l-233 -260q-131 122 -373 170v-244q113 -11 200 -27.5t173 -48
t142.5 -75t91 -111t34.5 -154.5q0 -144 -81 -246t-221 -156t-339 -71v-209h-326v207q-224 21 -425.5 92t-301.5 172zM449 1040q0 -32 18.5 -51t72.5 -34t160 -27v235q-251 -12 -251 -123zM1274 440q0 55 -48 78.5t-200 42.5v-248q248 21 248 127z" />
    <glyph glyph-name="percent" unicode="%" horiz-adv-x="2019" 
d="M45 1098q0 169 123.5 282t310.5 113t311.5 -113t124.5 -282q0 -168 -124.5 -282t-311.5 -114t-310.5 114t-123.5 282zM1749 1470l-1161 -1470h-318l1162 1470h317zM328 1098q0 -74 41 -116t110 -42t110.5 42t41.5 116q0 75 -41.5 116t-110.5 41t-110 -41t-41 -116z
M1974 373q0 -169 -124.5 -282.5t-311.5 -113.5q-186 0 -310 113.5t-124 282.5q0 168 124.5 281.5t309.5 113.5q187 0 311.5 -113.5t124.5 -281.5zM1386 373q0 -75 42 -116.5t110 -41.5q69 0 111.5 41.5t42.5 116.5q0 74 -42.5 115.5t-111.5 41.5q-68 0 -110 -42t-42 -115z
" />
    <glyph glyph-name="ampersand" unicode="&#x26;" horiz-adv-x="1884" 
d="M1458 862l354 -80q-72 -253 -243 -438q63 -24 137 -27.5t160 7.5v-310q-123 -23 -231.5 -14t-190.5 37t-164 80q-265 -142 -592 -142q-303 0 -482 123.5t-179 327.5q0 165 106.5 275t272.5 153q-74 109 -74 225q0 179 146 297.5t388 118.5q130 0 233 -31t167 -85
t97.5 -124t33.5 -151q0 -139 -93 -235.5t-249 -153.5l231 -180q123 138 172 327zM694 1087q0 -53 28 -92.5t85 -85.5q242 43 242 178q0 59 -45 99.5t-134 40.5q-84 0 -130 -40.5t-46 -99.5zM408 469q0 -83 84.5 -133.5t234.5 -50.5q135 0 268 49l-379 309
q-97 -11 -152.5 -56.5t-55.5 -117.5z" />
    <glyph glyph-name="quotesingle" unicode="'" horiz-adv-x="507" 
d="M117 797l-84 673h442l-84 -673h-274z" />
    <glyph glyph-name="parenleft" unicode="(" horiz-adv-x="872" 
d="M438 655q0 -496 434 -856h-389q-207 135 -328.5 357.5t-121.5 498.5t121.5 498.5t328.5 357.5h389q-215 -181 -324.5 -391.5t-109.5 -464.5z" />
    <glyph glyph-name="parenright" unicode=")" horiz-adv-x="872" 
d="M434 655q0 254 -109.5 464.5t-324.5 391.5h389q207 -135 329 -357.5t122 -498.5t-122 -498.5t-329 -357.5h-389q434 360 434 856z" />
    <glyph glyph-name="asterisk" unicode="*" horiz-adv-x="974" 
d="M657 625l-170 233l-170 -233l-190 137l170 235l-277 88l74 224l275 -86v288h237v-288l275 86l73 -224l-278 -88l172 -235z" />
    <glyph glyph-name="plus" unicode="+" 
d="M1524 571h-545v-544h-322v544h-544v324h544v545h322v-545h545v-324z" />
    <glyph glyph-name="comma" unicode="," horiz-adv-x="565" 
d="M66 0v418h436v-363q0 -180 -117.5 -279.5t-318.5 -99.5v191q161 3 161 125v8h-161z" />
    <glyph glyph-name="hyphen" unicode="-" horiz-adv-x="796" 
d="M82 426v354h633v-354h-633z" />
    <glyph glyph-name="period" unicode="." horiz-adv-x="565" 
d="M66 0v418h436v-418h-436z" />
    <glyph glyph-name="slash" unicode="/" horiz-adv-x="1288" 
d="M35 -201l792 1712h426l-792 -1712h-426z" />
    <glyph glyph-name="zero" unicode="0" horiz-adv-x="1775" 
d="M887 1495q244 0 439 -98t304 -272t109 -390t-109 -390t-304 -272t-439 -98q-183 0 -341.5 57.5t-270.5 158t-176 241.5t-64 303t64 303t176 241.5t270.5 158t341.5 57.5zM887 1147q-196 0 -321.5 -112.5t-125.5 -299.5q0 -186 125.5 -298.5t321.5 -112.5t320 112t124 299
t-124 299.5t-320 112.5z" />
    <glyph glyph-name="one" unicode="1" horiz-adv-x="1001" 
d="M594 1475h307v-1475h-401v918h-477v303l229 8q168 6 244.5 63.5t97.5 182.5z" />
    <glyph glyph-name="two" unicode="2" horiz-adv-x="1576" 
d="M61 303l691 356q180 91 236 132q101 79 104 165q0 87 -72 141t-215 54q-155 0 -268.5 -86.5t-143.5 -235.5l-366 80q17 116 78.5 220t160 186t243.5 130t316 48q191 0 343.5 -60.5t240.5 -175t88 -262.5q0 -172 -117.5 -294.5t-349.5 -229.5l-270 -131h772v-340h-1471
v303z" />
    <glyph glyph-name="three" unicode="3" horiz-adv-x="1656" 
d="M844 -25q-324 0 -538.5 110t-301.5 296l363 166q47 -105 178 -171.5t303 -66.5q146 0 248 39t102 111q0 133 -344 133h-276v307h264q319 0 319 127q0 61 -85.5 96t-229.5 35q-163 0 -282 -61t-161 -150l-344 158q79 172 301 281.5t510 109.5q334 0 530.5 -121.5
t196.5 -312.5q0 -110 -67.5 -191t-179.5 -116q282 -91 282 -332q0 -190 -215.5 -318.5t-572.5 -128.5z" />
    <glyph glyph-name="four" unicode="4" horiz-adv-x="1699" 
d="M1337 0h-381v334h-936v309l805 827h512v-819h342v-317h-342v-334zM475 651h481v490z" />
    <glyph glyph-name="five" unicode="5" horiz-adv-x="1585" 
d="M426 592l-340 53l104 825h1272v-340h-966l-31 -217q169 91 399 91q317 0 510 -135t193 -367q0 -156 -102 -277t-275 -185.5t-387 -64.5q-192 0 -355.5 46t-284.5 140t-171 226l364 152q55 -111 169 -171.5t282 -60.5q156 0 259 49t103 140q0 92 -99.5 144t-272.5 52
q-215 0 -371 -100z" />
    <glyph glyph-name="six" unicode="6" horiz-adv-x="1695" 
d="M1653 1212l-258 -235q-160 192 -475 192q-220 0 -354 -94t-144 -225q88 69 221.5 108t294.5 39q213 0 379.5 -64t258 -177t91.5 -254q0 -235 -220.5 -381t-578.5 -146q-196 0 -354 54t-262.5 150.5t-160.5 230t-56 292.5q0 234 107.5 413t310.5 279.5t473 100.5
q252 0 439 -76.5t288 -206.5zM1268 492q0 91 -112 144.5t-292 53.5q-179 0 -290 -53.5t-111 -144.5t110 -144t289 -53q181 0 293.5 53t112.5 144z" />
    <glyph glyph-name="seven" unicode="7" horiz-adv-x="1587" 
d="M1128 1137h-770v-275h-338v608h1547v-356q-285 -233 -421 -503.5t-136 -610.5h-410q0 674 528 1137z" />
    <glyph glyph-name="eight" unicode="8" horiz-adv-x="1677" 
d="M838 1495q201 0 364 -48.5t265 -149t102 -238.5q0 -188 -228 -301q141 -45 226.5 -130t85.5 -210q0 -109 -63 -194.5t-174.5 -139t-258 -81.5t-319.5 -28q-172 0 -318.5 28t-257.5 81.5t-174 139t-63 194.5q0 125 85 210t226 130q-227 113 -227 301q0 138 102 238.5
t264.5 149t362.5 48.5zM838 909q153 0 244.5 36.5t91.5 107.5t-91.5 107t-244.5 36t-243.5 -36t-90.5 -107t91 -107.5t243 -36.5zM838 608q-190 0 -301 -40t-111 -119q0 -82 110.5 -123t301.5 -41q192 0 302.5 41t110.5 123q0 79 -110.5 119t-302.5 40z" />
    <glyph glyph-name="nine" unicode="9" horiz-adv-x="1695" 
d="M43 258l258 236q161 -193 475 -193q220 0 354 94.5t144 225.5q-88 -69 -221.5 -108.5t-294.5 -39.5q-322 0 -525.5 140.5t-203.5 355.5q0 155 99 274.5t280.5 185.5t418.5 66q196 0 354 -54t263 -150.5t161 -230t56 -292.5q0 -234 -107.5 -413t-310.5 -279.5t-473 -100.5
q-252 0 -439 76.5t-288 206.5zM428 979q0 -91 112 -145t291 -54t290.5 54t111.5 145t-110 144t-289 53q-181 0 -293.5 -53t-112.5 -144z" />
    <glyph glyph-name="colon" unicode=":" horiz-adv-x="565" 
d="M66 0v418h436v-418h-436zM66 645v418h436v-418h-436z" />
    <glyph glyph-name="semicolon" unicode=";" horiz-adv-x="565" 
d="M66 0v418h436v-363q0 -180 -117.5 -279.5t-318.5 -99.5v191q161 3 161 125v8h-161zM66 645v418h436v-418h-436z" />
    <glyph glyph-name="less" unicode="&#x3c;" 
d="M104 473v516l1430 455v-389l-1108 -326l1108 -323v-390z" />
    <glyph glyph-name="equal" unicode="=" 
d="M113 840v321h1413v-321h-1413zM113 281v321h1413v-321h-1413z" />
    <glyph glyph-name="greater" unicode="&#x3e;" 
d="M1534 473l-1430 -457v390l1108 323l-1108 326v389l1430 -455v-516z" />
    <glyph glyph-name="question" unicode="?" horiz-adv-x="1558" 
d="M801 1153q-153 0 -250 -56.5t-109 -144.5l-428 64q15 99 73 184t156.5 152t248 105t333.5 38q327 0 520 -126.5t193 -340.5q0 -169 -136 -284.5t-374 -147.5v-104h-416v356q248 0 368 34.5t120 121.5q0 71 -76 110t-223 39zM602 0v397h449v-397h-449z" />
    <glyph glyph-name="at" unicode="@" horiz-adv-x="2254" 
d="M1614 459q-13 -66 5.5 -94.5t70.5 -28.5q98 0 165.5 86.5t67.5 230.5q0 227 -190 351t-529 124q-207 0 -371.5 -50t-269.5 -138.5t-160 -207.5t-55 -259q0 -268 209 -414.5t588 -146.5q191 0 379.5 38t328.5 107l138 -229q-151 -87 -382.5 -136.5t-480.5 -49.5
q-329 0 -574.5 97t-381 286t-135.5 448q0 155 51 295t152 254.5t241.5 198.5t327.5 130t403 46q301 0 527.5 -85t352.5 -250t126 -392q0 -136 -48.5 -249t-131.5 -186.5t-193 -113.5t-233 -39q-108 1 -191 33.5t-129 89.5q-111 -117 -331 -117q-197 0 -310.5 107.5
t-113.5 281.5q0 97 37.5 186t104 156.5t165.5 107.5t215 40q200 0 295 -113l18 92h336zM1090 352q95 0 156 60.5t61 142.5q0 69 -48 109.5t-131 40.5q-94 0 -155.5 -60.5t-61.5 -142.5q0 -68 49.5 -109t129.5 -41z" />
    <glyph glyph-name="A" unicode="A" horiz-adv-x="1867" 
d="M705 1470h460l721 -1470h-440l-133 276h-772l-133 -276h-426zM930 1077l-232 -479h461z" />
    <glyph glyph-name="B" unicode="B" horiz-adv-x="1681" 
d="M100 0v1470h1016q245 0 377.5 -103.5t132.5 -297.5q0 -76 -33 -141.5t-75.5 -103.5t-92.5 -62q106 -43 174 -132.5t68 -213.5q0 -196 -135.5 -306t-380.5 -110h-1051zM485 895h590q84 0 128 32t44 93t-44 93t-128 32h-590v-250zM485 594v-266h627q80 0 124 36t44 97
t-44 97t-124 36h-627z" />
    <glyph glyph-name="C" unicode="C" horiz-adv-x="1724" 
d="M35 735q0 162 65.5 303t181 241.5t279 158t352.5 57.5q303 0 512 -127.5t295 -353.5l-366 -164q-45 135 -158.5 216t-282.5 81q-201 0 -335 -113.5t-134 -298.5t134 -298t335 -113q169 0 282.5 81t158.5 216l366 -164q-86 -226 -295 -354t-512 -128q-189 0 -352.5 57.5
t-279 158t-181 241.5t-65.5 303z" />
    <glyph glyph-name="D" unicode="D" horiz-adv-x="1775" 
d="M100 0v1470h774q401 0 633 -198.5t232 -536.5t-232 -536.5t-633 -198.5h-774zM494 338h380q220 0 342.5 107.5t122.5 289.5q0 184 -122.5 291t-344.5 107h-378v-795z" />
    <glyph glyph-name="E" unicode="E" horiz-adv-x="1581" 
d="M100 1470h1430v-340h-1036v-219h919v-331h-919v-240h1036v-340h-1430v1470z" />
    <glyph glyph-name="F" unicode="F" horiz-adv-x="1560" 
d="M494 0h-394v1470h1422v-340h-1028v-284h911v-332h-911v-514z" />
    <glyph glyph-name="G" unicode="G" horiz-adv-x="1847" 
d="M942 1495q296 0 508.5 -124.5t298.5 -340.5l-387 -141q-45 120 -154.5 190t-279.5 70q-133 0 -242 -50t-174.5 -147t-65.5 -223q0 -185 136.5 -298.5t343.5 -113.5q165 0 288.5 56.5t155.5 146.5h-561v314h965v-834h-373v127q-60 -65 -191.5 -108.5t-285.5 -43.5
q-192 0 -358 57.5t-282 158t-182.5 242t-66.5 304.5q0 217 114 389.5t321.5 270.5t471.5 98z" />
    <glyph glyph-name="H" unicode="H" horiz-adv-x="1810" 
d="M1309 1470h401v-1470h-401v578h-807v-578h-402v1470h402v-555h807v555z" />
    <glyph glyph-name="I" unicode="I" horiz-adv-x="602" 
d="M502 1470v-1470h-402v1470h402z" />
    <glyph glyph-name="J" unicode="J" horiz-adv-x="1529" 
d="M1458 592q0 -281 -199 -448t-536 -167q-255 0 -450.5 111t-272.5 297l356 223q37 -122 133.5 -199t237.5 -77q153 0 241.5 74.5t88.5 222.5v841h401v-878z" />
    <glyph glyph-name="K" unicode="K" horiz-adv-x="1753" 
d="M502 1470v-620l684 620h547l-680 -610l731 -860h-510l-510 602l-262 -235v-367h-402v1470h402z" />
    <glyph glyph-name="L" unicode="L" horiz-adv-x="1474" 
d="M100 0v1470h402v-1130h934v-340h-1336z" />
    <glyph glyph-name="M" unicode="M" horiz-adv-x="2199" 
d="M1262 0h-324l-446 1057v-1057h-392v1470h598l406 -978l405 978h590v-1470h-389v1057z" />
    <glyph glyph-name="N" unicode="N" horiz-adv-x="1800" 
d="M1700 1470v-1470h-354l-854 954v-954h-392v1470h402l807 -905v905h391z" />
    <glyph glyph-name="O" unicode="O" horiz-adv-x="1837" 
d="M920 1495q190 0 354.5 -57.5t280 -158t181.5 -241.5t66 -303t-66 -303t-181.5 -241.5t-280 -158t-354.5 -57.5q-253 0 -455.5 98t-316 272t-113.5 390t113.5 390t316 272t455.5 98zM920 1147q-206 0 -340 -113t-134 -299t134 -298.5t340 -112.5t339.5 112.5t133.5 298.5
t-133.5 299t-339.5 113z" />
    <glyph glyph-name="P" unicode="P" horiz-adv-x="1656" 
d="M502 469v-469h-402v1470h936q275 0 434.5 -129.5t159.5 -371.5q0 -241 -160 -370.5t-434 -129.5h-534zM502 803h512q106 0 163.5 44.5t57.5 121.5q0 79 -57.5 122.5t-163.5 43.5h-512v-332z" />
    <glyph glyph-name="Q" unicode="Q" horiz-adv-x="1837" 
d="M1587 -244q-135 28 -259 94t-189 146q-105 -21 -219 -21q-253 0 -455.5 98t-316 272t-113.5 390t113.5 390t316 272t455.5 98q190 0 354.5 -57.5t280 -158t181.5 -241.5t66 -303q0 -176 -74.5 -323.5t-211.5 -251.5q86 -84 278 -119zM920 1147q-206 0 -340 -113
t-134 -299t134 -298.5t340 -112.5t339.5 112.5t133.5 298.5t-133.5 299t-339.5 113z" />
    <glyph glyph-name="R" unicode="R" horiz-adv-x="1689" 
d="M502 487v-487h-402v1470h951q273 0 433.5 -129t160.5 -362q0 -161 -85.5 -277.5t-238.5 -171.5l356 -530h-460l-316 487h-399zM502 805h528q104 0 161.5 44.5t57.5 119.5q0 79 -57 122.5t-162 43.5h-528v-330z" />
    <glyph glyph-name="S" unicode="S" horiz-adv-x="1628" 
d="M-37 240l236 303q123 -120 297 -177t348 -57q152 0 243 33t91 94q0 67 -82.5 90.5t-359.5 54.5q-29 3 -44 5q-77 8 -140 18t-129.5 26.5t-118 38t-98 53t-77 70.5t-48.5 92.5t-18 116.5q0 230 201.5 362t534.5 132q244 0 454.5 -67.5t327.5 -174.5l-235 -280
q-93 88 -247.5 140t-330.5 52q-142 0 -220.5 -32t-78.5 -91q0 -55 87 -78t366 -53q84 -10 146 -19t137.5 -26t129.5 -38t108 -53.5t87.5 -73t54.5 -97t21 -125.5q0 -167 -102.5 -282t-276.5 -168.5t-408 -53.5q-248 0 -494.5 73.5t-361.5 191.5z" />
    <glyph glyph-name="T" unicode="T" horiz-adv-x="1705" 
d="M1673 1130h-618v-1130h-402v1130h-618v340h1638v-340z" />
    <glyph glyph-name="U" unicode="U" horiz-adv-x="1703" 
d="M852 -23q-375 0 -577.5 179.5t-202.5 498.5v815h401v-776q0 -179 94.5 -273.5t284.5 -94.5t284.5 94.5t94.5 273.5v776h401v-815q0 -319 -202.5 -498.5t-577.5 -179.5z" />
    <glyph glyph-name="V" unicode="V" horiz-adv-x="1843" 
d="M1145 0h-449l-714 1470h446l500 -1042l502 1042h432z" />
    <glyph glyph-name="W" unicode="W" horiz-adv-x="2412" 
d="M1020 1470h385l297 -968l323 968h406l-496 -1470h-432l-297 963l-299 -963h-430l-495 1470h417l322 -968z" />
    <glyph glyph-name="X" unicode="X" horiz-adv-x="1820" 
d="M541 1470l370 -434l371 434h498l-619 -702l680 -768h-506l-428 500l-428 -500h-499l677 768l-620 702h504z" />
    <glyph glyph-name="Y" unicode="Y" horiz-adv-x="1806" 
d="M911 922l453 548h463l-723 -882v-588h-402v588l-722 882h477z" />
    <glyph glyph-name="Z" unicode="Z" horiz-adv-x="1667" 
d="M1599 340v-340h-1533v299l940 831h-932v340h1515v-296l-938 -834h948z" />
    <glyph glyph-name="bracketleft" unicode="[" horiz-adv-x="811" 
d="M449 1223v-1137h342v-287h-709v1712h709v-288h-342z" />
    <glyph glyph-name="backslash" unicode="\" horiz-adv-x="1288" 
d="M1253 -201h-426l-792 1712h426z" />
    <glyph glyph-name="bracketright" unicode="]" horiz-adv-x="811" 
d="M362 1223h-342v288h709v-1712h-709v287h342v1137z" />
    <glyph glyph-name="asciicircum" unicode="^" horiz-adv-x="1265" 
d="M453 1470h360l428 -647h-377l-231 353l-232 -353h-376z" />
    <glyph glyph-name="underscore" unicode="_" horiz-adv-x="1048" 
d="M96 -393v303h856v-303h-856z" />
    <glyph glyph-name="grave" unicode="`" horiz-adv-x="1228" 
d="M942 1157h-319l-344 313h475z" />
    <glyph glyph-name="a" unicode="a" horiz-adv-x="1406" 
d="M496 -23q-214 0 -340.5 89t-126.5 243q0 83 36 148t100 105.5t145 63.5t179 29l404 29v6q0 53 -50 88t-159 35q-98 0 -162.5 -33t-87.5 -86l-362 70q53 157 221 249.5t407 92.5q271 0 420.5 -105.5t149.5 -312.5v-350q0 -43 25.5 -58t97.5 -1v-279q-187 -29 -298.5 -2
t-166.5 102q-155 -123 -432 -123zM893 414v30l-352 -28q-69 -5 -102 -23.5t-33 -58.5q0 -88 178 -88q123 0 216 46.5t93 121.5z" />
    <glyph glyph-name="b" unicode="b" horiz-adv-x="1460" 
d="M477 113v-113h-389v1470h389v-501q54 60 151.5 98.5t219.5 38.5q178 0 311 -77t199.5 -204t66.5 -284q0 -117 -39 -219.5t-111 -180t-182.5 -122t-244.5 -44.5q-122 0 -219.5 38.5t-151.5 99.5zM467 547v-12q0 -109 82.5 -179.5t204.5 -70.5q124 0 206 68t82 188t-82 188
t-206 68q-122 0 -204.5 -70.5t-82.5 -179.5z" />
    <glyph glyph-name="c" unicode="c" horiz-adv-x="1325" 
d="M35 541q0 124 49 229t136.5 179t212.5 115.5t272 41.5q102 0 194 -21.5t161 -57.5t123.5 -84t88 -101t49.5 -109l-348 -127q-27 82 -97.5 135.5t-173.5 53.5q-127 0 -205.5 -69t-78.5 -185t78.5 -185t205.5 -69q103 0 174 53t97 135l348 -129q-20 -70 -69.5 -134.5
t-125 -118t-185 -86t-236.5 -32.5q-297 0 -483.5 157.5t-186.5 408.5z" />
    <glyph glyph-name="d" unicode="d" horiz-adv-x="1460" 
d="M983 113q-54 -61 -151.5 -99.5t-219.5 -38.5q-134 0 -244.5 44.5t-182.5 122t-111 180t-39 219.5q0 157 66.5 284t199.5 204t311 77q122 0 219.5 -38.5t151.5 -98.5v501h389v-1470h-389v113zM993 547q0 109 -82.5 179.5t-203.5 70.5q-124 0 -206.5 -68t-82.5 -188
t82.5 -188t206.5 -68q121 0 203.5 70.5t82.5 179.5v12z" />
    <glyph glyph-name="e" unicode="e" horiz-adv-x="1380" 
d="M707 274q90 0 160 35.5t102 100.5l358 -105q-42 -102 -135.5 -177.5t-218 -114t-264.5 -38.5q-299 0 -486.5 158t-187.5 410q0 160 85.5 288.5t238.5 201.5t346 73q151 0 273.5 -45t201.5 -123t121 -180t42 -217v-95h-923q28 -83 103 -127.5t184 -44.5zM696 815
q-93 0 -165 -40t-105 -116h520q-10 61 -77.5 108.5t-172.5 47.5z" />
    <glyph glyph-name="f" unicode="f" horiz-adv-x="1015" 
d="M223 1096q0 194 136 296.5t401 102.5q174 0 287 -45l-43 -285q-105 31 -211 31q-183 0 -183 -106v-9h379v-315h-379v-766h-387v766h-225v315h225v15z" />
    <glyph glyph-name="g" unicode="g" horiz-adv-x="1456" 
d="M1368 176q0 -135 -54 -241t-150.5 -174.5t-226.5 -104t-286 -35.5q-209 0 -376.5 66t-239.5 194l309 166q92 -133 311 -133q82 0 153 22t121 74t50 127v27q-55 -58 -150.5 -94.5t-218.5 -36.5q-267 0 -422 151t-155 381q0 112 39 210t111 172t182.5 116.5t244.5 42.5
q122 0 218 -37t151 -94v106h389v-905zM991 569q0 108 -83.5 174t-205.5 66t-204 -65t-82 -179q0 -113 82 -178t204 -65t205.5 66t83.5 175v6z" />
    <glyph glyph-name="h" unicode="h" horiz-adv-x="1421" 
d="M88 0v1470h389v-512q66 69 165.5 108.5t221.5 39.5q207 0 341 -127t134 -344v-635h-389v500q0 130 -57.5 198t-167.5 68q-117 0 -182.5 -69t-65.5 -199v-498h-389z" />
    <glyph glyph-name="i" unicode="i" horiz-adv-x="565" 
d="M86 1167v303h393v-303h-393zM477 1081v-1081h-389v1081h389z" />
    <glyph glyph-name="j" unicode="j" horiz-adv-x="565" 
d="M86 1167v303h393v-303h-393zM477 49q0 -426 -508 -426q-68 0 -142 11t-116 28l56 272q86 -24 159 -24q85 0 123.5 33t38.5 116v1022h389v-1032z" />
    <glyph glyph-name="k" unicode="k" horiz-adv-x="1425" 
d="M477 1470v-788l449 399h516l-512 -438l520 -643h-473l-328 403l-172 -147v-256h-389v1470h389z" />
    <glyph glyph-name="l" unicode="l" horiz-adv-x="565" 
d="M477 1470v-1470h-389v1470h389z" />
    <glyph glyph-name="m" unicode="m" horiz-adv-x="2197" 
d="M88 0v1081h389v-120q132 145 361 145q114 0 216.5 -46t159.5 -130q165 176 426 176q213 0 344.5 -126.5t131.5 -348.5v-631h-390v516q0 124 -52 188t-154 64q-106 0 -165 -64.5t-59 -187.5v-516h-389v516q0 124 -52.5 188t-154.5 64q-107 0 -165 -64.5t-58 -187.5v-516
h-389z" />
    <glyph glyph-name="n" unicode="n" horiz-adv-x="1421" 
d="M88 0v1081h389v-123q66 69 165.5 108.5t221.5 39.5q207 0 341 -127t134 -344v-635h-389v500q0 130 -57.5 198t-167.5 68q-117 0 -182.5 -69t-65.5 -199v-498h-389z" />
    <glyph glyph-name="o" unicode="o" horiz-adv-x="1402" 
d="M700 1106q190 0 341.5 -68.5t239 -198t87.5 -298.5t-87.5 -298.5t-239 -198.5t-341.5 -69q-188 0 -339 69t-238.5 199t-87.5 298q0 127 51 233.5t140 179t211 112.5t263 40zM700 287q122 0 203.5 67.5t81.5 186.5t-81.5 186.5t-203.5 67.5t-202 -67.5t-80 -186.5
t80 -186.5t202 -67.5z" />
    <glyph glyph-name="p" unicode="p" horiz-adv-x="1460" 
d="M477 113v-467h-389v1435h389v-112q54 60 151.5 98.5t219.5 38.5q178 0 311 -77t199.5 -204t66.5 -284q0 -117 -39 -219.5t-111 -180t-182.5 -122t-244.5 -44.5q-122 0 -219.5 38.5t-151.5 99.5zM467 547v-12q0 -109 82.5 -179.5t204.5 -70.5q124 0 206 68t82 188t-82 188
t-206 68q-122 0 -204.5 -70.5t-82.5 -179.5z" />
    <glyph glyph-name="q" unicode="q" horiz-adv-x="1460" 
d="M983 113q-54 -61 -151.5 -99.5t-219.5 -38.5q-134 0 -244.5 44.5t-182.5 122t-111 180t-39 219.5q0 157 66.5 284t199.5 204t311 77q122 0 219.5 -38.5t151.5 -98.5v112h389v-1435h-389v467zM993 547q0 109 -82.5 179.5t-203.5 70.5q-124 0 -206.5 -68t-82.5 -188
t82.5 -188t206.5 -68q121 0 203.5 70.5t82.5 179.5v12z" />
    <glyph glyph-name="r" unicode="r" horiz-adv-x="1007" 
d="M985 1079v-372q-73 12 -135 12q-373 0 -373 -309v-410h-389v1081h389v-180q70 98 163 142t226 44q49 0 119 -8z" />
    <glyph glyph-name="s" unicode="s" horiz-adv-x="1251" 
d="M-8 143l141 263q107 -74 239 -113t267 -39q203 0 203 68q0 12 -6 20.5t-21.5 15t-32.5 10.5t-49.5 8.5t-60.5 7.5t-77.5 8.5t-90.5 10.5q-58 7 -102.5 15t-94.5 21t-86.5 29t-71.5 40t-57 54t-35.5 71t-13.5 90q0 178 157 280.5t431 102.5q181 0 329.5 -43t247.5 -115
l-180 -231q-173 117 -418 117q-176 0 -176 -66q0 -30 44.5 -40.5t207.5 -28.5q28 -3 43 -5q64 -7 113 -15t104.5 -21t95.5 -29.5t79 -41.5t63 -55.5t38.5 -73t14.5 -93.5q0 -128 -80 -216.5t-222.5 -131t-338.5 -42.5q-176 0 -342.5 45.5t-261.5 122.5z" />
    <glyph glyph-name="t" unicode="t" horiz-adv-x="1093" 
d="M225 338v428h-225v315h225v287h383v-287h426v-315h-426v-320q0 -73 42 -106t132 -33q119 0 234 43l71 -299q-182 -71 -421 -71q-201 0 -321 89.5t-120 268.5z" />
    <glyph glyph-name="u" unicode="u" horiz-adv-x="1411" 
d="M1323 1081v-1081h-389v123q-145 -148 -385 -148q-205 0 -336 125.5t-131 343.5v637h389v-536q0 -240 219 -240q117 0 180.5 63t63.5 183v530h389z" />
    <glyph glyph-name="v" unicode="v" horiz-adv-x="1429" 
d="M920 0h-410l-524 1081h434l307 -673l305 673h410z" />
    <glyph glyph-name="w" unicode="w" horiz-adv-x="2013" 
d="M840 1081h354l209 -622l223 622h402l-431 -1081h-368l-221 633l-224 -633h-366l-432 1081h420l223 -622z" />
    <glyph glyph-name="x" unicode="x" horiz-adv-x="1466" 
d="M496 1081l237 -270l242 270h473l-475 -524l500 -557h-480l-260 297l-266 -297h-473l502 551l-480 530h480z" />
    <glyph glyph-name="y" unicode="y" horiz-adv-x="1427" 
d="M915 -14q-64 -133 -132.5 -210t-167.5 -115t-242 -38q-68 0 -141.5 13t-118.5 32l59 295q80 -39 154 -39q60 0 100.5 18.5t60.5 67.5l9 25l-510 1046h436l305 -678l305 678h410z" />
    <glyph glyph-name="z" unicode="z" horiz-adv-x="1323" 
d="M1262 315v-315h-1201v285l641 481h-632v315h1187v-284l-616 -482h621z" />
    <glyph glyph-name="braceleft" unicode="{" horiz-adv-x="919" 
d="M41 504v303h111q86 0 86 102v240q0 163 106.5 262.5t314.5 99.5h240v-288h-162q-151 0 -151 -150v-199q0 -154 -127 -219q127 -65 127 -219v-198q0 -150 151 -150h162v-289h-240q-208 0 -314.5 100t-106.5 263v239q0 103 -86 103h-111z" />
    <glyph glyph-name="bar" unicode="|" horiz-adv-x="616" 
d="M115 -201v1712h385v-1712h-385z" />
    <glyph glyph-name="braceright" unicode="}" horiz-adv-x="919" 
d="M879 504h-111q-86 0 -86 -103v-239q0 -163 -107 -263t-315 -100h-240v289h162q152 0 152 150v198q0 154 127 219q-127 65 -127 219v199q0 150 -152 150h-162v288h240q208 0 315 -99.5t107 -262.5v-240q0 -102 86 -102h111v-303z" />
    <glyph glyph-name="asciitilde" unicode="~" horiz-adv-x="1103" 
d="M381 860q50 0 102.5 -25t96 -50t73.5 -25q37 0 58 22t30 78h281q-3 -189 -81 -311.5t-218 -122.5q-50 0 -102.5 25t-96 50t-73.5 25q-37 0 -58.5 -22t-30.5 -78h-280q2 120 35 216t101.5 157t162.5 61z" />
    <glyph glyph-name="uni00A0" unicode="&#xa0;" horiz-adv-x="587" 
 />
    <glyph glyph-name="exclamdown" unicode="&#xa1;" horiz-adv-x="632" 
d="M164 979h305l100 -979h-506zM92 1470h447v-397h-447v397z" />
    <glyph glyph-name="cent" unicode="&#xa2;" horiz-adv-x="1478" 
d="M57 559q0 229 161 386t429 192v192h309v-194q190 -27 319 -113.5t185 -210.5l-268 -158q-74 131 -236 176v-538q163 45 236 178l268 -160q-55 -122 -184 -209t-320 -114v-183h-309v181q-268 35 -429 191t-161 384zM403 559q0 -99 65 -169.5t179 -100.5v542
q-114 -30 -179 -101t-65 -171z" />
    <glyph glyph-name="sterling" unicode="&#xa3;" horiz-adv-x="1847" 
d="M188 571v228h166q-69 96 -69 205q0 97 48.5 185t138.5 156.5t231 109t313 40.5q337 0 533 -144.5t196 -392.5q0 -46 -6 -96h-385q4 36 4 56q0 121 -88 182t-244 61q-154 0 -247 -58t-93 -149q0 -67 74 -155h469v-228h-340q6 -34 6 -71q0 -49 -8 -90q81 -29 123 -42.5
t107.5 -27.5t119.5 -14q109 0 166.5 48t66.5 156h355q6 -264 -136 -409.5t-382 -145.5q-87 0 -163.5 15.5t-146.5 48.5t-113 59t-110 72q-73 -90 -180.5 -142.5t-235.5 -52.5q-161 0 -256.5 75.5t-95.5 201.5q0 130 104.5 204t276.5 74q77 0 180 -18q-12 31 -28 59h-351z
M274 266q0 -28 27.5 -46.5t73.5 -18.5q119 0 174 98q-84 31 -160 31q-51 0 -83 -17.5t-32 -46.5z" />
    <glyph glyph-name="yen" unicode="&#xa5;" horiz-adv-x="1970" 
d="M236 328v235h552v82h-552v234h342l-584 591h491l508 -534l508 534h477l-583 -591h342v-234h-553v-82h553v-235h-553v-328h-396v328h-552z" />
    <glyph glyph-name="section" unicode="&#xa7;" horiz-adv-x="1646" 
d="M1585 352q0 -171 -175.5 -274t-526.5 -103q-271 0 -508 52t-359 139l170 276q275 -170 705 -170q283 0 283 78q0 31 -31.5 46t-95.5 20l-586 35q-176 11 -276.5 85t-100.5 205q0 114 88 199q-68 68 -68 178q0 171 175.5 274t529.5 103q238 0 434.5 -42t317.5 -116
l-162 -264q-257 121 -613 121q-272 0 -272 -72q0 -49 111 -55l514 -29q225 -12 333.5 -85t108.5 -216q0 -111 -78 -192q82 -76 82 -193zM1110 678q74 -3 147 -19q19 23 19 48q0 37 -35.5 54t-122.5 21l-563 31q-99 8 -143 16q-25 -16 -25 -47q0 -65 129 -71z" />
    <glyph glyph-name="dieresis" unicode="&#xa8;" horiz-adv-x="1228" 
d="M176 1167v303h377v-303h-377zM676 1167v303h377v-303h-377z" />
    <glyph glyph-name="copyright" unicode="&#xa9;" horiz-adv-x="1837" 
d="M1772 735q0 -161 -67 -303t-181 -242t-271 -157.5t-331 -57.5q-176 0 -333.5 57.5t-272 157.5t-181.5 242t-67 303q0 217 114 392t309 271.5t431 96.5q234 0 428 -96.5t308 -271.5t114 -392zM1583 735q0 164 -88 296t-239 205t-334 73q-185 0 -337.5 -73t-241.5 -205
t-89 -296q0 -162 89 -294t241.5 -205.5t337.5 -73.5q183 0 334 73.5t239 205.5t88 294zM414 737q0 192 145.5 314.5t370.5 122.5q173 0 300.5 -71.5t170.5 -193.5l-273 -102q-20 50 -71.5 81.5t-130.5 31.5q-100 0 -160.5 -50t-60.5 -133t61 -132.5t162 -49.5
q79 0 129.5 30.5t70.5 82.5l273 -103q-43 -123 -169.5 -193.5t-301.5 -70.5q-225 0 -370.5 122.5t-145.5 313.5z" />
    <glyph glyph-name="ordfeminine" unicode="&#xaa;" horiz-adv-x="1069" 
d="M377 676q-154 0 -245 64.5t-91 174.5q0 117 92.5 178.5t239.5 71.5l291 19v4q0 37 -37 61.5t-115 24.5q-68 0 -114 -22.5t-60 -59.5l-266 47q37 114 158.5 181t295.5 67q196 0 303 -75.5t107 -223.5v-250q0 -32 18 -42.5t70 -0.5v-203q-137 -22 -218 -2.5t-120 74.5
q-115 -88 -309 -88zM664 989v23l-254 -21q-49 -5 -72 -18t-23 -41q0 -62 127 -62q87 0 154.5 33.5t67.5 85.5zM55 365v213h961v-213h-961z" />
    <glyph glyph-name="guillemotleft" unicode="&#xab;" horiz-adv-x="1363" 
d="M68 373v319l581 305v-352l-217 -113l217 -112v-352zM715 373v319l581 305v-352l-217 -113l217 -112v-352z" />
    <glyph glyph-name="registered" unicode="&#xae;" horiz-adv-x="1112" 
d="M1079 1026q0 -204 -146 -335.5t-376 -131.5q-232 0 -378 131.5t-146 335.5t146 336.5t378 132.5q230 0 376 -132.5t146 -336.5zM954 1026q0 155 -109 255.5t-288 100.5t-288 -100.5t-109 -255.5q0 -154 108.5 -254t288.5 -100q179 0 288 100.5t109 253.5zM836 799h-181
l-73 143h-109v-143h-158v471h301q91 0 144 -41t53 -117q0 -85 -86 -127zM647 1098q0 45 -53 45h-121v-88h121q53 0 53 43z" />
    <glyph glyph-name="macron" unicode="&#xaf;" horiz-adv-x="1228" 
d="M999 1176h-770v278h770v-278z" />
    <glyph glyph-name="degree" unicode="&#xb0;" horiz-adv-x="856" 
d="M428 1495q181 0 291 -93t110 -245q0 -151 -110 -243.5t-291 -92.5t-291 92.5t-110 243.5q0 152 110 245t291 93zM428 1024q76 0 123 34.5t47 98.5t-47 99.5t-123 35.5q-75 0 -122.5 -35.5t-47.5 -99.5t47.5 -98.5t122.5 -34.5z" />
    <glyph glyph-name="twosuperior" unicode="&#xb2;" horiz-adv-x="935" 
d="M57 836l322 182q62 34 89.5 50.5t58 39t41 41.5t10.5 41q0 34 -28.5 55t-80.5 21q-73 0 -123 -44.5t-59 -109.5l-252 47q7 64 39 121.5t86.5 103.5t139 73.5t187.5 27.5q168 0 276.5 -71t108.5 -197q0 -96 -58.5 -161t-186.5 -124l-119 -55h387v-222h-838v181z" />
    <glyph glyph-name="threesuperior" unicode="&#xb3;" horiz-adv-x="999" 
d="M508 641q-179 0 -302 55t-202 170l232 115q37 -60 110.5 -94.5t161.5 -34.5q60 0 101.5 16t41.5 50q0 53 -141 53h-152v188h138q143 0 143 58q0 55 -133 55q-82 0 -146.5 -30t-97.5 -79l-219 107q65 101 193 158t296 57q196 0 309 -69t113 -173q0 -60 -38 -105t-103 -69
q154 -54 154 -178q0 -108 -123.5 -179t-335.5 -71z" />
    <glyph glyph-name="acute" unicode="&#xb4;" horiz-adv-x="1228" 
d="M287 1157l188 313h475l-344 -313h-319z" />
    <glyph glyph-name="paragraph" unicode="&#xb6;" horiz-adv-x="1820" 
d="M1200 0v1182h-289v-629h-376q-218 0 -358 123t-140 330t149 335.5t392 128.5h1208v-288h-248v-1182h-338z" />
    <glyph glyph-name="periodcentered" unicode="&#xb7;" horiz-adv-x="600" 
d="M82 393v418h436v-418h-436z" />
    <glyph glyph-name="cedilla" unicode="&#xb8;" horiz-adv-x="1228" 
d="M932 -201q0 -83 -89.5 -130.5t-221.5 -47.5q-87 0 -165.5 19.5t-129.5 54.5l94 147q73 -51 174 -51q86 0 86 39q0 50 -195 47l45 148h160l-18 -66q122 -3 191 -44.5t69 -115.5z" />
    <glyph glyph-name="onesuperior" unicode="&#xb9;" horiz-adv-x="782" 
d="M41 655v222h238v262h-236v196l80 2q109 4 158 35t63 96h219v-591h195v-222h-717z" />
    <glyph glyph-name="ordmasculine" unicode="&#xba;" horiz-adv-x="1028" 
d="M512 1487q209 0 345 -111.5t136 -294.5t-136 -294t-345 -111q-208 0 -343.5 111t-135.5 294t135.5 294.5t343.5 111.5zM512 901q87 0 145 47.5t58 132.5t-58 133t-145 48q-85 0 -142 -48t-57 -133t56.5 -132.5t142.5 -47.5zM53 365v213h922v-213h-922z" />
    <glyph glyph-name="guillemotright" unicode="&#xbb;" horiz-adv-x="1363" 
d="M1296 373l-581 -305v352l217 112l-217 113v352l581 -305v-319zM649 373l-581 -305v352l217 112l-217 113v352l581 -305v-319z" />
    <glyph glyph-name="onequarter" unicode="&#xbc;" horiz-adv-x="2131" 
d="M41 655v222h238v262h-236v196l80 2q109 4 158 35t63 96h219v-591h195v-222h-717zM1473 1470h313l-1147 -1470h-315zM1915 0h-275v156h-491v186l407 473h359v-459h162v-200h-162v-156zM1440 356h200v248z" />
    <glyph glyph-name="onehalf" unicode="&#xbd;" horiz-adv-x="2166" 
d="M41 655v222h238v262h-236v196l80 2q109 4 158 35t63 96h219v-591h195v-222h-717zM1473 1470h313l-1147 -1470h-315zM1288 180l322 182q114 64 156 97.5t42 75.5q0 34 -28 54.5t-80 20.5q-73 0 -123 -44t-59 -109l-252 47q7 64 39 121t86.5 103.5t139 73.5t187.5 27
q168 0 276.5 -71t108.5 -197q0 -96 -58.5 -161t-186.5 -124l-119 -55h387v-221h-838v180z" />
    <glyph glyph-name="threequarters" unicode="&#xbe;" horiz-adv-x="2254" 
d="M508 641q-179 0 -302 55t-202 170l232 115q37 -60 110.5 -94.5t161.5 -34.5q60 0 101.5 16t41.5 50q0 53 -141 53h-152v188h138q143 0 143 58q0 55 -133 55q-82 0 -146.5 -30t-97.5 -79l-219 107q65 101 193 158t296 57q196 0 309 -69t113 -173q0 -60 -38 -105t-103 -69
q154 -54 154 -178q0 -108 -123.5 -179t-335.5 -71zM1595 1470h314l-1147 -1470h-316zM2038 0h-275v156h-491v186l407 473h359v-459h162v-200h-162v-156zM1563 356h200v248z" />
    <glyph glyph-name="questiondown" unicode="&#xbf;" horiz-adv-x="1558" 
d="M758 330q153 0 249.5 56t108.5 144l428 -63q-15 -99 -73 -184t-156.5 -152t-248 -105t-333.5 -38q-327 0 -520 126.5t-193 340.5q0 169 136 284.5t374 147.5v104h416v-356q-248 0 -367.5 -34.5t-119.5 -121.5q0 -71 76 -110t223 -39zM956 1483v-398h-448v398h448z" />
    <glyph glyph-name="Agrave" unicode="&#xc0;" horiz-adv-x="1867" 
d="M705 1470h460l721 -1470h-440l-133 276h-772l-133 -276h-426zM930 1077l-232 -479h461zM1106 1546h-338l-389 332h516z" />
    <glyph glyph-name="Aacute" unicode="&#xc1;" horiz-adv-x="1867" 
d="M705 1470h460l721 -1470h-440l-133 276h-772l-133 -276h-426zM930 1077l-232 -479h461zM754 1546l211 332h516l-389 -332h-338z" />
    <glyph glyph-name="Acircumflex" unicode="&#xc2;" horiz-adv-x="1867" 
d="M705 1470h460l721 -1470h-440l-133 276h-772l-133 -276h-426zM930 1077l-232 -479h461zM1133 1878l286 -332h-291l-194 121l-195 -121h-290l286 332h398z" />
    <glyph glyph-name="Atilde" unicode="&#xc3;" horiz-adv-x="1867" 
d="M705 1470h460l721 -1470h-440l-133 276h-772l-133 -276h-426zM930 1077l-232 -479h461zM735 1927q55 0 108.5 -15.5t88 -33.5t75 -33.5t72.5 -15.5q35 0 55 23t29 75h252q-3 -173 -77 -276t-203 -103q-54 0 -107.5 15t-88 33.5t-75.5 33.5t-73 15q-68 0 -82 -97h-254
q3 171 77.5 275t202.5 104z" />
    <glyph glyph-name="Adieresis" unicode="&#xc4;" horiz-adv-x="1867" 
d="M705 1470h460l721 -1470h-440l-133 276h-772l-133 -276h-426zM930 1077l-232 -479h461zM483 1546v318h377v-318h-377zM1008 1546v318h376v-318h-376z" />
    <glyph glyph-name="Aring" unicode="&#xc5;" horiz-adv-x="1867" 
d="M590 1587q0 125 95.5 206t248.5 81t248.5 -81t95.5 -206q0 -110 -78 -188l686 -1399h-440l-133 276h-772l-133 -276h-426l686 1397q-78 78 -78 190zM813 1587q0 -44 33.5 -73t87.5 -29t87.5 29t33.5 73q0 45 -33 74t-88 29t-88 -29t-33 -74zM930 1077l-232 -479h461z" />
    <glyph glyph-name="AE" unicode="&#xc6;" horiz-adv-x="2965" 
d="M1278 1470h1636v-340h-1036v-219h920v-331h-920v-240h1036v-340h-1429v283h-748l-248 -283h-512zM1016 600h469v535z" />
    <glyph glyph-name="Ccedilla" unicode="&#xc7;" horiz-adv-x="1724" 
d="M35 735q0 162 65.5 303t181 241.5t279 158t352.5 57.5q303 0 512 -127.5t295 -353.5l-366 -164q-45 135 -158.5 216t-282.5 81q-201 0 -335 -113.5t-134 -298.5t134 -298t335 -113q169 0 282.5 81t158.5 216l366 -164q-83 -218 -281.5 -345.5t-484.5 -136.5l-4 -16
q122 -3 191 -44.5t69 -115.5q0 -83 -89.5 -130.5t-221.5 -47.5q-87 0 -165.5 19.5t-129.5 54.5l94 147q73 -51 174 -51q86 0 86 39q0 50 -194 47l33 105q-223 22 -396.5 124t-269.5 266t-96 363z" />
    <glyph glyph-name="Egrave" unicode="&#xc8;" horiz-adv-x="1581" 
d="M100 1470h1430v-340h-1036v-219h919v-331h-919v-240h1036v-340h-1430v1470zM1040 1546h-338l-389 332h516z" />
    <glyph glyph-name="Eacute" unicode="&#xc9;" horiz-adv-x="1581" 
d="M100 1470h1430v-340h-1036v-219h919v-331h-919v-240h1036v-340h-1430v1470zM610 1546l211 332h516l-389 -332h-338z" />
    <glyph glyph-name="Ecircumflex" unicode="&#xca;" horiz-adv-x="1581" 
d="M100 1470h1430v-340h-1036v-219h919v-331h-919v-240h1036v-340h-1430v1470zM1012 1878l286 -332h-290l-195 121l-195 -121h-290l286 332h398z" />
    <glyph glyph-name="Edieresis" unicode="&#xcb;" horiz-adv-x="1581" 
d="M100 1470h1430v-340h-1036v-219h919v-331h-919v-240h1036v-340h-1430v1470zM362 1546v318h377v-318h-377zM887 1546v318h377v-318h-377z" />
    <glyph glyph-name="Igrave" unicode="&#xcc;" horiz-adv-x="602" 
d="M502 1470v-1470h-402v1470h402zM487 1546h-337l-390 332h516z" />
    <glyph glyph-name="Iacute" unicode="&#xcd;" horiz-adv-x="602" 
d="M502 1470v-1470h-402v1470h402zM121 1546l211 332h516l-389 -332h-338z" />
    <glyph glyph-name="Icircumflex" unicode="&#xce;" horiz-adv-x="602" 
d="M502 1470v-1470h-402v1470h402zM498 1878l286 -332h-290l-195 121l-195 -121h-290l286 332h398z" />
    <glyph glyph-name="Idieresis" unicode="&#xcf;" horiz-adv-x="602" 
d="M502 1470v-1470h-402v1470h402zM-152 1546v318h377v-318h-377zM373 1546v318h377v-318h-377z" />
    <glyph glyph-name="Eth" unicode="&#xd0;" horiz-adv-x="1857" 
d="M182 0v578h-166v337h166v555h774q401 0 633 -198.5t232 -536.5t-232 -536.5t-633 -198.5h-774zM575 338h381q220 0 342.5 107.5t122.5 289.5q0 184 -122.5 291t-344.5 107h-379v-218h306v-337h-306v-240z" />
    <glyph glyph-name="Ntilde" unicode="&#xd1;" horiz-adv-x="1800" 
d="M1700 1470v-1470h-354l-854 954v-954h-392v1470h402l807 -905v905h391zM696 1927q55 0 108.5 -15.5t88 -33.5t75 -33.5t72.5 -15.5q35 0 55 23t29 75h252q-3 -173 -77 -276t-203 -103q-54 0 -107.5 15t-88 33.5t-75.5 33.5t-73 15q-68 0 -82 -97h-254q3 171 77.5 275
t202.5 104z" />
    <glyph glyph-name="Ograve" unicode="&#xd2;" horiz-adv-x="1837" 
d="M920 1495q190 0 354.5 -57.5t280 -158t181.5 -241.5t66 -303t-66 -303t-181.5 -241.5t-280 -158t-354.5 -57.5q-253 0 -455.5 98t-316 272t-113.5 390t113.5 390t316 272t455.5 98zM920 1147q-206 0 -340 -113t-134 -299t134 -298.5t340 -112.5t339.5 112.5t133.5 298.5
t-133.5 299t-339.5 113zM1120 1546h-338l-389 332h516z" />
    <glyph glyph-name="Oacute" unicode="&#xd3;" horiz-adv-x="1837" 
d="M920 1495q190 0 354.5 -57.5t280 -158t181.5 -241.5t66 -303t-66 -303t-181.5 -241.5t-280 -158t-354.5 -57.5q-253 0 -455.5 98t-316 272t-113.5 390t113.5 390t316 272t455.5 98zM920 1147q-206 0 -340 -113t-134 -299t134 -298.5t340 -112.5t339.5 112.5t133.5 298.5
t-133.5 299t-339.5 113zM721 1546l211 332h516l-389 -332h-338z" />
    <glyph glyph-name="Ocircumflex" unicode="&#xd4;" horiz-adv-x="1837" 
d="M920 1495q190 0 354.5 -57.5t280 -158t181.5 -241.5t66 -303t-66 -303t-181.5 -241.5t-280 -158t-354.5 -57.5q-253 0 -455.5 98t-316 272t-113.5 390t113.5 390t316 272t455.5 98zM920 1147q-206 0 -340 -113t-134 -299t134 -298.5t340 -112.5t339.5 112.5t133.5 298.5
t-133.5 299t-339.5 113zM1118 1878l287 -332h-291l-194 121l-195 -121h-291l287 332h397z" />
    <glyph glyph-name="Otilde" unicode="&#xd5;" horiz-adv-x="1837" 
d="M920 1495q190 0 354.5 -57.5t280 -158t181.5 -241.5t66 -303t-66 -303t-181.5 -241.5t-280 -158t-354.5 -57.5q-253 0 -455.5 98t-316 272t-113.5 390t113.5 390t316 272t455.5 98zM920 1147q-206 0 -340 -113t-134 -299t134 -298.5t340 -112.5t339.5 112.5t133.5 298.5
t-133.5 299t-339.5 113zM719 1927q55 0 108.5 -15.5t88 -33.5t75 -33.5t72.5 -15.5q35 0 55 23t29 75h252q-3 -173 -77.5 -276t-203.5 -103q-54 0 -107.5 15t-88 33.5t-75.5 33.5t-73 15q-68 0 -82 -97h-254q3 170 78 274.5t203 104.5z" />
    <glyph glyph-name="Odieresis" unicode="&#xd6;" horiz-adv-x="1837" 
d="M920 1495q190 0 354.5 -57.5t280 -158t181.5 -241.5t66 -303t-66 -303t-181.5 -241.5t-280 -158t-354.5 -57.5q-253 0 -455.5 98t-316 272t-113.5 390t113.5 390t316 272t455.5 98zM920 1147q-206 0 -340 -113t-134 -299t134 -298.5t340 -112.5t339.5 112.5t133.5 298.5
t-133.5 299t-339.5 113zM469 1546v318h377v-318h-377zM993 1546v318h377v-318h-377z" />
    <glyph glyph-name="multiply" unicode="&#xd7;" 
d="M1280 55l-457 457l-456 -457l-220 221l455 455l-455 457l220 219l456 -455l447 447l219 -221l-447 -445l457 -457z" />
    <glyph glyph-name="Oslash" unicode="&#xd8;" horiz-adv-x="1837" 
d="M918 1495q292 0 507 -127l154 148l207 -201l-139 -133q153 -192 153 -445q0 -163 -66 -304t-182 -241.5t-280 -158t-354 -58.5q-278 0 -496 119l-166 -155l-207 202l148 140q-162 199 -162 454q0 162 66.5 303t182.5 241.5t280.5 158t353.5 57.5zM918 1163
q-223 0 -353.5 -113.5t-130.5 -314.5q0 -126 53 -215l656 604q-98 39 -225 39zM1401 735q0 114 -49 207l-650 -598q93 -37 216 -37q223 2 353 114.5t130 313.5z" />
    <glyph glyph-name="Ugrave" unicode="&#xd9;" horiz-adv-x="1703" 
d="M852 -23q-375 0 -577.5 179.5t-202.5 498.5v815h401v-776q0 -179 94.5 -273.5t284.5 -94.5t284.5 94.5t94.5 273.5v776h401v-815q0 -319 -202.5 -498.5t-577.5 -179.5zM1055 1546h-338l-389 332h516z" />
    <glyph glyph-name="Uacute" unicode="&#xda;" horiz-adv-x="1703" 
d="M852 -23q-375 0 -577.5 179.5t-202.5 498.5v815h401v-776q0 -179 94.5 -273.5t284.5 -94.5t284.5 94.5t94.5 273.5v776h401v-815q0 -319 -202.5 -498.5t-577.5 -179.5zM655 1546l211 332h516l-389 -332h-338z" />
    <glyph glyph-name="Ucircumflex" unicode="&#xdb;" horiz-adv-x="1703" 
d="M852 -23q-375 0 -577.5 179.5t-202.5 498.5v815h401v-776q0 -179 94.5 -273.5t284.5 -94.5t284.5 94.5t94.5 273.5v776h401v-815q0 -319 -202.5 -498.5t-577.5 -179.5zM1055 1878l286 -332h-290l-195 121l-194 -121h-291l286 332h398z" />
    <glyph glyph-name="Udieresis" unicode="&#xdc;" horiz-adv-x="1703" 
d="M852 -23q-375 0 -577.5 179.5t-202.5 498.5v815h401v-776q0 -179 94.5 -273.5t284.5 -94.5t284.5 94.5t94.5 273.5v776h401v-815q0 -319 -202.5 -498.5t-577.5 -179.5zM406 1546v318h376v-318h-376zM930 1546v318h377v-318h-377z" />
    <glyph glyph-name="Yacute" unicode="&#xdd;" horiz-adv-x="1806" 
d="M911 922l453 548h463l-723 -882v-588h-402v588l-722 882h477zM721 1546l211 332h516l-389 -332h-338z" />
    <glyph glyph-name="Thorn" unicode="&#xde;" horiz-adv-x="1656" 
d="M502 254v-254h-402v1470h402v-215h534q275 0 434.5 -129.5t159.5 -371.5q0 -241 -160 -370.5t-434 -129.5h-534zM502 586h512q106 0 163.5 45t57.5 123q0 79 -57.5 123.5t-163.5 44.5h-512v-336z" />
    <glyph glyph-name="germandbls" unicode="&#xdf;" horiz-adv-x="1538" 
d="M780 1495q145 0 259 -31.5t185 -86.5t107.5 -126.5t36.5 -154.5q0 -192 -178 -285q319 -104 319 -379q0 -135 -73 -239.5t-203.5 -161t-298.5 -56.5q-123 0 -235.5 35t-186.5 96l117 289q133 -112 289 -112q101 0 163 46t62 120q0 167 -295 167h-230v304h148
q113 0 172 35.5t59 101.5q0 69 -57.5 105t-165.5 36q-144 0 -217.5 -78t-73.5 -200v-920h-393v905q0 126 45 233t129.5 187t217 125t298.5 45z" />
    <glyph glyph-name="agrave" unicode="&#xe0;" horiz-adv-x="1406" 
d="M496 -23q-214 0 -340.5 89t-126.5 243q0 83 36 148t100 105.5t145 63.5t179 29l404 29v6q0 53 -50 88t-159 35q-98 0 -162.5 -33t-87.5 -86l-362 70q53 157 221 249.5t407 92.5q271 0 420.5 -105.5t149.5 -312.5v-350q0 -43 25.5 -58t97.5 -1v-279q-187 -29 -298.5 -2
t-166.5 102q-155 -123 -432 -123zM893 414v30l-352 -28q-69 -5 -102 -23.5t-33 -58.5q0 -88 178 -88q123 0 216 46.5t93 121.5zM907 1157h-319l-344 313h475z" />
    <glyph glyph-name="aacute" unicode="&#xe1;" horiz-adv-x="1406" 
d="M496 -23q-214 0 -340.5 89t-126.5 243q0 83 36 148t100 105.5t145 63.5t179 29l404 29v6q0 53 -50 88t-159 35q-98 0 -162.5 -33t-87.5 -86l-362 70q53 157 221 249.5t407 92.5q271 0 420.5 -105.5t149.5 -312.5v-350q0 -43 25.5 -58t97.5 -1v-279q-187 -29 -298.5 -2
t-166.5 102q-155 -123 -432 -123zM893 414v30l-352 -28q-69 -5 -102 -23.5t-33 -58.5q0 -88 178 -88q123 0 216 46.5t93 121.5zM500 1157l188 313h475l-344 -313h-319z" />
    <glyph glyph-name="acircumflex" unicode="&#xe2;" horiz-adv-x="1406" 
d="M496 -23q-214 0 -340.5 89t-126.5 243q0 83 36 148t100 105.5t145 63.5t179 29l404 29v6q0 53 -50 88t-159 35q-98 0 -162.5 -33t-87.5 -86l-362 70q53 157 221 249.5t407 92.5q271 0 420.5 -105.5t149.5 -312.5v-350q0 -43 25.5 -58t97.5 -1v-279q-187 -29 -298.5 -2
t-166.5 102q-155 -123 -432 -123zM893 414v30l-352 -28q-69 -5 -102 -23.5t-33 -58.5q0 -88 178 -88q123 0 216 46.5t93 121.5zM870 1470l271 -313h-287l-168 100l-168 -100h-287l271 313h368z" />
    <glyph glyph-name="atilde" unicode="&#xe3;" horiz-adv-x="1406" 
d="M496 -23q-214 0 -340.5 89t-126.5 243q0 83 36 148t100 105.5t145 63.5t179 29l404 29v6q0 53 -50 88t-159 35q-98 0 -162.5 -33t-87.5 -86l-362 70q53 157 221 249.5t407 92.5q271 0 420.5 -105.5t149.5 -312.5v-350q0 -43 25.5 -58t97.5 -1v-279q-187 -29 -298.5 -2
t-166.5 102q-155 -123 -432 -123zM893 414v30l-352 -28q-69 -5 -102 -23.5t-33 -58.5q0 -88 178 -88q123 0 216 46.5t93 121.5zM510 1493q53 0 100 -13.5t76 -30.5t63.5 -30.5t65.5 -13.5q60 0 74 88h229q-3 -153 -70 -244.5t-184 -91.5q-66 0 -122.5 21.5t-101 43
t-81.5 21.5q-31 0 -49 -20.5t-25 -65.5h-229q3 151 70.5 243.5t183.5 92.5z" />
    <glyph glyph-name="adieresis" unicode="&#xe4;" horiz-adv-x="1406" 
d="M496 -23q-214 0 -340.5 89t-126.5 243q0 83 36 148t100 105.5t145 63.5t179 29l404 29v6q0 53 -50 88t-159 35q-98 0 -162.5 -33t-87.5 -86l-362 70q53 157 221 249.5t407 92.5q271 0 420.5 -105.5t149.5 -312.5v-350q0 -43 25.5 -58t97.5 -1v-279q-187 -29 -298.5 -2
t-166.5 102q-155 -123 -432 -123zM893 414v30l-352 -28q-69 -5 -102 -23.5t-33 -58.5q0 -88 178 -88q123 0 216 46.5t93 121.5zM254 1167v303h377v-303h-377zM754 1167v303h376v-303h-376z" />
    <glyph glyph-name="aring" unicode="&#xe5;" horiz-adv-x="1406" 
d="M496 -23q-214 0 -340.5 89t-126.5 243q0 83 36 148t100 105.5t145 63.5t179 29l404 29v6q0 53 -50 88t-159 35q-98 0 -162.5 -33t-87.5 -86l-362 70q53 157 221 249.5t407 92.5q271 0 420.5 -105.5t149.5 -312.5v-350q0 -43 25.5 -58t97.5 -1v-279q-187 -29 -298.5 -2
t-166.5 102q-155 -123 -432 -123zM893 414v30l-352 -28q-69 -5 -102 -23.5t-33 -58.5q0 -88 178 -88q123 0 216 46.5t93 121.5zM453 1378q0 97 69 165.5t178 68.5q110 0 179 -68.5t69 -165.5q0 -96 -69 -163.5t-179 -67.5t-178.5 67.5t-68.5 163.5zM627 1378q0 -32 20 -53.5
t53 -21.5t54.5 22t21.5 53q0 32 -21.5 55t-54.5 23t-53 -23t-20 -55z" />
    <glyph glyph-name="ae" unicode="&#xe6;" horiz-adv-x="2230" 
d="M514 651h379v39q0 53 -50 88t-159 35q-98 0 -162.5 -33t-87.5 -86l-362 70q53 157 221 249.5t407 92.5q290 0 430 -137q177 137 429 137q151 0 273.5 -45t200.5 -123t120 -180t42 -217v-101h-923q29 -79 101.5 -122.5t172.5 -43.5q96 0 168.5 35t104.5 99l360 -105
q-65 -152 -235.5 -240t-384.5 -88q-162 0 -295 51t-222 144q-87 -94 -223.5 -143.5t-302.5 -49.5q-225 0 -356 88.5t-131 243.5q0 161 126 251.5t359 90.5zM1546 817q-96 0 -169 -42t-103 -124h536q-20 74 -93 120t-171 46zM893 416v24h-318q-169 0 -169 -94q0 -46 46 -73
t132 -27q126 0 217.5 47t91.5 123z" />
    <glyph glyph-name="ccedilla" unicode="&#xe7;" horiz-adv-x="1325" 
d="M35 541q0 124 49 229t136.5 179t212.5 115.5t272 41.5q102 0 194 -21.5t161 -57.5t123.5 -84t88 -101t49.5 -109l-348 -127q-27 82 -97.5 135.5t-173.5 53.5q-127 0 -205.5 -69t-78.5 -185t78.5 -185t205.5 -69q103 0 174 53t97 135l348 -129q-19 -66 -65 -128
t-115.5 -114.5t-170.5 -86.5t-218 -40l-4 -18q122 -3 191 -44.5t69 -115.5q0 -83 -90 -130.5t-222 -47.5q-87 0 -165.5 19.5t-129.5 54.5l95 147q73 -51 174 -51q86 0 86 39q0 50 -195 47l33 105q-253 29 -406 181.5t-153 377.5z" />
    <glyph glyph-name="egrave" unicode="&#xe8;" horiz-adv-x="1380" 
d="M707 274q90 0 160 35.5t102 100.5l358 -105q-42 -102 -135.5 -177.5t-218 -114t-264.5 -38.5q-299 0 -486.5 158t-187.5 410q0 160 85.5 288.5t238.5 201.5t346 73q151 0 273.5 -45t201.5 -123t121 -180t42 -217v-95h-923q28 -83 103 -127.5t184 -44.5zM696 815
q-93 0 -165 -40t-105 -116h520q-10 61 -77.5 108.5t-172.5 47.5zM899 1157h-319l-344 313h475z" />
    <glyph glyph-name="eacute" unicode="&#xe9;" horiz-adv-x="1380" 
d="M707 274q90 0 160 35.5t102 100.5l358 -105q-42 -102 -135.5 -177.5t-218 -114t-264.5 -38.5q-299 0 -486.5 158t-187.5 410q0 160 85.5 288.5t238.5 201.5t346 73q151 0 273.5 -45t201.5 -123t121 -180t42 -217v-95h-923q28 -83 103 -127.5t184 -44.5zM696 815
q-93 0 -165 -40t-105 -116h520q-10 61 -77.5 108.5t-172.5 47.5zM516 1157l189 313h475l-344 -313h-320z" />
    <glyph glyph-name="ecircumflex" unicode="&#xea;" horiz-adv-x="1380" 
d="M707 274q90 0 160 35.5t102 100.5l358 -105q-42 -102 -135.5 -177.5t-218 -114t-264.5 -38.5q-299 0 -486.5 158t-187.5 410q0 160 85.5 288.5t238.5 201.5t346 73q151 0 273.5 -45t201.5 -123t121 -180t42 -217v-95h-923q28 -83 103 -127.5t184 -44.5zM696 815
q-93 0 -165 -40t-105 -116h520q-10 61 -77.5 108.5t-172.5 47.5zM881 1470l270 -313h-287l-168 100l-168 -100h-286l270 313h369z" />
    <glyph glyph-name="edieresis" unicode="&#xeb;" horiz-adv-x="1380" 
d="M707 274q90 0 160 35.5t102 100.5l358 -105q-42 -102 -135.5 -177.5t-218 -114t-264.5 -38.5q-299 0 -486.5 158t-187.5 410q0 160 85.5 288.5t238.5 201.5t346 73q151 0 273.5 -45t201.5 -123t121 -180t42 -217v-95h-923q28 -83 103 -127.5t184 -44.5zM696 815
q-93 0 -165 -40t-105 -116h520q-10 61 -77.5 108.5t-172.5 47.5zM260 1167v303h377v-303h-377zM760 1167v303h377v-303h-377z" />
    <glyph glyph-name="igrave" unicode="&#xec;" horiz-adv-x="565" 
d="M477 1081v-1081h-389v1081h389zM455 1157h-320l-344 313h475z" />
    <glyph glyph-name="iacute" unicode="&#xed;" horiz-adv-x="565" 
d="M477 1081v-1081h-389v1081h389zM115 1157l188 313h475l-344 -313h-319z" />
    <glyph glyph-name="icircumflex" unicode="&#xee;" horiz-adv-x="565" 
d="M477 1081v-1081h-389v1081h389zM467 1470l270 -313h-286l-168 100l-168 -100h-287l270 313h369z" />
    <glyph glyph-name="idieresis" unicode="&#xef;" horiz-adv-x="565" 
d="M477 1081v-1081h-389v1081h389zM-156 1167v303h377v-303h-377zM344 1167v303h377v-303h-377z" />
    <glyph glyph-name="eth" unicode="&#xf0;" horiz-adv-x="1398" 
d="M627 1059q150 0 233 -41q-42 64 -121 137l-495 -100v241l233 47q-108 65 -209 107l418 43q82 -37 150 -76l378 76v-242l-129 -26q133 -133 206 -293t73 -334q0 -295 -181.5 -459t-482.5 -164q-140 0 -262.5 40.5t-211.5 112.5t-140 177.5t-51 229.5q0 157 82 278
t215.5 183.5t294.5 62.5zM700 287q122 0 203.5 67.5t81.5 186.5t-81.5 186.5t-203.5 67.5t-202 -67.5t-80 -186.5t80 -186.5t202 -67.5z" />
    <glyph glyph-name="ntilde" unicode="&#xf1;" horiz-adv-x="1421" 
d="M88 0v1081h389v-123q66 69 165.5 108.5t221.5 39.5q207 0 341 -127t134 -344v-635h-389v500q0 130 -57.5 198t-167.5 68q-117 0 -182.5 -69t-65.5 -199v-498h-389zM537 1493q53 0 100 -13.5t76 -30.5t63.5 -30.5t65.5 -13.5q59 0 73 88h230q-3 -153 -70 -244.5
t-184 -91.5q-66 0 -122.5 21.5t-101 43t-81.5 21.5q-31 0 -49 -20.5t-25 -65.5h-229q3 151 70.5 243.5t183.5 92.5z" />
    <glyph glyph-name="ograve" unicode="&#xf2;" horiz-adv-x="1402" 
d="M700 1106q190 0 341.5 -68.5t239 -198t87.5 -298.5t-87.5 -298.5t-239 -198.5t-341.5 -69q-188 0 -339 69t-238.5 199t-87.5 298q0 127 51 233.5t140 179t211 112.5t263 40zM700 287q122 0 203.5 67.5t81.5 186.5t-81.5 186.5t-203.5 67.5t-202 -67.5t-80 -186.5
t80 -186.5t202 -67.5zM889 1157h-320l-344 313h475z" />
    <glyph glyph-name="oacute" unicode="&#xf3;" horiz-adv-x="1402" 
d="M700 1106q190 0 341.5 -68.5t239 -198t87.5 -298.5t-87.5 -298.5t-239 -198.5t-341.5 -69q-188 0 -339 69t-238.5 199t-87.5 298q0 127 51 233.5t140 179t211 112.5t263 40zM700 287q122 0 203.5 67.5t81.5 186.5t-81.5 186.5t-203.5 67.5t-202 -67.5t-80 -186.5
t80 -186.5t202 -67.5zM526 1157l189 313h475l-344 -313h-320z" />
    <glyph glyph-name="ocircumflex" unicode="&#xf4;" horiz-adv-x="1402" 
d="M700 1106q190 0 341.5 -68.5t239 -198t87.5 -298.5t-87.5 -298.5t-239 -198.5t-341.5 -69q-188 0 -339 69t-238.5 199t-87.5 298q0 127 51 233.5t140 179t211 112.5t263 40zM700 287q122 0 203.5 67.5t81.5 186.5t-81.5 186.5t-203.5 67.5t-202 -67.5t-80 -186.5
t80 -186.5t202 -67.5zM885 1470l270 -313h-287l-168 100l-168 -100h-286l270 313h369z" />
    <glyph glyph-name="otilde" unicode="&#xf5;" horiz-adv-x="1402" 
d="M700 1106q190 0 341.5 -68.5t239 -198t87.5 -298.5t-87.5 -298.5t-239 -198.5t-341.5 -69q-188 0 -339 69t-238.5 199t-87.5 298q0 127 51 233.5t140 179t211 112.5t263 40zM700 287q122 0 203.5 67.5t81.5 186.5t-81.5 186.5t-203.5 67.5t-202 -67.5t-80 -186.5
t80 -186.5t202 -67.5zM524 1493q53 0 100 -13.5t76 -30.5t63.5 -30.5t65.5 -13.5q60 0 74 88h230q-3 -153 -70 -244.5t-184 -91.5q-66 0 -123 21.5t-101.5 43t-81.5 21.5q-31 0 -48.5 -20t-24.5 -66h-230q3 151 70.5 243.5t183.5 92.5z" />
    <glyph glyph-name="odieresis" unicode="&#xf6;" horiz-adv-x="1402" 
d="M700 1106q190 0 341.5 -68.5t239 -198t87.5 -298.5t-87.5 -298.5t-239 -198.5t-341.5 -69q-188 0 -339 69t-238.5 199t-87.5 298q0 127 51 233.5t140 179t211 112.5t263 40zM700 287q122 0 203.5 67.5t81.5 186.5t-81.5 186.5t-203.5 67.5t-202 -67.5t-80 -186.5
t80 -186.5t202 -67.5zM262 1167v303h377v-303h-377zM762 1167v303h377v-303h-377z" />
    <glyph glyph-name="divide" unicode="&#xf7;" 
d="M629 1032v361h379v-361h-379zM113 571v324h1411v-324h-1411zM629 74v360h379v-360h-379z" />
    <glyph glyph-name="oslash" unicode="&#xf8;" horiz-adv-x="1402" 
d="M700 1106q197 0 355 -76l133 127l170 -170l-111 -104q121 -143 121 -342q0 -168 -88 -298t-239.5 -199t-340.5 -69q-200 0 -356 78l-129 -125l-170 170l109 103q-119 144 -119 340q0 127 51 233.5t140 179t211 112.5t263 40zM399 541q0 -64 25 -119l391 381
q-56 16 -115 16q-128 0 -214.5 -74.5t-86.5 -203.5zM1004 541q0 66 -25 118l-391 -378q60 -17 112 -17q130 0 217 74t87 203z" />
    <glyph glyph-name="ugrave" unicode="&#xf9;" horiz-adv-x="1411" 
d="M1323 1081v-1081h-389v123q-145 -148 -385 -148q-205 0 -336 125.5t-131 343.5v637h389v-536q0 -240 219 -240q117 0 180.5 63t63.5 183v530h389zM887 1157h-320l-344 313h475z" />
    <glyph glyph-name="uacute" unicode="&#xfa;" horiz-adv-x="1411" 
d="M1323 1081v-1081h-389v123q-145 -148 -385 -148q-205 0 -336 125.5t-131 343.5v637h389v-536q0 -240 219 -240q117 0 180.5 63t63.5 183v530h389zM520 1157l189 313h475l-344 -313h-320z" />
    <glyph glyph-name="ucircumflex" unicode="&#xfb;" horiz-adv-x="1411" 
d="M1323 1081v-1081h-389v123q-145 -148 -385 -148q-205 0 -336 125.5t-131 343.5v637h389v-536q0 -240 219 -240q117 0 180.5 63t63.5 183v530h389zM889 1470l270 -313h-287l-167 100l-168 -100h-287l270 313h369z" />
    <glyph glyph-name="udieresis" unicode="&#xfc;" horiz-adv-x="1411" 
d="M1323 1081v-1081h-389v123q-145 -148 -385 -148q-205 0 -336 125.5t-131 343.5v637h389v-536q0 -240 219 -240q117 0 180.5 63t63.5 183v530h389zM266 1167v303h377v-303h-377zM766 1167v303h377v-303h-377z" />
    <glyph glyph-name="yacute" unicode="&#xfd;" horiz-adv-x="1427" 
d="M915 -14q-64 -133 -132.5 -210t-167.5 -115t-242 -38q-68 0 -141.5 13t-118.5 32l59 295q80 -39 154 -39q60 0 100.5 18.5t60.5 67.5l9 25l-510 1046h436l305 -678l305 678h410zM541 1157l188 313h475l-344 -313h-319z" />
    <glyph glyph-name="thorn" unicode="&#xfe;" horiz-adv-x="1460" 
d="M477 113v-467h-389v1824h389v-501q54 60 151.5 98.5t219.5 38.5q178 0 311 -77t199.5 -204t66.5 -284q0 -117 -39 -219.5t-111 -180t-182.5 -122t-244.5 -44.5q-122 0 -219.5 38.5t-151.5 99.5zM467 547v-12q0 -109 82.5 -179.5t204.5 -70.5q124 0 206 68t82 188t-82 188
t-206 68q-122 0 -204.5 -70.5t-82.5 -179.5z" />
    <glyph glyph-name="ydieresis" unicode="&#xff;" horiz-adv-x="1427" 
d="M915 -14q-64 -133 -132.5 -210t-167.5 -115t-242 -38q-68 0 -141.5 13t-118.5 32l59 295q80 -39 154 -39q60 0 100.5 18.5t60.5 67.5l9 25l-510 1046h436l305 -678l305 678h410zM274 1167v303h377v-303h-377zM774 1167v303h377v-303h-377z" />
    <glyph glyph-name="Amacron" unicode="&#x100;" horiz-adv-x="1867" 
d="M705 1470h460l721 -1470h-440l-133 276h-772l-133 -276h-426zM930 1077l-232 -479h461zM1354 1552h-840v281h840v-281z" />
    <glyph glyph-name="amacron" unicode="&#x101;" horiz-adv-x="1406" 
d="M496 -23q-214 0 -340.5 89t-126.5 243q0 83 36 148t100 105.5t145 63.5t179 29l404 29v6q0 53 -50 88t-159 35q-98 0 -162.5 -33t-87.5 -86l-362 70q53 157 221 249.5t407 92.5q271 0 420.5 -105.5t149.5 -312.5v-350q0 -43 25.5 -58t97.5 -1v-279q-187 -29 -298.5 -2
t-166.5 102q-155 -123 -432 -123zM893 414v30l-352 -28q-69 -5 -102 -23.5t-33 -58.5q0 -88 178 -88q123 0 216 46.5t93 121.5zM1063 1176h-770v278h770v-278z" />
    <glyph glyph-name="Abreve" unicode="&#x102;" horiz-adv-x="1867" 
d="M705 1470h460l721 -1470h-440l-133 276h-772l-133 -276h-426zM930 1077l-232 -479h461zM934 1786q70 0 115 25.5t45 66.5h272q0 -152 -113 -248t-319 -96t-319 96t-113 248h272q0 -41 45 -66.5t115 -25.5z" />
    <glyph glyph-name="abreve" unicode="&#x103;" horiz-adv-x="1406" 
d="M496 -23q-214 0 -340.5 89t-126.5 243q0 83 36 148t100 105.5t145 63.5t179 29l404 29v6q0 53 -50 88t-159 35q-98 0 -162.5 -33t-87.5 -86l-362 70q53 157 221 249.5t407 92.5q271 0 420.5 -105.5t149.5 -312.5v-350q0 -43 25.5 -58t97.5 -1v-279q-187 -29 -298.5 -2
t-166.5 102q-155 -123 -432 -123zM893 414v30l-352 -28q-69 -5 -102 -23.5t-33 -58.5q0 -88 178 -88q123 0 216 46.5t93 121.5zM707 1384q137 0 147 86h264q-7 -317 -411 -317q-405 3 -412 317h264q10 -86 148 -86z" />
    <glyph glyph-name="Aogonek" unicode="&#x104;" horiz-adv-x="1867" 
d="M1206 -182q0 78 53 134.5t162 96.5l-108 227h-772l-133 -276h-426l723 1470h460l721 -1470h-211q-126 -31 -173.5 -53t-47.5 -51q0 -26 30.5 -40t82.5 -14q38 0 108 13v-207q-100 -19 -170 -19q-81 0 -147 19.5t-109 63.5t-43 106zM930 1077l-232 -479h461z" />
    <glyph glyph-name="aogonek" unicode="&#x105;" horiz-adv-x="1406" 
d="M496 -23q-214 0 -340.5 89t-126.5 243q0 83 36 148t100 105.5t145 63.5t179 29l404 29v6q0 53 -50 88t-159 35q-98 0 -162.5 -33t-87.5 -86l-362 70q53 157 221 249.5t407 92.5q271 0 420.5 -105.5t149.5 -312.5v-350q0 -43 25.5 -58t97.5 -1v-279q-127 -31 -174.5 -53
t-47.5 -51q0 -26 30.5 -40t82.5 -14q39 0 109 13v-207q-100 -19 -170 -19q-81 0 -147 19.5t-109 63.5t-43 106q0 118 129 192q-80 29 -125 90q-155 -123 -432 -123zM893 414v30l-352 -28q-69 -5 -102 -23.5t-33 -58.5q0 -88 178 -88q123 0 216 46.5t93 121.5z" />
    <glyph glyph-name="Cacute" unicode="&#x106;" horiz-adv-x="1724" 
d="M35 735q0 162 65.5 303t181 241.5t279 158t352.5 57.5q303 0 512 -127.5t295 -353.5l-366 -164q-45 135 -158.5 216t-282.5 81q-201 0 -335 -113.5t-134 -298.5t134 -298t335 -113q169 0 282.5 81t158.5 216l366 -164q-86 -226 -295 -354t-512 -128q-189 0 -352.5 57.5
t-279 158t-181 241.5t-65.5 303zM727 1546l211 332h516l-389 -332h-338z" />
    <glyph glyph-name="cacute" unicode="&#x107;" horiz-adv-x="1325" 
d="M35 541q0 124 49 229t136.5 179t212.5 115.5t272 41.5q102 0 194 -21.5t161 -57.5t123.5 -84t88 -101t49.5 -109l-348 -127q-27 82 -97.5 135.5t-173.5 53.5q-127 0 -205.5 -69t-78.5 -185t78.5 -185t205.5 -69q103 0 174 53t97 135l348 -129q-20 -70 -69.5 -134.5
t-125 -118t-185 -86t-236.5 -32.5q-297 0 -483.5 157.5t-186.5 408.5zM510 1157l188 313h476l-345 -313h-319z" />
    <glyph glyph-name="Ccircumflex" unicode="&#x108;" horiz-adv-x="1724" 
d="M35 735q0 162 65.5 303t181 241.5t279 158t352.5 57.5q303 0 512 -127.5t295 -353.5l-366 -164q-45 135 -158.5 216t-282.5 81q-201 0 -335 -113.5t-134 -298.5t134 -298t335 -113q169 0 282.5 81t158.5 216l366 -164q-86 -226 -295 -354t-512 -128q-189 0 -352.5 57.5
t-279 158t-181 241.5t-65.5 303zM1112 1878l287 -332h-291l-195 121l-194 -121h-291l287 332h397z" />
    <glyph glyph-name="ccircumflex" unicode="&#x109;" horiz-adv-x="1325" 
d="M35 541q0 124 49 229t136.5 179t212.5 115.5t272 41.5q102 0 194 -21.5t161 -57.5t123.5 -84t88 -101t49.5 -109l-348 -127q-27 82 -97.5 135.5t-173.5 53.5q-127 0 -205.5 -69t-78.5 -185t78.5 -185t205.5 -69q103 0 174 53t97 135l348 -129q-20 -70 -69.5 -134.5
t-125 -118t-185 -86t-236.5 -32.5q-297 0 -483.5 157.5t-186.5 408.5zM877 1470l270 -313h-287l-168 100l-168 -100h-286l270 313h369z" />
    <glyph glyph-name="Cdotaccent" unicode="&#x10a;" horiz-adv-x="1724" 
d="M35 735q0 162 65.5 303t181 241.5t279 158t352.5 57.5q303 0 512 -127.5t295 -353.5l-366 -164q-45 135 -158.5 216t-282.5 81q-201 0 -335 -113.5t-134 -298.5t134 -298t335 -113q169 0 282.5 81t158.5 216l366 -164q-86 -226 -295 -354t-512 -128q-189 0 -352.5 57.5
t-279 158t-181 241.5t-65.5 303zM694 1546v318h418v-318h-418z" />
    <glyph glyph-name="cdotaccent" unicode="&#x10b;" horiz-adv-x="1325" 
d="M35 541q0 124 49 229t136.5 179t212.5 115.5t272 41.5q102 0 194 -21.5t161 -57.5t123.5 -84t88 -101t49.5 -109l-348 -127q-27 82 -97.5 135.5t-173.5 53.5q-127 0 -205.5 -69t-78.5 -185t78.5 -185t205.5 -69q103 0 174 53t97 135l348 -129q-20 -70 -69.5 -134.5
t-125 -118t-185 -86t-236.5 -32.5q-297 0 -483.5 157.5t-186.5 408.5zM496 1167v303h393v-303h-393z" />
    <glyph glyph-name="Ccaron" unicode="&#x10c;" horiz-adv-x="1724" 
d="M35 735q0 162 65.5 303t181 241.5t279 158t352.5 57.5q303 0 512 -127.5t295 -353.5l-366 -164q-45 135 -158.5 216t-282.5 81q-201 0 -335 -113.5t-134 -298.5t134 -298t335 -113q169 0 282.5 81t158.5 216l366 -164q-86 -226 -295 -354t-512 -128q-189 0 -352.5 57.5
t-279 158t-181 241.5t-65.5 303zM1106 1548h-397l-287 332h291l194 -121l195 121h291z" />
    <glyph glyph-name="ccaron" unicode="&#x10d;" horiz-adv-x="1325" 
d="M35 541q0 124 49 229t136.5 179t212.5 115.5t272 41.5q102 0 194 -21.5t161 -57.5t123.5 -84t88 -101t49.5 -109l-348 -127q-27 82 -97.5 135.5t-173.5 53.5q-127 0 -205.5 -69t-78.5 -185t78.5 -185t205.5 -69q103 0 174 53t97 135l348 -129q-20 -70 -69.5 -134.5
t-125 -118t-185 -86t-236.5 -32.5q-297 0 -483.5 157.5t-186.5 408.5zM877 1157h-369l-270 313h286l168 -100l168 100h287z" />
    <glyph glyph-name="Dcaron" unicode="&#x10e;" horiz-adv-x="1775" 
d="M100 0v1470h774q401 0 633 -198.5t232 -536.5t-232 -536.5t-633 -198.5h-774zM494 338h380q220 0 342.5 107.5t122.5 289.5q0 184 -122.5 291t-344.5 107h-378v-795zM1008 1548h-398l-286 332h290l195 -121l195 121h290z" />
    <glyph glyph-name="dcaron" unicode="&#x10f;" horiz-adv-x="1460" 
d="M983 113q-54 -61 -151.5 -99.5t-219.5 -38.5q-134 0 -244.5 44.5t-182.5 122t-111 180t-39 219.5q0 157 66.5 284t199.5 204t311 77q122 0 219.5 -38.5t151.5 -98.5v501h389v-1470h-389v113zM993 547q0 109 -82.5 179.5t-203.5 70.5q-124 0 -206.5 -68t-82.5 -188
t82.5 -188t206.5 -68q121 0 203.5 70.5t82.5 179.5v12zM1448 1118l43 352h401l-182 -352h-262z" />
    <glyph glyph-name="Dcroat" unicode="&#x110;" horiz-adv-x="1857" 
d="M182 0v578h-166v337h166v555h774q401 0 633 -198.5t232 -536.5t-232 -536.5t-633 -198.5h-774zM575 338h381q220 0 342.5 107.5t122.5 289.5q0 184 -122.5 291t-344.5 107h-379v-218h306v-337h-306v-240z" />
    <glyph glyph-name="dcroat" unicode="&#x111;" horiz-adv-x="1513" 
d="M983 113q-54 -61 -151.5 -99.5t-219.5 -38.5q-134 0 -244.5 44.5t-182.5 122t-111 180t-39 219.5q0 157 66.5 284t199.5 204t311 77q122 0 219.5 -38.5t151.5 -98.5v180h-235v237h235v84h389v-84h133v-237h-133v-1149h-389v113zM993 547q0 109 -82.5 179.5t-203.5 70.5
q-124 0 -206.5 -68t-82.5 -188t82.5 -188t206.5 -68q121 0 203.5 70.5t82.5 179.5v12z" />
    <glyph glyph-name="Emacron" unicode="&#x112;" horiz-adv-x="1581" 
d="M100 1470h1430v-340h-1036v-219h919v-331h-919v-240h1036v-340h-1430v1470zM1233 1552h-840v281h840v-281z" />
    <glyph glyph-name="emacron" unicode="&#x113;" horiz-adv-x="1380" 
d="M707 274q90 0 160 35.5t102 100.5l358 -105q-42 -102 -135.5 -177.5t-218 -114t-264.5 -38.5q-299 0 -486.5 158t-187.5 410q0 160 85.5 288.5t238.5 201.5t346 73q151 0 273.5 -45t201.5 -123t121 -180t42 -217v-95h-923q28 -83 103 -127.5t184 -44.5zM696 815
q-93 0 -165 -40t-105 -116h520q-10 61 -77.5 108.5t-172.5 47.5zM1077 1176h-770v278h770v-278z" />
    <glyph glyph-name="Ebreve" unicode="&#x114;" horiz-adv-x="1581" 
d="M100 1470h1430v-340h-1036v-219h919v-331h-919v-240h1036v-340h-1430v1470zM813 1786q70 0 115 25.5t45 66.5h272q0 -152 -113 -248t-319 -96t-319 96t-113 248h272q0 -41 45 -66.5t115 -25.5z" />
    <glyph glyph-name="ebreve" unicode="&#x115;" horiz-adv-x="1380" 
d="M707 274q90 0 160 35.5t102 100.5l358 -105q-42 -102 -135.5 -177.5t-218 -114t-264.5 -38.5q-299 0 -486.5 158t-187.5 410q0 160 85.5 288.5t238.5 201.5t346 73q151 0 273.5 -45t201.5 -123t121 -180t42 -217v-95h-923q28 -83 103 -127.5t184 -44.5zM696 815
q-93 0 -165 -40t-105 -116h520q-10 61 -77.5 108.5t-172.5 47.5zM694 1384q138 0 148 86h264q-7 -317 -412 -317q-404 3 -411 317h264q10 -86 147 -86z" />
    <glyph glyph-name="Edotaccent" unicode="&#x116;" horiz-adv-x="1581" 
d="M100 1470h1430v-340h-1036v-219h919v-331h-919v-240h1036v-340h-1430v1470zM604 1546v318h418v-318h-418z" />
    <glyph glyph-name="edotaccent" unicode="&#x117;" horiz-adv-x="1380" 
d="M707 274q90 0 160 35.5t102 100.5l358 -105q-42 -102 -135.5 -177.5t-218 -114t-264.5 -38.5q-299 0 -486.5 158t-187.5 410q0 160 85.5 288.5t238.5 201.5t346 73q151 0 273.5 -45t201.5 -123t121 -180t42 -217v-95h-923q28 -83 103 -127.5t184 -44.5zM696 815
q-93 0 -165 -40t-105 -116h520q-10 61 -77.5 108.5t-172.5 47.5zM494 1167v303h393v-303h-393z" />
    <glyph glyph-name="Eogonek" unicode="&#x118;" horiz-adv-x="1581" 
d="M905 -182q0 112 113 182h-918v1470h1430v-340h-1036v-219h919v-331h-919v-240h1036v-340h-156q-126 -31 -173.5 -53t-47.5 -51q0 -26 30.5 -40t82.5 -14q38 0 108 13v-207q-100 -19 -170 -19q-81 0 -147 19.5t-109 63.5t-43 106z" />
    <glyph glyph-name="eogonek" unicode="&#x119;" horiz-adv-x="1380" 
d="M1038 39q-80 -35 -110.5 -61t-30.5 -60q0 -76 121 -76q38 0 108 13v-207q-100 -19 -170 -19q-81 0 -147 21.5t-109 70t-43 117.5q0 83 54 137h-2q-299 0 -486.5 158t-187.5 410q0 160 85.5 288.5t238.5 201.5t346 73q151 0 273.5 -45t201.5 -123t121 -180t42 -217v-95
h-923q28 -83 100 -127.5t176 -44.5q97 0 168.5 35t104.5 101l358 -105q-71 -173 -289 -266zM696 815q-94 0 -165.5 -40t-102.5 -116h518q-10 60 -80.5 108t-169.5 48z" />
    <glyph glyph-name="Ecaron" unicode="&#x11a;" horiz-adv-x="1581" 
d="M100 1470h1430v-340h-1036v-219h919v-331h-919v-240h1036v-340h-1430v1470zM1012 1548h-398l-286 332h290l195 -121l195 121h290z" />
    <glyph glyph-name="ecaron" unicode="&#x11b;" horiz-adv-x="1380" 
d="M707 274q90 0 160 35.5t102 100.5l358 -105q-42 -102 -135.5 -177.5t-218 -114t-264.5 -38.5q-299 0 -486.5 158t-187.5 410q0 160 85.5 288.5t238.5 201.5t346 73q151 0 273.5 -45t201.5 -123t121 -180t42 -217v-95h-923q28 -83 103 -127.5t184 -44.5zM696 815
q-93 0 -165 -40t-105 -116h520q-10 61 -77.5 108.5t-172.5 47.5zM879 1157h-369l-270 313h286l168 -100l168 100h287z" />
    <glyph glyph-name="Gcircumflex" unicode="&#x11c;" horiz-adv-x="1847" 
d="M942 1495q296 0 508.5 -124.5t298.5 -340.5l-387 -141q-45 120 -154.5 190t-279.5 70q-133 0 -242 -50t-174.5 -147t-65.5 -223q0 -185 136.5 -298.5t343.5 -113.5q165 0 288.5 56.5t155.5 146.5h-561v314h965v-834h-373v127q-60 -65 -191.5 -108.5t-285.5 -43.5
q-192 0 -358 57.5t-282 158t-182.5 242t-66.5 304.5q0 217 114 389.5t321.5 270.5t471.5 98zM1143 1878l287 -332h-291l-195 121l-194 -121h-291l286 332h398z" />
    <glyph glyph-name="gcircumflex" unicode="&#x11d;" horiz-adv-x="1456" 
d="M1368 176q0 -135 -54 -241t-150.5 -174.5t-226.5 -104t-286 -35.5q-209 0 -376.5 66t-239.5 194l309 166q92 -133 311 -133q82 0 153 22t121 74t50 127v27q-55 -58 -150.5 -94.5t-218.5 -36.5q-267 0 -422 151t-155 381q0 112 39 210t111 172t182.5 116.5t244.5 42.5
q122 0 218 -37t151 -94v106h389v-905zM991 569q0 108 -83.5 174t-205.5 66t-204 -65t-82 -179q0 -113 82 -178t204 -65t205.5 66t83.5 175v6zM924 1470l270 -313h-287l-168 100l-168 -100h-286l270 313h369z" />
    <glyph glyph-name="Gbreve" unicode="&#x11e;" horiz-adv-x="1847" 
d="M942 1495q296 0 508.5 -124.5t298.5 -340.5l-387 -141q-45 120 -154.5 190t-279.5 70q-133 0 -242 -50t-174.5 -147t-65.5 -223q0 -185 136.5 -298.5t343.5 -113.5q165 0 288.5 56.5t155.5 146.5h-561v314h965v-834h-373v127q-60 -65 -191.5 -108.5t-285.5 -43.5
q-192 0 -358 57.5t-282 158t-182.5 242t-66.5 304.5q0 217 114 389.5t321.5 270.5t471.5 98zM944 1786q70 0 115 25.5t45 66.5h272q0 -152 -113 -248t-319 -96t-319 96t-113 248h272q0 -41 45 -66.5t115 -25.5z" />
    <glyph glyph-name="gbreve" unicode="&#x11f;" horiz-adv-x="1456" 
d="M1368 176q0 -135 -54 -241t-150.5 -174.5t-226.5 -104t-286 -35.5q-209 0 -376.5 66t-239.5 194l309 166q92 -133 311 -133q82 0 153 22t121 74t50 127v27q-55 -58 -150.5 -94.5t-218.5 -36.5q-267 0 -422 151t-155 381q0 112 39 210t111 172t182.5 116.5t244.5 42.5
q122 0 218 -37t151 -94v106h389v-905zM991 569q0 108 -83.5 174t-205.5 66t-204 -65t-82 -179q0 -113 82 -178t204 -65t205.5 66t83.5 175v6zM731 1384q138 0 148 86h264q-7 -317 -412 -317q-405 3 -412 317h265q10 -86 147 -86z" />
    <glyph glyph-name="Gdotaccent" unicode="&#x120;" horiz-adv-x="1847" 
d="M942 1495q296 0 508.5 -124.5t298.5 -340.5l-387 -141q-45 120 -154.5 190t-279.5 70q-133 0 -242 -50t-174.5 -147t-65.5 -223q0 -185 136.5 -298.5t343.5 -113.5q165 0 288.5 56.5t155.5 146.5h-561v314h965v-834h-373v127q-60 -65 -191.5 -108.5t-285.5 -43.5
q-192 0 -358 57.5t-282 158t-182.5 242t-66.5 304.5q0 217 114 389.5t321.5 270.5t471.5 98zM721 1546v318h418v-318h-418z" />
    <glyph glyph-name="gdotaccent" unicode="&#x121;" horiz-adv-x="1456" 
d="M1368 176q0 -135 -54 -241t-150.5 -174.5t-226.5 -104t-286 -35.5q-209 0 -376.5 66t-239.5 194l309 166q92 -133 311 -133q82 0 153 22t121 74t50 127v27q-55 -58 -150.5 -94.5t-218.5 -36.5q-267 0 -422 151t-155 381q0 112 39 210t111 172t182.5 116.5t244.5 42.5
q122 0 218 -37t151 -94v106h389v-905zM991 569q0 108 -83.5 174t-205.5 66t-204 -65t-82 -179q0 -113 82 -178t204 -65t205.5 66t83.5 175v6zM545 1167v303h393v-303h-393z" />
    <glyph glyph-name="uni0122" unicode="&#x122;" horiz-adv-x="1847" 
d="M942 1495q296 0 508.5 -124.5t298.5 -340.5l-387 -141q-45 120 -154.5 190t-279.5 70q-133 0 -242 -50t-174.5 -147t-65.5 -223q0 -185 136.5 -298.5t343.5 -113.5q165 0 288.5 56.5t155.5 146.5h-561v314h965v-834h-373v127q-60 -65 -191.5 -108.5t-285.5 -43.5
q-192 0 -358 57.5t-282 158t-182.5 242t-66.5 304.5q0 217 114 389.5t321.5 270.5t471.5 98zM723 -260v199h389v-84q0 -314 -389 -314v133q118 0 129 66h-129z" />
    <glyph glyph-name="uni0123" unicode="&#x123;" horiz-adv-x="1456" 
d="M1368 176q0 -135 -54 -241t-150.5 -174.5t-226.5 -104t-286 -35.5q-209 0 -376.5 66t-239.5 194l309 166q92 -133 311 -133q82 0 153 22t121 74t50 127v27q-55 -58 -150.5 -94.5t-218.5 -36.5q-267 0 -422 151t-155 381q0 112 39 210t111 172t182.5 116.5t244.5 42.5
q122 0 218 -37t151 -94v106h389v-905zM991 569q0 108 -83.5 174t-205.5 66t-204 -65t-82 -179q0 -113 82 -178t204 -65t205.5 66t83.5 175v6zM932 1356v-199h-389v84q0 313 389 313v-133q-118 0 -129 -65h129z" />
    <glyph glyph-name="Hcircumflex" unicode="&#x124;" horiz-adv-x="1810" 
d="M1309 1470h401v-1470h-401v578h-807v-578h-402v1470h402v-555h807v555zM1098 1878l286 -332h-290l-195 121l-194 -121h-291l286 332h398z" />
    <glyph glyph-name="hcircumflex" unicode="&#x125;" horiz-adv-x="1421" 
d="M88 0v1470h389v-512q66 69 165.5 108.5t221.5 39.5q207 0 341 -127t134 -344v-635h-389v500q0 130 -57.5 198t-167.5 68q-117 0 -182.5 -69t-65.5 -199v-498h-389zM901 1878l287 -332h-291l-195 121l-194 -121h-291l287 332h397z" />
    <glyph glyph-name="Hbar" unicode="&#x126;" horiz-adv-x="1949" 
d="M1378 1470h402v-229h157v-330h-157v-911h-402v403h-809v-403h-399v911h-156v330h156v229h399v-229h809v229zM569 733h809v178h-809v-178z" />
    <glyph glyph-name="hbar" unicode="&#x127;" horiz-adv-x="1474" 
d="M141 0v1149h-133v242h133v79h389v-79h304v-242h-304v-191q66 69 166 108.5t222 39.5q207 0 341 -127t134 -344v-635h-389v500q0 130 -58 198t-168 68q-117 0 -182.5 -69t-65.5 -199v-498h-389z" />
    <glyph glyph-name="Itilde" unicode="&#x128;" horiz-adv-x="602" 
d="M502 1470v-1470h-402v1470h402zM98 1927q55 0 108.5 -15.5t88 -33.5t75 -33.5t72.5 -15.5q35 0 55 23t29 75h252q-3 -173 -77 -276t-203 -103q-54 0 -107.5 15t-88 33.5t-75.5 33.5t-73 15q-68 0 -82 -97h-254q3 171 77.5 275t202.5 104z" />
    <glyph glyph-name="itilde" unicode="&#x129;" horiz-adv-x="565" 
d="M477 1081v-1081h-389v1081h389zM104 1493q53 0 100.5 -13.5t76 -30.5t63.5 -30.5t66 -13.5q59 0 73 88h230q-3 -153 -70 -244.5t-184 -91.5q-66 0 -122.5 21.5t-101 43t-81.5 21.5q-31 0 -49 -20.5t-25 -65.5h-230q3 151 70.5 243.5t183.5 92.5z" />
    <glyph glyph-name="Imacron" unicode="&#x12a;" horiz-adv-x="602" 
d="M502 1470v-1470h-402v1470h402zM719 1552h-840v281h840v-281z" />
    <glyph glyph-name="imacron" unicode="&#x12b;" horiz-adv-x="565" 
d="M477 1081v-1081h-389v1081h389zM668 1176h-770v278h770v-278z" />
    <glyph glyph-name="Ibreve" unicode="&#x12c;" horiz-adv-x="602" 
d="M502 1470v-1470h-402v1470h402zM299 1786q70 0 115 25.5t45 66.5h272q0 -152 -113 -248t-319 -96t-319 96t-113 248h272q0 -41 45 -66.5t115 -25.5z" />
    <glyph glyph-name="ibreve" unicode="&#x12d;" horiz-adv-x="565" 
d="M477 1081v-1081h-389v1081h389zM283 1384q137 0 147 86h264q-7 -317 -411 -317q-405 3 -412 317h264q10 -86 148 -86z" />
    <glyph glyph-name="Iogonek" unicode="&#x12e;" horiz-adv-x="602" 
d="M33 -182q0 113 112 182h-45v1470h402v-1470q-126 -31 -173.5 -53t-47.5 -51q0 -26 30 -40t82 -14q39 0 109 13v-207q-100 -19 -170 -19q-81 0 -147 19.5t-109 63.5t-43 106z" />
    <glyph glyph-name="iogonek" unicode="&#x12f;" horiz-adv-x="565" 
d="M86 1167v303h393v-303h-393zM8 -182q0 112 113 182h-33v1081h389v-1081q-126 -31 -173.5 -53t-47.5 -51q0 -26 30.5 -40t82.5 -14q38 0 108 13v-207q-100 -19 -170 -19q-81 0 -147 19.5t-109 63.5t-43 106z" />
    <glyph glyph-name="Idotaccent" unicode="&#x130;" horiz-adv-x="602" 
d="M502 1470v-1470h-402v1470h402zM90 1546v318h418v-318h-418z" />
    <glyph glyph-name="dotlessi" unicode="&#x131;" horiz-adv-x="565" 
d="M477 1081v-1081h-389v1081h389z" />
    <glyph glyph-name="Jcircumflex" unicode="&#x134;" horiz-adv-x="1529" 
d="M1458 592q0 -281 -199 -448t-536 -167q-255 0 -450.5 111t-272.5 297l356 223q37 -122 133.5 -199t237.5 -77q153 0 241.5 74.5t88.5 222.5v841h401v-878zM1454 1878l287 -332h-291l-195 121l-194 -121h-291l287 332h397z" />
    <glyph glyph-name="jcircumflex" unicode="&#x135;" horiz-adv-x="565" 
d="M477 49q0 -426 -508 -426q-68 0 -142 11t-116 28l56 272q86 -24 159 -24q85 0 123.5 33t38.5 116v1022h389v-1032zM465 1470l270 -313h-286l-168 100l-168 -100h-287l270 313h369z" />
    <glyph glyph-name="uni0136" unicode="&#x136;" horiz-adv-x="1753" 
d="M502 1470v-620l684 620h547l-680 -610l731 -860h-510l-510 602l-262 -235v-367h-402v1470h402zM668 -260v199h389v-84q0 -314 -389 -314v133q118 0 129 66h-129z" />
    <glyph glyph-name="uni0137" unicode="&#x137;" horiz-adv-x="1425" 
d="M477 1470v-788l449 399h516l-512 -438l520 -643h-473l-328 403l-172 -147v-256h-389v1470h389zM528 -260v199h390v-84q0 -314 -390 -314v133q118 0 129 66h-129z" />
    <glyph glyph-name="kgreenlandic" unicode="&#x138;" horiz-adv-x="1425" 
d="M477 1081v-399l449 399h516l-512 -438l520 -643h-473l-328 403l-172 -147v-256h-389v1081h389z" />
    <glyph glyph-name="Lacute" unicode="&#x139;" horiz-adv-x="1474" 
d="M100 0v1470h402v-1130h934v-340h-1336zM121 1546l211 332h516l-389 -332h-338z" />
    <glyph glyph-name="lacute" unicode="&#x13a;" horiz-adv-x="565" 
d="M477 1470v-1470h-389v1470h389zM104 1546l211 332h516l-389 -332h-338z" />
    <glyph glyph-name="uni013B" unicode="&#x13b;" horiz-adv-x="1474" 
d="M100 0v1470h402v-1130h934v-340h-1336zM432 -260v199h389v-84q0 -314 -389 -314v133q118 0 129 66h-129z" />
    <glyph glyph-name="uni013C" unicode="&#x13c;" horiz-adv-x="565" 
d="M477 1470v-1470h-389v1470h389zM88 -260v199h389v-84q0 -314 -389 -314v133q118 0 129 66h-129z" />
    <glyph glyph-name="Lcaron" unicode="&#x13d;" horiz-adv-x="1474" 
d="M100 0v1470h402v-1130h934v-340h-1336zM647 1118l43 352h402l-183 -352h-262z" />
    <glyph glyph-name="lcaron" unicode="&#x13e;" horiz-adv-x="565" 
d="M477 1470v-1470h-389v1470h389zM551 1118l43 352h401l-182 -352h-262z" />
    <glyph glyph-name="Ldot" unicode="&#x13f;" horiz-adv-x="1474" 
d="M100 0v1470h402v-1130h934v-340h-1336zM840 633v303h393v-303h-393z" />
    <glyph glyph-name="ldot" unicode="&#x140;" horiz-adv-x="976" 
d="M477 1470v-1470h-389v1470h389zM575 590v303h394v-303h-394z" />
    <glyph glyph-name="Lslash" unicode="&#x141;" horiz-adv-x="1556" 
d="M193 0v451l-185 -72v334l185 71v686h401v-557l432 160v-336l-432 -159v-238h934v-340h-1335z" />
    <glyph glyph-name="lslash" unicode="&#x142;" horiz-adv-x="792" 
d="M778 760l-188 -96v-664h-389v489l-185 -98v340l185 94v645h389v-469l188 99v-340z" />
    <glyph glyph-name="Nacute" unicode="&#x143;" horiz-adv-x="1800" 
d="M1700 1470v-1470h-354l-854 954v-954h-392v1470h402l807 -905v905h391zM694 1546l211 332h516l-389 -332h-338z" />
    <glyph glyph-name="nacute" unicode="&#x144;" horiz-adv-x="1421" 
d="M88 0v1081h389v-123q66 69 165.5 108.5t221.5 39.5q207 0 341 -127t134 -344v-635h-389v500q0 130 -57.5 198t-167.5 68q-117 0 -182.5 -69t-65.5 -199v-498h-389zM539 1157l188 313h475l-344 -313h-319z" />
    <glyph glyph-name="uni0145" unicode="&#x145;" horiz-adv-x="1800" 
d="M1700 1470v-1470h-354l-854 954v-954h-392v1470h402l807 -905v905h391zM700 -260v199h390v-84q0 -314 -390 -314v133q118 0 129 66h-129z" />
    <glyph glyph-name="uni0146" unicode="&#x146;" horiz-adv-x="1421" 
d="M88 0v1081h389v-123q66 69 165.5 108.5t221.5 39.5q207 0 341 -127t134 -344v-635h-389v500q0 130 -57.5 198t-167.5 68q-117 0 -182.5 -69t-65.5 -199v-498h-389zM518 -260v199h389v-84q0 -314 -389 -314v133q118 0 129 66h-129z" />
    <glyph glyph-name="Ncaron" unicode="&#x147;" horiz-adv-x="1800" 
d="M1700 1470v-1470h-354l-854 954v-954h-392v1470h402l807 -905v905h391zM1094 1548h-398l-286 332h290l195 -121l195 121h290z" />
    <glyph glyph-name="ncaron" unicode="&#x148;" horiz-adv-x="1421" 
d="M88 0v1081h389v-123q66 69 165.5 108.5t221.5 39.5q207 0 341 -127t134 -344v-635h-389v500q0 130 -57.5 198t-167.5 68q-117 0 -182.5 -69t-65.5 -199v-498h-389zM913 1157h-368l-271 313h287l168 -100l168 100h287z" />
    <glyph glyph-name="Eng" unicode="&#x14a;" horiz-adv-x="1800" 
d="M1309 35v6l-817 909v-950h-392v1470h402l807 -905v905h391v-1427q0 -420 -508 -420q-66 0 -139.5 10t-116.5 25l53 285q89 -25 162 -25q76 0 117 30.5t41 86.5z" />
    <glyph glyph-name="eng" unicode="&#x14b;" horiz-adv-x="1421" 
d="M88 0v1081h389v-123q66 69 165.5 108.5t221.5 39.5q207 0 341 -127t134 -344v-586q0 -426 -508 -426q-68 0 -141.5 10t-114.5 25l52 285q92 -25 161 -25q85 0 123.5 33t38.5 115v434q0 130 -57.5 198t-167.5 68q-117 0 -182.5 -69t-65.5 -199v-498h-389z" />
    <glyph glyph-name="Omacron" unicode="&#x14c;" horiz-adv-x="1837" 
d="M920 1495q190 0 354.5 -57.5t280 -158t181.5 -241.5t66 -303t-66 -303t-181.5 -241.5t-280 -158t-354.5 -57.5q-253 0 -455.5 98t-316 272t-113.5 390t113.5 390t316 272t455.5 98zM920 1147q-206 0 -340 -113t-134 -299t134 -298.5t340 -112.5t339.5 112.5t133.5 298.5
t-133.5 299t-339.5 113zM1339 1552h-839v281h839v-281z" />
    <glyph glyph-name="omacron" unicode="&#x14d;" horiz-adv-x="1402" 
d="M700 1106q190 0 341.5 -68.5t239 -198t87.5 -298.5t-87.5 -298.5t-239 -198.5t-341.5 -69q-188 0 -339 69t-238.5 199t-87.5 298q0 127 51 233.5t140 179t211 112.5t263 40zM700 287q122 0 203.5 67.5t81.5 186.5t-81.5 186.5t-203.5 67.5t-202 -67.5t-80 -186.5
t80 -186.5t202 -67.5zM1085 1176h-770v278h770v-278z" />
    <glyph glyph-name="Obreve" unicode="&#x14e;" horiz-adv-x="1837" 
d="M920 1495q190 0 354.5 -57.5t280 -158t181.5 -241.5t66 -303t-66 -303t-181.5 -241.5t-280 -158t-354.5 -57.5q-253 0 -455.5 98t-316 272t-113.5 390t113.5 390t316 272t455.5 98zM920 1147q-206 0 -340 -113t-134 -299t134 -298.5t340 -112.5t339.5 112.5t133.5 298.5
t-133.5 299t-339.5 113zM920 1786q70 0 114.5 25.5t44.5 66.5h273q0 -152 -113 -248t-319 -96t-319.5 96t-113.5 248h273q0 -41 45 -66.5t115 -25.5z" />
    <glyph glyph-name="obreve" unicode="&#x14f;" horiz-adv-x="1402" 
d="M700 1106q190 0 341.5 -68.5t239 -198t87.5 -298.5t-87.5 -298.5t-239 -198.5t-341.5 -69q-188 0 -339 69t-238.5 199t-87.5 298q0 127 51 233.5t140 179t211 112.5t263 40zM700 287q122 0 203.5 67.5t81.5 186.5t-81.5 186.5t-203.5 67.5t-202 -67.5t-80 -186.5
t80 -186.5t202 -67.5zM700 1384q138 0 148 86h264q-7 -317 -412 -317q-404 3 -411 317h264q10 -86 147 -86z" />
    <glyph glyph-name="Ohungarumlaut" unicode="&#x150;" horiz-adv-x="1837" 
d="M920 1495q190 0 354.5 -57.5t280 -158t181.5 -241.5t66 -303t-66 -303t-181.5 -241.5t-280 -158t-354.5 -57.5q-253 0 -455.5 98t-316 272t-113.5 390t113.5 390t316 272t455.5 98zM920 1147q-206 0 -340 -113t-134 -299t134 -298.5t340 -112.5t339.5 112.5t133.5 298.5
t-133.5 299t-339.5 113zM1024 1546l188 332h414l-303 -332h-299zM510 1546l182 332h420l-303 -332h-299z" />
    <glyph glyph-name="ohungarumlaut" unicode="&#x151;" horiz-adv-x="1402" 
d="M700 1106q190 0 341.5 -68.5t239 -198t87.5 -298.5t-87.5 -298.5t-239 -198.5t-341.5 -69q-188 0 -339 69t-238.5 199t-87.5 298q0 127 51 233.5t140 179t211 112.5t263 40zM700 287q122 0 203.5 67.5t81.5 186.5t-81.5 186.5t-203.5 67.5t-202 -67.5t-80 -186.5
t80 -186.5t202 -67.5zM766 1157l182 313h404l-289 -313h-297zM287 1157l182 313h405l-290 -313h-297z" />
    <glyph glyph-name="OE" unicode="&#x152;" horiz-adv-x="2684" 
d="M39 735q0 338 232.5 536.5t633.5 198.5h1729v-340h-994v-219h877v-331h-877v-240h994v-340h-1729q-401 0 -633.5 198.5t-232.5 536.5zM1245 338v795h-340q-221 0 -343 -107t-122 -291q0 -183 122 -290t343 -107h340z" />
    <glyph glyph-name="oe" unicode="&#x153;" horiz-adv-x="2324" 
d="M1655 -16q-291 0 -475 163q-89 -83 -213.5 -127.5t-270.5 -44.5q-186 0 -336 69t-237.5 199t-87.5 298q0 127 51 233.5t139.5 179t210 112.5t260.5 40q144 0 267 -43t211 -123q184 174 483 174q150 0 271.5 -45t199.5 -123t120 -180t42 -217v-94h-926q28 -83 100 -127.5
t176 -44.5q97 0 169 36.5t104 104.5l360 -105q-65 -156 -235.5 -245.5t-382.5 -89.5zM1642 823q-94 0 -165.5 -38.5t-104.5 -114.5h518q-10 58 -80.5 105.5t-167.5 47.5zM700 287q122 0 203.5 67.5t81.5 186.5t-82 186.5t-207 67.5q-119 0 -198.5 -67.5t-79.5 -186.5
t80 -186.5t202 -67.5z" />
    <glyph glyph-name="Racute" unicode="&#x154;" horiz-adv-x="1689" 
d="M502 487v-487h-402v1470h951q273 0 433.5 -129t160.5 -362q0 -161 -85.5 -277.5t-238.5 -171.5l356 -530h-460l-316 487h-399zM502 805h528q104 0 161.5 44.5t57.5 119.5q0 79 -57 122.5t-162 43.5h-528v-330zM641 1546l211 332h516l-389 -332h-338z" />
    <glyph glyph-name="racute" unicode="&#x155;" horiz-adv-x="1007" 
d="M985 1079v-372q-73 12 -135 12q-373 0 -373 -309v-410h-389v1081h389v-180q70 98 163 142t226 44q49 0 119 -8zM319 1157l189 313h475l-344 -313h-320z" />
    <glyph glyph-name="uni0156" unicode="&#x156;" horiz-adv-x="1689" 
d="M502 487v-487h-402v1470h951q273 0 433.5 -129t160.5 -362q0 -161 -85.5 -277.5t-238.5 -171.5l356 -530h-460l-316 487h-399zM502 805h528q104 0 161.5 44.5t57.5 119.5q0 79 -57 122.5t-162 43.5h-528v-330zM635 -260v199h389v-84q0 -314 -389 -314v133q118 0 129 66
h-129z" />
    <glyph glyph-name="uni0157" unicode="&#x157;" horiz-adv-x="1007" 
d="M985 1079v-372q-73 12 -135 12q-373 0 -373 -309v-410h-389v1081h389v-180q70 98 163 142t226 44q49 0 119 -8zM88 -260v199h389v-84q0 -314 -389 -314v133q118 0 129 66h-129z" />
    <glyph glyph-name="Rcaron" unicode="&#x158;" horiz-adv-x="1689" 
d="M502 487v-487h-402v1470h951q273 0 433.5 -129t160.5 -362q0 -161 -85.5 -277.5t-238.5 -171.5l356 -530h-460l-316 487h-399zM502 805h528q104 0 161.5 44.5t57.5 119.5q0 79 -57 122.5t-162 43.5h-528v-330zM1016 1548h-398l-286 332h291l194 -121l195 121h291z" />
    <glyph glyph-name="rcaron" unicode="&#x159;" horiz-adv-x="1007" 
d="M985 1079v-372q-73 12 -135 12q-373 0 -373 -309v-410h-389v1081h389v-180q70 98 163 142t226 44q49 0 119 -8zM709 1157h-369l-270 313h286l168 -100l168 100h287z" />
    <glyph glyph-name="Sacute" unicode="&#x15a;" horiz-adv-x="1628" 
d="M-37 240l236 303q123 -120 297 -177t348 -57q152 0 243 33t91 94q0 67 -82.5 90.5t-359.5 54.5q-29 3 -44 5q-77 8 -140 18t-129.5 26.5t-118 38t-98 53t-77 70.5t-48.5 92.5t-18 116.5q0 230 201.5 362t534.5 132q244 0 454.5 -67.5t327.5 -174.5l-235 -280
q-93 88 -247.5 140t-330.5 52q-142 0 -220.5 -32t-78.5 -91q0 -55 87 -78t366 -53q84 -10 146 -19t137.5 -26t129.5 -38t108 -53.5t87.5 -73t54.5 -97t21 -125.5q0 -167 -102.5 -282t-276.5 -168.5t-408 -53.5q-248 0 -494.5 73.5t-361.5 191.5zM635 1546l211 332h516
l-389 -332h-338z" />
    <glyph glyph-name="sacute" unicode="&#x15b;" horiz-adv-x="1251" 
d="M-8 143l141 263q107 -74 239 -113t267 -39q203 0 203 68q0 12 -6 20.5t-21.5 15t-32.5 10.5t-49.5 8.5t-60.5 7.5t-77.5 8.5t-90.5 10.5q-58 7 -102.5 15t-94.5 21t-86.5 29t-71.5 40t-57 54t-35.5 71t-13.5 90q0 178 157 280.5t431 102.5q181 0 329.5 -43t247.5 -115
l-180 -231q-173 117 -418 117q-176 0 -176 -66q0 -30 44.5 -40.5t207.5 -28.5q28 -3 43 -5q64 -7 113 -15t104.5 -21t95.5 -29.5t79 -41.5t63 -55.5t38.5 -73t14.5 -93.5q0 -128 -80 -216.5t-222.5 -131t-338.5 -42.5q-176 0 -342.5 45.5t-261.5 122.5zM479 1157l189 313
h475l-344 -313h-320z" />
    <glyph glyph-name="Scircumflex" unicode="&#x15c;" horiz-adv-x="1628" 
d="M-37 240l236 303q123 -120 297 -177t348 -57q152 0 243 33t91 94q0 67 -82.5 90.5t-359.5 54.5q-29 3 -44 5q-77 8 -140 18t-129.5 26.5t-118 38t-98 53t-77 70.5t-48.5 92.5t-18 116.5q0 230 201.5 362t534.5 132q244 0 454.5 -67.5t327.5 -174.5l-235 -280
q-93 88 -247.5 140t-330.5 52q-142 0 -220.5 -32t-78.5 -91q0 -55 87 -78t366 -53q84 -10 146 -19t137.5 -26t129.5 -38t108 -53.5t87.5 -73t54.5 -97t21 -125.5q0 -167 -102.5 -282t-276.5 -168.5t-408 -53.5q-248 0 -494.5 73.5t-361.5 191.5zM991 1878l287 -332h-291
l-194 121l-195 -121h-291l287 332h397z" />
    <glyph glyph-name="scircumflex" unicode="&#x15d;" horiz-adv-x="1251" 
d="M-8 143l141 263q107 -74 239 -113t267 -39q203 0 203 68q0 12 -6 20.5t-21.5 15t-32.5 10.5t-49.5 8.5t-60.5 7.5t-77.5 8.5t-90.5 10.5q-58 7 -102.5 15t-94.5 21t-86.5 29t-71.5 40t-57 54t-35.5 71t-13.5 90q0 178 157 280.5t431 102.5q181 0 329.5 -43t247.5 -115
l-180 -231q-173 117 -418 117q-176 0 -176 -66q0 -30 44.5 -40.5t207.5 -28.5q28 -3 43 -5q64 -7 113 -15t104.5 -21t95.5 -29.5t79 -41.5t63 -55.5t38.5 -73t14.5 -93.5q0 -128 -80 -216.5t-222.5 -131t-338.5 -42.5q-176 0 -342.5 45.5t-261.5 122.5zM819 1470l271 -313
h-287l-168 100l-168 -100h-287l271 313h368z" />
    <glyph glyph-name="Scedilla" unicode="&#x15e;" horiz-adv-x="1628" 
d="M-37 240l236 303q123 -120 297 -177t348 -57q152 0 243 33t91 94q0 67 -82.5 90.5t-359.5 54.5q-29 3 -44 5q-77 8 -140 18t-129.5 26.5t-118 38t-98 53t-77 70.5t-48.5 92.5t-18 116.5q0 230 201.5 362t534.5 132q244 0 454.5 -67.5t327.5 -174.5l-235 -280
q-93 88 -247.5 140t-330.5 52q-142 0 -220.5 -32t-78.5 -91q0 -55 87 -78t366 -53q84 -10 146 -19t137.5 -26t129.5 -38t108 -53.5t87.5 -73t54.5 -97t21 -125.5q0 -165 -100 -279t-271 -168.5t-401 -56.5l-5 -16q122 -3 191.5 -44.5t69.5 -115.5q0 -83 -90 -130.5
t-222 -47.5q-87 0 -165.5 19.5t-129.5 54.5l95 147q73 -51 174 -51q86 0 86 39q0 50 -195 47l33 105q-219 19 -417 88.5t-296 169.5z" />
    <glyph glyph-name="scedilla" unicode="&#x15f;" horiz-adv-x="1251" 
d="M-8 143l141 263q107 -74 239 -113t267 -39q203 0 203 68q0 12 -6 20.5t-21.5 15t-32.5 10.5t-49.5 8.5t-60.5 7.5t-77.5 8.5t-90.5 10.5q-58 7 -102.5 15t-94.5 21t-86.5 29t-71.5 40t-57 54t-35.5 71t-13.5 90q0 178 157 280.5t431 102.5q181 0 329.5 -43t247.5 -115
l-180 -231q-173 117 -418 117q-176 0 -176 -66q0 -30 44.5 -40.5t207.5 -28.5q28 -3 43 -5q64 -7 113 -15t104.5 -21t95.5 -29.5t79 -41.5t63 -55.5t38.5 -73t14.5 -93.5q0 -183 -159 -282.5t-437 -107.5l-4 -16q122 -3 191 -44.5t69 -115.5q0 -83 -89.5 -130.5
t-221.5 -47.5q-87 0 -165.5 19.5t-129.5 54.5l94 147q73 -51 174 -51q86 0 86 39q0 50 -194 47l30 103q-149 14 -279 56.5t-210 106.5z" />
    <glyph glyph-name="Scaron" unicode="&#x160;" horiz-adv-x="1628" 
d="M-37 240l236 303q123 -120 297 -177t348 -57q152 0 243 33t91 94q0 67 -82.5 90.5t-359.5 54.5q-29 3 -44 5q-77 8 -140 18t-129.5 26.5t-118 38t-98 53t-77 70.5t-48.5 92.5t-18 116.5q0 230 201.5 362t534.5 132q244 0 454.5 -67.5t327.5 -174.5l-235 -280
q-93 88 -247.5 140t-330.5 52q-142 0 -220.5 -32t-78.5 -91q0 -55 87 -78t366 -53q84 -10 146 -19t137.5 -26t129.5 -38t108 -53.5t87.5 -73t54.5 -97t21 -125.5q0 -167 -102.5 -282t-276.5 -168.5t-408 -53.5q-248 0 -494.5 73.5t-361.5 191.5zM1006 1548h-398l-286 332
h290l195 -121l194 121h291z" />
    <glyph glyph-name="scaron" unicode="&#x161;" horiz-adv-x="1251" 
d="M-8 143l141 263q107 -74 239 -113t267 -39q203 0 203 68q0 12 -6 20.5t-21.5 15t-32.5 10.5t-49.5 8.5t-60.5 7.5t-77.5 8.5t-90.5 10.5q-58 7 -102.5 15t-94.5 21t-86.5 29t-71.5 40t-57 54t-35.5 71t-13.5 90q0 178 157 280.5t431 102.5q181 0 329.5 -43t247.5 -115
l-180 -231q-173 117 -418 117q-176 0 -176 -66q0 -30 44.5 -40.5t207.5 -28.5q28 -3 43 -5q64 -7 113 -15t104.5 -21t95.5 -29.5t79 -41.5t63 -55.5t38.5 -73t14.5 -93.5q0 -128 -80 -216.5t-222.5 -131t-338.5 -42.5q-176 0 -342.5 45.5t-261.5 122.5zM817 1157h-368
l-271 313h287l168 -100l168 100h286z" />
    <glyph glyph-name="Tcommaaccent" unicode="&#x162;" horiz-adv-x="1705" 
d="M1167 -201q0 -83 -89.5 -130.5t-221.5 -47.5q-87 0 -165.5 19.5t-129.5 54.5l94 147q73 -51 174 -51q86 0 86 39q0 50 -194 47l37 123h-105v1130h-618v340h1638v-340h-618v-1130h-135l-13 -41q122 -3 191 -44.5t69 -115.5z" />
    <glyph glyph-name="tcommaaccent" unicode="&#x163;" horiz-adv-x="1093" 
d="M225 338v428h-225v315h225v287h383v-287h426v-315h-426v-320q0 -73 42 -106t132 -33q119 0 234 43l71 -299q-182 -71 -421 -71h-19l-6 -21q122 -3 191 -44.5t69 -115.5q0 -83 -89.5 -130.5t-221.5 -47.5q-87 0 -165.5 19.5t-129.5 54.5l94 147q73 -51 174 -51q86 0 86 39
q0 50 -194 47l37 123q-126 32 -196.5 117t-70.5 221z" />
    <glyph glyph-name="Tcaron" unicode="&#x164;" horiz-adv-x="1705" 
d="M1673 1130h-618v-1130h-402v1130h-618v340h1638v-340zM1051 1548h-398l-286 332h290l195 -121l195 121h290z" />
    <glyph glyph-name="tcaron" unicode="&#x165;" horiz-adv-x="1093" 
d="M225 338v428h-225v315h225v287h383v-287h426v-315h-426v-320q0 -73 42 -106t132 -33q119 0 234 43l71 -299q-182 -71 -421 -71q-201 0 -321 89.5t-120 268.5zM682 1159l43 352h401l-182 -352h-262z" />
    <glyph glyph-name="Tbar" unicode="&#x166;" horiz-adv-x="1705" 
d="M1395 549h-340v-549h-402v549h-342v338h342v243h-618v340h1638v-340h-618v-243h340v-338z" />
    <glyph glyph-name="tbar" unicode="&#x167;" horiz-adv-x="1093" 
d="M225 338v102h-225v275h225v94h-225v272h225v287h383v-287h426v-272h-426v-94h426v-275h-426v-6q0 -73 43 -107t135 -34q111 0 234 45l67 -287q-182 -71 -421 -71q-201 0 -321 89.5t-120 268.5z" />
    <glyph glyph-name="Utilde" unicode="&#x168;" horiz-adv-x="1703" 
d="M852 -23q-375 0 -577.5 179.5t-202.5 498.5v815h401v-776q0 -179 94.5 -273.5t284.5 -94.5t284.5 94.5t94.5 273.5v776h401v-815q0 -319 -202.5 -498.5t-577.5 -179.5zM657 1927q55 0 108.5 -15.5t88 -33.5t75 -33.5t72.5 -15.5q35 0 55 23t29 75h252q-3 -173 -77 -276
t-203 -103q-54 0 -107.5 15t-88 33.5t-75.5 33.5t-73 15q-68 0 -82 -97h-254q3 171 77.5 275t202.5 104z" />
    <glyph glyph-name="utilde" unicode="&#x169;" horiz-adv-x="1411" 
d="M1323 1081v-1081h-389v123q-145 -148 -385 -148q-205 0 -336 125.5t-131 343.5v637h389v-536q0 -240 219 -240q117 0 180.5 63t63.5 183v530h389zM528 1493q53 0 100.5 -13.5t76 -30.5t63.5 -30.5t66 -13.5q59 0 73 88h230q-3 -153 -70 -244.5t-184 -91.5
q-66 0 -122.5 21.5t-101 43t-81.5 21.5q-31 0 -49 -20.5t-25 -65.5h-230q3 151 70.5 243.5t183.5 92.5z" />
    <glyph glyph-name="Umacron" unicode="&#x16a;" horiz-adv-x="1703" 
d="M852 -23q-375 0 -577.5 179.5t-202.5 498.5v815h401v-776q0 -179 94.5 -273.5t284.5 -94.5t284.5 94.5t94.5 273.5v776h401v-815q0 -319 -202.5 -498.5t-577.5 -179.5zM1276 1552h-840v281h840v-281z" />
    <glyph glyph-name="umacron" unicode="&#x16b;" horiz-adv-x="1411" 
d="M1323 1081v-1081h-389v123q-145 -148 -385 -148q-205 0 -336 125.5t-131 343.5v637h389v-536q0 -240 219 -240q117 0 180.5 63t63.5 183v530h389zM1090 1176h-771v278h771v-278z" />
    <glyph glyph-name="Ubreve" unicode="&#x16c;" horiz-adv-x="1703" 
d="M852 -23q-375 0 -577.5 179.5t-202.5 498.5v815h401v-776q0 -179 94.5 -273.5t284.5 -94.5t284.5 94.5t94.5 273.5v776h401v-815q0 -319 -202.5 -498.5t-577.5 -179.5zM856 1786q70 0 115 25.5t45 66.5h272q0 -152 -113 -248t-319 -96t-319 96t-113 248h272
q0 -41 45 -66.5t115 -25.5z" />
    <glyph glyph-name="ubreve" unicode="&#x16d;" horiz-adv-x="1411" 
d="M1323 1081v-1081h-389v123q-145 -148 -385 -148q-205 0 -336 125.5t-131 343.5v637h389v-536q0 -240 219 -240q117 0 180.5 63t63.5 183v530h389zM705 1384q137 0 147 86h264q-7 -317 -411 -317q-405 3 -412 317h264q10 -86 148 -86z" />
    <glyph glyph-name="Uring" unicode="&#x16e;" horiz-adv-x="1703" 
d="M852 -23q-375 0 -577.5 179.5t-202.5 498.5v815h401v-776q0 -179 94.5 -273.5t284.5 -94.5t284.5 94.5t94.5 273.5v776h401v-815q0 -319 -202.5 -498.5t-577.5 -179.5zM547 1769q0 119 86.5 204t222.5 85t222.5 -85t86.5 -204t-86.5 -203.5t-222.5 -84.5t-222.5 84.5
t-86.5 203.5zM758 1769q0 -45 27 -73.5t71 -28.5t71 28.5t27 73.5q0 44 -27.5 73.5t-70.5 29.5t-70.5 -29.5t-27.5 -73.5z" />
    <glyph glyph-name="uring" unicode="&#x16f;" horiz-adv-x="1411" 
d="M1323 1081v-1081h-389v123q-145 -148 -385 -148q-205 0 -336 125.5t-131 343.5v637h389v-536q0 -240 219 -240q117 0 180.5 63t63.5 183v530h389zM457 1378q0 97 69 165.5t179 68.5q109 0 178 -68.5t69 -165.5q0 -96 -68.5 -163.5t-178.5 -67.5t-179 67.5t-69 163.5z
M631 1378q0 -32 20.5 -53.5t53.5 -21.5t54 22t21 53q0 32 -21 55t-54 23t-53.5 -23t-20.5 -55z" />
    <glyph glyph-name="Uhungarumlaut" unicode="&#x170;" horiz-adv-x="1703" 
d="M852 -23q-375 0 -577.5 179.5t-202.5 498.5v815h401v-776q0 -179 94.5 -273.5t284.5 -94.5t284.5 94.5t94.5 273.5v776h401v-815q0 -319 -202.5 -498.5t-577.5 -179.5zM940 1546l188 332h414l-303 -332h-299zM426 1546l182 332h420l-303 -332h-299z" />
    <glyph glyph-name="uhungarumlaut" unicode="&#x171;" horiz-adv-x="1411" 
d="M1323 1081v-1081h-389v123q-145 -148 -385 -148q-205 0 -336 125.5t-131 343.5v637h389v-536q0 -240 219 -240q117 0 180.5 63t63.5 183v530h389zM768 1157l182 313h404l-289 -313h-297zM289 1157l182 313h406l-291 -313h-297z" />
    <glyph glyph-name="Uogonek" unicode="&#x172;" horiz-adv-x="1708" 
d="M1137 6q-125 -29 -174.5 -53.5t-49.5 -56.5q0 -26 30.5 -40t82.5 -14q38 0 111 13v-207q-105 -19 -172 -19q-126 0 -211.5 49t-85.5 142q0 99 75 162q-322 28 -494.5 203t-172.5 470v815h401v-776q0 -179 94.5 -273.5t284.5 -94.5t284.5 94.5t94.5 273.5v776h401v-815
q0 -255 -128 -423t-371 -226z" />
    <glyph glyph-name="uogonek" unicode="&#x173;" horiz-adv-x="1411" 
d="M768 -182q0 135 166 211v94q-145 -148 -385 -148q-205 0 -336 125.5t-131 343.5v637h389v-536q0 -240 219 -240q117 0 180.5 63t63.5 183v530h389v-1081h-86q-126 -31 -173.5 -53t-47.5 -51q0 -26 30 -40t82 -14q39 0 109 13v-207q-100 -19 -170 -19q-81 0 -147 19.5
t-109 63.5t-43 106z" />
    <glyph glyph-name="Wcircumflex" unicode="&#x174;" horiz-adv-x="2412" 
d="M1020 1470h385l297 -968l323 968h406l-496 -1470h-432l-297 963l-299 -963h-430l-495 1470h417l322 -968zM1419 1878l287 -332h-291l-194 121l-195 -121h-291l287 332h397z" />
    <glyph glyph-name="wcircumflex" unicode="&#x175;" horiz-adv-x="2013" 
d="M840 1081h354l209 -622l223 622h402l-431 -1081h-368l-221 633l-224 -633h-366l-432 1081h420l223 -622zM1190 1470l270 -313h-286l-168 100l-168 -100h-287l270 313h369z" />
    <glyph glyph-name="Ycircumflex" unicode="&#x176;" horiz-adv-x="1806" 
d="M911 922l453 548h463l-723 -882v-588h-402v588l-722 882h477zM1104 1878l287 -332h-291l-195 121l-194 -121h-291l287 332h397z" />
    <glyph glyph-name="ycircumflex" unicode="&#x177;" horiz-adv-x="1427" 
d="M915 -14q-64 -133 -132.5 -210t-167.5 -115t-242 -38q-68 0 -141.5 13t-118.5 32l59 295q80 -39 154 -39q60 0 100.5 18.5t60.5 67.5l9 25l-510 1046h436l305 -678l305 678h410zM897 1470l270 -313h-286l-168 100l-168 -100h-287l270 313h369z" />
    <glyph glyph-name="Ydieresis" unicode="&#x178;" horiz-adv-x="1806" 
d="M911 922l453 548h463l-723 -882v-588h-402v588l-722 882h477zM455 1546v318h376v-318h-376zM979 1546v318h377v-318h-377z" />
    <glyph glyph-name="Zacute" unicode="&#x179;" horiz-adv-x="1667" 
d="M1599 340v-340h-1533v299l940 831h-932v340h1515v-296l-938 -834h948zM631 1546l211 332h516l-389 -332h-338z" />
    <glyph glyph-name="zacute" unicode="&#x17a;" horiz-adv-x="1323" 
d="M1262 315v-315h-1201v285l641 481h-632v315h1187v-284l-616 -482h621zM471 1157l188 313h476l-344 -313h-320z" />
    <glyph glyph-name="Zdotaccent" unicode="&#x17b;" horiz-adv-x="1667" 
d="M1599 340v-340h-1533v299l940 831h-932v340h1515v-296l-938 -834h948zM623 1546v318h417v-318h-417z" />
    <glyph glyph-name="zdotaccent" unicode="&#x17c;" horiz-adv-x="1323" 
d="M1262 315v-315h-1201v285l641 481h-632v315h1187v-284l-616 -482h621zM465 1167v303h393v-303h-393z" />
    <glyph glyph-name="Zcaron" unicode="&#x17d;" horiz-adv-x="1667" 
d="M1599 340v-340h-1533v299l940 831h-932v340h1515v-296l-938 -834h948zM1030 1548h-397l-287 332h291l194 -121l195 121h291z" />
    <glyph glyph-name="zcaron" unicode="&#x17e;" horiz-adv-x="1323" 
d="M1262 315v-315h-1201v285l641 481h-632v315h1187v-284l-616 -482h621zM846 1157h-369l-270 313h287l168 -100l167 100h287z" />
    <glyph glyph-name="florin" unicode="&#x192;" horiz-adv-x="1673" 
d="M338 627v264h324l24 137q42 232 180.5 349.5t393.5 117.5q258 0 413 -111l-149 -272q-95 66 -221 66q-91 0 -145 -43t-68 -123l-23 -121h326v-264h-373l-35 -185q-41 -232 -179.5 -349.5t-393.5 -117.5q-257 0 -412 111l150 272q98 -65 221 -65q90 0 144 43t69 123
l30 168h-276z" />
    <glyph glyph-name="AEacute" unicode="&#x1fc;" horiz-adv-x="2965" 
d="M1278 1470h1636v-340h-1036v-219h920v-331h-920v-240h1036v-340h-1429v283h-748l-248 -283h-512zM1016 600h469v535zM1855 1546l211 332h517l-390 -332h-338z" />
    <glyph glyph-name="aeacute" unicode="&#x1fd;" horiz-adv-x="2230" 
d="M514 651h379v39q0 53 -50 88t-159 35q-98 0 -162.5 -33t-87.5 -86l-362 70q53 157 221 249.5t407 92.5q290 0 430 -137q177 137 429 137q151 0 273.5 -45t200.5 -123t120 -180t42 -217v-101h-923q29 -79 101.5 -122.5t172.5 -43.5q96 0 168.5 35t104.5 99l360 -105
q-65 -152 -235.5 -240t-384.5 -88q-162 0 -295 51t-222 144q-87 -94 -223.5 -143.5t-302.5 -49.5q-225 0 -356 88.5t-131 243.5q0 161 126 251.5t359 90.5zM1546 817q-96 0 -169 -42t-103 -124h536q-20 74 -93 120t-171 46zM893 416v24h-318q-169 0 -169 -94q0 -46 46 -73
t132 -27q126 0 217.5 47t91.5 123zM983 1157l188 313h476l-344 -313h-320z" />
    <glyph glyph-name="Oslashacute" unicode="&#x1fe;" horiz-adv-x="1837" 
d="M918 1495q292 0 507 -127l154 148l207 -201l-139 -133q153 -192 153 -445q0 -163 -66 -304t-182 -241.5t-280 -158t-354 -58.5q-278 0 -496 119l-166 -155l-207 202l148 140q-162 199 -162 454q0 162 66.5 303t182.5 241.5t280.5 158t353.5 57.5zM918 1163
q-223 0 -353.5 -113.5t-130.5 -314.5q0 -126 53 -215l656 604q-98 39 -225 39zM1401 735q0 114 -49 207l-650 -598q93 -37 216 -37q223 2 353 114.5t130 313.5zM719 1546l211 332h516l-389 -332h-338z" />
    <glyph glyph-name="oslashacute" unicode="&#x1ff;" horiz-adv-x="1402" 
d="M700 1106q197 0 355 -76l133 127l170 -170l-111 -104q121 -143 121 -342q0 -168 -88 -298t-239.5 -199t-340.5 -69q-200 0 -356 78l-129 -125l-170 170l109 103q-119 144 -119 340q0 127 51 233.5t140 179t211 112.5t263 40zM399 541q0 -64 25 -119l391 381
q-56 16 -115 16q-128 0 -214.5 -74.5t-86.5 -203.5zM1004 541q0 66 -25 118l-391 -378q60 -17 112 -17q130 0 217 74t87 203zM535 1157l188 313h475l-344 -313h-319z" />
    <glyph glyph-name="uni0218" unicode="&#x218;" horiz-adv-x="1628" 
d="M-37 240l236 303q123 -120 297 -177t348 -57q152 0 243 33t91 94q0 67 -82.5 90.5t-359.5 54.5q-29 3 -44 5q-77 8 -140 18t-129.5 26.5t-118 38t-98 53t-77 70.5t-48.5 92.5t-18 116.5q0 230 201.5 362t534.5 132q244 0 454.5 -67.5t327.5 -174.5l-235 -280
q-93 88 -247.5 140t-330.5 52q-142 0 -220.5 -32t-78.5 -91q0 -55 87 -78t366 -53q84 -10 146 -19t137.5 -26t129.5 -38t108 -53.5t87.5 -73t54.5 -97t21 -125.5q0 -167 -102.5 -282t-276.5 -168.5t-408 -53.5q-248 0 -494.5 73.5t-361.5 191.5zM582 -260v199h389v-84
q0 -314 -389 -314v133q118 0 129 66h-129z" />
    <glyph glyph-name="uni0219" unicode="&#x219;" horiz-adv-x="1251" 
d="M-8 143l141 263q107 -74 239 -113t267 -39q203 0 203 68q0 12 -6 20.5t-21.5 15t-32.5 10.5t-49.5 8.5t-60.5 7.5t-77.5 8.5t-90.5 10.5q-58 7 -102.5 15t-94.5 21t-86.5 29t-71.5 40t-57 54t-35.5 71t-13.5 90q0 178 157 280.5t431 102.5q181 0 329.5 -43t247.5 -115
l-180 -231q-173 117 -418 117q-176 0 -176 -66q0 -30 44.5 -40.5t207.5 -28.5q28 -3 43 -5q64 -7 113 -15t104.5 -21t95.5 -29.5t79 -41.5t63 -55.5t38.5 -73t14.5 -93.5q0 -128 -80 -216.5t-222.5 -131t-338.5 -42.5q-176 0 -342.5 45.5t-261.5 122.5zM412 -260v199h389
v-84q0 -314 -389 -314v133q118 0 129 66h-129z" />
    <glyph glyph-name="uni021A" unicode="&#x21a;" horiz-adv-x="1705" 
d="M1673 1130h-618v-1130h-402v1130h-618v340h1638v-340zM659 -260v199h390v-84q0 -314 -390 -314v133q118 0 129 66h-129z" />
    <glyph glyph-name="uni021B" unicode="&#x21b;" horiz-adv-x="1093" 
d="M225 338v428h-225v315h225v287h383v-287h426v-315h-426v-320q0 -73 42 -106t132 -33q119 0 234 43l71 -299q-182 -71 -421 -71q-201 0 -321 89.5t-120 268.5zM434 -260v199h389v-84q0 -314 -389 -314v133q118 0 129 66h-129z" />
    <glyph glyph-name="uni0237" unicode="&#x237;" horiz-adv-x="565" 
d="M477 49q0 -426 -508 -426q-68 0 -142 11t-116 28l56 272q86 -24 159 -24q85 0 123.5 33t38.5 116v1022h389v-1032z" />
    <glyph glyph-name="circumflex" unicode="&#x2c6;" horiz-adv-x="1228" 
d="M799 1470l270 -313h-287l-168 100l-168 -100h-286l270 313h369z" />
    <glyph glyph-name="caron" unicode="&#x2c7;" horiz-adv-x="1228" 
d="M799 1157h-369l-270 313h286l168 -100l168 100h287z" />
    <glyph glyph-name="breve" unicode="&#x2d8;" horiz-adv-x="1228" 
d="M614 1384q138 0 148 86h264q-7 -317 -412 -317q-404 3 -411 317h264q10 -86 147 -86z" />
    <glyph glyph-name="dotaccent" unicode="&#x2d9;" horiz-adv-x="1228" 
d="M418 1167v303h393v-303h-393z" />
    <glyph glyph-name="ring" unicode="&#x2da;" horiz-adv-x="1228" 
d="M367 1378q0 97 69 165.5t178 68.5q110 0 179 -68.5t69 -165.5q0 -96 -69 -163.5t-179 -67.5t-178.5 67.5t-68.5 163.5zM541 1378q0 -32 20 -53.5t53 -21.5t54.5 22t21.5 53q0 32 -21.5 55t-54.5 23t-53 -23t-20 -55z" />
    <glyph glyph-name="ogonek" unicode="&#x2db;" horiz-adv-x="1228" 
d="M322 -182q0 104 94.5 170t294.5 110l80 -98q-127 -31 -174.5 -53t-47.5 -51q0 -26 30.5 -40t82.5 -14q39 0 109 13v-207q-100 -19 -170 -19q-81 0 -147 19.5t-109 63.5t-43 106z" />
    <glyph glyph-name="tilde" unicode="&#x2dc;" horiz-adv-x="1228" 
d="M436 1493q53 0 100 -13.5t76 -30.5t63.5 -30.5t65.5 -13.5q60 0 74 88h229q-3 -153 -69.5 -244.5t-183.5 -91.5q-66 0 -123 21.5t-101.5 43t-81.5 21.5q-31 0 -48.5 -20t-24.5 -66h-230q3 151 70.5 243.5t183.5 92.5z" />
    <glyph glyph-name="hungarumlaut" unicode="&#x2dd;" horiz-adv-x="1228" 
d="M567 1157l183 313h403l-289 -313h-297zM88 1157l182 313h406l-291 -313h-297z" />
    <glyph glyph-name="gravecmb" unicode="&#x300;" horiz-adv-x="0" 
d="M332 1157h-320l-344 313h475z" />
    <glyph glyph-name="acutecmb" unicode="&#x301;" horiz-adv-x="0" 
d="M-332 1157l189 313h475l-344 -313h-320z" />
    <glyph glyph-name="circumflexcmb" unicode="&#x302;" horiz-adv-x="0" 
d="M184 1470l271 -313h-287l-168 100l-168 -100h-287l271 313h368z" />
    <glyph glyph-name="tildecmb" unicode="&#x303;" horiz-adv-x="0" 
d="M-177 1493q53 0 100 -13.5t76 -30.5t63.5 -30.5t65.5 -13.5q60 0 74 88h229q-3 -153 -70 -244.5t-184 -91.5q-66 0 -122.5 21.5t-101 43t-81.5 21.5q-31 0 -49 -20.5t-25 -65.5h-229q3 151 70.5 243.5t183.5 92.5z" />
    <glyph glyph-name="macroncmb" unicode="&#x304;" horiz-adv-x="0" 
d="M385 1176h-770v278h770v-278z" />
    <glyph glyph-name="brevecmb" unicode="&#x306;" horiz-adv-x="0" 
d="M0 1384q137 0 147 86h265q-7 -317 -412 -317q-405 3 -412 317h265q10 -86 147 -86z" />
    <glyph glyph-name="dotaccentcmb" unicode="&#x307;" horiz-adv-x="0" 
d="M-197 1167v303h394v-303h-394z" />
    <glyph glyph-name="dieresiscmb" unicode="&#x308;" horiz-adv-x="0" 
d="M-438 1167v303h377v-303h-377zM61 1167v303h377v-303h-377z" />
    <glyph glyph-name="ringcmb" unicode="&#x30a;" horiz-adv-x="0" 
d="M-248 1378q0 97 69 165.5t179 68.5t179 -68.5t69 -165.5q0 -96 -69 -163.5t-179 -67.5t-179 67.5t-69 163.5zM-74 1378q0 -32 20.5 -53.5t53.5 -21.5t54.5 22t21.5 53q0 32 -21.5 55t-54.5 23t-53.5 -23t-20.5 -55z" />
    <glyph glyph-name="hungarumlautcmb" unicode="&#x30b;" horiz-adv-x="0" 
d="M-53 1157l182 313h403l-288 -313h-297zM-532 1157l182 313h405l-291 -313h-296z" />
    <glyph glyph-name="caroncmb" unicode="&#x30c;" horiz-adv-x="0" 
d="M184 1157h-368l-271 313h287l168 -100l168 100h287z" />
    <glyph glyph-name="commaturncmb" unicode="&#x312;" horiz-adv-x="0" 
d="M195 1356v-199h-390v84q0 313 390 313v-133q-118 0 -129 -65h129z" />
    <glyph glyph-name="commaaccentcmb" unicode="&#x326;" horiz-adv-x="0" 
d="M-195 -260v199h390v-84q0 -314 -390 -314v133q118 0 129 66h-129z" />
    <glyph glyph-name="cedillacmb" unicode="&#x327;" horiz-adv-x="0" 
d="M303 -201q0 -83 -89.5 -130.5t-221.5 -47.5q-87 0 -165.5 19.5t-129.5 54.5l94 147q73 -51 174 -51q86 0 86 39q0 50 -194 47l45 148h159l-18 -66q122 -3 191 -44.5t69 -115.5z" />
    <glyph glyph-name="ogonekcmb" unicode="&#x328;" horiz-adv-x="0" 
d="M-234 -182q0 104 94.5 170t294.5 110l79 -98q-126 -31 -173.5 -53t-47.5 -51q0 -26 30.5 -40t82.5 -14q38 0 108 13v-207q-100 -19 -169 -19q-81 0 -147 19.5t-109 63.5t-43 106z" />
    <glyph glyph-name="baht" unicode="&#xe3f;" horiz-adv-x="1675" 
d="M117 0v1470h985q243 0 373.5 -101t130.5 -292q0 -118 -62 -197.5t-147 -115.5q111 -40 181.5 -131.5t70.5 -218.5q0 -194 -136.5 -304t-373.5 -110h-1022zM422 877h668q102 0 158.5 41t56.5 118q0 80 -56 121t-159 41h-668v-321zM422 618v-344h708q98 0 154.5 48
t56.5 127q0 76 -56.5 122.5t-154.5 46.5h-708zM721 -209v1884h278v-1884h-278z" />
    <glyph glyph-name="Wgrave" unicode="&#x1e80;" horiz-adv-x="2412" 
d="M1020 1470h385l297 -968l323 968h406l-496 -1470h-432l-297 963l-299 -963h-430l-495 1470h417l322 -968zM1386 1546h-337l-390 332h517z" />
    <glyph glyph-name="wgrave" unicode="&#x1e81;" horiz-adv-x="2013" 
d="M840 1081h354l209 -622l223 622h402l-431 -1081h-368l-221 633l-224 -633h-366l-432 1081h420l223 -622zM1192 1157h-320l-344 313h476z" />
    <glyph glyph-name="Wacute" unicode="&#x1e82;" horiz-adv-x="2412" 
d="M1020 1470h385l297 -968l323 968h406l-496 -1470h-432l-297 963l-299 -963h-430l-495 1470h417l322 -968zM1032 1546l211 332h516l-389 -332h-338z" />
    <glyph glyph-name="wacute" unicode="&#x1e83;" horiz-adv-x="2013" 
d="M840 1081h354l209 -622l223 622h402l-431 -1081h-368l-221 633l-224 -633h-366l-432 1081h420l223 -622zM838 1157l188 313h475l-344 -313h-319z" />
    <glyph glyph-name="Wdieresis" unicode="&#x1e84;" horiz-adv-x="2412" 
d="M1020 1470h385l297 -968l323 968h406l-496 -1470h-432l-297 963l-299 -963h-430l-495 1470h417l322 -968zM756 1546v318h377v-318h-377zM1280 1546v318h377v-318h-377z" />
    <glyph glyph-name="wdieresis" unicode="&#x1e85;" horiz-adv-x="2013" 
d="M840 1081h354l209 -622l223 622h402l-431 -1081h-368l-221 633l-224 -633h-366l-432 1081h420l223 -622zM567 1167v303h377v-303h-377zM1067 1167v303h377v-303h-377z" />
    <glyph glyph-name="Germandbls" unicode="&#x1e9e;" horiz-adv-x="1863" 
d="M1223 -23q-200 0 -363 73t-260 212l186 232q181 -236 437 -236q127 0 206.5 58.5t79.5 152.5q0 197 -338 197h-352v221l379 299h-739v-1186h-342v1470h1521v-268l-436 -344l-188 49h209q315 0 469.5 -117.5t154.5 -316.5q0 -221 -173 -358.5t-451 -137.5z" />
    <glyph glyph-name="Ygrave" unicode="&#x1ef2;" horiz-adv-x="1806" 
d="M911 922l453 548h463l-723 -882v-588h-402v588l-722 882h477zM1118 1546h-338l-389 332h516z" />
    <glyph glyph-name="ygrave" unicode="&#x1ef3;" horiz-adv-x="1427" 
d="M915 -14q-64 -133 -132.5 -210t-167.5 -115t-242 -38q-68 0 -141.5 13t-118.5 32l59 295q80 -39 154 -39q60 0 100.5 18.5t60.5 67.5l9 25l-510 1046h436l305 -678l305 678h410zM907 1157h-319l-344 313h475z" />
    <glyph glyph-name="thinspace" unicode="&#x2009;" horiz-adv-x="204" 
 />
    <glyph glyph-name="endash" unicode="&#x2013;" horiz-adv-x="1110" 
d="M82 442v320h946v-320h-946z" />
    <glyph glyph-name="emdash" unicode="&#x2014;" horiz-adv-x="1998" 
d="M82 442v320h1835v-320h-1835z" />
    <glyph glyph-name="quoteleft" unicode="&#x2018;" horiz-adv-x="540" 
d="M487 1151v-385h-436v360q0 167 119.5 255.5t316.5 88.5v-190q-153 -6 -153 -117v-12h153z" />
    <glyph glyph-name="quoteright" unicode="&#x2019;" horiz-adv-x="540" 
d="M53 1085v385h436v-360q0 -167 -119.5 -255.5t-316.5 -88.5v190q154 6 154 117v12h-154z" />
    <glyph glyph-name="quotesinglbase" unicode="&#x201a;" horiz-adv-x="540" 
d="M53 25v385h436v-361q0 -167 -119.5 -255.5t-316.5 -88.5v191q154 6 154 116v13h-154z" />
    <glyph glyph-name="quotedblleft" unicode="&#x201c;" horiz-adv-x="1067" 
d="M487 1151v-385h-436v360q0 167 119.5 255.5t316.5 88.5v-190q-153 -6 -153 -117v-12h153zM1014 1151v-385h-436v360q0 167 119.5 255.5t316.5 88.5v-190q-154 -6 -154 -117v-12h154z" />
    <glyph glyph-name="quotedblright" unicode="&#x201d;" horiz-adv-x="1067" 
d="M580 1085v385h436v-360q0 -167 -119.5 -255.5t-316.5 -88.5v190q153 6 153 117v12h-153zM53 1085v385h436v-360q0 -167 -119.5 -255.5t-316.5 -88.5v190q154 6 154 117v12h-154z" />
    <glyph glyph-name="quotedblbase" unicode="&#x201e;" horiz-adv-x="1067" 
d="M580 25v385h436v-361q0 -167 -119.5 -255.5t-316.5 -88.5v191q153 6 153 116v13h-153zM53 25v385h436v-361q0 -167 -119.5 -255.5t-316.5 -88.5v191q154 6 154 116v13h-154z" />
    <glyph glyph-name="dagger" unicode="&#x2020;" horiz-adv-x="897" 
d="M309 559v430h-282v271h282v251h279v-251h280v-271h-280v-430h-279z" />
    <glyph glyph-name="daggerdbl" unicode="&#x2021;" horiz-adv-x="874" 
d="M289 559v162h-258v248h258v135h-258v248h258v159h297v-159h256v-248h-256v-135h256v-248h-256v-162h-297z" />
    <glyph glyph-name="bullet" unicode="&#x2022;" horiz-adv-x="927" 
d="M467 1010q170 0 285.5 -115t115.5 -295q0 -173 -116 -287t-285 -114q-172 0 -291 114t-119 287q0 180 118.5 295t291.5 115z" />
    <glyph glyph-name="ellipsis" unicode="&#x2026;" horiz-adv-x="1679" 
d="M66 0v418h436v-418h-436zM623 0v418h436v-418h-436zM1180 0v418h436v-418h-436z" />
    <glyph glyph-name="guilsinglleft" unicode="&#x2039;" horiz-adv-x="716" 
d="M68 373v319l581 305v-352l-217 -113l217 -112v-352z" />
    <glyph glyph-name="guilsinglright" unicode="&#x203a;" horiz-adv-x="716" 
d="M649 373l-581 -305v352l217 112l-217 113v352l581 -305v-319z" />
    <glyph glyph-name="fraction" unicode="&#x2044;" horiz-adv-x="356" 
d="M596 1470h313l-1147 -1470h-315z" />
    <glyph glyph-name="uni2070" unicode="&#x2070;" horiz-adv-x="1042" 
d="M520 1485q212 0 345.5 -118.5t133.5 -303.5q0 -184 -134 -303t-345 -119q-210 0 -343.5 119t-133.5 303q0 185 133.5 303.5t343.5 118.5zM520 1262q-80 0 -133 -54t-53 -145t53 -145t133 -54t133.5 54t53.5 145t-53.5 145t-133.5 54z" />
    <glyph glyph-name="uni2074" unicode="&#x2074;" horiz-adv-x="980" 
d="M793 655h-275v156h-491v186l407 473h359v-458h161v-201h-161v-156zM317 1012h201v248z" />
    <glyph glyph-name="uni2075" unicode="&#x2075;" horiz-adv-x="913" 
d="M303 977l-260 29l63 464h734v-206h-512l-13 -101q87 41 209 41q166 0 265.5 -70t99.5 -198q0 -133 -122.5 -214t-307.5 -81q-154 0 -278.5 55.5t-182.5 163.5l250 92q29 -46 86 -72t127 -26q63 0 104 22t41 60t-40 61t-109 23q-90 0 -154 -43z" />
    <glyph glyph-name="uni2076" unicode="&#x2076;" horiz-adv-x="1007" 
d="M954 1352l-147 -154q-105 80 -244 80q-111 0 -174 -44.5t-63 -98.5q101 63 254 63q170 0 281.5 -74t111.5 -188q0 -134 -124 -214.5t-335 -80.5q-214 0 -340.5 111t-126.5 292q0 197 141.5 319t372.5 122q253 0 393 -133zM682 928q0 42 -47.5 65t-124.5 23
q-76 0 -123 -23t-47 -65q0 -39 48.5 -61.5t123.5 -22.5q76 0 123 22.5t47 61.5z" />
    <glyph glyph-name="uni2077" unicode="&#x2077;" horiz-adv-x="960" 
d="M612 1255h-346v-145h-239v360h905v-231q-155 -116 -228 -259.5t-73 -324.5h-297q0 364 278 600z" />
    <glyph glyph-name="uni2078" unicode="&#x2078;" horiz-adv-x="985" 
d="M494 1485q114 0 210 -28t157 -86.5t61 -137.5q0 -104 -115 -160q147 -51 147 -184q0 -119 -129.5 -183.5t-330.5 -64.5t-332 64.5t-131 183.5q0 132 149 184q-114 56 -114 160q0 79 61 137.5t157 86.5t210 28zM494 1167q63 0 102 17t39 49t-39 48.5t-102 16.5
q-65 0 -103.5 -16.5t-38.5 -48.5q0 -33 39 -49.5t103 -16.5zM494 979q-172 0 -172 -72q0 -69 172 -69t172 69q0 72 -172 72z" />
    <glyph glyph-name="uni2079" unicode="&#x2079;" horiz-adv-x="1007" 
d="M53 774l148 154q109 -80 243 -80q111 0 174.5 44t63.5 95q-106 -61 -254 -61q-170 0 -280.5 75t-110.5 189q0 134 124 214.5t335 80.5q212 0 339.5 -111.5t127.5 -292.5q0 -197 -142 -318.5t-372 -121.5q-256 0 -396 133zM326 1196q0 -40 47.5 -63t124.5 -23
q75 0 122.5 23t47.5 63t-47.5 63t-124.5 23q-75 0 -122.5 -23t-47.5 -63z" />
    <glyph glyph-name="uni2080" unicode="&#x2080;" horiz-adv-x="1042" 
d="M520 584q212 0 345.5 -118.5t133.5 -303.5q0 -184 -134 -303t-345 -119q-210 0 -343.5 119t-133.5 303q0 185 133.5 303.5t343.5 118.5zM520 360q-80 0 -133 -53.5t-53 -144.5t53 -145t133 -54t133.5 54t53.5 145t-53 144.5t-134 53.5z" />
    <glyph glyph-name="uni2081" unicode="&#x2081;" horiz-adv-x="782" 
d="M41 -246v221h238v263h-236v196l80 2q109 4 158 35t63 96h219v-592h195v-221h-717z" />
    <glyph glyph-name="uni2082" unicode="&#x2082;" horiz-adv-x="935" 
d="M57 -66l322 183q62 34 89.5 50.5t58 39t41 41.5t10.5 41q0 34 -28.5 55t-80.5 21q-73 0 -123 -44.5t-59 -109.5l-252 47q7 64 39 121.5t86.5 103.5t139 73.5t187.5 27.5q168 0 276.5 -71.5t108.5 -197.5q0 -96 -58 -160t-187 -124l-119 -56h387v-221h-838v180z" />
    <glyph glyph-name="uni2083" unicode="&#x2083;" horiz-adv-x="999" 
d="M508 -260q-179 0 -302 55t-202 170l232 115q37 -60 110.5 -94.5t161.5 -34.5q60 0 101.5 15.5t41.5 49.5q0 54 -141 54h-152v188h138q76 0 109.5 13.5t33.5 43.5q0 26 -34.5 41t-98.5 15q-82 0 -146.5 -30t-97.5 -79l-219 107q65 101 193 158t296 57q196 0 309 -69
t113 -173q0 -60 -38 -105t-103 -69q154 -54 154 -178q0 -108 -123.5 -179t-335.5 -71z" />
    <glyph glyph-name="uni2084" unicode="&#x2084;" horiz-adv-x="980" 
d="M793 -246h-275v156h-491v186l407 473h359v-458h161v-201h-161v-156zM317 111h201v247z" />
    <glyph glyph-name="uni2085" unicode="&#x2085;" horiz-adv-x="913" 
d="M303 76l-260 28l63 465h734v-207h-512l-13 -100q87 41 209 41q166 0 265.5 -70t99.5 -198q0 -133 -122.5 -214t-307.5 -81q-154 0 -278.5 55.5t-182.5 163.5l250 92q29 -46 86 -72t127 -26q63 0 104 22t41 60t-40 61t-109 23q-90 0 -154 -43z" />
    <glyph glyph-name="uni2086" unicode="&#x2086;" horiz-adv-x="1007" 
d="M954 451l-147 -154q-105 80 -244 80q-111 0 -174 -45t-63 -99q103 64 254 64q170 0 281.5 -74t111.5 -188q0 -134 -124 -214.5t-335 -80.5q-214 0 -340.5 111t-126.5 292q0 197 141.5 319t372.5 122q253 0 393 -133zM682 27q0 42 -47.5 65t-124.5 23q-76 0 -123 -23
t-47 -65q0 -39 48.5 -61.5t123.5 -22.5q76 0 123 22.5t47 61.5z" />
    <glyph glyph-name="uni2087" unicode="&#x2087;" horiz-adv-x="960" 
d="M612 354h-346v-145h-239v360h905v-231q-155 -116 -228 -259.5t-73 -324.5h-297q0 364 278 600z" />
    <glyph glyph-name="uni2088" unicode="&#x2088;" horiz-adv-x="985" 
d="M494 584q114 0 210 -28t157 -86.5t61 -137.5q0 -104 -115 -160q147 -51 147 -184q0 -119 -129.5 -183.5t-330.5 -64.5t-332 64.5t-131 183.5q0 132 149 184q-114 56 -114 160q0 79 61 137.5t157 86.5t210 28zM494 266q63 0 102 17t39 49t-39 48.5t-102 16.5
q-65 0 -103.5 -16.5t-38.5 -48.5q0 -33 39 -49.5t103 -16.5zM494 78q-172 0 -172 -72q0 -69 172 -69t172 69q0 72 -172 72z" />
    <glyph glyph-name="uni2089" unicode="&#x2089;" horiz-adv-x="1007" 
d="M53 -127l148 154q109 -80 243 -80q111 0 174.5 44t63.5 95q-106 -61 -254 -61q-170 0 -280.5 75t-110.5 189q0 134 124 214.5t335 80.5q212 0 339.5 -111.5t127.5 -292.5q0 -197 -142 -318.5t-372 -121.5q-256 0 -396 133zM326 295q0 -40 47.5 -63t124.5 -23
q75 0 122.5 23t47.5 63t-47.5 63t-124.5 23q-75 0 -122.5 -23t-47.5 -63z" />
    <glyph glyph-name="franc" unicode="&#x20a3;" horiz-adv-x="1761" 
d="M25 260v262h1019v-262h-1019zM643 0h-336v1470h1411v-282h-1075v-277h959v-284h-959v-627z" />
    <glyph glyph-name="naira" unicode="&#x20a6;" horiz-adv-x="2174" 
d="M37 469v213h475v-213h-475zM37 788v213h475v-213h-475zM1663 788v213h475v-213h-475zM1663 469v213h475v-213h-475zM1855 1470v-1470h-301l-903 1030v-1030h-332v1470h347l858 -978v978h331z" />
    <glyph glyph-name="peseta" unicode="&#x20a7;" horiz-adv-x="2138" 
d="M659 350h519q298 0 469.5 144.5t171.5 414.5q0 274 -171 417.5t-470 143.5h-859v-1470h340v350zM659 633v555h500q157 0 241.5 -73t84.5 -206q0 -130 -84.5 -203t-241.5 -73h-500zM37 797h2064v229h-2064v-229z" />
    <glyph glyph-name="won" unicode="&#x20a9;" horiz-adv-x="2273" 
d="M37 469v213h459v-213h-459zM37 788v213h424v-213h-424zM2236 469h-456v213h456v-213zM2236 788h-419v213h419v-213zM989 1470h303l326 -1130h-47l276 1130h332l-391 -1470h-363l-317 1118h61l-319 -1118h-365l-391 1470h342l275 -1130h-47z" />
    <glyph glyph-name="dong" unicode="&#x20ab;" horiz-adv-x="1452" 
d="M946 266v-98h293v1302h-293v-536q-47 53 -137.5 85t-204.5 32q-238 0 -380 -129t-142 -324q0 -94 35.5 -175.5t101 -142t165 -95.5t220.5 -35q114 0 204.5 32t137.5 84zM948 606v-12q0 -92 -84 -153.5t-205 -61.5q-118 0 -198 58.5t-80 160.5q0 104 79.5 162.5
t198.5 58.5q121 0 205 -61.5t84 -151.5zM106 -236v236h1131v-236h-1131zM633 1124h797v236h-797v-236z" />
    <glyph glyph-name="Euro" unicode="&#x20ac;" horiz-adv-x="1814" 
d="M35 477v219h166v39q0 29 2 43h-168v221h215q85 225 301 360.5t496 135.5q281 0 480 -119.5t275 -326.5l-332 -164q-47 125 -155.5 200.5t-272.5 75.5q-118 0 -215 -42.5t-161 -119.5h477l-49 -221h-516q-3 -21 -3 -43q0 -21 3 -39h495l-49 -219h-365q63 -80 163 -124
t220 -44q164 0 272.5 76t155.5 201l332 -164q-76 -207 -275 -327t-480 -120q-282 0 -499 137.5t-302 364.5h-211z" />
    <glyph glyph-name="peso" unicode="&#x20b1;" horiz-adv-x="2138" 
d="M659 383h541q288 0 453.5 140.5t165.5 402.5q0 265 -165 404.5t-454 139.5h-881v-1470h340v383zM659 666v522h523q147 0 225 -68.5t78 -193.5q0 -123 -78.5 -191.5t-224.5 -68.5h-523zM37 643h493v213h-493v-213zM530 961v213h-493v-213h493zM1645 1174v-213h456v213
h-456zM1645 856v-213h456v213h-456z" />
    <glyph glyph-name="uni20B9" unicode="&#x20b9;" horiz-adv-x="1687" 
d="M600 580l424 -580h393l-473 637zM41 842h1606v262h-1606v-262zM41 477h747q264 0 420 129.5t156 362.5q0 141 -84 241h367v260h-1606v-260h727q131 0 202.5 -63t71.5 -174q0 -110 -71.5 -173t-202.5 -63h-727v-260z" />
    <glyph glyph-name="uni20BA" unicode="&#x20ba;" horiz-adv-x="1652" 
d="M295 0v1470h342v-1177h205q224 0 331.5 111.5t108.5 347.5h342q-3 -369 -199.5 -560.5t-570.5 -191.5h-559zM41 510v244l997 542v-243zM37 156v245l1001 541v-244z" />
    <glyph glyph-name="uni20BD" unicode="&#x20bd;" horiz-adv-x="1855" 
d="M43 856l-2 -272h1251q243 0 387 116t144 328t-144 327t-387 115h-968v-1470h342v1198h608q100 0 156.5 -44.5t56.5 -125.5t-56.5 -126.5t-156.5 -45.5h-1231zM37 209h1177v270h-1177v-270z" />
    <glyph glyph-name="trademark" unicode="&#x2122;" horiz-adv-x="2017" 
d="M561 750h-262v489h-258v231h778v-231h-258v-489zM1499 750h-141l-197 417v-417h-239v720h342l168 -344l165 344h340v-720h-241v417z" />
    <glyph glyph-name="uni2153" unicode="&#x2153;" horiz-adv-x="2230" 
d="M41 655v222h238v262h-236v196l80 2q109 4 158 35t63 96h219v-591h195v-222h-717zM1473 1470h313l-1147 -1470h-315zM1739 -14q-179 0 -302 55t-202 170l231 115q37 -60 111 -94.5t162 -34.5q60 0 101.5 15.5t41.5 49.5q0 53 -141 53h-152v189h137q76 0 110 13.5t34 43.5
q0 55 -133 55q-82 0 -146.5 -29.5t-97.5 -78.5l-219 106q65 101 193 158t296 57q196 0 309 -68.5t113 -172.5q0 -60 -38 -105t-103 -69q154 -54 154 -178q0 -108 -123.5 -179t-335.5 -71z" />
    <glyph glyph-name="uni2154" unicode="&#x2154;" horiz-adv-x="2371" 
d="M43 836l322 182q115 64 156.5 97t41.5 75q0 35 -28.5 55.5t-79.5 20.5q-73 0 -123.5 -44.5t-59.5 -109.5l-252 47q7 64 39 121.5t86.5 103.5t139.5 73.5t188 27.5q168 0 276.5 -71t108.5 -197q0 -96 -58.5 -160.5t-187.5 -124.5l-118 -55h387v-222h-838v181zM1612 1470
h313l-1147 -1470h-315zM1880 -14q-179 0 -302 55t-202 170l232 115q37 -60 110.5 -94.5t161.5 -34.5q60 0 101.5 15.5t41.5 49.5q0 53 -141 53h-151v189h137q76 0 109.5 13.5t33.5 43.5q0 55 -133 55q-82 0 -146.5 -29.5t-97.5 -78.5l-219 106q65 101 193.5 158t296.5 57
q196 0 309 -68.5t113 -172.5q0 -60 -38.5 -105t-103.5 -69q154 -54 154 -178q0 -108 -123.5 -179t-335.5 -71z" />
    <glyph glyph-name="uni215B" unicode="&#x215b;" horiz-adv-x="2217" 
d="M41 655v222h238v262h-236v196l80 2q109 4 158 35t63 96h219v-591h195v-222h-717zM1473 1470h313l-1147 -1470h-315zM1724 829q114 0 209.5 -28t157 -86t61.5 -137q0 -104 -114 -160q147 -51 147 -185q0 -119 -130 -183t-331 -64t-331.5 64t-130.5 183q0 133 149 185
q-115 56 -115 160q0 79 61.5 137t157 86t209.5 28zM1724 512q63 0 102.5 17t39.5 49t-39 48.5t-103 16.5t-102.5 -16.5t-38.5 -48.5q0 -33 38.5 -49.5t102.5 -16.5zM1724 324q-172 0 -172 -72q0 -70 172 -70t172 70q0 72 -172 72z" />
    <glyph glyph-name="uni215C" unicode="&#x215c;" horiz-adv-x="2340" 
d="M508 641q-179 0 -302 55t-202 170l232 115q37 -60 110.5 -94.5t161.5 -34.5q60 0 101.5 16t41.5 50q0 53 -141 53h-152v188h138q143 0 143 58q0 55 -133 55q-82 0 -146.5 -30t-97.5 -79l-219 107q65 101 193 158t296 57q196 0 309 -69t113 -173q0 -60 -38 -105t-103 -69
q154 -54 154 -178q0 -108 -123.5 -179t-335.5 -71zM1595 1470h314l-1147 -1470h-316zM1847 829q114 0 209.5 -28t157 -86t61.5 -137q0 -104 -114 -160q147 -51 147 -185q0 -119 -130 -183t-331 -64q-130 0 -233 26.5t-166.5 83.5t-63.5 137q0 132 150 185q-115 56 -115 160
q0 79 61.5 137t157 86t209.5 28zM1847 512q63 0 102.5 17t39.5 49t-39.5 48.5t-102.5 16.5q-64 0 -102.5 -16.5t-38.5 -48.5q0 -33 38.5 -49.5t102.5 -16.5zM1847 324q-172 0 -172 -72q0 -70 172 -70t172 70q0 72 -172 72z" />
    <glyph glyph-name="uni215D" unicode="&#x215d;" horiz-adv-x="2254" 
d="M303 977l-260 29l63 464h734v-206h-512l-13 -101q87 41 209 41q166 0 265.5 -70t99.5 -198q0 -133 -122.5 -214t-307.5 -81q-154 0 -278.5 55.5t-182.5 163.5l250 92q29 -46 86 -72t127 -26q63 0 104 22t41 60t-40 61t-109 23q-90 0 -154 -43zM1509 1470h314l-1147 -1470
h-316zM1763 829q114 0 209.5 -28t157 -86t61.5 -137q0 -104 -114 -160q147 -51 147 -185q0 -119 -130 -183t-331 -64q-130 0 -233 26.5t-166.5 83.5t-63.5 137q0 132 150 185q-115 56 -115 160q0 79 61.5 137t157 86t209.5 28zM1763 512q63 0 102.5 17t39.5 49t-39.5 48.5
t-102.5 16.5q-64 0 -102.5 -16.5t-38.5 -48.5q0 -33 38.5 -49.5t102.5 -16.5zM1763 324q-172 0 -172 -72q0 -70 172 -70t172 70q0 72 -172 72z" />
    <glyph glyph-name="uni215E" unicode="&#x215e;" horiz-adv-x="2211" 
d="M612 1255h-346v-145h-239v360h905v-231q-155 -116 -228 -259.5t-73 -324.5h-297q0 364 278 600zM1466 1470h314l-1147 -1470h-316zM1718 829q114 0 209.5 -28t157 -86t61.5 -137q0 -104 -114 -160q147 -51 147 -185q0 -119 -130 -183t-331 -64q-130 0 -233 26.5
t-166.5 83.5t-63.5 137q0 132 150 185q-115 56 -115 160q0 79 61.5 137t157 86t209.5 28zM1718 512q63 0 102.5 17t39.5 49t-39 48.5t-103 16.5t-102.5 -16.5t-38.5 -48.5q0 -33 38.5 -49.5t102.5 -16.5zM1718 324q-172 0 -172 -72q0 -70 172 -70t172 70q0 72 -172 72z" />
    <glyph glyph-name="arrowleft" unicode="&#x2190;" 
d="M367 760l483 -545l-205 -192l-635 718l635 719l205 -192l-483 -545l-99 160h1360v-283h-1360z" />
    <glyph glyph-name="arrowup" unicode="&#x2191;" horiz-adv-x="1531" 
d="M748 1145l581 -537l193 203l-756 682l-756 -682l193 -203l581 537l-163 90v-1235h290v1235z" />
    <glyph glyph-name="arrowright" unicode="&#x2192;" 
d="M1272 760l-484 -545l205 -192l635 718l-635 719l-205 -192l484 -545l98 160h-1360v-283h1360z" />
    <glyph glyph-name="arrowdown" unicode="&#x2193;" horiz-adv-x="1531" 
d="M748 326l581 536l193 -203l-756 -682l-756 682l193 203l581 -536l-163 -90v1234h290v-1234z" />
    <glyph glyph-name="arrowleftright" unicode="&#x2194;" horiz-adv-x="2060" 
d="M268 883h1524l-98 -160l-475 545l204 192l627 -719l-627 -718l-204 192l475 545l98 -160h-1524l99 160l475 -545l-205 -192l-627 718l627 719l205 -192l-475 -545z" />
    <glyph glyph-name="arrowupdown" unicode="&#x2195;" horiz-adv-x="1538" 
d="M911 1276v-1401l-145 94l584 477l178 -215l-758 -614l-760 614l178 215l586 -477l-147 -94v1401l147 -94l-577 -486l-179 215l752 623l750 -623l-179 -215l-575 486z" />
    <glyph glyph-name="arrowNW" unicode="&#x2196;" horiz-adv-x="1617" 
d="M387 1233l-186 -49l1206 -1207l201 203l-1209 1209l-45 -191h779v272h-1016v-1015h270v778z" />
    <glyph glyph-name="arrowNE" unicode="&#x2197;" horiz-adv-x="1617" 
d="M1231 1233l186 -49l-1206 -1207l-201 203l1209 1209l45 -191h-779v272h1016v-1015h-270v778z" />
    <glyph glyph-name="arrowSE" unicode="&#x2198;" horiz-adv-x="1617" 
d="M1231 238l186 49l-1206 1206l-201 -203l1209 -1208l45 190h-779v-272h1016v1016h-270v-778z" />
    <glyph glyph-name="arrowSW" unicode="&#x2199;" horiz-adv-x="1617" 
d="M387 238l-186 49l1206 1206l201 -203l-1209 -1208l-45 190h779v-272h-1016v1016h270v-778z" />
    <glyph glyph-name="minus" unicode="&#x2212;" 
d="M113 571v324h1411v-324h-1411z" />
    <glyph glyph-name="commaaccent" unicode="&#xf6c3;" horiz-adv-x="1228" 
d="M418 -260v199h389v-84q0 -314 -389 -314v133q118 0 129 66h-129z" />
    <glyph glyph-name="CR" horiz-adv-x="587" 
 />
    <glyph glyph-name="idotaccent" horiz-adv-x="565" 
d="M86 1167v303h393v-303h-393zM477 1081v-1081h-389v1081h389z" />
    <glyph glyph-name="a.ord" horiz-adv-x="1050" 
d="M377 676q-154 0 -245 64.5t-91 174.5q0 117 92.5 178.5t239.5 71.5l291 19v4q0 37 -37 61.5t-115 24.5q-68 0 -114 -22.5t-60 -59.5l-266 47q37 114 158.5 181t295.5 67q196 0 303 -75.5t107 -223.5v-250q0 -32 18 -42.5t70 -0.5v-203q-137 -22 -218 -2.5t-120 74.5
q-115 -88 -309 -88zM664 989v23l-254 -21q-49 -5 -72 -18t-23 -41q0 -62 127 -62q87 0 154.5 33.5t67.5 85.5z" />
    <glyph glyph-name="b.ord" horiz-adv-x="1110" 
d="M383 774v-82h-283v1057h283v-360q39 44 108.5 71t157.5 27q191 0 302.5 -116.5t111.5 -289.5t-111.5 -289t-302.5 -116q-88 0 -157.5 27t-108.5 71zM375 1083v-4q0 -80 58.5 -129t146.5 -49q87 0 145.5 48t58.5 132q0 85 -58.5 134t-145.5 49q-88 0 -146.5 -50.5
t-58.5 -130.5z" />
    <glyph glyph-name="c.ord" horiz-adv-x="991" 
d="M47 1081q0 181 133.5 293.5t349.5 112.5q178 0 296 -80t149 -188l-256 -93q-18 59 -68 97.5t-123 38.5q-90 0 -145 -49.5t-55 -131.5q0 -83 55 -131.5t145 -48.5q73 0 123 38t68 97l256 -94q-33 -108 -150 -187t-295 -79q-216 0 -349.5 112.5t-133.5 292.5z" />
    <glyph glyph-name="d.ord" horiz-adv-x="1110" 
d="M727 774q-39 -44 -108.5 -71t-157.5 -27q-189 0 -301.5 116t-112.5 289t112.5 289.5t301.5 116.5q88 0 157.5 -27t108.5 -71v360h283v-1057h-283v82zM735 1083q0 80 -58.5 130.5t-146.5 50.5q-87 0 -144.5 -49t-57.5 -134t57.5 -132.5t144.5 -47.5q88 0 146.5 49
t58.5 129v4z" />
    <glyph glyph-name="e.ord" horiz-adv-x="1038" 
d="M530 893q63 0 113.5 24.5t73.5 69.5l262 -76q-46 -110 -169 -172.5t-278 -62.5q-217 0 -351 112.5t-134 294.5q0 174 135.5 289t345.5 115q110 0 199 -32.5t146 -88.5t87.5 -129t30.5 -156v-67h-663q20 -58 72.5 -89.5t129.5 -31.5zM524 1276q-67 0 -117 -27.5t-73 -81.5
h366q-6 43 -55 76t-121 33z" />
    <glyph glyph-name="f.ord" horiz-adv-x="747" 
d="M172 1481q0 138 97.5 211t289.5 73q123 0 207 -30l-33 -207q-61 20 -149 20q-131 0 -131 -71v-7h270v-231h-270v-547h-281v547h-162v231h162v11z" />
    <glyph glyph-name="g.ord" horiz-adv-x="1107" 
d="M1008 821q0 -129 -68.5 -221t-184 -136t-266.5 -44q-152 0 -271 47t-171 139l225 121q66 -92 222 -92q91 0 160 40t69 118v18q-39 -42 -107.5 -68t-156.5 -26q-191 0 -302.5 109t-111.5 274q0 164 112 275.5t302 111.5q87 0 155.5 -26.5t108.5 -67.5v77h285v-649z
M731 1102q0 76 -58.5 123t-146.5 47q-86 0 -144 -46t-58 -126t58 -126t144 -46q88 0 146.5 46t58.5 122v6z" />
    <glyph glyph-name="h.ord" horiz-adv-x="1097" 
d="M100 692v1057h283v-367q105 105 279 105q147 0 244.5 -90.5t97.5 -245.5v-459h-285v359q0 188 -160 188q-83 0 -129.5 -48t-46.5 -140v-359h-283z" />
    <glyph glyph-name="i.ord" horiz-adv-x="481" 
d="M98 1530v219h285v-219h-285zM383 1470v-778h-283v778h283z" />
    <glyph glyph-name="j.ord" horiz-adv-x="481" 
d="M98 1530v219h285v-219h-285zM383 727q0 -303 -367 -303q-120 0 -184 25l37 204q65 -18 117 -18q59 0 86.5 23.5t27.5 82.5v729h283v-743z" />
    <glyph glyph-name="k.ord" horiz-adv-x="1069" 
d="M383 1749v-563l317 284h377l-366 -313l370 -465h-344l-231 289l-123 -104v-185h-283v1057h283z" />
    <glyph glyph-name="l.ord" horiz-adv-x="483" 
d="M383 1749v-1057h-283v1057h283z" />
    <glyph glyph-name="m.ord" horiz-adv-x="1654" 
d="M100 692v778h283v-88q97 105 260 105q81 0 154.5 -32.5t113.5 -92.5q125 125 310 125q152 0 246 -90t94 -248v-457h-285v371q0 178 -146 178q-75 0 -117 -46t-42 -132v-371h-283v371q0 87 -37 132.5t-108 45.5q-76 0 -118 -45.5t-42 -132.5v-371h-283z" />
    <glyph glyph-name="n.ord" horiz-adv-x="1097" 
d="M100 692v778h283v-88q105 105 279 105q147 0 244.5 -90.5t97.5 -245.5v-459h-285v359q0 188 -160 188q-83 0 -129.5 -48t-46.5 -140v-359h-283z" />
    <glyph glyph-name="o.ord" horiz-adv-x="1054" 
d="M526 1487q209 0 345.5 -111.5t136.5 -294.5t-136.5 -294t-345.5 -111q-208 0 -343.5 111t-135.5 294t135.5 294.5t343.5 111.5zM526 901q87 0 145 47.5t58 132.5t-58 133t-145 48q-85 0 -141.5 -48t-56.5 -133t56.5 -132.5t141.5 -47.5z" />
    <glyph glyph-name="p.ord" horiz-adv-x="1110" 
d="M383 774v-336h-283v1032h283v-81q39 44 108.5 71t157.5 27q191 0 302.5 -116.5t111.5 -289.5t-111.5 -289t-302.5 -116q-88 0 -157.5 27t-108.5 71zM375 1083v-4q0 -80 58.5 -129t146.5 -49q87 0 145.5 48t58.5 132q0 85 -58.5 134t-145.5 49q-88 0 -146.5 -50.5
t-58.5 -130.5z" />
    <glyph glyph-name="q.ord" horiz-adv-x="1110" 
d="M727 774q-39 -44 -108.5 -71t-157.5 -27q-189 0 -301.5 116t-112.5 289t112.5 289.5t301.5 116.5q88 0 157.5 -27t108.5 -71v81h283v-1032h-283v336zM735 1083q0 80 -58.5 130.5t-146.5 50.5q-87 0 -144.5 -49t-57.5 -134t57.5 -132.5t144.5 -47.5q88 0 146.5 49
t58.5 129v4z" />
    <glyph glyph-name="r.ord" horiz-adv-x="782" 
d="M748 1468v-270q-70 8 -97 8q-268 0 -268 -221v-293h-283v778h283v-129q51 70 117.5 102t161.5 32q39 0 86 -7z" />
    <glyph glyph-name="s.ord" horiz-adv-x="929" 
d="M4 793l102 192q153 -108 363 -108q145 0 145 47q0 6 -2.5 11t-9.5 9t-14.5 7t-21 5.5t-26.5 4.5t-33.5 4.5t-38.5 4.5t-46 5t-51 6q-60 8 -102 16.5t-88.5 25.5t-74.5 40.5t-46.5 60.5t-18.5 86q0 129 113 203t311 74q130 0 237.5 -30.5t178.5 -82.5l-129 -168
q-128 84 -303 84q-121 0 -121 -45q0 -23 34 -30.5t175 -22.5q66 -8 113 -16.5t97.5 -26.5t81.5 -42t51.5 -63t20.5 -90q0 -135 -124 -206.5t-341 -71.5q-124 0 -243 32t-189 85z" />
    <glyph glyph-name="t.ord" horiz-adv-x="815" 
d="M172 934v305h-160v231h160v205h279v-205h305v-231h-305v-223q0 -52 30.5 -76.5t93.5 -24.5q75 0 168 33l52 -219q-136 -51 -303 -51q-145 0 -232.5 65t-87.5 191z" />
    <glyph glyph-name="u.ord" horiz-adv-x="1089" 
d="M989 1470v-778h-282v88q-99 -104 -277 -104q-147 0 -241.5 89.5t-94.5 246.5v458h285v-385q0 -172 156 -172q81 0 126.5 45.5t45.5 131.5v380h282z" />
    <glyph glyph-name="v.ord" horiz-adv-x="1046" 
d="M674 692h-299l-377 778h317l217 -481l218 481h299z" />
    <glyph glyph-name="w.ord" horiz-adv-x="1470" 
d="M612 1470h260l148 -444l158 444h292l-309 -778h-268l-158 453l-160 -453h-266l-311 778h307l158 -444z" />
    <glyph glyph-name="x.ord" horiz-adv-x="1077" 
d="M371 1470l168 -192l170 192h346l-342 -376l358 -402h-348l-184 211l-189 -211h-346l361 398l-342 380h348z" />
    <glyph glyph-name="y.ord" horiz-adv-x="1044" 
d="M672 684q-69 -143 -154.5 -201.5t-238.5 -58.5q-116 0 -187 31l43 215q60 -29 107 -29q91 0 114 59l9 19l-367 751h317l217 -483l220 483h295z" />
    <glyph glyph-name="z.ord" horiz-adv-x="1013" 
d="M940 924v-232h-866v209l456 338h-450v231h856v-208l-438 -338h442z" />
    <glyph glyph-name="caron.Slovak" horiz-adv-x="1228" 
d="M373 1118l43 352h401l-182 -352h-262z" />
    <glyph glyph-name="commaturn" horiz-adv-x="1228" 
d="M809 1356v-199h-389v84q0 313 389 313v-133q-118 0 -129 -65h129z" />
    <glyph glyph-name="guilsinglleft.cap" horiz-adv-x="716" 
d="M68 575v320l581 305v-352l-217 -113l217 -112v-353z" />
    <glyph glyph-name="guilsinglright.cap" horiz-adv-x="716" 
d="M649 575l-581 -305v353l217 112l-217 113v352l581 -305v-320z" />
    <glyph glyph-name="guillemotleft.cap" horiz-adv-x="1363" 
d="M68 575v320l581 305v-352l-217 -113l217 -112v-353zM715 575v320l581 305v-352l-217 -113l217 -112v-353z" />
    <glyph glyph-name="guillemotright.cap" horiz-adv-x="1363" 
d="M1296 575l-581 -305v353l217 112l-217 113v352l581 -305v-320zM649 575l-581 -305v353l217 112l-217 113v352l581 -305v-320z" />
    <glyph glyph-name="slash.cap" horiz-adv-x="1288" 
d="M35 -127l792 1712h426l-792 -1712h-426z" />
    <glyph glyph-name="backslash.cap" horiz-adv-x="1288" 
d="M1253 -127h-426l-792 1712h426z" />
    <glyph glyph-name="bar.cap" horiz-adv-x="616" 
d="M115 -127v1712h385v-1712h-385z" />
    <glyph glyph-name="periodcentered.cap" horiz-adv-x="600" 
d="M82 549v418h436v-418h-436z" />
    <glyph glyph-name="bullet.cap" horiz-adv-x="927" 
d="M467 1139q170 0 285.5 -115t115.5 -295q0 -173 -116 -287t-285 -114q-172 0 -291 114t-119 287q0 180 118.5 295t291.5 115z" />
    <glyph glyph-name="hyphen.cap" horiz-adv-x="796" 
d="M82 555v354h633v-354h-633z" />
    <glyph glyph-name="endash.cap" horiz-adv-x="1110" 
d="M82 571v320h946v-320h-946z" />
    <glyph glyph-name="emdash.cap" horiz-adv-x="1998" 
d="M82 571v320h1835v-320h-1835z" />
    <glyph glyph-name="parenleft.cap" horiz-adv-x="872" 
d="M436 711q0 -496 434 -856h-389q-207 135 -328.5 357.5t-121.5 498.5t121.5 498.5t328.5 357.5h389q-215 -181 -324.5 -391.5t-109.5 -464.5z" />
    <glyph glyph-name="parenright.cap" horiz-adv-x="872" 
d="M434 711q0 254 -109.5 464.5t-324.5 391.5h389q207 -135 329 -357.5t122 -498.5t-122 -498.5t-329 -357.5h-389q434 360 434 856z" />
    <glyph glyph-name="bracketleft.cap" horiz-adv-x="811" 
d="M449 1278v-1137h342v-286h-709v1712h709v-289h-342z" />
    <glyph glyph-name="bracketright.cap" horiz-adv-x="811" 
d="M362 1278h-342v289h709v-1712h-709v286h342v1137z" />
    <glyph glyph-name="braceleft.cap" horiz-adv-x="919" 
d="M41 559v303h111q86 0 86 103v239q0 163 106.5 263t314.5 100h240v-289h-162q-151 0 -151 -150v-198q0 -154 -127 -219q127 -65 127 -219v-199q0 -150 151 -150h162v-288h-240q-208 0 -314.5 99.5t-106.5 262.5v240q0 102 -86 102h-111z" />
    <glyph glyph-name="braceright.cap" horiz-adv-x="919" 
d="M879 559h-111q-86 0 -86 -102v-240q0 -163 -107 -262.5t-315 -99.5h-240v288h162q152 0 152 150v199q0 154 127 219q-127 65 -127 219v198q0 150 -152 150h-162v289h240q208 0 315 -100t107 -263v-239q0 -103 86 -103h111v-303z" />
    <glyph glyph-name="at.cap" horiz-adv-x="2254" 
d="M1614 629q-13 -66 5.5 -94.5t70.5 -28.5q98 0 165.5 86.5t67.5 230.5q0 227 -190 351t-529 124q-207 0 -371.5 -50t-269.5 -138.5t-160 -207.5t-55 -259q0 -268 209 -414.5t588 -146.5q191 0 379.5 38t328.5 107l138 -229q-151 -87 -382.5 -136.5t-480.5 -49.5
q-329 0 -574.5 97t-381 286t-135.5 448q0 155 51 295t152 254.5t241.5 198.5t327.5 130t403 46q301 0 527.5 -85t352.5 -250t126 -392q0 -136 -48.5 -249t-131.5 -186.5t-193 -113.5t-233 -39q-108 1 -191 33.5t-129 89.5q-111 -117 -331 -117q-197 0 -310.5 107.5
t-113.5 281.5q0 97 37.5 186t104 156.5t165.5 107.5t215 40q200 0 295 -113l18 92h336zM1090 522q95 0 156 60.5t61 142.5q0 69 -48 109t-131 40q-94 0 -155.5 -60t-61.5 -142q0 -68 49.5 -109t129.5 -41z" />
    <glyph glyph-name="Euro.lt" 
d="M70 477v219h102v39v43h-102v221h141q70 227 255 361.5t447 134.5q265 0 436.5 -123t239.5 -344l-338 -127q-36 125 -123.5 192.5t-220.5 67.5q-105 0 -185 -42.5t-128 -119.5h391l-39 -221h-418q-2 -14 -2 -43q0 -27 2 -39h404l-39 -219h-303q48 -80 129 -124t188 -44
q133 0 220.5 67.5t123.5 192.5l338 -127q-68 -221 -239.5 -344t-436.5 -123q-264 0 -449 136t-255 366h-139z" />
    <glyph glyph-name="dollar.lt" 
d="M-20 268l227 277q175 -169 479 -221v270q-91 10 -163 23t-145 34.5t-126 52t-95 72t-63.5 99t-21.5 129.5q0 203 164.5 322.5t449.5 141.5v201h315v-209q186 -23 340 -84.5t248 -146.5l-227 -260q-128 122 -361 170v-244q109 -12 193.5 -29t168 -48.5t138 -75t88 -110.5
t33.5 -153q0 -214 -163.5 -330.5t-457.5 -142.5v-209h-315v207q-218 21 -413.5 92t-292.5 172zM440 1042q0 -32 18.5 -51t71 -34t156.5 -29v235q-246 -12 -246 -121zM1243 438q0 54 -46.5 77.5t-195.5 43.5v-246q242 21 242 125z" />
    <glyph glyph-name="cent.lt" horiz-adv-x="1640" 
d="M119 559q0 229 161 386t429 192v192h309v-194q190 -27 319 -113.5t185 -210.5l-269 -158q-74 132 -235 176v-538q162 44 235 178l269 -160q-55 -122 -184 -209t-320 -114v-183h-309v181q-268 35 -429 191t-161 384zM465 559q0 -99 65 -169.5t179 -100.5v542
q-114 -30 -179 -101t-65 -171z" />
    <glyph glyph-name="sterling.lt" 
d="M209 569v228h147q-84 125 -84 239q0 196 181 327.5t473 131.5q289 0 456.5 -133.5t167.5 -355.5q0 -74 -18 -144h-346q6 35 6 66q0 118 -71 174.5t-197 56.5q-121 0 -193 -50.5t-72 -131.5q0 -33 13.5 -67t26 -53t42.5 -60h363v-228h-258q4 -32 4 -53q0 -72 -21 -145
q115 -49 211 -49q108 0 169.5 51.5t64.5 142.5h338q1 -250 -139.5 -395.5t-376.5 -145.5q-216 0 -408 146q-143 -146 -336 -146q-135 0 -223 76t-88 201q0 124 89.5 197t236.5 73q81 0 172 -24q-9 36 -27 71h-303zM283 260q0 -29 24 -45t62 -16q83 0 131 75q-66 50 -127 50
q-40 0 -65 -18t-25 -46z" />
    <glyph glyph-name="yen.lt" 
d="M205 342v236h416v10l-50 71h-366v234h209l-389 577h479l323 -530l320 530h465l-389 -577h204v-234h-362l-49 -71v-10h411v-236h-411v-342h-395v342h-416z" />
    <glyph glyph-name="florin.lt" 
d="M322 627v264h323l25 137q41 231 179 349t392 118q257 0 408 -111l-150 -272q-100 66 -215 66q-90 0 -144 -43t-69 -123l-22 -121h325v-264h-373l-32 -185q-42 -232 -180.5 -349.5t-393.5 -117.5q-252 0 -407 111l149 272q98 -65 217 -65q90 0 143.5 43t67.5 123l31 168
h-274z" />
    <glyph glyph-name="baht.lt" 
d="M106 0v1470h930q244 0 374 -101t130 -292q0 -118 -62 -197.5t-147 -115.5q112 -40 183 -132t71 -218q0 -194 -136.5 -304t-375.5 -110h-967zM401 877h631q104 0 160.5 41t56.5 118q0 81 -56.5 121.5t-160.5 40.5h-631v-321zM401 618v-344h672q99 0 156 48t57 127
q0 76 -57 122.5t-156 46.5h-672zM682 -209v1884h266v-1884h-266z" />
    <glyph glyph-name="dong.lt" 
d="M1028 266v-98h293v1302h-293v-536q-47 53 -137.5 85t-204.5 32q-238 0 -380 -129t-142 -324q0 -94 35.5 -175.5t101 -142t165 -95.5t220.5 -35q114 0 204.5 32t137.5 84zM1030 606v-12q0 -92 -84 -153.5t-205 -61.5q-119 0 -199.5 58.5t-80.5 160.5q0 104 80 162.5
t200 58.5q121 0 205 -61.5t84 -151.5zM188 -236v236h1131v-236h-1131zM715 1124h796v236h-796v-236z" />
    <glyph glyph-name="franc.lt" 
d="M57 260v262h873v-262h-873zM582 0h-336v1470h1302v-282h-966v-277h850v-284h-850v-627z" />
    <glyph glyph-name="naira.lt" 
d="M1436 1470v-1470h-301l-600 967v-967h-332v1470h344l557 -901v901h332zM31 788v213h364v-213h-364zM31 469v213h364v-213h-364zM1243 469v213h365v-213h-365zM1243 788v213h365v-213h-365z" />
    <glyph glyph-name="peseta.lt" 
d="M530 350h322q288 0 453 144t165 415q0 274 -164.5 417.5t-453.5 143.5h-662v-1470h340v350zM530 629v563h304q147 0 225 -74t78 -209q0 -132 -78.5 -206t-224.5 -74h-304zM16 797h1602v229h-1602v-229z" />
    <glyph glyph-name="peso.lt" 
d="M524 383h310q288 0 453 140t165 403q0 265 -164.5 404.5t-453.5 139.5h-650v-1470h340v383zM524 666v522h291q147 0 225 -68.5t78 -193.5q0 -123 -78.5 -191.5t-224.5 -68.5h-291zM20 643h375v213h-375v-213zM395 961v213h-375v-213h375zM1278 856v-213h338v213h-338z
M1278 1174v-213h338v213h-338z" />
    <glyph glyph-name="uni20BD.lt" 
d="M43 856l-2 -272h1036q244 0 388.5 115.5t144.5 328.5q0 214 -144 328t-389 114h-862v-1470h340v1198h504q102 0 158.5 -44.5t56.5 -125.5q0 -82 -57 -127t-158 -45h-1016zM37 209h940v270h-940v-270z" />
    <glyph glyph-name="uni20B9.lt" 
d="M522 580l344 57l471 -637h-391zM57 842v262h1508v-262h-1508zM57 477v260h633q131 0 203 63t72 173q0 111 -72 174t-203 63h-633v260h1508v-260h-363q84 -100 84 -241q0 -233 -155.5 -362.5t-419.5 -129.5h-654z" />
    <glyph glyph-name="uni20BA.lt" 
d="M295 0v1470h342v-1177h211q203 0 302.5 112t102.5 347h342q-4 -368 -193 -560t-542 -192h-565zM61 512v256l967 543v-256zM59 145v256l969 541v-254z" />
    <glyph glyph-name="won.lt" 
d="M27 469v213h313v-213h-313zM27 788v213h290v-213h-290zM1612 788h-289v213h289v-213zM1612 469h-314v213h314v-213zM707 1292h231l219 -970h-102l215 1148h309l-299 -1470h-270l-232 1020h82l-231 -1020h-271l-299 1470h324l215 -1148h-113z" />
    <glyph glyph-name="zero.slash" horiz-adv-x="1775" 
d="M891 1210q-227 0 -371.5 -131.5t-144.5 -345.5q0 -218 139.5 -345.5t370.5 -127.5q227 0 371.5 131.5t144.5 345.5q0 218 -139.5 345.5t-370.5 127.5zM479 262l-157 211l972 735l158 -211zM889 1493q179 0 336 -57.5t269 -157t176.5 -240.5t64.5 -303t-64.5 -303
t-176.5 -240.5t-269 -157t-336 -57.5q-241 0 -434.5 97.5t-302.5 271t-109 389.5t109 389.5t302.5 271t434.5 97.5z" />
    <glyph glyph-name="zero.lt" 
d="M819 1495q164 0 307 -57.5t244 -158t159 -241.5t58 -303t-58 -303t-159 -241.5t-244 -158t-307 -57.5t-307 57.5t-244 158t-159 241.5t-58 303t58 303t159 241.5t244 158t307 57.5zM819 1147q-160 0 -261 -112.5t-101 -299.5t101 -299t261 -112q159 0 260 112t101 299
t-101 299.5t-260 112.5z" />
    <glyph glyph-name="zero.slash.lt" 
d="M819 1493q214 0 386.5 -97.5t270 -271t97.5 -389.5t-97.5 -389.5t-270 -271t-386.5 -97.5q-160 0 -300 57t-239.5 157t-156.5 241t-57 303t57 303t156.5 241t239.5 157t300 57zM819 1219q-190 0 -310 -133t-120 -351t119.5 -350.5t310.5 -132.5q190 0 309 132.5
t119 350.5t-119 351t-309 133zM512 291l-158 203l772 686l158 -203z" />
    <glyph glyph-name="one.lt" 
d="M125 0v336h565v582h-543v303l297 8q167 4 243 62.5t97 183.5h308v-1139h487v-336h-1454z" />
    <glyph glyph-name="two.lt" 
d="M88 303l610 318q234 122 296 162q110 72 129 141q5 18 5 37q0 83 -75.5 135.5t-223.5 52.5q-155 0 -264.5 -86t-140.5 -234l-365 80q17 115 78 219t158.5 186t241 130.5t311.5 48.5q197 0 353 -60t245.5 -173.5t89.5 -262.5q0 -166 -99.5 -281t-328.5 -224l-305 -152h770
v-340h-1485v303z" />
    <glyph glyph-name="three.lt" 
d="M831 -25q-302 0 -507 112t-293 294l362 166q46 -103 167.5 -170.5t275.5 -67.5q89 0 159.5 16t115 50.5t44.5 83.5q0 133 -321 133h-234v307h221q299 0 299 127q0 61 -76 96t-210 35q-148 0 -259 -62.5t-153 -148.5l-344 158q78 170 292.5 280.5t489.5 110.5
q322 0 509 -121t187 -313q0 -109 -71 -191.5t-182 -115.5q286 -94 286 -332q0 -191 -205.5 -319t-552.5 -128z" />
    <glyph glyph-name="four.lt" 
d="M1341 0h-380v334h-910v309l778 827h514v-819h250v-317h-252v-334zM506 651h455v492z" />
    <glyph glyph-name="five.lt" 
d="M471 596l-340 53l105 821h1257v-340h-952l-31 -210q70 36 173 60.5t224 23.5q202 0 356.5 -60t241 -174.5t86.5 -267.5q0 -155 -99.5 -276t-268 -186t-375.5 -65q-192 0 -356 46.5t-285.5 141t-171.5 226.5l366 150q49 -104 166.5 -168t282.5 -64q147 0 244.5 49.5
t97.5 139.5q0 91 -94 143.5t-258 52.5q-110 0 -206.5 -26.5t-162.5 -69.5z" />
    <glyph glyph-name="six.lt" 
d="M1577 1212l-258 -233q-162 192 -426 192q-201 0 -323 -95t-130 -226q182 147 469 147q198 0 354.5 -64.5t242 -177.5t85.5 -253q0 -234 -207 -380.5t-544 -146.5q-186 0 -335.5 54t-248 150.5t-151 230t-52.5 292.5q0 175 60 322t169.5 251t269 162t351.5 58
q233 0 403.5 -77t270.5 -206zM1190 489q0 91 -98.5 145t-255.5 54t-256 -54t-99 -145t97.5 -143.5t255.5 -52.5t257 52.5t99 143.5z" />
    <glyph glyph-name="seven.lt" 
d="M1165 1137h-784v-275h-340v608h1563v-356q-286 -233 -420.5 -503t-134.5 -611h-412q0 677 528 1137z" />
    <glyph glyph-name="eight.lt" 
d="M817 1495q192 0 348 -48.5t253.5 -149t97.5 -238.5q0 -188 -230 -301q135 -43 218 -129t83 -211q0 -109 -59.5 -194.5t-164.5 -139t-244 -81.5t-302 -28t-301 28t-242.5 81.5t-163.5 139t-59 194.5q0 125 83 211t218 129q-229 110 -229 301q0 138 97 238.5t252 149
t345 48.5zM817 909q137 0 220 37.5t83 108.5q0 72 -82.5 108.5t-220.5 36.5q-137 0 -219 -36.5t-82 -108.5q0 -71 82.5 -108.5t218.5 -37.5zM817 610q-169 0 -266.5 -41t-97.5 -123q0 -83 97 -123t267 -40q171 0 270 40t99 123q0 82 -99.5 123t-269.5 41z" />
    <glyph glyph-name="nine.lt" 
d="M61 258l258 234q163 -193 426 -193q201 0 323 95.5t130 226.5q-183 -148 -469 -148q-198 0 -354.5 65t-242 178t-85.5 253q0 234 207.5 380t544.5 146q186 0 335 -54t247.5 -150.5t151 -230t52.5 -292.5q0 -175 -60 -322t-169.5 -251t-269 -162t-351.5 -58
q-233 0 -403.5 77t-270.5 206zM449 981q0 -91 98.5 -145t255.5 -54t255.5 54t98.5 145t-97 144t-255 53t-257 -53t-99 -144z" />
    <glyph glyph-name="period.tab" horiz-adv-x="819" 
d="M193 0v418h436v-418h-436z" />
    <glyph glyph-name="comma.tab" horiz-adv-x="819" 
d="M193 0v418h436v-363q0 -180 -117.5 -279.5t-318.5 -99.5v191q161 3 161 125v8h-161z" />
    <glyph glyph-name="colon.tab" horiz-adv-x="819" 
d="M193 0v418h436v-418h-436zM193 645v418h436v-418h-436z" />
    <glyph glyph-name="semicolon.tab" horiz-adv-x="819" 
d="M193 0v418h436v-363q0 -180 -117.5 -279.5t-318.5 -99.5v191q161 3 161 125v8h-161zM193 645v418h436v-418h-436z" />
    <glyph glyph-name="space.tab" horiz-adv-x="819" 
 />
    <glyph glyph-name="zero.dnom" horiz-adv-x="1042" 
d="M520 829q212 0 345.5 -118t133.5 -303q0 -184 -134 -303t-345 -119q-210 0 -343.5 119t-133.5 303q0 185 133.5 303t343.5 118zM520 606q-80 0 -133 -53.5t-53 -144.5t53 -145t133 -54t133.5 54t53.5 145t-53 144.5t-134 53.5z" />
    <glyph glyph-name="one.dnom" horiz-adv-x="782" 
d="M41 0v221h238v262h-236v197l80 2q109 4 158 35t63 96h219v-592h195v-221h-717z" />
    <glyph glyph-name="two.dnom" horiz-adv-x="935" 
d="M57 180l322 182q115 64 157 97.5t42 75.5q0 34 -28.5 54.5t-80.5 20.5q-73 0 -123 -44t-59 -109l-252 47q7 64 39 121t86.5 103.5t139 73.5t187.5 27q168 0 276.5 -71t108.5 -197q0 -96 -58.5 -161t-186.5 -124l-119 -55h387v-221h-838v180z" />
    <glyph glyph-name="three.dnom" horiz-adv-x="999" 
d="M508 -14q-179 0 -302 55t-202 170l232 115q37 -60 110.5 -94.5t161.5 -34.5q60 0 101.5 15.5t41.5 49.5q0 53 -141 53h-152v189h138q76 0 109.5 13.5t33.5 43.5q0 55 -133 55q-82 0 -146.5 -29.5t-97.5 -78.5l-219 106q65 101 193 158t296 57q196 0 309 -68.5t113 -172.5
q0 -60 -38 -105t-103 -69q154 -54 154 -178q0 -108 -123.5 -179t-335.5 -71z" />
    <glyph glyph-name="four.dnom" horiz-adv-x="980" 
d="M793 0h-275v156h-491v186l407 473h359v-459h161v-200h-161v-156zM317 356h201v248z" />
    <glyph glyph-name="five.dnom" horiz-adv-x="913" 
d="M303 322l-260 28l63 465h734v-207h-512l-13 -100q87 41 209 41q166 0 265.5 -70t99.5 -198q0 -133 -122.5 -214t-307.5 -81q-154 0 -278.5 55.5t-182.5 163.5l250 92q29 -46 86 -72t127 -26q63 0 104 22t41 60t-40 61t-109 23q-90 0 -154 -43z" />
    <glyph glyph-name="six.dnom" horiz-adv-x="1007" 
d="M954 696l-147 -153q-105 80 -244 80q-111 0 -174 -45t-63 -99q103 64 254 64q170 0 281.5 -74t111.5 -188q0 -134 -124 -214.5t-335 -80.5q-214 0 -340.5 111t-126.5 292q0 197 141.5 318.5t372.5 121.5q253 0 393 -133zM682 272q0 42 -47.5 65t-124.5 23q-76 0 -123 -23
t-47 -65q0 -39 48.5 -61.5t123.5 -22.5q76 0 123 22.5t47 61.5z" />
    <glyph glyph-name="seven.dnom" horiz-adv-x="960" 
d="M612 600h-346v-145h-239v360h905v-231q-155 -116 -228 -259.5t-73 -324.5h-297q0 364 278 600z" />
    <glyph glyph-name="eight.dnom" horiz-adv-x="985" 
d="M494 829q114 0 209.5 -28t157 -86t61.5 -137q0 -104 -115 -160q147 -51 147 -185q0 -119 -129.5 -183t-330.5 -64q-130 0 -233 26.5t-166.5 83.5t-63.5 137q0 133 149 185q-114 56 -114 160q0 79 61.5 137t157 86t209.5 28zM494 512q63 0 102 17t39 49t-39 48.5
t-102 16.5q-65 0 -103.5 -16.5t-38.5 -48.5q0 -33 39 -49.5t103 -16.5zM494 324q-172 0 -172 -72q0 -70 172 -70t172 70q0 72 -172 72z" />
    <glyph glyph-name="nine.dnom" horiz-adv-x="1007" 
d="M53 119l148 153q107 -79 243 -79q111 0 174.5 44t63.5 95q-108 -62 -254 -62q-170 0 -280.5 75.5t-110.5 189.5q0 134 124 214t335 80q213 0 340 -111t127 -292q0 -197 -142 -318.5t-372 -121.5q-256 0 -396 133zM326 541q0 -40 47.5 -63t124.5 -23q75 0 122.5 23
t47.5 63t-47.5 63t-124.5 23q-75 0 -122.5 -23t-47.5 -63z" />
    <glyph glyph-name="percent.lt" 
d="M27 1135q0 157 105 257.5t265 100.5q161 0 266 -100.5t105 -257.5t-105 -258t-266 -101q-159 0 -264.5 101t-105.5 258zM162 0l1026 1470h289l-1031 -1470h-284zM522 1135q0 66 -34 103.5t-91 37.5t-91 -37.5t-34 -103.5q0 -65 35 -102.5t90 -37.5t90 37.5t35 102.5z
M1608 336q0 -157 -105 -258t-266 -101q-160 0 -266.5 101t-106.5 258t106.5 257.5t266.5 100.5q161 0 266 -100.5t105 -257.5zM1112 336q0 -65 35 -103t90 -38t90 38t35 103q0 64 -34 101.5t-91 37.5t-91 -37.5t-34 -101.5z" />
    <glyph glyph-name="colon.mid" horiz-adv-x="819" 
d="M193 207v418h436v-418h-436zM193 852v418h436v-418h-436z" />
    <glyph glyph-name="commaaboverightcmb" horiz-adv-x="0" 
d="M-222 1118l43 352h401l-182 -352h-262z" />
    </font>
</defs>
</svg>
