<?xml version="1.0" standalone="no"?>
<!DOCTYPE svg PUBLIC "-//W3C//DTD SVG 1.1//EN" "http://www.w3.org/Graphics/SVG/1.1/DTD/svg11.dtd" >
<svg xmlns="http://www.w3.org/2000/svg" xmlns:xlink="http://www.w3.org/1999/xlink" version="1.1">
<metadata>
Created by FontForge 20170731 at Fri Jul 23 15:45:00 2021
 By Aleksey,,,
Copyright 2021, Kris Sowersby, Klim Type Foundry.
</metadata>
<defs>
<font id="SohneBreit-DreiviertelfettKurs" horiz-adv-x="1638" >
  <font-face 
    font-family="So:hne Breit"
    font-weight="700"
    font-style="italic"
    font-stretch="expanded"
    units-per-em="2048"
    panose-1="2 11 8 5 3 2 2 13 2 3"
    ascent="1597"
    descent="-451"
    x-height="1079"
    cap-height="1470"
    bbox="-629 -438 3009 2034"
    underline-thickness="245"
    underline-position="-515"
    slope="-8"
    unicode-range="U+0020-FB02"
  />
<missing-glyph horiz-adv-x="1435" 
d="M131 0h1229v1470h-1229v-1470zM401 496l240 241l-240 240l105 104l239 -239l242 239l102 -104l-237 -240l237 -241l-102 -105l-242 240l-239 -240z" />
    <glyph glyph-name="fi" unicode="fi" horiz-adv-x="1490" 
d="M319 1094q58 399 523 399q146 0 268 -35l-78 -256q-110 27 -184 27q-186 0 -205 -135l-2 -15h371l-39 -270h-369l-115 -809h-323l113 809h-244l39 270h243zM1153 1190l39 280h332l-39 -280h-332zM1466 1079l-151 -1079h-328l152 1079h327z" />
    <glyph glyph-name="fl" unicode="fl" horiz-adv-x="1490" 
d="M319 1094q58 399 523 399q146 0 268 -35l-78 -256q-110 27 -184 27q-186 0 -205 -135l-2 -15h371l-39 -270h-369l-115 -809h-323l113 809h-244l39 270h243zM1522 1470l-207 -1470h-328l207 1470h328z" />
    <glyph glyph-name="f_b" unicode="fb" horiz-adv-x="2408" 
d="M319 1094q58 399 523 399q146 0 268 -35l-78 -256q-110 27 -184 27q-186 0 -205 -135l-2 -15h371l-39 -270h-369l-115 -809h-323l113 809h-244l39 270h243zM1335 135l-20 -135h-328l207 1470h328l-72 -509q64 66 162.5 103.5t212.5 37.5q122 0 224.5 -40.5t171 -110.5
t106.5 -164.5t38 -202.5q0 -119 -44.5 -228.5t-124 -193.5t-198.5 -134.5t-259 -50.5q-126 0 -230.5 42t-173.5 116zM1731 838q-155 0 -255 -94.5t-100 -229.5q0 -122 88.5 -197t227.5 -75q155 0 254.5 94t99.5 229q0 121 -88 197t-227 76z" />
    <glyph glyph-name="f_f" unicode="ff" horiz-adv-x="1808" 
d="M319 1094q58 399 529 399q166 0 287 -37l-76 -254q-122 27 -201 27q-196 0 -215 -135l-2 -15h498l2 15q58 399 528 399q161 0 299 -41l-74 -252q-123 29 -213 29q-198 0 -217 -135l-2 -15h398l-37 -270h-398l-114 -809h-324l113 809h-496l-115 -809h-323l113 809h-244
l39 270h243z" />
    <glyph glyph-name="f_h" unicode="fh" horiz-adv-x="2347" 
d="M319 1094q58 399 523 399q146 0 268 -35l-78 -256q-110 27 -184 27q-186 0 -205 -135l-2 -15h371l-39 -270h-369l-115 -809h-323l113 809h-244l39 270h243zM987 0l207 1470h328l-72 -520q146 152 377 152q108 0 196 -35.5t146.5 -99t84 -157.5t9.5 -206l-84 -604h-328
l72 518q19 137 -41.5 215t-187.5 78t-206.5 -78.5t-98.5 -216.5l-74 -516h-328z" />
    <glyph glyph-name="f_j" unicode="fj" horiz-adv-x="1490" 
d="M319 1094q58 399 523 399q146 0 268 -35l-78 -256q-110 27 -184 27q-186 0 -205 -135l-2 -15h371l-39 -270h-369l-115 -809h-323l113 809h-244l39 270h243zM1153 1190l39 280h332l-39 -280h-332zM1321 33q-30 -215 -147.5 -314.5t-333.5 -99.5q-161 0 -287 45l78 238
q89 -27 170 -27q87 0 133 38t59 130l146 1036h327z" />
    <glyph glyph-name="f_k" unicode="fk" horiz-adv-x="2347" 
d="M319 1094q58 399 523 399q146 0 268 -35l-78 -256q-110 27 -184 27q-186 0 -205 -135l-2 -15h371l-39 -270h-369l-115 -809h-323l113 809h-244l39 270h243zM1522 1470l-119 -841l584 450h452l-598 -450l461 -629h-393l-324 436l-233 -176l-37 -260h-328l207 1470h328z
" />
    <glyph glyph-name="f_f_i" unicode="ffi" horiz-adv-x="2312" 
d="M319 1094q58 399 529 399q166 0 287 -37l-76 -254q-122 27 -201 27q-196 0 -215 -135l-2 -15h498l2 15q58 399 522 399q146 0 268 -35l-78 -256q-110 27 -184 27q-186 0 -205 -135l-2 -15h371l-39 -270h-369l-114 -809h-324l113 809h-496l-115 -809h-323l113 809h-244
l39 270h243zM1974 1190l39 280h332l-39 -280h-332zM2288 1079l-152 -1079h-328l152 1079h328z" />
    <glyph glyph-name="f_f_l" unicode="ffl" horiz-adv-x="2312" 
d="M319 1094q58 399 529 399q166 0 287 -37l-76 -254q-122 27 -201 27q-196 0 -215 -135l-2 -15h498l2 15q58 399 522 399q146 0 268 -35l-78 -256q-110 27 -184 27q-186 0 -205 -135l-2 -15h371l-39 -270h-369l-114 -809h-324l113 809h-496l-115 -809h-323l113 809h-244
l39 270h243zM2343 1470l-207 -1470h-328l207 1470h328z" />
    <glyph glyph-name="f_idieresis" unicode="f&#xef;" horiz-adv-x="1490" 
d="M319 1094q58 399 529 399q161 0 299 -41l-74 -252q-123 29 -213 29q-198 0 -217 -135l-2 -15h397l-37 -270h-397l-115 -809h-323l113 809h-244l39 270h243zM1407 1190l37 280h330l-39 -280h-328zM1466 1079l-151 -1079h-328l152 1079h327z" />
    <glyph glyph-name=".notdef" horiz-adv-x="1435" 
d="M131 0h1229v1470h-1229v-1470zM401 496l240 241l-240 240l105 104l239 -239l242 239l102 -104l-237 -240l237 -241l-102 -105l-242 240l-239 -240z" />
    <glyph glyph-name=".null" horiz-adv-x="0" 
 />
    <glyph glyph-name="nonmarkingreturn" horiz-adv-x="682" 
 />
    <glyph glyph-name="space" unicode=" " horiz-adv-x="565" 
 />
    <glyph glyph-name="exclam" unicode="!" horiz-adv-x="628" 
d="M178 471l55 999h424l-227 -999h-252zM47 0l49 354h383l-49 -354h-383z" />
    <glyph glyph-name="quotedbl" unicode="&#x22;" horiz-adv-x="884" 
d="M152 836l16 634h375l-162 -634h-229zM588 836l16 634h375l-162 -634h-229z" />
    <glyph glyph-name="numbersign" unicode="#" horiz-adv-x="1583" 
d="M88 0l145 365h-208l32 239h271l104 262h-276l34 240h338l146 364h289l-146 -364h326l145 364h287l-145 -364h184l-35 -240h-246l-104 -262h254l-33 -239h-315l-146 -365h-291l146 365h-324l-145 -365h-287zM616 604h324l107 262h-326z" />
    <glyph glyph-name="dollar" unicode="$" horiz-adv-x="1667" 
d="M-51 330l223 227q70 -97 203.5 -165.5t300.5 -98.5l47 334q-73 11 -128.5 21t-118.5 27t-108.5 36t-89.5 48t-71 63.5t-43.5 81.5t-16.5 104q0 96 46 178.5t132.5 145.5t219 100t297.5 41l28 202h277l-31 -219q197 -27 348.5 -97t225.5 -165l-224 -215q-128 149 -389 201
l-43 -303q73 -10 131.5 -21.5t121.5 -29t110.5 -38.5t91 -51t72 -66.5t45 -84.5t16.5 -105q0 -209 -188.5 -340.5t-522.5 -140.5l-28 -209h-277l31 223q-235 30 -420 116t-268 200zM475 1047q0 -59 62.5 -86t226.5 -50l41 291q-163 -4 -246.5 -46.5t-83.5 -108.5zM1286 440
q0 67 -69 98t-222 54l-45 -320q165 6 250.5 50t85.5 118z" />
    <glyph glyph-name="percent" unicode="%" horiz-adv-x="2002" 
d="M981 1133q0 -111 -57 -207t-162.5 -154.5t-235.5 -58.5q-177 0 -286 100.5t-109 255.5q0 173 128 297.5t323 124.5q178 0 288.5 -100.5t110.5 -257.5zM1559 1470h296l-1355 -1470h-297zM539 922q86 0 139 56.5t53 141.5q0 73 -44 117.5t-116 44.5q-86 0 -139 -57.5
t-53 -141.5q0 -73 44 -117t116 -44zM1475 -23q-177 0 -287.5 101t-110.5 258q0 83 33.5 160t92 135t144 92.5t183.5 34.5q177 0 287 -101.5t110 -257.5q0 -173 -128 -297.5t-324 -124.5zM1520 547q-86 0 -139.5 -56.5t-53.5 -140.5q0 -74 43 -119t115 -45q86 0 139 57.5
t53 141.5q0 74 -43 118t-114 44z" />
    <glyph glyph-name="ampersand" unicode="&#x26;" horiz-adv-x="1886" 
d="M1516 844l299 -72q-113 -276 -297 -463q66 -30 143.5 -37t165.5 4l-37 -268q-168 -26 -290 -1t-245 110q-264 -140 -596 -140q-295 0 -470 122t-175 319q0 163 117 280.5t320 157.5q-56 89 -56 197q0 188 150 314t407 126q224 0 353 -102t129 -263q0 -156 -116.5 -268
t-303.5 -153l270 -232q143 143 232 369zM707 1073q0 -93 88 -178q177 21 256 74.5t79 142.5q0 63 -49.5 103t-140.5 40q-113 0 -173 -51.5t-60 -130.5zM338 446q0 -94 97.5 -146t252.5 -52q190 0 338 59l-397 352q-148 -18 -219.5 -74t-71.5 -139z" />
    <glyph glyph-name="quotesingle" unicode="'" horiz-adv-x="448" 
d="M152 836l16 634h375l-162 -634h-229z" />
    <glyph glyph-name="parenleft" unicode="(" horiz-adv-x="831" 
d="M969 1511q-287 -213 -427.5 -462t-140.5 -521q0 -421 326 -729h-334q-165 125 -255.5 319.5t-90.5 424.5q0 299 151 555t412 413h359z" />
    <glyph glyph-name="parenright" unicode=")" horiz-adv-x="831" 
d="M-105 -201q287 213 427.5 462t140.5 521q0 421 -326 729h334q165 -125 255.5 -319t90.5 -424q0 -299 -151 -555.5t-412 -413.5h-359z" />
    <glyph glyph-name="asterisk" unicode="*" horiz-adv-x="946" 
d="M672 651l-142 238l-206 -238l-162 133l207 236l-269 92l93 195l268 -88l43 292h213l-41 -292l287 88l41 -209l-293 -90l143 -240z" />
    <glyph glyph-name="plus" unicode="+" 
d="M1526 590h-563l-78 -561h-275l78 561h-561l37 276h563l80 564h274l-80 -564h564z" />
    <glyph glyph-name="comma" unicode="," horiz-adv-x="520" 
d="M-4 0l51 367h377l-53 -377q-19 -143 -122.5 -222t-295.5 -79l22 168q152 3 168 110l4 33h-151z" />
    <glyph glyph-name="hyphen" unicode="-" horiz-adv-x="770" 
d="M70 461l43 295h606l-41 -295h-608z" />
    <glyph glyph-name="period" unicode="." horiz-adv-x="520" 
d="M-4 0l51 367h377l-51 -367h-377z" />
    <glyph glyph-name="slash" unicode="/" horiz-adv-x="1202" 
d="M-76 -201l1028 1712h359l-1028 -1712h-359z" />
    <glyph glyph-name="zero" unicode="0" horiz-adv-x="1775" 
d="M874 -23q-176 0 -326.5 53.5t-255 147.5t-163.5 224t-59 280q0 160 64 307t177 259t281 178.5t364 66.5q234 0 418.5 -92t285.5 -252.5t101 -360.5q0 -128 -40 -248.5t-118 -222t-184.5 -178t-247 -119.5t-297.5 -43zM942 1196q-153 0 -273.5 -66.5t-185.5 -179
t-65 -250.5q0 -191 130.5 -308.5t340.5 -117.5q153 0 273 66.5t184.5 179t64.5 250.5q0 192 -129.5 309t-339.5 117z" />
    <glyph glyph-name="one" unicode="1" horiz-adv-x="970" 
d="M725 1477h262l-209 -1477h-342l135 958h-493l35 259l264 12q157 6 235.5 63.5t112.5 184.5z" />
    <glyph glyph-name="two" unicode="2" horiz-adv-x="1550" 
d="M23 264l837 412q180 88 258 166.5t78 158.5q0 92 -88.5 146.5t-228.5 54.5q-185 0 -315 -96.5t-177 -253.5l-301 80q33 121 104 223.5t173.5 177.5t240.5 117.5t297 42.5q291 0 465 -125.5t174 -337.5q0 -159 -110.5 -291.5t-348.5 -242.5l-432 -203h826l-41 -293h-1450z
" />
    <glyph glyph-name="three" unicode="3" horiz-adv-x="1622" 
d="M809 -23q-328 0 -548 124.5t-269 318.5l309 133q36 -131 171.5 -211t342.5 -80q180 0 289.5 55.5t109.5 145.5q0 151 -333 151h-295l41 273h286q159 0 250.5 44.5t91.5 121.5q0 73 -86 113t-237 40q-185 0 -319.5 -64t-200.5 -177l-275 137q99 188 309.5 289.5
t505.5 101.5q308 0 490 -111.5t182 -289.5q0 -121 -85 -213.5t-228 -130.5q124 -36 193 -116.5t69 -193.5q0 -93 -49.5 -175.5t-142.5 -146.5t-241 -101.5t-331 -37.5z" />
    <glyph glyph-name="four" unicode="4" horiz-adv-x="1689" 
d="M1231 0h-326l49 344h-960l37 264l960 862h447l-121 -852h364l-39 -274h-362zM436 618h555l80 566z" />
    <glyph glyph-name="five" unicode="5" horiz-adv-x="1581" 
d="M387 614l-270 58l205 798h1249l-41 -292h-985l-70 -267q178 90 422 90q302 0 477.5 -130.5t175.5 -338.5q0 -112 -51.5 -211.5t-146.5 -176.5t-243 -122t-329 -45q-193 0 -363.5 52.5t-287.5 149.5t-149 220l315 138q31 -117 173 -197t331 -80q182 0 294.5 72t112.5 178
q0 99 -105.5 159t-285.5 60q-242 0 -428 -115z" />
    <glyph glyph-name="six" unicode="6" horiz-adv-x="1685" 
d="M1731 1192l-240 -199q-58 99 -196 161.5t-310 62.5q-224 0 -379.5 -112t-199.5 -290q98 86 238.5 133t309.5 47q306 0 497 -136.5t191 -340.5q0 -106 -53 -202.5t-151 -172.5t-252.5 -121t-343.5 -45q-374 0 -577 166t-204 475q1 137 40.5 265.5t119 239t191 193.5
t265.5 130t333 47q245 0 440.5 -81.5t280.5 -219.5zM846 252q215 0 337 70t122 176q0 103 -120 164t-315 61q-215 0 -337.5 -71t-122.5 -177q0 -103 121 -163t315 -60z" />
    <glyph glyph-name="seven" unicode="7" horiz-adv-x="1544" 
d="M1227 1184h-826l-41 -283h-290l82 569h1503l-43 -305q-325 -254 -502 -533.5t-227 -631.5h-346q102 711 690 1184z" />
    <glyph glyph-name="eight" unicode="8" horiz-adv-x="1665" 
d="M924 1493q319 0 500.5 -113t181.5 -293q0 -111 -76 -194.5t-223 -134.5q144 -45 227.5 -134t83.5 -208q0 -193 -211.5 -316t-593.5 -123q-363 0 -582 116t-219 310q0 134 109 235.5t299 145.5q-211 103 -211 289q0 192 194 306t521 114zM897 895q183 0 280 50.5t97 129.5
q0 77 -94 120.5t-265 43.5q-184 0 -280 -50.5t-96 -129.5q0 -76 94 -120t264 -44zM823 633q-225 0 -345 -57t-120 -146q0 -88 119.5 -139t331.5 -51q229 0 350 57t121 145q0 90 -121 140.5t-336 50.5z" />
    <glyph glyph-name="nine" unicode="9" horiz-adv-x="1685" 
d="M10 279l240 198q58 -99 196 -161t310 -62q224 0 379.5 111.5t199.5 289.5q-98 -86 -239 -133t-310 -47q-306 0 -497 136.5t-191 340.5q0 106 53 202.5t151.5 172.5t253 121t343.5 45q374 0 576.5 -166t203.5 -475q-1 -173 -64 -329t-180 -278.5t-299.5 -195t-404.5 -72.5
q-245 0 -440.5 82t-280.5 220zM895 1219q-215 0 -337 -70t-122 -176q0 -103 119.5 -164t314.5 -61q215 0 338 70.5t123 176.5q0 103 -121.5 163.5t-314.5 60.5z" />
    <glyph glyph-name="colon" unicode=":" horiz-adv-x="520" 
d="M-4 0l51 367h377l-51 -367h-377zM90 674l51 366h377l-51 -366h-377z" />
    <glyph glyph-name="semicolon" unicode=";" horiz-adv-x="520" 
d="M-4 0l51 367h377l-53 -377q-19 -143 -122.5 -222t-295.5 -79l22 168q152 3 168 110l4 33h-151zM90 674l51 366h377l-51 -366h-377z" />
    <glyph glyph-name="less" unicode="&#x3c;" 
d="M111 512l61 434l1477 479l-50 -342l-1187 -362l1087 -363l-47 -327z" />
    <glyph glyph-name="equal" unicode="=" 
d="M164 858l39 277h1401l-39 -277h-1401zM86 305l39 277h1401l-39 -277h-1401z" />
    <glyph glyph-name="greater" unicode="&#x3e;" 
d="M1587 944l-61 -434l-1477 -479l49 342l1188 362l-1088 363l48 327z" />
    <glyph glyph-name="question" unicode="?" horiz-adv-x="1492" 
d="M846 1202q-168 0 -275 -59t-141 -164l-350 53q59 207 260.5 334t531.5 127q199 0 349 -49.5t234.5 -148.5t84.5 -236q0 -87 -35.5 -163t-105.5 -138t-184 -103.5t-261 -54.5l-18 -129h-342l49 350q528 0 528 209q0 82 -85 127t-240 45zM516 0l49 354h383l-49 -354h-383z
" />
    <glyph glyph-name="at" unicode="@" horiz-adv-x="2207" 
d="M1624 311q112 0 202.5 110t90.5 265q0 208 -181 328.5t-499 120.5q-176 0 -327 -38.5t-259.5 -105.5t-186 -157.5t-115.5 -195.5t-38 -218q0 -249 195 -385.5t553 -136.5q189 0 368 38t322 107l111 -211q-337 -180 -811 -180q-478 0 -747 202.5t-269 557.5
q0 151 52.5 293.5t157 264t249 212.5t339 142.5t416.5 51.5q277 0 489 -84.5t328.5 -238.5t116.5 -355q0 -128 -48 -242t-129.5 -195t-194 -128t-238.5 -47q-222 0 -303 137q-63 -62 -158 -98.5t-201 -36.5q-180 0 -282.5 97t-102.5 257q0 100 42.5 194t115.5 164.5t178 113
t223 42.5q111 0 191 -35.5t123 -95.5l39 113h288l-172 -508q-20 -62 -0.5 -90.5t72.5 -28.5zM1034 324q118 0 195.5 74.5t77.5 168.5q0 71 -49.5 113.5t-135.5 42.5q-118 0 -195 -75t-77 -169q0 -70 49 -112.5t135 -42.5z" />
    <glyph glyph-name="A" unicode="A" horiz-adv-x="1822" 
d="M864 1470h387l510 -1470h-356l-107 315h-813l-202 -315h-375zM1018 1139l-350 -541h534z" />
    <glyph glyph-name="B" unicode="B" horiz-adv-x="1675" 
d="M41 0l207 1470h942q226 0 357.5 -97.5t131.5 -264.5q0 -119 -68 -218t-194 -145q96 -40 153.5 -122.5t57.5 -194.5q0 -184 -145 -306t-396 -122h-1046zM492 881h641q101 0 161 49t60 119q0 65 -56 103t-149 38h-612zM455 614l-45 -331h673q102 0 164 52t62 126
q0 70 -56 111.5t-153 41.5h-645z" />
    <glyph glyph-name="C" unicode="C" horiz-adv-x="1714" 
d="M70 684q0 162 68 309.5t187 258t293 176t375 65.5q296 0 504.5 -130t261.5 -339l-315 -145q-41 154 -166.5 235.5t-308.5 81.5q-242 0 -395.5 -142t-153.5 -352q0 -132 68 -230.5t179.5 -148t250.5 -49.5q168 0 297 79.5t198 224.5l285 -158q-108 -212 -319 -327.5
t-478 -115.5q-240 0 -429.5 89t-295.5 250.5t-106 367.5z" />
    <glyph glyph-name="D" unicode="D" horiz-adv-x="1771" 
d="M41 0l207 1470h723q178 0 326.5 -53t248 -145t154.5 -217t55 -269q0 -125 -39 -241.5t-116.5 -215t-186 -172.5t-256 -115.5t-317.5 -41.5h-799zM416 289h438q250 0 403.5 138t153.5 341q0 179 -125.5 296.5t-345.5 117.5h-399z" />
    <glyph glyph-name="E" unicode="E" horiz-adv-x="1601" 
d="M248 1470h1425l-41 -292h-1089l-39 -283h973l-41 -289h-973l-45 -313h1091l-43 -293h-1425z" />
    <glyph glyph-name="F" unicode="F" horiz-adv-x="1576" 
d="M377 0h-336l207 1470h1409l-41 -292h-1073l-47 -334h956l-39 -287h-958z" />
    <glyph glyph-name="G" unicode="G" horiz-adv-x="1841" 
d="M1006 1493q300 0 517.5 -127.5t276.5 -335.5l-321 -125q-41 136 -174 214.5t-320 78.5q-252 0 -407.5 -139.5t-155.5 -353.5q0 -201 138.5 -317t367.5 -116q180 0 315 71.5t182 195.5h-620l37 278h950l-113 -817h-317l20 145q-185 -168 -489 -168q-236 0 -423.5 89.5
t-293.5 251t-106 366.5q0 161 68.5 308.5t189 258t297.5 176.5t381 66z" />
    <glyph glyph-name="H" unicode="H" horiz-adv-x="1806" 
d="M1479 1470h342l-207 -1470h-342l86 606h-889l-86 -606h-342l207 1470h342l-82 -573h891z" />
    <glyph glyph-name="I" unicode="I" horiz-adv-x="575" 
d="M590 1470l-207 -1470h-342l207 1470h342z" />
    <glyph glyph-name="J" unicode="J" horiz-adv-x="1495" 
d="M1417 573q-39 -276 -228 -436t-501 -160q-269 0 -462.5 119t-243.5 307l311 172q29 -129 138.5 -214t268.5 -85q153 0 255.5 85t123.5 237l121 872h342z" />
    <glyph glyph-name="K" unicode="K" horiz-adv-x="1720" 
d="M590 1470l-92 -659l848 659h485l-803 -614l645 -856h-420l-493 651l-320 -245l-57 -406h-342l207 1470h342z" />
    <glyph glyph-name="L" unicode="L" horiz-adv-x="1495" 
d="M41 0l207 1470h342l-166 -1177h995l-43 -293h-1335z" />
    <glyph glyph-name="M" unicode="M" horiz-adv-x="2172" 
d="M1149 0h-277l-337 1133l-160 -1133h-334l207 1470h504l311 -1052l606 1052h518l-207 -1470h-331l159 1133z" />
    <glyph glyph-name="N" unicode="N" horiz-adv-x="1783" 
d="M1798 1470l-207 -1470h-299l-774 1044l-145 -1044h-332l207 1470h342l737 -993l139 993h332z" />
    <glyph glyph-name="O" unicode="O" horiz-adv-x="1832" 
d="M903 -23q-243 0 -433.5 92t-295 253t-104.5 362q0 160 66.5 307t183.5 258t290.5 177.5t374.5 66.5q243 0 433.5 -92t294.5 -253t104 -362q0 -160 -66 -307t-183 -258t-290.5 -177.5t-374.5 -66.5zM971 1196q-242 0 -395.5 -142.5t-153.5 -351.5q0 -192 137 -310
t359 -118q120 0 223.5 39t174 105.5t110.5 157t40 192.5q0 192 -137 310t-358 118z" />
    <glyph glyph-name="P" unicode="P" horiz-adv-x="1646" 
d="M455 512l-72 -512h-342l207 1470h901q240 0 384 -119.5t144 -324.5q0 -225 -164 -369.5t-446 -144.5h-612zM496 799h567q127 0 202.5 61.5t75.5 153.5q0 78 -60 123t-169 45h-563z" />
    <glyph glyph-name="Q" unicode="Q" horiz-adv-x="1832" 
d="M903 -23q-243 0 -433.5 92t-295 253t-104.5 362q0 160 66.5 307t183.5 258t290.5 177.5t374.5 66.5q243 0 433.5 -92t294.5 -253t104 -362q0 -200 -100 -375.5t-279 -287.5q85 -70 256 -109l-193 -237q-115 28 -218 89t-157 134q-115 -23 -223 -23zM971 1196
q-242 0 -395.5 -142.5t-153.5 -351.5q0 -192 137 -310t359 -118q120 0 223.5 39t174 105.5t110.5 157t40 192.5q0 192 -137 310t-358 118z" />
    <glyph glyph-name="R" unicode="R" horiz-adv-x="1665" 
d="M457 522l-74 -522h-342l207 1470h897q252 0 397.5 -118t145.5 -320q0 -172 -105.5 -301.5t-296.5 -181.5l297 -549h-377l-276 522h-473zM496 801h577q128 0 203.5 60.5t75.5 150.5q0 78 -60.5 124t-173.5 46h-569z" />
    <glyph glyph-name="S" unicode="S" horiz-adv-x="1603" 
d="M-55 330l233 231q92 -133 275 -214t401 -81q167 1 257.5 46t90.5 124q0 40 -22.5 67t-86.5 46.5t-112.5 28.5t-165.5 27q-55 8 -84 13q-71 12 -122.5 22t-117 28t-111.5 37.5t-94 50.5t-77 67t-47.5 86.5t-18.5 110.5q0 207 190.5 340t520.5 133q268 0 478 -85.5
t308 -217.5l-233 -215q-90 110 -243 170.5t-351 60.5q-157 0 -241.5 -40.5t-84.5 -110.5q0 -24 8.5 -42t33.5 -32.5t50.5 -24.5t81 -21t101 -18.5t132.5 -20.5q5 -1 7 -1q62 -9 103 -16t101.5 -19t102 -24t93 -31t86 -40.5t70 -51t56.5 -63.5t34.5 -78t13.5 -95
q0 -223 -197.5 -361.5t-534.5 -138.5q-298 0 -540 102.5t-344 250.5z" />
    <glyph glyph-name="T" unicode="T" horiz-adv-x="1687" 
d="M1743 1178h-639l-164 -1178h-342l164 1178h-637l41 292h1618z" />
    <glyph glyph-name="U" unicode="U" horiz-adv-x="1697" 
d="M825 -23q-377 0 -572 190t-149 511l111 792h342l-108 -765q-30 -204 68.5 -316.5t322.5 -112.5q208 0 316.5 105.5t139.5 323.5l109 765h342l-113 -792q-47 -345 -244.5 -523t-564.5 -178z" />
    <glyph glyph-name="V" unicode="V" horiz-adv-x="1818" 
d="M1008 0h-387l-506 1470h362l379 -1120l729 1120h381z" />
    <glyph glyph-name="W" unicode="W" horiz-adv-x="2416" 
d="M1163 1470h346l154 -1071l547 1071h354l-758 -1470h-383l-151 1059l-520 -1059h-379l-244 1470h346l168 -1071z" />
    <glyph glyph-name="X" unicode="X" horiz-adv-x="1765" 
d="M571 1470l365 -481l487 481h435l-730 -706l582 -764h-405l-410 547l-557 -547h-434l798 774l-536 696h405z" />
    <glyph glyph-name="Y" unicode="Y" horiz-adv-x="1775" 
d="M928 883l579 587h414l-852 -860l-86 -610h-342l86 610l-612 860h395z" />
    <glyph glyph-name="Z" unicode="Z" horiz-adv-x="1642" 
d="M1536 293l-41 -293h-1501l37 258l1106 920h-969l39 292h1483l-37 -256l-1108 -921h991z" />
    <glyph glyph-name="bracketleft" unicode="[" horiz-adv-x="772" 
d="M500 1262l-170 -1213h352l-35 -250h-670l242 1712h670l-37 -249h-352z" />
    <glyph glyph-name="backslash" unicode="\" horiz-adv-x="1202" 
d="M1069 -201h-330l-573 1712h330z" />
    <glyph glyph-name="bracketright" unicode="]" horiz-adv-x="772" 
d="M305 49l170 1213h-352l35 249h669l-241 -1712h-670l37 250h352z" />
    <glyph glyph-name="asciicircum" unicode="^" horiz-adv-x="1222" 
d="M588 1470h309l342 -641h-321l-201 385l-309 -385h-340z" />
    <glyph glyph-name="underscore" unicode="_" horiz-adv-x="980" 
d="M-37 -362l37 262h801l-37 -262h-801z" />
    <glyph glyph-name="grave" unicode="`" horiz-adv-x="1228" 
d="M985 1167h-258l-301 303h397z" />
    <glyph glyph-name="a" unicode="a" horiz-adv-x="1378" 
d="M453 -23q-201 0 -324 85.5t-123 232.5q0 148 122.5 241t346.5 113l457 41l2 15q8 62 -53 100.5t-179 38.5q-116 0 -194 -39.5t-113 -106.5l-282 80q68 150 226 237t386 87q262 0 405.5 -108t116.5 -300l-55 -393q-6 -46 23 -60.5t108 1.5l-33 -242q-154 -30 -258.5 5.5
t-136.5 117.5q-176 -146 -442 -146zM893 412l8 61l-391 -41q-182 -18 -182 -113q0 -48 50.5 -75t143.5 -27q147 0 254 56t117 139z" />
    <glyph glyph-name="b" unicode="b" horiz-adv-x="1445" 
d="M373 135l-21 -135h-327l206 1470h328l-72 -509q64 66 162.5 103.5t212.5 37.5q123 0 225 -40.5t171 -110t107 -164.5t38 -203q0 -119 -45 -228.5t-124.5 -193.5t-198.5 -134.5t-259 -50.5q-126 0 -230 42t-173 116zM768 838q-155 0 -254.5 -94.5t-99.5 -229.5
q0 -122 88 -197t227 -75q155 0 254.5 94t99.5 229q0 121 -88 197t-227 76z" />
    <glyph glyph-name="c" unicode="c" horiz-adv-x="1290" 
d="M43 504q0 122 49 231.5t135.5 190.5t213.5 128.5t276 47.5q229 0 383.5 -105t193.5 -262l-295 -117q-18 92 -99.5 152.5t-199.5 60.5q-150 0 -245 -92.5t-95 -224.5q0 -125 87.5 -197.5t218.5 -72.5q116 0 198 56t117 146l268 -124q-68 -161 -221.5 -253t-374.5 -92
q-271 0 -440.5 147.5t-169.5 379.5z" />
    <glyph glyph-name="d" unicode="d" horiz-adv-x="1445" 
d="M1073 944l74 526h328l-207 -1470h-328l18 119q-64 -66 -162.5 -104t-211.5 -38q-122 0 -224.5 40.5t-171.5 110.5t-107 165t-38 203q0 119 45 228.5t124.5 193.5t198.5 134t259 50q126 0 229 -42t174 -116zM678 242q154 0 254 94t100 229q0 122 -88.5 197.5t-228.5 75.5
q-154 0 -254.5 -94.5t-100.5 -229.5q0 -121 89.5 -196.5t228.5 -75.5z" />
    <glyph glyph-name="e" unicode="e" horiz-adv-x="1347" 
d="M670 236q103 0 186 44t125 123l279 -112q-79 -149 -239 -231.5t-366 -82.5q-175 0 -315 67.5t-218.5 188t-78.5 271.5q0 122 49.5 231.5t137 190.5t214.5 128.5t273 47.5q267 0 429.5 -143.5t162.5 -362.5q0 -67 -15 -141h-936q21 -101 107 -160t205 -59zM700 848
q-108 0 -192.5 -52t-124.5 -141h608q-10 81 -88 137t-203 56z" />
    <glyph glyph-name="f" unicode="f" horiz-adv-x="987" 
d="M319 1094q58 399 529 399q161 0 299 -41l-74 -252q-123 29 -213 29q-198 0 -217 -135l-2 -15h397l-37 -270h-397l-115 -809h-323l113 809h-244l39 270h243z" />
    <glyph glyph-name="g" unicode="g" horiz-adv-x="1443" 
d="M954 127l7 37q-61 -65 -156 -103t-213 -38q-240 0 -393.5 138t-153.5 359q0 116 45 222t124 185.5t196.5 127t253.5 47.5q129 0 234.5 -42.5t174.5 -117.5l19 137h327l-133 -940q-35 -239 -221 -380.5t-490 -141.5q-224 0 -388 75.5t-222 201.5l228 161q51 -88 156 -137
t241 -49q160 0 252.5 66t111.5 192zM680 276q148 0 248 89t100 219q0 117 -87.5 189.5t-225.5 72.5q-149 0 -249.5 -89t-100.5 -220q0 -116 88 -188.5t227 -72.5z" />
    <glyph glyph-name="h" unicode="h" horiz-adv-x="1386" 
d="M25 0l206 1470h328l-72 -520q146 152 377 152q108 0 196 -35.5t146.5 -99t84 -157.5t9.5 -206l-83 -604h-328l72 518q19 137 -42 215t-188 78t-206.5 -78.5t-98.5 -216.5l-74 -516h-327z" />
    <glyph glyph-name="i" unicode="i" horiz-adv-x="530" 
d="M190 1190l39 280h332l-39 -280h-332zM504 1079l-152 -1079h-327l151 1079h328z" />
    <glyph glyph-name="j" unicode="j" horiz-adv-x="530" 
d="M190 1190l39 280h332l-39 -280h-332zM358 33q-30 -215 -147.5 -314.5t-333.5 -99.5q-161 0 -287 45l78 238q88 -27 170 -27q87 0 133.5 38.5t59.5 129.5l145 1036h328z" />
    <glyph glyph-name="k" unicode="k" horiz-adv-x="1386" 
d="M559 1470l-119 -841l584 450h453l-598 -450l460 -629h-393l-323 436l-234 -176l-37 -260h-327l206 1470h328z" />
    <glyph glyph-name="l" unicode="l" horiz-adv-x="530" 
d="M559 1470l-207 -1470h-327l206 1470h328z" />
    <glyph glyph-name="m" unicode="m" horiz-adv-x="2181" 
d="M1255 526l-73 -526h-328l74 528q19 133 -37 208t-176 75q-118 0 -194 -75.5t-93 -209.5l-76 -526h-327l151 1079h328l-17 -129q65 73 160.5 112.5t200.5 39.5q122 0 219.5 -51.5t140.5 -139.5q188 191 447 191q226 0 349 -136.5t91 -357.5l-84 -608h-328l74 528
q19 133 -37 208t-176 75q-118 0 -194 -75.5t-95 -209.5z" />
    <glyph glyph-name="n" unicode="n" horiz-adv-x="1386" 
d="M25 0l151 1079h328l-19 -129q149 152 379 152q108 0 196 -35.5t146.5 -99t84 -157.5t9.5 -206l-83 -604h-328l72 518q19 137 -42 215t-188 78t-206.5 -78.5t-98.5 -216.5l-74 -516h-327z" />
    <glyph glyph-name="o" unicode="o" horiz-adv-x="1374" 
d="M657 -23q-178 0 -317 64t-218 185t-79 280q0 123 49.5 232.5t137 189.5t213.5 127t272 47q178 0 317 -64t218 -185t79 -280q0 -123 -49.5 -232.5t-137 -189.5t-213.5 -127t-272 -47zM705 834q-156 0 -250.5 -94.5t-94.5 -225.5q0 -125 88 -197.5t220 -72.5q156 0 250 94
t94 225q0 125 -87.5 198t-219.5 73z" />
    <glyph glyph-name="p" unicode="p" horiz-adv-x="1445" 
d="M373 135l-70 -495h-328l201 1439h328l-17 -118q64 66 162.5 103.5t212.5 37.5q123 0 225 -40.5t171 -110t107 -164.5t38 -203q0 -119 -45 -228.5t-124.5 -193.5t-198.5 -134.5t-259 -50.5q-126 0 -230 42t-173 116zM768 838q-155 0 -254.5 -94.5t-99.5 -229.5
q0 -122 88 -197t227 -75q155 0 254.5 94t99.5 229q0 121 -88 197t-227 76z" />
    <glyph glyph-name="q" unicode="q" horiz-adv-x="1445" 
d="M1073 944l19 135h327l-200 -1439h-328l67 479q-64 -66 -162.5 -104t-211.5 -38q-122 0 -224.5 40.5t-171.5 110.5t-107 165t-38 203q0 119 45 228.5t124.5 193.5t198.5 134t259 50q126 0 229 -42t174 -116zM678 242q154 0 254 94t100 229q0 122 -88.5 197.5t-228.5 75.5
q-154 0 -254.5 -94.5t-100.5 -229.5q0 -121 89.5 -196.5t228.5 -75.5z" />
    <glyph glyph-name="r" unicode="r" horiz-adv-x="968" 
d="M1022 1073l-45 -317q-79 14 -129 14q-184 0 -296.5 -82.5t-135.5 -249.5l-64 -438h-327l151 1079h328l-27 -186q149 192 426 192q57 0 119 -12z" />
    <glyph glyph-name="s" unicode="s" horiz-adv-x="1218" 
d="M-55 201l180 209q77 -91 204 -140t281 -49q111 0 169.5 27t58.5 74q0 12 -4.5 21.5t-14.5 17.5t-21 13.5t-30 10.5t-36.5 9t-44.5 8t-49 6.5t-56 7t-60 8.5q-52 7 -91 14t-87.5 19.5t-83 27.5t-70.5 38t-58 51.5t-36 68t-14 86.5q0 164 147.5 268.5t415.5 104.5
q183 0 339 -56.5t237 -144.5l-187 -192q-71 70 -184 110.5t-238 40.5q-101 0 -151.5 -24.5t-50.5 -65.5q0 -44 89 -66q45 -11 181 -28q64 -8 112.5 -16.5t110 -24t104.5 -38t82.5 -54t59.5 -77t20 -101.5q0 -177 -157 -282.5t-424 -105.5q-202 0 -375 61t-268 163z" />
    <glyph glyph-name="t" unicode="t" horiz-adv-x="1079" 
d="M217 358l64 451h-246l39 270h245l41 299h324l-43 -299h449l-39 -270h-447l-55 -385q-10 -84 33 -122t141 -38q114 0 242 49l26 -264q-162 -65 -340 -65q-223 0 -341.5 98t-92.5 276z" />
    <glyph glyph-name="u" unicode="u" horiz-adv-x="1376" 
d="M1350 1079l-152 -1079h-328l21 129q-149 -152 -375 -152q-106 0 -193 35.5t-145 99t-83 157.5t-9 206l84 604h328l-74 -530q-20 -138 38.5 -214.5t184.5 -76.5q125 0 203.5 80t99.5 219l72 522h328z" />
    <glyph glyph-name="v" unicode="v" horiz-adv-x="1380" 
d="M770 0h-340l-362 1079h350l231 -731l451 731h364z" />
    <glyph glyph-name="w" unicode="w" horiz-adv-x="1925" 
d="M887 1079h291l120 -686l363 686h348l-608 -1079h-293l-135 684l-363 -684h-307l-235 1079h342l120 -686z" />
    <glyph glyph-name="x" unicode="x" horiz-adv-x="1409" 
d="M483 1079l246 -323l330 323h409l-555 -530l424 -549h-395l-258 342l-352 -342h-412l580 553l-408 526h391z" />
    <glyph glyph-name="y" unicode="y" horiz-adv-x="1378" 
d="M748 -51q-118 -189 -221.5 -259.5t-268.5 -70.5q-159 0 -278 51l83 250q83 -39 170 -39q57 0 94.5 24t73.5 81l29 47l-362 1046h354l231 -733l451 733h358z" />
    <glyph glyph-name="z" unicode="z" horiz-adv-x="1296" 
d="M1194 270l-37 -270h-1167l35 242l757 567h-671l39 270h1153l-35 -243l-760 -566h686z" />
    <glyph glyph-name="braceleft" unicode="{" horiz-adv-x="886" 
d="M39 524l37 262h96q109 0 129 132l33 235q50 358 438 358h232l-37 -249h-152q-89 0 -134.5 -43.5t-57.5 -131.5l-29 -196q-14 -98 -58 -155.5t-116 -88.5q62 -32 90.5 -88t15.5 -153l-26 -183q-11 -89 23.5 -131.5t129.5 -42.5h146l-37 -250h-193q-194 0 -296 98.5
t-80 260.5l34 235q9 70 -9.5 100.5t-65.5 30.5h-113z" />
    <glyph glyph-name="bar" unicode="|" horiz-adv-x="577" 
d="M27 -201l241 1712h318l-242 -1712h-317z" />
    <glyph glyph-name="braceright" unicode="}" horiz-adv-x="886" 
d="M880 786l-36 -262h-97q-109 0 -129 -131l-32 -235q-24 -173 -132 -266t-307 -93h-231l37 250h151q89 0 135 43t58 131l28 197q26 180 175 244q-62 32 -91 88t-16 153l27 182q11 89 -24 132t-130 43h-145l37 249h192q194 0 296.5 -98t80.5 -260l-35 -235q-9 -70 10 -101
t66 -31h112z" />
    <glyph glyph-name="asciitilde" unicode="~" horiz-adv-x="1062" 
d="M397 850q56 0 107 -28t92.5 -55.5t75.5 -27.5q74 0 112 113h242q-34 -184 -120 -300t-210 -116q-44 0 -86 18t-68.5 39.5t-58.5 39.5t-59 18q-76 0 -115 -115h-241q32 182 119 298t210 116z" />
    <glyph glyph-name="uni00A0" unicode="&#xa0;" horiz-adv-x="565" 
 />
    <glyph glyph-name="exclamdown" unicode="&#xa1;" horiz-adv-x="628" 
d="M506 999l-56 -999h-424l228 999h252zM637 1470l-49 -354h-383l49 354h383z" />
    <glyph glyph-name="cent" unicode="&#xa2;" horiz-adv-x="1398" 
d="M57 506q0 161 79.5 296.5t229 224t343.5 106.5l28 204h260l-30 -213q179 -30 296 -120.5t152 -215.5l-254 -126q-22 70 -81 122t-148 76l-86 -614q99 23 171.5 76.5t106.5 126.5l224 -144q-71 -137 -210.5 -220.5t-328.5 -102.5l-27 -189h-260l27 197q-226 37 -359 174.5
t-133 341.5zM354 528q0 -104 63 -175.5t169 -100.5l86 616q-146 -29 -232 -123t-86 -217z" />
    <glyph glyph-name="sterling" unicode="&#xa3;" horiz-adv-x="1804" 
d="M188 578l29 215h197q-52 109 -52 200q0 96 51.5 185.5t144.5 159.5t236.5 112.5t313.5 42.5q309 0 490.5 -129.5t181.5 -349.5q0 -60 -25 -152h-319q16 52 16 105q0 119 -98 180t-267 61q-186 0 -289.5 -75t-103.5 -181q0 -64 45 -159h510l-30 -215h-400q6 -34 6 -72
q0 -62 -14 -117q86 -40 131 -59t118 -38.5t136 -19.5q115 0 189.5 54t97.5 166h305q-29 -253 -177 -384t-386 -131q-80 0 -153.5 15.5t-142 47t-115 59t-112.5 71.5q-72 -89 -176.5 -141t-236.5 -52q-150 0 -239 67t-89 187q0 130 108.5 212.5t282.5 82.5q93 0 189 -26
q-10 46 -23 78h-330zM207 252q0 -30 28 -49t74 -19q124 0 193 111q-87 41 -162 41q-62 0 -97.5 -23.5t-35.5 -60.5z" />
    <glyph glyph-name="yen" unicode="&#xa5;" horiz-adv-x="1910" 
d="M201 346l30 213h562l14 105h-561l30 213h361l-510 593h410l464 -555l619 555h426l-678 -593h365l-31 -213h-563l-15 -105h564l-31 -213h-563l-47 -346h-332l47 346h-561z" />
    <glyph glyph-name="section" unicode="&#xa7;" horiz-adv-x="1644" 
d="M842 -25q-272 0 -511.5 59.5t-359.5 164.5l189 231q102 -92 287 -145.5t421 -53.5q169 0 244.5 32t75.5 83q0 71 -156 80l-586 35q-154 9 -241.5 79t-87.5 187q0 141 125 236q-49 61 -49 151q0 79 38.5 146t117.5 120t212.5 83t310.5 30q254 0 461.5 -51t325.5 -137
l-178 -220q-225 146 -635 146q-166 0 -237.5 -25.5t-71.5 -75.5q0 -58 129 -67l532 -29q199 -10 300 -82t101 -194q0 -141 -116 -240q53 -65 53 -156q0 -64 -24 -120.5t-77.5 -106t-133 -84.5t-196.5 -55.5t-263 -20.5zM1104 662q98 -6 174 -27q41 35 41 82q0 40 -40 59
t-138 25l-566 30q-70 3 -133 19q-49 -32 -49 -76q0 -74 146 -80z" />
    <glyph glyph-name="dieresis" unicode="&#xa8;" horiz-adv-x="1228" 
d="M291 1190l39 280h327l-36 -280h-330zM795 1190l39 280h327l-39 -280h-327z" />
    <glyph glyph-name="copyright" unicode="&#xa9;" horiz-adv-x="1835" 
d="M981 1493q141 0 267.5 -36t224.5 -101t170 -152.5t109.5 -195t37.5 -224.5q0 -166 -64.5 -314t-178.5 -257t-280 -172.5t-358 -63.5q-175 0 -327 55.5t-257 151t-165 226t-60 276.5q0 168 65 316.5t179 256.5t279.5 171t357.5 63zM909 139q206 0 369.5 81.5t255.5 227.5
t92 330q0 157 -79.5 282.5t-227 198t-338.5 72.5q-206 0 -369 -81.5t-254.5 -227.5t-91.5 -330q0 -117 46 -219t129 -176t204 -116t264 -42zM457 709q0 94 38 178.5t105.5 147t167 99.5t215.5 37q182 0 301 -76t148 -196l-246 -88q-15 61 -72 98t-143 37q-113 0 -184.5 -66
t-71.5 -161q0 -89 64 -140t163 -51q82 0 141 37.5t84 96.5l230 -95q-59 -123 -177.5 -193.5t-287.5 -70.5q-212 0 -343.5 113t-131.5 293z" />
    <glyph glyph-name="ordfeminine" unicode="&#xaa;" horiz-adv-x="1017" 
d="M420 680q-144 0 -233 61t-89 166q0 107 88.5 175t249.5 81l324 27l2 12q5 41 -35.5 65.5t-122.5 24.5q-157 0 -209 -96l-221 53q51 111 166.5 174.5t282.5 63.5q191 0 294.5 -78t83.5 -217l-38 -270q-5 -33 14 -43.5t76 0.5l-25 -183q-113 -23 -191 2t-104 84
q-123 -102 -313 -102zM731 989l6 41l-272 -26q-123 -12 -123 -76q0 -33 36 -51.5t101 -18.5q101 0 172.5 37.5t79.5 93.5zM37 377l29 201h938l-29 -201h-938z" />
    <glyph glyph-name="guillemotleft" unicode="&#xab;" horiz-adv-x="1216" 
d="M53 389l41 287l545 289l-45 -316l-229 -127l192 -129l-41 -293zM616 389l41 287l545 289l-45 -316l-229 -127l192 -129l-41 -293z" />
    <glyph glyph-name="registered" unicode="&#xae;" horiz-adv-x="1081" 
d="M639 1493q215 0 347 -121.5t132 -308.5q0 -102 -40.5 -193t-111 -156.5t-171 -104t-215.5 -38.5q-216 0 -348 122t-132 306q0 213 152.5 353.5t386.5 140.5zM584 674q184 0 303 112.5t119 272.5q0 145 -102 238.5t-269 93.5q-184 0 -304 -113.5t-120 -276.5
q0 -141 103 -234t270 -93zM850 807h-160l-59 147h-121l-21 -147h-145l66 465h282q85 0 131.5 -39t46.5 -103q0 -47 -27 -84.5t-77 -54.5zM649 1059q31 0 50.5 14.5t19.5 38.5q0 20 -14 31.5t-39 11.5h-129l-13 -96h125z" />
    <glyph glyph-name="macron" unicode="&#xaf;" horiz-adv-x="1228" 
d="M1085 1194h-757l34 244h756z" />
    <glyph glyph-name="degree" unicode="&#xb0;" horiz-adv-x="841" 
d="M487 844q-170 0 -267 85t-97 216q0 146 112.5 247t294.5 101q170 0 268.5 -85t98.5 -216q0 -146 -114 -247t-296 -101zM520 1307q-83 0 -134.5 -43t-51.5 -107q0 -59 45 -92t119 -33q83 0 134.5 43t51.5 107q0 59 -45 92t-119 33z" />
    <glyph glyph-name="twosuperior" unicode="&#xb2;" horiz-adv-x="933" 
d="M102 834l428 206q99 49 138 85.5t39 72.5q0 40 -37.5 63t-98.5 23q-81 0 -138.5 -43.5t-80.5 -122.5l-221 51q33 141 154.5 227.5t300.5 86.5q166 0 269 -71t103 -191q0 -174 -245 -289l-164 -78h379l-27 -197h-823z" />
    <glyph glyph-name="threesuperior" unicode="&#xb3;" horiz-adv-x="972" 
d="M545 645q-186 0 -314.5 62.5t-169.5 164.5l224 97q22 -60 91.5 -95.5t174.5 -35.5q79 0 122.5 22t43.5 60q0 61 -137 61h-181l27 176h172q72 0 108.5 18t36.5 50q0 30 -37 46.5t-102 16.5q-92 0 -161.5 -29t-106.5 -81l-189 104q61 97 182.5 149t284.5 52
q183 0 288.5 -63t105.5 -165q0 -67 -43 -117t-119 -73q64 -22 99.5 -65.5t35.5 -104.5q0 -106 -112 -178t-324 -72z" />
    <glyph glyph-name="acute" unicode="&#xb4;" horiz-adv-x="1228" 
d="M408 1167l245 303h426l-385 -303h-286z" />
    <glyph glyph-name="paragraph" unicode="&#xb6;" horiz-adv-x="1773" 
d="M1112 0l170 1210h-293l-86 -598h-303q-224 0 -354.5 110t-130.5 290q0 93 37 175.5t105.5 145.5t174.5 100t234 37h1210l-35 -260h-262l-170 -1210h-297z" />
    <glyph glyph-name="periodcentered" unicode="&#xb7;" horiz-adv-x="540" 
d="M66 424l51 367h377l-52 -367h-376z" />
    <glyph glyph-name="cedilla" unicode="&#xb8;" horiz-adv-x="1228" 
d="M809 -205q0 -79 -80.5 -128.5t-218.5 -49.5q-95 0 -173.5 23.5t-125.5 60.5l104 131q71 -57 181 -57q98 0 98 45q0 56 -188 53l67 152h145l-28 -68q101 -9 160 -52.5t59 -109.5z" />
    <glyph glyph-name="onesuperior" unicode="&#xb9;" horiz-adv-x="770" 
d="M47 657l29 203h254l43 295h-252l24 178l107 4q99 1 148.5 33t72.5 100h193l-86 -610h217l-27 -203h-723z" />
    <glyph glyph-name="ordmasculine" unicode="&#xba;" horiz-adv-x="1026" 
d="M571 680q-196 0 -320 104t-124 275q0 182 136 305t349 123q197 0 322 -104.5t125 -274.5q0 -182 -137 -305t-351 -123zM604 1284q-106 0 -169.5 -64t-63.5 -153q0 -85 59.5 -134.5t151.5 -49.5q106 0 169.5 64.5t63.5 154.5q0 84 -59.5 133t-151.5 49zM41 377l29 201h901
l-29 -201h-901z" />
    <glyph glyph-name="guillemotright" unicode="&#xbb;" horiz-adv-x="1216" 
d="M1161 676l-41 -287l-545 -289l45 316l230 127l-193 129l41 293zM598 676l-41 -287l-545 -289l45 316l230 127l-193 129l41 293z" />
    <glyph glyph-name="onequarter" unicode="&#xbc;" horiz-adv-x="2093" 
d="M47 657l29 203h254l43 295h-252l24 178l107 4q99 1 148.5 33t72.5 100h193l-86 -610h217l-27 -203h-723zM1628 1470h293l-1350 -1470h-292zM1808 0h-235l26 182h-512l27 180l485 451h324l-63 -446h178l-25 -185h-178zM1384 367h240l35 251z" />
    <glyph glyph-name="onehalf" unicode="&#xbd;" horiz-adv-x="2168" 
d="M47 657l29 203h254l43 295h-252l24 178l107 4q99 1 148.5 33t72.5 100h193l-86 -610h217l-27 -203h-723zM1628 1470h293l-1350 -1470h-292zM1245 176l428 207q99 48 137.5 85t38.5 73q0 41 -37 63.5t-98 22.5q-81 0 -138.5 -43.5t-80.5 -122.5l-221 51q33 141 154 227
t301 86q166 0 269 -71t103 -191q0 -87 -59 -158t-187 -131l-163 -77h379l-27 -197h-823z" />
    <glyph glyph-name="threequarters" unicode="&#xbe;" horiz-adv-x="2183" 
d="M545 645q-186 0 -314.5 62.5t-169.5 164.5l224 97q22 -60 91.5 -95.5t174.5 -35.5q79 0 122.5 22t43.5 60q0 61 -137 61h-181l27 176h172q72 0 108.5 18t36.5 50q0 30 -37 46.5t-102 16.5q-92 0 -161.5 -29t-106.5 -81l-189 104q61 97 182.5 149t284.5 52
q183 0 288.5 -63t105.5 -165q0 -67 -43 -117t-119 -73q64 -22 99.5 -65.5t35.5 -104.5q0 -106 -112 -178t-324 -72zM1716 1470h293l-1350 -1470h-292zM1898 0h-235l27 182h-512l26 180l486 451h323l-63 -446h178l-25 -185h-178zM1475 367h239l35 251z" />
    <glyph glyph-name="questiondown" unicode="&#xbf;" horiz-adv-x="1492" 
d="M702 285q168 0 275 59t141 164l350 -53q-59 -207 -260.5 -334t-531.5 -127q-199 0 -349 49.5t-234.5 148.5t-84.5 236q0 87 35.5 163t105.5 138t184 103.5t261 54.5l18 129h342l-49 -350q-528 0 -528 -209q0 -82 85 -127t240 -45zM1032 1487l-49 -354h-383l49 354h383z
" />
    <glyph glyph-name="Agrave" unicode="&#xc0;" horiz-adv-x="1822" 
d="M864 1470h387l510 -1470h-356l-107 315h-813l-202 -315h-375zM1018 1139l-350 -541h534zM1200 1550h-272l-342 320h432z" />
    <glyph glyph-name="Aacute" unicode="&#xc1;" horiz-adv-x="1822" 
d="M864 1470h387l510 -1470h-356l-107 315h-813l-202 -315h-375zM1018 1139l-350 -541h534zM887 1550l272 320h469l-434 -320h-307z" />
    <glyph glyph-name="Acircumflex" unicode="&#xc2;" horiz-adv-x="1822" 
d="M864 1470h387l510 -1470h-356l-107 315h-813l-202 -315h-375zM1018 1139l-350 -541h534zM1272 1870l250 -320h-248l-191 131l-227 -131h-270l338 320h348z" />
    <glyph glyph-name="Atilde" unicode="&#xc3;" horiz-adv-x="1822" 
d="M864 1470h387l510 -1470h-356l-107 315h-813l-202 -315h-375zM1018 1139l-350 -541h534zM889 1905q71 0 139.5 -26.5t124 -52.5t94.5 -26q40 0 65 25.5t40 79.5h217q-27 -163 -105 -258t-196 -95q-56 0 -112 16.5t-93 36t-79.5 36t-74.5 16.5q-78 0 -104 -105h-217
q25 161 104.5 257t196.5 96z" />
    <glyph glyph-name="Adieresis" unicode="&#xc4;" horiz-adv-x="1822" 
d="M864 1470h387l510 -1470h-356l-107 315h-813l-202 -315h-375zM1018 1139l-350 -541h534zM629 1550l41 289h327l-41 -289h-327zM1151 1550l41 289h328l-41 -289h-328z" />
    <glyph glyph-name="Aring" unicode="&#xc5;" horiz-adv-x="1822" 
d="M1073 1874q133 0 216 -73t83 -185q0 -124 -98 -209l487 -1407h-358l-107 315h-809l-202 -315h-377l917 1409q-77 74 -77 178q0 118 90.5 202.5t234.5 84.5zM1065 1708q-54 0 -89.5 -32.5t-35.5 -80.5q0 -43 32 -70.5t83 -27.5q55 0 91 32.5t36 80.5q0 43 -33 70.5
t-84 27.5zM1018 1135l-346 -537h528z" />
    <glyph glyph-name="AE" unicode="&#xc6;" horiz-adv-x="2938" 
d="M1401 1470h1608l-41 -292h-1090l-39 -283h973l-41 -289h-973l-45 -313h1092l-43 -293h-1426l45 315h-759l-320 -315h-432zM944 596h516l84 592z" />
    <glyph glyph-name="Ccedilla" unicode="&#xc7;" horiz-adv-x="1714" 
d="M70 684q0 162 68 309.5t187 258t293 176t375 65.5q296 0 504.5 -130t261.5 -339l-315 -145q-41 154 -166.5 235.5t-308.5 81.5q-242 0 -395.5 -142t-153.5 -352q0 -132 68 -230.5t179.5 -148t250.5 -49.5q168 0 297 79.5t198 224.5l285 -158q-108 -212 -319 -327.5
t-478 -115.5h-45l-8 -20q101 -9 160 -52.5t59 -109.5q0 -79 -80.5 -128.5t-218.5 -49.5q-95 0 -173.5 23.5t-125.5 60.5l104 131q71 -57 181 -57q98 0 98 45q0 56 -188 53l53 119q-292 48 -469.5 235t-177.5 457z" />
    <glyph glyph-name="Egrave" unicode="&#xc8;" horiz-adv-x="1601" 
d="M248 1470h1425l-41 -292h-1089l-39 -283h973l-41 -289h-973l-45 -313h1091l-43 -293h-1425zM1174 1550h-273l-342 320h432z" />
    <glyph glyph-name="Eacute" unicode="&#xc9;" horiz-adv-x="1601" 
d="M248 1470h1425l-41 -292h-1089l-39 -283h973l-41 -289h-973l-45 -313h1091l-43 -293h-1425zM780 1550l273 320h469l-435 -320h-307z" />
    <glyph glyph-name="Ecircumflex" unicode="&#xca;" horiz-adv-x="1601" 
d="M248 1470h1425l-41 -292h-1089l-39 -283h973l-41 -289h-973l-45 -313h1091l-43 -293h-1425zM1186 1870l250 -320h-248l-191 131l-227 -131h-270l338 320h348z" />
    <glyph glyph-name="Edieresis" unicode="&#xcb;" horiz-adv-x="1601" 
d="M248 1470h1425l-41 -292h-1089l-39 -283h973l-41 -289h-973l-45 -313h1091l-43 -293h-1425zM543 1550l41 289h327l-41 -289h-327zM1065 1550l41 289h328l-41 -289h-328z" />
    <glyph glyph-name="Igrave" unicode="&#xcc;" horiz-adv-x="575" 
d="M590 1470l-207 -1470h-342l207 1470h342zM573 1550h-272l-342 320h432z" />
    <glyph glyph-name="Iacute" unicode="&#xcd;" horiz-adv-x="575" 
d="M590 1470l-207 -1470h-342l207 1470h342zM270 1550l273 320h469l-434 -320h-308z" />
    <glyph glyph-name="Icircumflex" unicode="&#xce;" horiz-adv-x="575" 
d="M590 1470l-207 -1470h-342l207 1470h342zM647 1870l250 -320h-248l-190 131l-228 -131h-270l338 320h348z" />
    <glyph glyph-name="Idieresis" unicode="&#xcf;" horiz-adv-x="575" 
d="M590 1470l-207 -1470h-342l207 1470h342zM4 1550l41 289h328l-41 -289h-328zM526 1550l41 289h328l-41 -289h-328z" />
    <glyph glyph-name="Eth" unicode="&#xd0;" horiz-adv-x="1853" 
d="M123 0l86 606h-186l40 289h185l82 575h723q178 0 326.5 -53t248 -145t154.5 -217t55 -269q0 -125 -39 -241.5t-116.5 -215t-186 -172.5t-256 -115.5t-317.5 -41.5h-799zM498 289h438q250 0 403.5 138t153.5 341q0 179 -125.5 296.5t-345.5 117.5h-399l-41 -287h325
l-41 -289h-323z" />
    <glyph glyph-name="Ntilde" unicode="&#xd1;" horiz-adv-x="1783" 
d="M1798 1470l-207 -1470h-299l-774 1044l-145 -1044h-332l207 1470h342l737 -993l139 993h332zM862 1905q71 0 140 -26.5t124.5 -52.5t94.5 -26t64 25.5t40 79.5h217q-27 -163 -105 -258t-196 -95q-56 0 -112 16.5t-93 36t-79 36t-74 16.5q-79 0 -105 -105h-217
q25 161 104.5 257t196.5 96z" />
    <glyph glyph-name="Ograve" unicode="&#xd2;" horiz-adv-x="1832" 
d="M903 -23q-243 0 -433.5 92t-295 253t-104.5 362q0 160 66.5 307t183.5 258t290.5 177.5t374.5 66.5q243 0 433.5 -92t294.5 -253t104 -362q0 -160 -66 -307t-183 -258t-290.5 -177.5t-374.5 -66.5zM971 1196q-242 0 -395.5 -142.5t-153.5 -351.5q0 -192 137 -310
t359 -118q120 0 223.5 39t174 105.5t110.5 157t40 192.5q0 192 -137 310t-358 118zM1227 1550h-273l-342 320h432z" />
    <glyph glyph-name="Oacute" unicode="&#xd3;" horiz-adv-x="1832" 
d="M903 -23q-243 0 -433.5 92t-295 253t-104.5 362q0 160 66.5 307t183.5 258t290.5 177.5t374.5 66.5q243 0 433.5 -92t294.5 -253t104 -362q0 -160 -66 -307t-183 -258t-290.5 -177.5t-374.5 -66.5zM971 1196q-242 0 -395.5 -142.5t-153.5 -351.5q0 -192 137 -310
t359 -118q120 0 223.5 39t174 105.5t110.5 157t40 192.5q0 192 -137 310t-358 118zM877 1550l272 320h469l-434 -320h-307z" />
    <glyph glyph-name="Ocircumflex" unicode="&#xd4;" horiz-adv-x="1832" 
d="M903 -23q-243 0 -433.5 92t-295 253t-104.5 362q0 160 66.5 307t183.5 258t290.5 177.5t374.5 66.5q243 0 433.5 -92t294.5 -253t104 -362q0 -160 -66 -307t-183 -258t-290.5 -177.5t-374.5 -66.5zM971 1196q-242 0 -395.5 -142.5t-153.5 -351.5q0 -192 137 -310
t359 -118q120 0 223.5 39t174 105.5t110.5 157t40 192.5q0 192 -137 310t-358 118zM1278 1870l250 -320h-248l-190 131l-228 -131h-270l338 320h348z" />
    <glyph glyph-name="Otilde" unicode="&#xd5;" horiz-adv-x="1832" 
d="M903 -23q-243 0 -433.5 92t-295 253t-104.5 362q0 160 66.5 307t183.5 258t290.5 177.5t374.5 66.5q243 0 433.5 -92t294.5 -253t104 -362q0 -160 -66 -307t-183 -258t-290.5 -177.5t-374.5 -66.5zM971 1196q-242 0 -395.5 -142.5t-153.5 -351.5q0 -192 137 -310
t359 -118q120 0 223.5 39t174 105.5t110.5 157t40 192.5q0 192 -137 310t-358 118zM895 1905q71 0 139.5 -26.5t124 -52.5t94.5 -26q40 0 65 25.5t40 79.5h217q-27 -163 -105 -258t-196 -95q-56 0 -112 16.5t-93 36t-79.5 36t-74.5 16.5q-78 0 -104 -105h-217
q25 161 104.5 257t196.5 96z" />
    <glyph glyph-name="Odieresis" unicode="&#xd6;" horiz-adv-x="1832" 
d="M903 -23q-243 0 -433.5 92t-295 253t-104.5 362q0 160 66.5 307t183.5 258t290.5 177.5t374.5 66.5q243 0 433.5 -92t294.5 -253t104 -362q0 -160 -66 -307t-183 -258t-290.5 -177.5t-374.5 -66.5zM971 1196q-242 0 -395.5 -142.5t-153.5 -351.5q0 -192 137 -310
t359 -118q120 0 223.5 39t174 105.5t110.5 157t40 192.5q0 192 -137 310t-358 118zM635 1550l41 289h328l-41 -289h-328zM1157 1550l41 289h328l-41 -289h-328z" />
    <glyph glyph-name="multiply" unicode="&#xd7;" 
d="M1233 68l-410 475l-540 -475l-172 198l540 475l-407 476l213 184l409 -473l537 469l170 -199l-535 -469l408 -477z" />
    <glyph glyph-name="Oslash" unicode="&#xd8;" horiz-adv-x="1832" 
d="M903 -23q-304 0 -520 142l-213 -178l-168 190l193 162q-125 173 -125 391q0 160 66.5 307t183.5 258t290.5 177.5t374.5 66.5q311 0 533 -150l196 166l168 -192l-180 -154q115 -165 115 -377q0 -160 -66 -307t-183 -258t-290.5 -177.5t-374.5 -66.5zM971 1204
q-244 0 -399.5 -144t-155.5 -358q0 -114 51 -208l786 645q-118 65 -282 65zM1473 768q0 107 -46 197l-780 -639q117 -60 271 -60q245 0 400 144t155 358z" />
    <glyph glyph-name="Ugrave" unicode="&#xd9;" horiz-adv-x="1697" 
d="M825 -23q-377 0 -572 190t-149 511l111 792h342l-108 -765q-30 -204 68.5 -316.5t322.5 -112.5q208 0 316.5 105.5t139.5 323.5l109 765h342l-113 -792q-47 -345 -244.5 -523t-564.5 -178zM1176 1550h-273l-342 320h432z" />
    <glyph glyph-name="Uacute" unicode="&#xda;" horiz-adv-x="1697" 
d="M825 -23q-377 0 -572 190t-149 511l111 792h342l-108 -765q-30 -204 68.5 -316.5t322.5 -112.5q208 0 316.5 105.5t139.5 323.5l109 765h342l-113 -792q-47 -345 -244.5 -523t-564.5 -178zM801 1550l272 320h469l-434 -320h-307z" />
    <glyph glyph-name="Ucircumflex" unicode="&#xdb;" horiz-adv-x="1697" 
d="M825 -23q-377 0 -572 190t-149 511l111 792h342l-108 -765q-30 -204 68.5 -316.5t322.5 -112.5q208 0 316.5 105.5t139.5 323.5l109 765h342l-113 -792q-47 -345 -244.5 -523t-564.5 -178zM1210 1870l250 -320h-248l-190 131l-227 -131h-271l338 320h348z" />
    <glyph glyph-name="Udieresis" unicode="&#xdc;" horiz-adv-x="1697" 
d="M825 -23q-377 0 -572 190t-149 511l111 792h342l-108 -765q-30 -204 68.5 -316.5t322.5 -112.5q208 0 316.5 105.5t139.5 323.5l109 765h342l-113 -792q-47 -345 -244.5 -523t-564.5 -178zM567 1550l41 289h328l-41 -289h-328zM1090 1550l40 289h328l-41 -289h-327z" />
    <glyph glyph-name="Yacute" unicode="&#xdd;" horiz-adv-x="1775" 
d="M928 883l579 587h414l-852 -860l-86 -610h-342l86 610l-612 860h395zM846 1550l272 320h469l-434 -320h-307z" />
    <glyph glyph-name="Thorn" unicode="&#xde;" horiz-adv-x="1646" 
d="M422 274l-39 -274h-342l207 1470h342l-33 -235h559q240 0 384.5 -119.5t144.5 -324.5q0 -147 -71.5 -263.5t-211.5 -185t-328 -68.5h-612zM461 559h569q127 0 204 62.5t77 154.5q0 80 -61.5 127t-170.5 47h-563z" />
    <glyph glyph-name="germandbls" unicode="&#xdf;" horiz-adv-x="1509" 
d="M889 1493q136 0 239.5 -30.5t164.5 -83.5t90 -120.5t24 -146.5q-6 -104 -70.5 -181.5t-165.5 -117.5q148 -43 223 -138t68 -233q-12 -209 -181.5 -337t-426.5 -128q-136 0 -256 44t-184 118l151 232q55 -61 135 -96t172 -35q125 0 201.5 62.5t79.5 156.5q4 97 -82 144.5
t-252 47.5h-223l37 267h180q126 0 200 46.5t77 120.5q3 70 -58.5 110t-171.5 40q-161 0 -255.5 -86.5t-115.5 -228.5l-129 -920h-329l129 909q35 258 228 421t501 163z" />
    <glyph glyph-name="agrave" unicode="&#xe0;" horiz-adv-x="1378" 
d="M453 -23q-201 0 -324 85.5t-123 232.5q0 148 122.5 241t346.5 113l457 41l2 15q8 62 -53 100.5t-179 38.5q-116 0 -194 -39.5t-113 -106.5l-282 80q68 150 226 237t386 87q262 0 405.5 -108t116.5 -300l-55 -393q-6 -46 23 -60.5t108 1.5l-33 -242q-154 -30 -258.5 5.5
t-136.5 117.5q-176 -146 -442 -146zM893 412l8 61l-391 -41q-182 -18 -182 -113q0 -48 50.5 -75t143.5 -27q147 0 254 56t117 139zM946 1167h-258l-301 303h397z" />
    <glyph glyph-name="aacute" unicode="&#xe1;" horiz-adv-x="1378" 
d="M453 -23q-201 0 -324 85.5t-123 232.5q0 148 122.5 241t346.5 113l457 41l2 15q8 62 -53 100.5t-179 38.5q-116 0 -194 -39.5t-113 -106.5l-282 80q68 150 226 237t386 87q262 0 405.5 -108t116.5 -300l-55 -393q-6 -46 23 -60.5t108 1.5l-33 -242q-154 -30 -258.5 5.5
t-136.5 117.5q-176 -146 -442 -146zM893 412l8 61l-391 -41q-182 -18 -182 -113q0 -48 50.5 -75t143.5 -27q147 0 254 56t117 139zM594 1167l246 303h426l-385 -303h-287z" />
    <glyph glyph-name="acircumflex" unicode="&#xe2;" horiz-adv-x="1378" 
d="M453 -23q-201 0 -324 85.5t-123 232.5q0 148 122.5 241t346.5 113l457 41l2 15q8 62 -53 100.5t-179 38.5q-116 0 -194 -39.5t-113 -106.5l-282 80q68 150 226 237t386 87q262 0 405.5 -108t116.5 -300l-55 -393q-6 -46 23 -60.5t108 1.5l-33 -242q-154 -30 -258.5 5.5
t-136.5 117.5q-176 -146 -442 -146zM893 412l8 61l-391 -41q-182 -18 -182 -113q0 -48 50.5 -75t143.5 -27q147 0 254 56t117 139zM958 1470l226 -303h-236l-164 111l-196 -111h-260l311 303h319z" />
    <glyph glyph-name="atilde" unicode="&#xe3;" horiz-adv-x="1378" 
d="M453 -23q-201 0 -324 85.5t-123 232.5q0 148 122.5 241t346.5 113l457 41l2 15q8 62 -53 100.5t-179 38.5q-116 0 -194 -39.5t-113 -106.5l-282 80q68 150 226 237t386 87q262 0 405.5 -108t116.5 -300l-55 -393q-6 -46 23 -60.5t108 1.5l-33 -242q-154 -30 -258.5 5.5
t-136.5 117.5q-176 -146 -442 -146zM893 412l8 61l-391 -41q-182 -18 -182 -113q0 -48 50.5 -75t143.5 -27q147 0 254 56t117 139zM621 1489q47 0 90.5 -15.5t71.5 -33.5t63 -33.5t67 -15.5q66 0 93 98h198q-26 -149 -97.5 -235.5t-182.5 -86.5q-47 0 -91.5 15t-73 33.5
t-63.5 33.5t-65 15q-65 0 -94 -97h-197q24 147 97 234.5t184 87.5z" />
    <glyph glyph-name="adieresis" unicode="&#xe4;" horiz-adv-x="1378" 
d="M453 -23q-201 0 -324 85.5t-123 232.5q0 148 122.5 241t346.5 113l457 41l2 15q8 62 -53 100.5t-179 38.5q-116 0 -194 -39.5t-113 -106.5l-282 80q68 150 226 237t386 87q262 0 405.5 -108t116.5 -300l-55 -393q-6 -46 23 -60.5t108 1.5l-33 -242q-154 -30 -258.5 5.5
t-136.5 117.5q-176 -146 -442 -146zM893 412l8 61l-391 -41q-182 -18 -182 -113q0 -48 50.5 -75t143.5 -27q147 0 254 56t117 139zM352 1190l39 280h328l-37 -280h-330zM856 1190l39 280h328l-39 -280h-328z" />
    <glyph glyph-name="aring" unicode="&#xe5;" horiz-adv-x="1378" 
d="M453 -23q-201 0 -324 85.5t-123 232.5q0 148 122.5 241t346.5 113l457 41l2 15q8 62 -53 100.5t-179 38.5q-116 0 -194 -39.5t-113 -106.5l-282 80q68 150 226 237t386 87q262 0 405.5 -108t116.5 -300l-55 -393q-6 -46 23 -60.5t108 1.5l-33 -242q-154 -30 -258.5 5.5
t-136.5 117.5q-176 -146 -442 -146zM893 412l8 61l-391 -41q-182 -18 -182 -113q0 -48 50.5 -75t143.5 -27q147 0 254 56t117 139zM803 1599q100 0 164.5 -62.5t64.5 -150.5q0 -96 -72.5 -166.5t-179.5 -70.5q-101 0 -165 61.5t-64 151.5q0 95 73 166t179 71zM784 1288
q40 0 66.5 27t26.5 65q0 34 -22.5 57t-57.5 23q-39 0 -64.5 -27.5t-25.5 -64.5q0 -35 21.5 -57.5t55.5 -22.5z" />
    <glyph glyph-name="ae" unicode="&#xe6;" horiz-adv-x="2209" 
d="M1518 -23q-159 0 -289 55.5t-213 153.5q-194 -209 -545 -209q-211 0 -338 85t-127 233q0 154 127.5 255t355.5 101h437l8 60q9 60 -51 96.5t-178 36.5q-116 0 -194.5 -39.5t-115.5 -106.5l-282 80q68 150 226 237t386 87q290 0 428 -129q178 129 426 129
q267 0 429.5 -143.5t162.5 -362.5q0 -56 -17 -145h-935q23 -100 108.5 -157.5t204.5 -57.5q103 0 186 44t125 123l279 -112q-79 -149 -239 -231.5t-365 -82.5zM1563 850q-109 0 -196 -54.5t-126 -144.5h610q-8 84 -85 141.5t-203 57.5zM539 217q140 0 242 56.5t114 140.5
l4 37h-381q-96 0 -143 -34.5t-47 -86.5q0 -54 55 -83.5t156 -29.5z" />
    <glyph glyph-name="ccedilla" unicode="&#xe7;" horiz-adv-x="1290" 
d="M43 504q0 122 49 231.5t135.5 190.5t213.5 128.5t276 47.5q229 0 383.5 -105t193.5 -262l-295 -117q-18 92 -99.5 152.5t-199.5 60.5q-150 0 -245 -92.5t-95 -224.5q0 -125 87.5 -197.5t218.5 -72.5q116 0 198 56t117 146l268 -124q-68 -161 -221.5 -253t-374.5 -92h-10
l-8 -20q101 -9 160 -52.5t59 -109.5q0 -79 -80.5 -128.5t-218.5 -49.5q-95 0 -173.5 23.5t-125.5 60.5l104 131q71 -57 181 -57q98 0 98 45q0 56 -188 53l53 119q-211 38 -336 176.5t-125 335.5z" />
    <glyph glyph-name="egrave" unicode="&#xe8;" horiz-adv-x="1347" 
d="M670 236q103 0 186 44t125 123l279 -112q-79 -149 -239 -231.5t-366 -82.5q-175 0 -315 67.5t-218.5 188t-78.5 271.5q0 122 49.5 231.5t137 190.5t214.5 128.5t273 47.5q267 0 429.5 -143.5t162.5 -362.5q0 -67 -15 -141h-936q21 -101 107 -160t205 -59zM700 848
q-108 0 -192.5 -52t-124.5 -141h608q-10 81 -88 137t-203 56zM952 1167h-258l-301 303h398z" />
    <glyph glyph-name="eacute" unicode="&#xe9;" horiz-adv-x="1347" 
d="M670 236q103 0 186 44t125 123l279 -112q-79 -149 -239 -231.5t-366 -82.5q-175 0 -315 67.5t-218.5 188t-78.5 271.5q0 122 49.5 231.5t137 190.5t214.5 128.5t273 47.5q267 0 429.5 -143.5t162.5 -362.5q0 -67 -15 -141h-936q21 -101 107 -160t205 -59zM700 848
q-108 0 -192.5 -52t-124.5 -141h608q-10 81 -88 137t-203 56zM614 1167l246 303h426l-385 -303h-287z" />
    <glyph glyph-name="ecircumflex" unicode="&#xea;" horiz-adv-x="1347" 
d="M670 236q103 0 186 44t125 123l279 -112q-79 -149 -239 -231.5t-366 -82.5q-175 0 -315 67.5t-218.5 188t-78.5 271.5q0 122 49.5 231.5t137 190.5t214.5 128.5t273 47.5q267 0 429.5 -143.5t162.5 -362.5q0 -67 -15 -141h-936q21 -101 107 -160t205 -59zM700 848
q-108 0 -192.5 -52t-124.5 -141h608q-10 81 -88 137t-203 56zM975 1470l225 -303h-235l-164 111l-197 -111h-260l311 303h320z" />
    <glyph glyph-name="edieresis" unicode="&#xeb;" horiz-adv-x="1347" 
d="M670 236q103 0 186 44t125 123l279 -112q-79 -149 -239 -231.5t-366 -82.5q-175 0 -315 67.5t-218.5 188t-78.5 271.5q0 122 49.5 231.5t137 190.5t214.5 128.5t273 47.5q267 0 429.5 -143.5t162.5 -362.5q0 -67 -15 -141h-936q21 -101 107 -160t205 -59zM700 848
q-108 0 -192.5 -52t-124.5 -141h608q-10 81 -88 137t-203 56zM356 1190l39 280h328l-37 -280h-330zM860 1190l39 280h328l-39 -280h-328z" />
    <glyph glyph-name="igrave" unicode="&#xec;" horiz-adv-x="530" 
d="M504 1079l-152 -1079h-327l151 1079h328zM496 1167h-258l-301 303h397z" />
    <glyph glyph-name="iacute" unicode="&#xed;" horiz-adv-x="530" 
d="M504 1079l-152 -1079h-327l151 1079h328zM203 1167l246 303h425l-385 -303h-286z" />
    <glyph glyph-name="icircumflex" unicode="&#xee;" horiz-adv-x="530" 
d="M504 1079l-152 -1079h-327l151 1079h328zM555 1470l225 -303h-235l-164 111l-197 -111h-260l312 303h319z" />
    <glyph glyph-name="idieresis" unicode="&#xef;" horiz-adv-x="530" 
d="M504 1079l-152 -1079h-327l151 1079h328zM-59 1190l39 280h327l-37 -280h-329zM444 1190l39 280h328l-39 -280h-328z" />
    <glyph glyph-name="eth" unicode="&#xf0;" horiz-adv-x="1370" 
d="M1335 647q0 -199 -86.5 -351.5t-240.5 -235.5t-351 -83q-178 0 -317 64t-218 185t-79 280q0 118 48 224t132 183.5t205 122.5t260 45q150 0 268 -59q-38 74 -127 160l-501 -103l30 224l246 51q-66 42 -166 90l336 47q81 -40 135 -76l408 84l-31 -223l-174 -37
q108 -125 165.5 -277.5t57.5 -314.5zM705 834q-156 0 -250.5 -94.5t-94.5 -225.5q0 -125 88 -197.5t220 -72.5q156 0 250 94t94 225q0 125 -87.5 198t-219.5 73z" />
    <glyph glyph-name="ntilde" unicode="&#xf1;" horiz-adv-x="1386" 
d="M25 0l151 1079h328l-19 -129q149 152 379 152q108 0 196 -35.5t146.5 -99t84 -157.5t9.5 -206l-83 -604h-328l72 518q19 137 -42 215t-188 78t-206.5 -78.5t-98.5 -216.5l-74 -516h-327zM657 1489q47 0 91 -15.5t72 -33.5t63 -33.5t67 -15.5q65 0 92 98h199
q-26 -149 -97.5 -235.5t-182.5 -86.5q-47 0 -91.5 15t-73 33.5t-63.5 33.5t-65 15q-66 0 -95 -97h-196q24 147 96.5 234.5t183.5 87.5z" />
    <glyph glyph-name="ograve" unicode="&#xf2;" horiz-adv-x="1374" 
d="M657 -23q-178 0 -317 64t-218 185t-79 280q0 123 49.5 232.5t137 189.5t213.5 127t272 47q178 0 317 -64t218 -185t79 -280q0 -123 -49.5 -232.5t-137 -189.5t-213.5 -127t-272 -47zM705 834q-156 0 -250.5 -94.5t-94.5 -225.5q0 -125 88 -197.5t220 -72.5q156 0 250 94
t94 225q0 125 -87.5 198t-219.5 73zM934 1169h-258l-301 304h397z" />
    <glyph glyph-name="oacute" unicode="&#xf3;" horiz-adv-x="1374" 
d="M657 -23q-178 0 -317 64t-218 185t-79 280q0 123 49.5 232.5t137 189.5t213.5 127t272 47q178 0 317 -64t218 -185t79 -280q0 -123 -49.5 -232.5t-137 -189.5t-213.5 -127t-272 -47zM705 834q-156 0 -250.5 -94.5t-94.5 -225.5q0 -125 88 -197.5t220 -72.5q156 0 250 94
t94 225q0 125 -87.5 198t-219.5 73zM614 1167l246 303h426l-385 -303h-287z" />
    <glyph glyph-name="ocircumflex" unicode="&#xf4;" horiz-adv-x="1374" 
d="M657 -23q-178 0 -317 64t-218 185t-79 280q0 123 49.5 232.5t137 189.5t213.5 127t272 47q178 0 317 -64t218 -185t79 -280q0 -123 -49.5 -232.5t-137 -189.5t-213.5 -127t-272 -47zM705 834q-156 0 -250.5 -94.5t-94.5 -225.5q0 -125 88 -197.5t220 -72.5q156 0 250 94
t94 225q0 125 -87.5 198t-219.5 73zM977 1470l225 -303h-235l-164 111l-197 -111h-260l311 303h320z" />
    <glyph glyph-name="otilde" unicode="&#xf5;" horiz-adv-x="1374" 
d="M657 -23q-178 0 -317 64t-218 185t-79 280q0 123 49.5 232.5t137 189.5t213.5 127t272 47q178 0 317 -64t218 -185t79 -280q0 -123 -49.5 -232.5t-137 -189.5t-213.5 -127t-272 -47zM705 834q-156 0 -250.5 -94.5t-94.5 -225.5q0 -125 88 -197.5t220 -72.5q156 0 250 94
t94 225q0 125 -87.5 198t-219.5 73zM647 1489q47 0 91 -15.5t72 -33.5t63 -33.5t67 -15.5q65 0 92 98h199q-26 -149 -98 -235.5t-183 -86.5q-47 0 -91.5 15t-73 33.5t-63.5 33.5t-65 15q-65 0 -94 -97h-196q24 147 96.5 234.5t183.5 87.5z" />
    <glyph glyph-name="odieresis" unicode="&#xf6;" horiz-adv-x="1374" 
d="M657 -23q-178 0 -317 64t-218 185t-79 280q0 123 49.5 232.5t137 189.5t213.5 127t272 47q178 0 317 -64t218 -185t79 -280q0 -123 -49.5 -232.5t-137 -189.5t-213.5 -127t-272 -47zM705 834q-156 0 -250.5 -94.5t-94.5 -225.5q0 -125 88 -197.5t220 -72.5q156 0 250 94
t94 225q0 125 -87.5 198t-219.5 73zM362 1190l39 280h328l-37 -280h-330zM866 1190l39 280h328l-39 -280h-328z" />
    <glyph glyph-name="divide" unicode="&#xf7;" 
d="M721 1047l45 321h336l-45 -321h-336zM127 590l37 276h1401l-39 -276h-1399zM586 88l47 324h334l-45 -324h-336z" />
    <glyph glyph-name="oslash" unicode="&#xf8;" horiz-adv-x="1372" 
d="M133 -66l-143 162l139 121q-86 125 -86 289q0 123 49.5 232.5t137 189.5t213.5 127t272 47q212 0 368 -92l156 135l145 -160l-141 -123q86 -125 86 -289q0 -123 -49.5 -232.5t-137 -189.5t-213.5 -127t-272 -47q-209 0 -370 93zM705 846q-160 0 -256.5 -98t-96.5 -234
q0 -59 23 -113l481 416q-72 29 -151 29zM1020 563q0 53 -21 111l-481 -412q69 -29 150 -29q107 0 189 47t122.5 121t40.5 162z" />
    <glyph glyph-name="ugrave" unicode="&#xf9;" horiz-adv-x="1376" 
d="M1350 1079l-152 -1079h-328l21 129q-149 -152 -375 -152q-106 0 -193 35.5t-145 99t-83 157.5t-9 206l84 604h328l-74 -530q-20 -138 38.5 -214.5t184.5 -76.5q125 0 203.5 80t99.5 219l72 522h328zM934 1167h-258l-301 303h397z" />
    <glyph glyph-name="uacute" unicode="&#xfa;" horiz-adv-x="1376" 
d="M1350 1079l-152 -1079h-328l21 129q-149 -152 -375 -152q-106 0 -193 35.5t-145 99t-83 157.5t-9 206l84 604h328l-74 -530q-20 -138 38.5 -214.5t184.5 -76.5q125 0 203.5 80t99.5 219l72 522h328zM608 1167l246 303h426l-385 -303h-287z" />
    <glyph glyph-name="ucircumflex" unicode="&#xfb;" horiz-adv-x="1376" 
d="M1350 1079l-152 -1079h-328l21 129q-149 -152 -375 -152q-106 0 -193 35.5t-145 99t-83 157.5t-9 206l84 604h328l-74 -530q-20 -138 38.5 -214.5t184.5 -76.5q125 0 203.5 80t99.5 219l72 522h328zM977 1470l225 -303h-235l-164 111l-197 -111h-260l311 303h320z" />
    <glyph glyph-name="udieresis" unicode="&#xfc;" horiz-adv-x="1376" 
d="M1350 1079l-152 -1079h-328l21 129q-149 -152 -375 -152q-106 0 -193 35.5t-145 99t-83 157.5t-9 206l84 604h328l-74 -530q-20 -138 38.5 -214.5t184.5 -76.5q125 0 203.5 80t99.5 219l72 522h328zM362 1190l39 280h328l-37 -280h-330zM866 1190l39 280h328l-39 -280
h-328z" />
    <glyph glyph-name="yacute" unicode="&#xfd;" horiz-adv-x="1378" 
d="M748 -51q-118 -189 -221.5 -259.5t-268.5 -70.5q-159 0 -278 51l83 250q83 -39 170 -39q57 0 94.5 24t73.5 81l29 47l-362 1046h354l231 -733l451 733h358zM616 1167l246 303h426l-385 -303h-287z" />
    <glyph glyph-name="thorn" unicode="&#xfe;" horiz-adv-x="1445" 
d="M373 135l-70 -495h-328l256 1830h328l-72 -509q64 66 162.5 103.5t212.5 37.5q123 0 225 -40.5t171 -110t107 -164.5t38 -203q0 -119 -45 -228.5t-124.5 -193.5t-198.5 -134.5t-259 -50.5q-126 0 -230 42t-173 116zM768 838q-155 0 -254.5 -94.5t-99.5 -229.5
q0 -122 88 -197t227 -75q155 0 254.5 94t99.5 229q0 121 -88 197t-227 76z" />
    <glyph glyph-name="ydieresis" unicode="&#xff;" horiz-adv-x="1378" 
d="M748 -51q-118 -189 -221.5 -259.5t-268.5 -70.5q-159 0 -278 51l83 250q83 -39 170 -39q57 0 94.5 24t73.5 81l29 47l-362 1046h354l231 -733l451 733h358zM367 1190l39 280h327l-37 -280h-329zM870 1190l39 280h328l-39 -280h-328z" />
    <glyph glyph-name="Amacron" unicode="&#x100;" horiz-adv-x="1822" 
d="M864 1470h387l510 -1470h-356l-107 315h-813l-202 -315h-375zM1018 1139l-350 -541h534zM1464 1563h-817l35 247h815z" />
    <glyph glyph-name="amacron" unicode="&#x101;" horiz-adv-x="1378" 
d="M453 -23q-201 0 -324 85.5t-123 232.5q0 148 122.5 241t346.5 113l457 41l2 15q8 62 -53 100.5t-179 38.5q-116 0 -194 -39.5t-113 -106.5l-282 80q68 150 226 237t386 87q262 0 405.5 -108t116.5 -300l-55 -393q-6 -46 23 -60.5t108 1.5l-33 -242q-154 -30 -258.5 5.5
t-136.5 117.5q-176 -146 -442 -146zM893 412l8 61l-391 -41q-182 -18 -182 -113q0 -48 50.5 -75t143.5 -27q147 0 254 56t117 139zM1133 1194h-758l35 244h755z" />
    <glyph glyph-name="Abreve" unicode="&#x102;" horiz-adv-x="1822" 
d="M864 1470h387l510 -1470h-356l-107 315h-813l-202 -315h-375zM1018 1139l-350 -541h534zM1092 1757q79 0 130.5 31t57.5 82h238q-19 -152 -132.5 -241t-308.5 -89q-197 0 -304 92t-93 238h235q-6 -50 45.5 -81.5t131.5 -31.5z" />
    <glyph glyph-name="abreve" unicode="&#x103;" horiz-adv-x="1378" 
d="M453 -23q-201 0 -324 85.5t-123 232.5q0 148 122.5 241t346.5 113l457 41l2 15q8 62 -53 100.5t-179 38.5q-116 0 -194 -39.5t-113 -106.5l-282 80q68 150 226 237t386 87q262 0 405.5 -108t116.5 -300l-55 -393q-6 -46 23 -60.5t108 1.5l-33 -242q-154 -30 -258.5 5.5
t-136.5 117.5q-176 -146 -442 -146zM893 412l8 61l-391 -41q-182 -18 -182 -113q0 -48 50.5 -75t143.5 -27q147 0 254 56t117 139zM813 1368q153 0 180 102h221q-21 -149 -126 -228.5t-291 -78.5q-195 0 -291.5 82t-77.5 225h221q0 -48 41.5 -75t122.5 -27z" />
    <glyph glyph-name="Aogonek" unicode="&#x104;" horiz-adv-x="1822" 
d="M1120 -193q0 77 64.5 144.5t197.5 111.5l-84 252h-813l-202 -315h-375l956 1470h387l510 -1470h-174q-135 -32 -190.5 -62.5t-55.5 -64.5q0 -28 29.5 -43.5t83.5 -15.5q52 0 109 16l-27 -186q-78 -19 -141 -19q-125 0 -200 50t-75 132zM1018 1139l-350 -541h534z" />
    <glyph glyph-name="aogonek" unicode="&#x105;" horiz-adv-x="1378" 
d="M453 -23q-201 0 -324 85.5t-123 232.5q0 148 122.5 241t346.5 113l457 41l2 15q8 62 -53 100.5t-179 38.5q-116 0 -194 -39.5t-113 -106.5l-282 80q68 150 226 237t386 87q262 0 405.5 -108t116.5 -300l-55 -393q-6 -46 23 -60.5t108 1.5l-33 -242q-135 -32 -190.5 -62.5
t-55.5 -64.5q0 -28 29.5 -43.5t83.5 -15.5q52 0 109 16l-27 -186q-78 -19 -141 -19q-125 0 -200 50t-75 132q0 132 164 216q-68 38 -92 100q-176 -146 -442 -146zM893 412l8 61l-391 -41q-182 -18 -182 -113q0 -48 50.5 -75t143.5 -27q147 0 254 56t117 139z" />
    <glyph glyph-name="Cacute" unicode="&#x106;" horiz-adv-x="1714" 
d="M70 684q0 162 68 309.5t187 258t293 176t375 65.5q296 0 504.5 -130t261.5 -339l-315 -145q-41 154 -166.5 235.5t-308.5 81.5q-242 0 -395.5 -142t-153.5 -352q0 -132 68 -230.5t179.5 -148t250.5 -49.5q168 0 297 79.5t198 224.5l285 -158q-108 -212 -319 -327.5
t-478 -115.5q-240 0 -429.5 89t-295.5 250.5t-106 367.5zM883 1550l272 320h469l-434 -320h-307z" />
    <glyph glyph-name="cacute" unicode="&#x107;" horiz-adv-x="1290" 
d="M43 504q0 122 49 231.5t135.5 190.5t213.5 128.5t276 47.5q229 0 383.5 -105t193.5 -262l-295 -117q-18 92 -99.5 152.5t-199.5 60.5q-150 0 -245 -92.5t-95 -224.5q0 -125 87.5 -197.5t218.5 -72.5q116 0 198 56t117 146l268 -124q-68 -161 -221.5 -253t-374.5 -92
q-271 0 -440.5 147.5t-169.5 379.5zM604 1167l246 303h426l-385 -303h-287z" />
    <glyph glyph-name="Ccircumflex" unicode="&#x108;" horiz-adv-x="1714" 
d="M70 684q0 162 68 309.5t187 258t293 176t375 65.5q296 0 504.5 -130t261.5 -339l-315 -145q-41 154 -166.5 235.5t-308.5 81.5q-242 0 -395.5 -142t-153.5 -352q0 -132 68 -230.5t179.5 -148t250.5 -49.5q168 0 297 79.5t198 224.5l285 -158q-108 -212 -319 -327.5
t-478 -115.5q-240 0 -429.5 89t-295.5 250.5t-106 367.5zM1272 1870l250 -320h-248l-191 131l-227 -131h-270l338 320h348z" />
    <glyph glyph-name="ccircumflex" unicode="&#x109;" horiz-adv-x="1290" 
d="M43 504q0 122 49 231.5t135.5 190.5t213.5 128.5t276 47.5q229 0 383.5 -105t193.5 -262l-295 -117q-18 92 -99.5 152.5t-199.5 60.5q-150 0 -245 -92.5t-95 -224.5q0 -125 87.5 -197.5t218.5 -72.5q116 0 198 56t117 146l268 -124q-68 -161 -221.5 -253t-374.5 -92
q-271 0 -440.5 147.5t-169.5 379.5zM973 1470l225 -303h-235l-164 111l-197 -111h-260l311 303h320z" />
    <glyph glyph-name="Cdotaccent" unicode="&#x10a;" horiz-adv-x="1714" 
d="M70 684q0 162 68 309.5t187 258t293 176t375 65.5q296 0 504.5 -130t261.5 -339l-315 -145q-41 154 -166.5 235.5t-308.5 81.5q-242 0 -395.5 -142t-153.5 -352q0 -132 68 -230.5t179.5 -148t250.5 -49.5q168 0 297 79.5t198 224.5l285 -158q-108 -212 -319 -327.5
t-478 -115.5q-240 0 -429.5 89t-295.5 250.5t-106 367.5zM868 1550l41 289h351l-41 -289h-351z" />
    <glyph glyph-name="cdotaccent" unicode="&#x10b;" horiz-adv-x="1290" 
d="M43 504q0 122 49 231.5t135.5 190.5t213.5 128.5t276 47.5q229 0 383.5 -105t193.5 -262l-295 -117q-18 92 -99.5 152.5t-199.5 60.5q-150 0 -245 -92.5t-95 -224.5q0 -125 87.5 -197.5t218.5 -72.5q116 0 198 56t117 146l268 -124q-68 -161 -221.5 -253t-374.5 -92
q-271 0 -440.5 147.5t-169.5 379.5zM608 1190l39 280h332l-39 -280h-332z" />
    <glyph glyph-name="Ccaron" unicode="&#x10c;" horiz-adv-x="1714" 
d="M70 684q0 162 68 309.5t187 258t293 176t375 65.5q296 0 504.5 -130t261.5 -339l-315 -145q-41 154 -166.5 235.5t-308.5 81.5q-242 0 -395.5 -142t-153.5 -352q0 -132 68 -230.5t179.5 -148t250.5 -49.5q168 0 297 79.5t198 224.5l285 -158q-108 -212 -319 -327.5
t-478 -115.5q-240 0 -429.5 89t-295.5 250.5t-106 367.5zM1229 1552h-350l-248 318h248l190 -131l227 131h269z" />
    <glyph glyph-name="ccaron" unicode="&#x10d;" horiz-adv-x="1290" 
d="M43 504q0 122 49 231.5t135.5 190.5t213.5 128.5t276 47.5q229 0 383.5 -105t193.5 -262l-295 -117q-18 92 -99.5 152.5t-199.5 60.5q-150 0 -245 -92.5t-95 -224.5q0 -125 87.5 -197.5t218.5 -72.5q116 0 198 56t117 146l268 -124q-68 -161 -221.5 -253t-374.5 -92
q-271 0 -440.5 147.5t-169.5 379.5zM934 1167h-322l-225 303h238l161 -110l197 110h260z" />
    <glyph glyph-name="Dcaron" unicode="&#x10e;" horiz-adv-x="1771" 
d="M41 0l207 1470h723q178 0 326.5 -53t248 -145t154.5 -217t55 -269q0 -125 -39 -241.5t-116.5 -215t-186 -172.5t-256 -115.5t-317.5 -41.5h-799zM416 289h438q250 0 403.5 138t153.5 341q0 179 -125.5 296.5t-345.5 117.5h-399zM1128 1552h-350l-248 318h248l191 -131
l227 131h268z" />
    <glyph glyph-name="dcaron" unicode="&#x10f;" horiz-adv-x="1443" 
d="M1073 944l74 526h328l-207 -1470h-328l18 119q-64 -66 -162.5 -104t-211.5 -38q-122 0 -224.5 40.5t-171.5 110.5t-107 165t-38 203q0 119 45 228.5t124.5 193.5t198.5 134t259 50q126 0 229 -42t174 -116zM678 242q154 0 254 94t100 229q0 122 -88.5 197.5t-228.5 75.5
q-154 0 -254.5 -94.5t-100.5 -229.5q0 -121 89.5 -196.5t228.5 -75.5zM1513 1126l97 344h350l-225 -344h-222z" />
    <glyph glyph-name="Dcroat" unicode="&#x110;" horiz-adv-x="1853" 
d="M123 0l86 606h-186l40 289h185l82 575h723q178 0 326.5 -53t248 -145t154.5 -217t55 -269q0 -125 -39 -241.5t-116.5 -215t-186 -172.5t-256 -115.5t-317.5 -41.5h-799zM498 289h438q250 0 403.5 138t153.5 341q0 179 -125.5 296.5t-345.5 117.5h-399l-41 -287h325
l-41 -289h-323z" />
    <glyph glyph-name="dcroat" unicode="&#x111;" horiz-adv-x="1511" 
d="M1073 944l29 209h-279l31 219h279l14 98h328l-15 -98h144l-31 -219h-143l-162 -1153h-328l18 119q-64 -66 -162.5 -104t-211.5 -38q-122 0 -224.5 40.5t-171.5 110.5t-107 165t-38 203q0 119 45 228.5t124.5 193.5t198.5 134t259 50q126 0 229 -42t174 -116zM678 242
q154 0 254 94t100 229q0 122 -88.5 197.5t-228.5 75.5q-154 0 -254.5 -94.5t-100.5 -229.5q0 -121 89.5 -196.5t228.5 -75.5z" />
    <glyph glyph-name="Emacron" unicode="&#x112;" horiz-adv-x="1601" 
d="M248 1470h1425l-41 -292h-1089l-39 -283h973l-41 -289h-973l-45 -313h1091l-43 -293h-1425zM1378 1563h-817l35 247h815z" />
    <glyph glyph-name="emacron" unicode="&#x113;" horiz-adv-x="1347" 
d="M670 236q103 0 186 44t125 123l279 -112q-79 -149 -239 -231.5t-366 -82.5q-175 0 -315 67.5t-218.5 188t-78.5 271.5q0 122 49.5 231.5t137 190.5t214.5 128.5t273 47.5q267 0 429.5 -143.5t162.5 -362.5q0 -67 -15 -141h-936q21 -101 107 -160t205 -59zM700 848
q-108 0 -192.5 -52t-124.5 -141h608q-10 81 -88 137t-203 56zM1151 1194h-758l35 244h756z" />
    <glyph glyph-name="Ebreve" unicode="&#x114;" horiz-adv-x="1601" 
d="M248 1470h1425l-41 -292h-1089l-39 -283h973l-41 -289h-973l-45 -313h1091l-43 -293h-1425zM1006 1757q79 0 130.5 31t57.5 82h238q-19 -152 -132.5 -241t-308.5 -89q-197 0 -304 92t-93 238h235q-6 -50 45.5 -81.5t131.5 -31.5z" />
    <glyph glyph-name="ebreve" unicode="&#x115;" horiz-adv-x="1347" 
d="M670 236q103 0 186 44t125 123l279 -112q-79 -149 -239 -231.5t-366 -82.5q-175 0 -315 67.5t-218.5 188t-78.5 271.5q0 122 49.5 231.5t137 190.5t214.5 128.5t273 47.5q267 0 429.5 -143.5t162.5 -362.5q0 -67 -15 -141h-936q21 -101 107 -160t205 -59zM700 848
q-108 0 -192.5 -52t-124.5 -141h608q-10 81 -88 137t-203 56zM805 1368q153 0 180 102h221q-21 -149 -126.5 -228.5t-291.5 -78.5q-194 0 -290.5 82t-77.5 225h221q0 -48 41.5 -75t122.5 -27z" />
    <glyph glyph-name="Edotaccent" unicode="&#x116;" horiz-adv-x="1601" 
d="M248 1470h1425l-41 -292h-1089l-39 -283h973l-41 -289h-973l-45 -313h1091l-43 -293h-1425zM793 1550l41 289h350l-41 -289h-350z" />
    <glyph glyph-name="edotaccent" unicode="&#x117;" horiz-adv-x="1347" 
d="M670 236q103 0 186 44t125 123l279 -112q-79 -149 -239 -231.5t-366 -82.5q-175 0 -315 67.5t-218.5 188t-78.5 271.5q0 122 49.5 231.5t137 190.5t214.5 128.5t273 47.5q267 0 429.5 -143.5t162.5 -362.5q0 -67 -15 -141h-936q21 -101 107 -160t205 -59zM700 848
q-108 0 -192.5 -52t-124.5 -141h608q-10 81 -88 137t-203 56zM602 1190l39 280h332l-39 -280h-332z" />
    <glyph glyph-name="Eogonek" unicode="&#x118;" horiz-adv-x="1601" 
d="M848 -193q0 115 125 193h-932l207 1470h1425l-41 -292h-1089l-39 -283h973l-41 -289h-973l-45 -313h1091l-43 -293h-151q-135 -32 -190.5 -62.5t-55.5 -64.5q0 -28 29.5 -43.5t83.5 -15.5q51 0 108 16l-26 -186q-78 -19 -142 -19q-125 0 -199.5 50t-74.5 132z" />
    <glyph glyph-name="eogonek" unicode="&#x119;" horiz-adv-x="1347" 
d="M952 -356q-78 -19 -141 -19q-126 0 -200 54t-74 145q0 84 69 153q-256 12 -409.5 159t-153.5 370q0 121 47.5 229.5t132 190t210 129t274.5 47.5q142 0 259.5 -43t195 -117.5t116 -176.5t27.5 -218q0 -23 -11 -92h-936q20 -102 101.5 -159.5t199.5 -57.5q104 0 187 43
t125 122l278 -112q-103 -187 -327 -268q-164 -61 -164 -136q0 -73 112 -73q52 0 109 16zM696 848q-107 0 -191 -52t-124 -141h610q-11 79 -94.5 136t-200.5 57z" />
    <glyph glyph-name="Ecaron" unicode="&#x11a;" horiz-adv-x="1601" 
d="M248 1470h1425l-41 -292h-1089l-39 -283h973l-41 -289h-973l-45 -313h1091l-43 -293h-1425zM1143 1552h-350l-248 318h248l190 -131l227 131h269z" />
    <glyph glyph-name="ecaron" unicode="&#x11b;" horiz-adv-x="1347" 
d="M670 236q103 0 186 44t125 123l279 -112q-79 -149 -239 -231.5t-366 -82.5q-175 0 -315 67.5t-218.5 188t-78.5 271.5q0 122 49.5 231.5t137 190.5t214.5 128.5t273 47.5q267 0 429.5 -143.5t162.5 -362.5q0 -67 -15 -141h-936q21 -101 107 -160t205 -59zM700 848
q-108 0 -192.5 -52t-124.5 -141h608q-10 81 -88 137t-203 56zM932 1167h-322l-225 303h238l161 -110l197 110h260z" />
    <glyph glyph-name="Gcircumflex" unicode="&#x11c;" horiz-adv-x="1841" 
d="M1006 1493q300 0 517.5 -127.5t276.5 -335.5l-321 -125q-41 136 -174 214.5t-320 78.5q-252 0 -407.5 -139.5t-155.5 -353.5q0 -201 138.5 -317t367.5 -116q180 0 315 71.5t182 195.5h-620l37 278h950l-113 -817h-317l20 145q-185 -168 -489 -168q-236 0 -423.5 89.5
t-293.5 251t-106 366.5q0 161 68.5 308.5t189 258t297.5 176.5t381 66zM1300 1870l250 -320h-247l-191 131l-227 -131h-271l338 320h348z" />
    <glyph glyph-name="gcircumflex" unicode="&#x11d;" horiz-adv-x="1437" 
d="M954 127l7 37q-61 -65 -156 -103t-213 -38q-240 0 -393.5 138t-153.5 359q0 116 45 222t124 185.5t196.5 127t253.5 47.5q129 0 234.5 -42.5t174.5 -117.5l19 137h327l-133 -940q-35 -239 -221 -380.5t-490 -141.5q-224 0 -388 75.5t-222 201.5l228 161q51 -88 156 -137
t241 -49q160 0 252.5 66t111.5 192zM680 276q148 0 248 89t100 219q0 117 -87.5 189.5t-225.5 72.5q-149 0 -249.5 -89t-100.5 -220q0 -116 88 -188.5t227 -72.5zM999 1470l226 -303h-236l-164 111l-196 -111h-260l311 303h319z" />
    <glyph glyph-name="Gbreve" unicode="&#x11e;" horiz-adv-x="1841" 
d="M1006 1493q300 0 517.5 -127.5t276.5 -335.5l-321 -125q-41 136 -174 214.5t-320 78.5q-252 0 -407.5 -139.5t-155.5 -353.5q0 -201 138.5 -317t367.5 -116q180 0 315 71.5t182 195.5h-620l37 278h950l-113 -817h-317l20 145q-185 -168 -489 -168q-236 0 -423.5 89.5
t-293.5 251t-106 366.5q0 161 68.5 308.5t189 258t297.5 176.5t381 66zM1120 1757q79 0 131 31t58 82h237q-19 -152 -132.5 -241t-307.5 -89q-197 0 -304 92t-93 238h235q-6 -50 45 -81.5t131 -31.5z" />
    <glyph glyph-name="gbreve" unicode="&#x11f;" horiz-adv-x="1437" 
d="M954 127l7 37q-61 -65 -156 -103t-213 -38q-240 0 -393.5 138t-153.5 359q0 116 45 222t124 185.5t196.5 127t253.5 47.5q129 0 234.5 -42.5t174.5 -117.5l19 137h327l-133 -940q-35 -239 -221 -380.5t-490 -141.5q-224 0 -388 75.5t-222 201.5l228 161q51 -88 156 -137
t241 -49q160 0 252.5 66t111.5 192zM680 276q148 0 248 89t100 219q0 117 -87.5 189.5t-225.5 72.5q-149 0 -249.5 -89t-100.5 -220q0 -116 88 -188.5t227 -72.5zM834 1368q153 0 180 102h221q-21 -149 -126.5 -228.5t-291.5 -78.5q-194 0 -290.5 82t-77.5 225h221
q0 -48 41.5 -75t122.5 -27z" />
    <glyph glyph-name="Gdotaccent" unicode="&#x120;" horiz-adv-x="1841" 
d="M1006 1493q300 0 517.5 -127.5t276.5 -335.5l-321 -125q-41 136 -174 214.5t-320 78.5q-252 0 -407.5 -139.5t-155.5 -353.5q0 -201 138.5 -317t367.5 -116q180 0 315 71.5t182 195.5h-620l37 278h950l-113 -817h-317l20 145q-185 -168 -489 -168q-236 0 -423.5 89.5
t-293.5 251t-106 366.5q0 161 68.5 308.5t189 258t297.5 176.5t381 66zM899 1550l41 289h350l-41 -289h-350z" />
    <glyph glyph-name="gdotaccent" unicode="&#x121;" horiz-adv-x="1437" 
d="M954 127l7 37q-61 -65 -156 -103t-213 -38q-240 0 -393.5 138t-153.5 359q0 116 45 222t124 185.5t196.5 127t253.5 47.5q129 0 234.5 -42.5t174.5 -117.5l19 137h327l-133 -940q-35 -239 -221 -380.5t-490 -141.5q-224 0 -388 75.5t-222 201.5l228 161q51 -88 156 -137
t241 -49q160 0 252.5 66t111.5 192zM680 276q148 0 248 89t100 219q0 117 -87.5 189.5t-225.5 72.5q-149 0 -249.5 -89t-100.5 -220q0 -116 88 -188.5t227 -72.5zM647 1190l39 280h332l-39 -280h-332z" />
    <glyph glyph-name="uni0122" unicode="&#x122;" horiz-adv-x="1841" 
d="M1006 1493q300 0 517.5 -127.5t276.5 -335.5l-321 -125q-41 136 -174 214.5t-320 78.5q-252 0 -407.5 -139.5t-155.5 -353.5q0 -201 138.5 -317t367.5 -116q180 0 315 71.5t182 195.5h-620l37 278h950l-113 -817h-317l20 145q-185 -168 -489 -168q-236 0 -423.5 89.5
t-293.5 251t-106 366.5q0 161 68.5 308.5t189 258t297.5 176.5t381 66zM633 -252l24 184h328l-16 -112q-37 -258 -365 -258l18 121q111 0 125 65h-114z" />
    <glyph glyph-name="uni0123" unicode="&#x123;" horiz-adv-x="1437" 
d="M954 127l7 37q-61 -65 -156 -103t-213 -38q-240 0 -393.5 138t-153.5 359q0 116 45 222t124 185.5t196.5 127t253.5 47.5q129 0 234.5 -42.5t174.5 -117.5l19 137h327l-133 -940q-35 -239 -221 -380.5t-490 -141.5q-224 0 -388 75.5t-222 201.5l228 161q51 -88 156 -137
t241 -49q160 0 252.5 66t111.5 192zM680 276q148 0 248 89t100 219q0 117 -87.5 189.5t-225.5 72.5q-149 0 -249.5 -89t-100.5 -220q0 -116 88 -188.5t227 -72.5zM993 1352l-24 -185h-328l16 113q37 258 365 258l-18 -121q-111 0 -125 -65h114z" />
    <glyph glyph-name="Hcircumflex" unicode="&#x124;" horiz-adv-x="1806" 
d="M1479 1470h342l-207 -1470h-342l86 606h-889l-86 -606h-342l207 1470h342l-82 -573h891zM1251 1870l250 -320h-248l-190 131l-227 -131h-271l338 320h348z" />
    <glyph glyph-name="hcircumflex" unicode="&#x125;" horiz-adv-x="1386" 
d="M25 0l206 1470h328l-72 -520q146 152 377 152q108 0 196 -35.5t146.5 -99t84 -157.5t9.5 -206l-83 -604h-328l72 518q19 137 -42 215t-188 78t-206.5 -78.5t-98.5 -216.5l-74 -516h-327zM1038 1870l250 -320h-248l-190 131l-227 -131h-271l338 320h348z" />
    <glyph glyph-name="Hbar" unicode="&#x126;" horiz-adv-x="1921" 
d="M1536 1470h342l-35 -249h172l-41 -285h-172l-131 -936h-342l66 453h-891l-64 -453h-342l131 936h-163l40 285h164l35 249h342l-35 -249h889zM543 737h891l28 199h-891z" />
    <glyph glyph-name="hbar" unicode="&#x127;" horiz-adv-x="1452" 
d="M90 0l162 1153h-139l30 221h140l14 96h328l-15 -96h320l-31 -221h-317l-29 -203q146 152 377 152q108 0 196 -35.5t146.5 -99t84 -157.5t9.5 -206l-84 -604h-328l72 518q19 137 -41.5 215t-187.5 78t-206.5 -78.5t-98.5 -216.5l-74 -516h-328z" />
    <glyph glyph-name="Itilde" unicode="&#x128;" horiz-adv-x="575" 
d="M590 1470l-207 -1470h-342l207 1470h342zM264 1905q71 0 140 -26.5t124.5 -52.5t94.5 -26t64 25.5t40 79.5h217q-27 -163 -105 -258t-196 -95q-56 0 -112 16.5t-93 36t-79 36t-74 16.5q-79 0 -105 -105h-217q25 161 104.5 257t196.5 96z" />
    <glyph glyph-name="itilde" unicode="&#x129;" horiz-adv-x="530" 
d="M504 1079l-152 -1079h-327l151 1079h328zM223 1489q47 0 91 -15.5t72 -33.5t63 -33.5t67 -15.5q65 0 92 98h199q-26 -149 -98 -235.5t-183 -86.5q-47 0 -91.5 15t-73 33.5t-63.5 33.5t-65 15q-65 0 -94 -97h-196q24 147 96.5 234.5t183.5 87.5z" />
    <glyph glyph-name="Imacron" unicode="&#x12a;" horiz-adv-x="575" 
d="M590 1470l-207 -1470h-342l207 1470h342zM840 1563h-817l34 247h815z" />
    <glyph glyph-name="imacron" unicode="&#x12b;" horiz-adv-x="530" 
d="M504 1079l-152 -1079h-327l151 1079h328zM735 1194h-758l35 244h756z" />
    <glyph glyph-name="Ibreve" unicode="&#x12c;" horiz-adv-x="575" 
d="M590 1470l-207 -1470h-342l207 1470h342zM467 1757q79 0 130.5 31t57.5 82h238q-19 -152 -132.5 -241t-307.5 -89q-197 0 -304.5 92.5t-93.5 237.5h236q-6 -50 45 -81.5t131 -31.5z" />
    <glyph glyph-name="ibreve" unicode="&#x12d;" horiz-adv-x="530" 
d="M504 1079l-152 -1079h-327l151 1079h328zM387 1368q153 0 180 102h221q-21 -149 -126 -228.5t-291 -78.5q-195 0 -291.5 82t-77.5 225h221q0 -48 41.5 -75t122.5 -27z" />
    <glyph glyph-name="Iogonek" unicode="&#x12e;" horiz-adv-x="575" 
d="M-84 -193q0 115 125 193l207 1470h342l-207 -1470q-135 -32 -190.5 -62.5t-55.5 -64.5q0 -28 29.5 -43.5t83.5 -15.5q51 0 108 16l-26 -186q-78 -19 -142 -19q-125 0 -199.5 50t-74.5 132z" />
    <glyph glyph-name="iogonek" unicode="&#x12f;" horiz-adv-x="530" 
d="M190 1190l39 280h332l-39 -280h-332zM-113 -193q0 120 140 201l149 1071h328l-152 -1077l2 -2q-135 -32 -190 -62.5t-55 -64.5q0 -28 29 -43.5t83 -15.5q52 0 109 16l-27 -186q-78 -19 -141 -19q-125 0 -200 50t-75 132z" />
    <glyph glyph-name="Idotaccent" unicode="&#x130;" horiz-adv-x="575" 
d="M590 1470l-207 -1470h-342l207 1470h342zM254 1550l41 289h350l-41 -289h-350z" />
    <glyph glyph-name="dotlessi" unicode="&#x131;" horiz-adv-x="530" 
d="M504 1079l-152 -1079h-327l151 1079h328z" />
    <glyph glyph-name="Jcircumflex" unicode="&#x134;" horiz-adv-x="1495" 
d="M1417 573q-39 -276 -228 -436t-501 -160q-269 0 -462.5 119t-243.5 307l311 172q29 -129 138.5 -214t268.5 -85q153 0 255.5 85t123.5 237l121 872h342zM1597 1870l250 -320h-248l-190 131l-227 -131h-271l338 320h348z" />
    <glyph glyph-name="jcircumflex" unicode="&#x135;" horiz-adv-x="530" 
d="M358 33q-30 -215 -147.5 -314.5t-333.5 -99.5q-161 0 -287 45l78 238q88 -27 170 -27q87 0 133.5 38.5t59.5 129.5l145 1036h328zM555 1470l225 -303h-235l-164 111l-197 -111h-260l312 303h319z" />
    <glyph glyph-name="uni0136" unicode="&#x136;" horiz-adv-x="1720" 
d="M590 1470l-92 -659l848 659h485l-803 -614l645 -856h-420l-493 651l-320 -245l-57 -406h-342l207 1470h342zM590 -252l24 184h328l-16 -112q-37 -258 -365 -258l18 121q111 0 125 65h-114z" />
    <glyph glyph-name="uni0137" unicode="&#x137;" horiz-adv-x="1386" 
d="M559 1470l-119 -841l584 450h453l-598 -450l460 -629h-393l-323 436l-234 -176l-37 -260h-327l206 1470h328zM442 -252l25 184h327l-16 -112q-37 -258 -364 -258l18 121q111 0 125 65h-115z" />
    <glyph glyph-name="kgreenlandic" unicode="&#x138;" horiz-adv-x="1386" 
d="M506 1079l-64 -448l580 448h455l-598 -450l460 -629h-393l-323 434l-234 -176l-37 -258h-327l153 1079h328z" />
    <glyph glyph-name="Lacute" unicode="&#x139;" horiz-adv-x="1495" 
d="M41 0l207 1470h342l-166 -1177h995l-43 -293h-1335zM272 1550l273 320h469l-434 -320h-308z" />
    <glyph glyph-name="lacute" unicode="&#x13a;" horiz-adv-x="530" 
d="M559 1470l-207 -1470h-327l206 1470h328zM252 1550l272 320h469l-434 -320h-307z" />
    <glyph glyph-name="uni013B" unicode="&#x13b;" horiz-adv-x="1495" 
d="M41 0l207 1470h342l-166 -1177h995l-43 -293h-1335zM354 -252l25 184h327l-16 -112q-37 -258 -365 -258l19 121q111 0 125 65h-115z" />
    <glyph glyph-name="uni013C" unicode="&#x13c;" horiz-adv-x="530" 
d="M559 1470l-207 -1470h-327l206 1470h328zM-8 -252l24 184h328l-17 -112q-37 -258 -364 -258l18 121q111 0 125 65h-114z" />
    <glyph glyph-name="Lcaron" unicode="&#x13d;" horiz-adv-x="1495" 
d="M41 0l207 1470h342l-166 -1177h995l-43 -293h-1335zM748 1126l96 344h350l-225 -344h-221z" />
    <glyph glyph-name="lcaron" unicode="&#x13e;" horiz-adv-x="528" 
d="M559 1470l-207 -1470h-327l206 1470h328zM598 1126l96 344h350l-225 -344h-221z" />
    <glyph glyph-name="Ldot" unicode="&#x13f;" horiz-adv-x="1495" 
d="M41 0l207 1470h342l-166 -1177h995l-43 -293h-1335zM932 627l39 280h332l-39 -280h-332z" />
    <glyph glyph-name="ldot" unicode="&#x140;" horiz-adv-x="899" 
d="M559 1470l-207 -1470h-327l206 1470h328zM553 602l39 281h332l-39 -281h-332z" />
    <glyph glyph-name="Lslash" unicode="&#x141;" horiz-adv-x="1558" 
d="M111 0l65 461l-201 -74l43 301l199 74l100 708h342l-84 -598l459 164l-43 -303l-459 -162l-38 -278h995l-43 -293h-1335z" />
    <glyph glyph-name="lslash" unicode="&#x142;" horiz-adv-x="747" 
d="M774 795l-215 -101l-98 -694h-328l78 547l-211 -101l43 304l209 98l88 622h328l-68 -477l217 105z" />
    <glyph glyph-name="Nacute" unicode="&#x143;" horiz-adv-x="1783" 
d="M1798 1470l-207 -1470h-299l-774 1044l-145 -1044h-332l207 1470h342l737 -993l139 993h332zM838 1550l272 320h469l-434 -320h-307z" />
    <glyph glyph-name="nacute" unicode="&#x144;" horiz-adv-x="1386" 
d="M25 0l151 1079h328l-19 -129q149 152 379 152q108 0 196 -35.5t146.5 -99t84 -157.5t9.5 -206l-83 -604h-328l72 518q19 137 -42 215t-188 78t-206.5 -78.5t-98.5 -216.5l-74 -516h-327zM633 1167l246 303h426l-385 -303h-287z" />
    <glyph glyph-name="uni0145" unicode="&#x145;" horiz-adv-x="1783" 
d="M1798 1470l-207 -1470h-299l-774 1044l-145 -1044h-332l207 1470h342l737 -993l139 993h332zM612 -252l25 184h327l-16 -112q-37 -258 -365 -258l19 121q111 0 125 65h-115z" />
    <glyph glyph-name="uni0146" unicode="&#x146;" horiz-adv-x="1386" 
d="M25 0l151 1079h328l-19 -129q149 152 379 152q108 0 196 -35.5t146.5 -99t84 -157.5t9.5 -206l-83 -604h-328l72 518q19 137 -42 215t-188 78t-206.5 -78.5t-98.5 -216.5l-74 -516h-327zM424 -252l24 184h328l-16 -112q-37 -258 -365 -258l19 121q110 0 124 65h-114z" />
    <glyph glyph-name="Ncaron" unicode="&#x147;" horiz-adv-x="1783" 
d="M1798 1470l-207 -1470h-299l-774 1044l-145 -1044h-332l207 1470h342l737 -993l139 993h332zM1202 1552h-350l-248 318h248l190 -131l228 131h268z" />
    <glyph glyph-name="ncaron" unicode="&#x148;" horiz-adv-x="1386" 
d="M25 0l151 1079h328l-19 -129q149 152 379 152q108 0 196 -35.5t146.5 -99t84 -157.5t9.5 -206l-83 -604h-328l72 518q19 137 -42 215t-188 78t-206.5 -78.5t-98.5 -216.5l-74 -516h-327zM954 1167h-321l-225 303h237l162 -110l197 110h260z" />
    <glyph glyph-name="Eng" unicode="&#x14a;" horiz-adv-x="1783" 
d="M1266 29l2 14l-750 1001l-145 -1044h-332l207 1470h340l741 -989l137 989h332l-203 -1437q-31 -215 -147.5 -314.5t-333.5 -99.5q-144 0 -287 41l80 246q91 -27 176 -27q84 0 127.5 34.5t55.5 115.5z" />
    <glyph glyph-name="eng" unicode="&#x14b;" horiz-adv-x="1390" 
d="M895 47l66 471q19 137 -42 215t-188 78t-206.5 -78.5t-98.5 -216.5l-74 -516h-327l151 1079h328l-19 -129q149 152 379 152q108 0 196 -35.5t146.5 -99t84 -157.5t9.5 -206l-79 -571q-30 -215 -148 -314.5t-334 -99.5q-145 0 -288 41l79 246q92 -27 177 -27
q89 0 132 37.5t56 130.5z" />
    <glyph glyph-name="Omacron" unicode="&#x14c;" horiz-adv-x="1832" 
d="M903 -23q-243 0 -433.5 92t-295 253t-104.5 362q0 160 66.5 307t183.5 258t290.5 177.5t374.5 66.5q243 0 433.5 -92t294.5 -253t104 -362q0 -160 -66 -307t-183 -258t-290.5 -177.5t-374.5 -66.5zM971 1196q-242 0 -395.5 -142.5t-153.5 -351.5q0 -192 137 -310
t359 -118q120 0 223.5 39t174 105.5t110.5 157t40 192.5q0 192 -137 310t-358 118zM1470 1563h-817l35 247h815z" />
    <glyph glyph-name="omacron" unicode="&#x14d;" horiz-adv-x="1374" 
d="M657 -23q-178 0 -317 64t-218 185t-79 280q0 123 49.5 232.5t137 189.5t213.5 127t272 47q178 0 317 -64t218 -185t79 -280q0 -123 -49.5 -232.5t-137 -189.5t-213.5 -127t-272 -47zM705 834q-156 0 -250.5 -94.5t-94.5 -225.5q0 -125 88 -197.5t220 -72.5q156 0 250 94
t94 225q0 125 -87.5 198t-219.5 73zM1157 1194h-758l35 244h756z" />
    <glyph glyph-name="Obreve" unicode="&#x14e;" horiz-adv-x="1832" 
d="M903 -23q-243 0 -433.5 92t-295 253t-104.5 362q0 160 66.5 307t183.5 258t290.5 177.5t374.5 66.5q243 0 433.5 -92t294.5 -253t104 -362q0 -160 -66 -307t-183 -258t-290.5 -177.5t-374.5 -66.5zM971 1196q-242 0 -395.5 -142.5t-153.5 -351.5q0 -192 137 -310
t359 -118q120 0 223.5 39t174 105.5t110.5 157t40 192.5q0 192 -137 310t-358 118zM1098 1757q79 0 130.5 31t57.5 82h238q-19 -152 -132.5 -241t-308.5 -89q-197 0 -304 92t-93 238h236q-6 -50 45 -81.5t131 -31.5z" />
    <glyph glyph-name="obreve" unicode="&#x14f;" horiz-adv-x="1374" 
d="M657 -23q-178 0 -317 64t-218 185t-79 280q0 123 49.5 232.5t137 189.5t213.5 127t272 47q178 0 317 -64t218 -185t79 -280q0 -123 -49.5 -232.5t-137 -189.5t-213.5 -127t-272 -47zM705 834q-156 0 -250.5 -94.5t-94.5 -225.5q0 -125 88 -197.5t220 -72.5q156 0 250 94
t94 225q0 125 -87.5 198t-219.5 73zM809 1368q153 0 180 102h221q-21 -149 -126 -228.5t-291 -78.5q-195 0 -291.5 82t-77.5 225h221q0 -48 41.5 -75t122.5 -27z" />
    <glyph glyph-name="Ohungarumlaut" unicode="&#x150;" horiz-adv-x="1832" 
d="M903 -23q-243 0 -433.5 92t-295 253t-104.5 362q0 160 66.5 307t183.5 258t290.5 177.5t374.5 66.5q243 0 433.5 -92t294.5 -253t104 -362q0 -160 -66 -307t-183 -258t-290.5 -177.5t-374.5 -66.5zM971 1196q-242 0 -395.5 -142.5t-153.5 -351.5q0 -192 137 -310
t359 -118q120 0 223.5 39t174 105.5t110.5 157t40 192.5q0 192 -137 310t-358 118zM1171 1550l236 320h381l-352 -320h-265zM674 1550l225 320h389l-352 -320h-262z" />
    <glyph glyph-name="ohungarumlaut" unicode="&#x151;" horiz-adv-x="1374" 
d="M657 -23q-178 0 -317 64t-218 185t-79 280q0 123 49.5 232.5t137 189.5t213.5 127t272 47q178 0 317 -64t218 -185t79 -280q0 -123 -49.5 -232.5t-137 -189.5t-213.5 -127t-272 -47zM705 834q-156 0 -250.5 -94.5t-94.5 -225.5q0 -125 88 -197.5t220 -72.5q156 0 250 94
t94 225q0 125 -87.5 198t-219.5 73zM846 1167l229 303h363l-332 -303h-260zM389 1167l229 303h361l-330 -303h-260z" />
    <glyph glyph-name="OE" unicode="&#x152;" horiz-adv-x="2729" 
d="M76 684q0 125 39 241.5t116.5 215t186 172.5t256 115.5t317.5 41.5h1811l-41 -292h-1051l-39 -283h934l-41 -289h-934l-43 -313h1049l-41 -293h-1733q-179 0 -327.5 53t-248.5 145t-155 217t-55 269zM1376 1182h-397q-126 0 -232 -38t-177 -103t-110.5 -152.5
t-39.5 -186.5q0 -179 125.5 -296t345.5 -117h358z" />
    <glyph glyph-name="oe" unicode="&#x153;" horiz-adv-x="2312" 
d="M2222 291q-79 -149 -238.5 -231.5t-365.5 -82.5q-149 0 -269.5 49t-201.5 138q-90 -88 -215.5 -137.5t-274.5 -49.5q-177 0 -315.5 64t-217.5 185t-79 280q0 123 49.5 232.5t136 189.5t212.5 127t272 47q150 0 272.5 -47t204.5 -135q90 86 215 134t272 48q178 0 314 -67
t207 -181t71 -258q0 -72 -14 -141h-936q21 -101 106.5 -160t204.5 -59q103 0 186.5 44t125.5 123zM1667 848q-109 0 -195 -52t-126 -141h608q-10 81 -86 137t-201 56zM705 834q-155 0 -249 -94.5t-94 -225.5q0 -125 87.5 -197.5t220.5 -72.5q155 0 248.5 94t93.5 225
q0 125 -87 198t-220 73z" />
    <glyph glyph-name="Racute" unicode="&#x154;" horiz-adv-x="1665" 
d="M457 522l-74 -522h-342l207 1470h897q252 0 397.5 -118t145.5 -320q0 -172 -105.5 -301.5t-296.5 -181.5l297 -549h-377l-276 522h-473zM496 801h577q128 0 203.5 60.5t75.5 150.5q0 78 -60.5 124t-173.5 46h-569zM782 1550l273 320h469l-434 -320h-308z" />
    <glyph glyph-name="racute" unicode="&#x155;" horiz-adv-x="968" 
d="M1022 1073l-45 -317q-79 14 -129 14q-184 0 -296.5 -82.5t-135.5 -249.5l-64 -438h-327l151 1079h328l-27 -186q149 192 426 192q57 0 119 -12zM424 1167l246 303h426l-385 -303h-287z" />
    <glyph glyph-name="uni0156" unicode="&#x156;" horiz-adv-x="1665" 
d="M457 522l-74 -522h-342l207 1470h897q252 0 397.5 -118t145.5 -320q0 -172 -105.5 -301.5t-296.5 -181.5l297 -549h-377l-276 522h-473zM496 801h577q128 0 203.5 60.5t75.5 150.5q0 78 -60.5 124t-173.5 46h-569zM579 -252l25 184h328l-17 -112q-37 -258 -364 -258
l18 121q111 0 125 65h-115z" />
    <glyph glyph-name="uni0157" unicode="&#x157;" horiz-adv-x="968" 
d="M1022 1073l-45 -317q-79 14 -129 14q-184 0 -296.5 -82.5t-135.5 -249.5l-64 -438h-327l151 1079h328l-27 -186q149 192 426 192q57 0 119 -12zM-8 -252l24 184h328l-17 -112q-37 -258 -364 -258l18 121q111 0 125 65h-114z" />
    <glyph glyph-name="Rcaron" unicode="&#x158;" horiz-adv-x="1665" 
d="M457 522l-74 -522h-342l207 1470h897q252 0 397.5 -118t145.5 -320q0 -172 -105.5 -301.5t-296.5 -181.5l297 -549h-377l-276 522h-473zM496 801h577q128 0 203.5 60.5t75.5 150.5q0 78 -60.5 124t-173.5 46h-569zM1133 1552h-351l-247 318h247l191 -131l227 131h268z
" />
    <glyph glyph-name="rcaron" unicode="&#x159;" horiz-adv-x="968" 
d="M1022 1073l-45 -317q-79 14 -129 14q-184 0 -296.5 -82.5t-135.5 -249.5l-64 -438h-327l151 1079h328l-27 -186q149 192 426 192q57 0 119 -12zM770 1167h-321l-226 303h238l162 -110l196 110h260z" />
    <glyph glyph-name="Sacute" unicode="&#x15a;" horiz-adv-x="1603" 
d="M-55 330l233 231q92 -133 275 -214t401 -81q167 1 257.5 46t90.5 124q0 40 -22.5 67t-86.5 46.5t-112.5 28.5t-165.5 27q-55 8 -84 13q-71 12 -122.5 22t-117 28t-111.5 37.5t-94 50.5t-77 67t-47.5 86.5t-18.5 110.5q0 207 190.5 340t520.5 133q268 0 478 -85.5
t308 -217.5l-233 -215q-90 110 -243 170.5t-351 60.5q-157 0 -241.5 -40.5t-84.5 -110.5q0 -24 8.5 -42t33.5 -32.5t50.5 -24.5t81 -21t101 -18.5t132.5 -20.5q5 -1 7 -1q62 -9 103 -16t101.5 -19t102 -24t93 -31t86 -40.5t70 -51t56.5 -63.5t34.5 -78t13.5 -95
q0 -223 -197.5 -361.5t-534.5 -138.5q-298 0 -540 102.5t-344 250.5zM778 1550l273 320h469l-435 -320h-307z" />
    <glyph glyph-name="sacute" unicode="&#x15b;" horiz-adv-x="1218" 
d="M-55 201l180 209q77 -91 204 -140t281 -49q111 0 169.5 27t58.5 74q0 12 -4.5 21.5t-14.5 17.5t-21 13.5t-30 10.5t-36.5 9t-44.5 8t-49 6.5t-56 7t-60 8.5q-52 7 -91 14t-87.5 19.5t-83 27.5t-70.5 38t-58 51.5t-36 68t-14 86.5q0 164 147.5 268.5t415.5 104.5
q183 0 339 -56.5t237 -144.5l-187 -192q-71 70 -184 110.5t-238 40.5q-101 0 -151.5 -24.5t-50.5 -65.5q0 -44 89 -66q45 -11 181 -28q64 -8 112.5 -16.5t110 -24t104.5 -38t82.5 -54t59.5 -77t20 -101.5q0 -177 -157 -282.5t-424 -105.5q-202 0 -375 61t-268 163zM559 1167
l246 303h426l-385 -303h-287z" />
    <glyph glyph-name="Scircumflex" unicode="&#x15c;" horiz-adv-x="1603" 
d="M-55 330l233 231q92 -133 275 -214t401 -81q167 1 257.5 46t90.5 124q0 40 -22.5 67t-86.5 46.5t-112.5 28.5t-165.5 27q-55 8 -84 13q-71 12 -122.5 22t-117 28t-111.5 37.5t-94 50.5t-77 67t-47.5 86.5t-18.5 110.5q0 207 190.5 340t520.5 133q268 0 478 -85.5
t308 -217.5l-233 -215q-90 110 -243 170.5t-351 60.5q-157 0 -241.5 -40.5t-84.5 -110.5q0 -24 8.5 -42t33.5 -32.5t50.5 -24.5t81 -21t101 -18.5t132.5 -20.5q5 -1 7 -1q62 -9 103 -16t101.5 -19t102 -24t93 -31t86 -40.5t70 -51t56.5 -63.5t34.5 -78t13.5 -95
q0 -223 -197.5 -361.5t-534.5 -138.5q-298 0 -540 102.5t-344 250.5zM1147 1870l250 -320h-248l-191 131l-227 -131h-270l338 320h348z" />
    <glyph glyph-name="scircumflex" unicode="&#x15d;" horiz-adv-x="1218" 
d="M-55 201l180 209q77 -91 204 -140t281 -49q111 0 169.5 27t58.5 74q0 12 -4.5 21.5t-14.5 17.5t-21 13.5t-30 10.5t-36.5 9t-44.5 8t-49 6.5t-56 7t-60 8.5q-52 7 -91 14t-87.5 19.5t-83 27.5t-70.5 38t-58 51.5t-36 68t-14 86.5q0 164 147.5 268.5t415.5 104.5
q183 0 339 -56.5t237 -144.5l-187 -192q-71 70 -184 110.5t-238 40.5q-101 0 -151.5 -24.5t-50.5 -65.5q0 -44 89 -66q45 -11 181 -28q64 -8 112.5 -16.5t110 -24t104.5 -38t82.5 -54t59.5 -77t20 -101.5q0 -177 -157 -282.5t-424 -105.5q-202 0 -375 61t-268 163zM899 1470
l225 -303h-235l-164 111l-197 -111h-260l312 303h319z" />
    <glyph glyph-name="Scedilla" unicode="&#x15e;" horiz-adv-x="1603" 
d="M-55 330l233 231q92 -133 275 -214t401 -81q167 1 257.5 46t90.5 124q0 40 -22.5 67t-86.5 46.5t-112.5 28.5t-165.5 27q-55 8 -84 13q-71 12 -122.5 22t-117 28t-111.5 37.5t-94 50.5t-77 67t-47.5 86.5t-18.5 110.5q0 207 190.5 340t520.5 133q268 0 478 -85.5
t308 -217.5l-233 -215q-90 110 -243 170.5t-351 60.5q-157 0 -241.5 -40.5t-84.5 -110.5q0 -24 8.5 -42t33.5 -32.5t50.5 -24.5t81 -21t101 -18.5t132.5 -20.5q5 -1 7 -1q62 -9 103 -16t101.5 -19t102 -24t93 -31t86 -40.5t70 -51t56.5 -63.5t34.5 -78t13.5 -95
q0 -223 -197.5 -361.5t-534.5 -138.5q-37 0 -75 3l-11 -23q101 -9 160.5 -52.5t59.5 -109.5q0 -79 -80.5 -128.5t-218.5 -49.5q-95 0 -173.5 23.5t-125.5 60.5l104 131q71 -57 180 -57q99 0 99 45q0 56 -189 53l53 119q-228 33 -406.5 126t-260.5 212z" />
    <glyph glyph-name="scedilla" unicode="&#x15f;" horiz-adv-x="1218" 
d="M-55 201l180 209q77 -91 204 -140t281 -49q111 0 169.5 27t58.5 74q0 12 -4.5 21.5t-14.5 17.5t-21 13.5t-30 10.5t-36.5 9t-44.5 8t-49 6.5t-56 7t-60 8.5q-52 7 -91 14t-87.5 19.5t-83 27.5t-70.5 38t-58 51.5t-36 68t-14 86.5q0 164 147.5 268.5t415.5 104.5
q183 0 339 -56.5t237 -144.5l-187 -192q-71 70 -184 110.5t-238 40.5q-101 0 -151.5 -24.5t-50.5 -65.5q0 -44 89 -66q45 -11 181 -28q64 -8 112.5 -16.5t110 -24t104.5 -38t82.5 -54t59.5 -77t20 -101.5q0 -177 -157 -282.5t-424 -105.5h-47l-9 -20q101 -9 160.5 -52.5
t59.5 -109.5q0 -79 -80.5 -128.5t-218.5 -49.5q-95 0 -173.5 23.5t-125.5 60.5l104 131q71 -57 180 -57q99 0 99 45q0 56 -189 53l53 119q-146 23 -265 77.5t-191 131.5z" />
    <glyph glyph-name="Scaron" unicode="&#x160;" horiz-adv-x="1603" 
d="M-55 330l233 231q92 -133 275 -214t401 -81q167 1 257.5 46t90.5 124q0 40 -22.5 67t-86.5 46.5t-112.5 28.5t-165.5 27q-55 8 -84 13q-71 12 -122.5 22t-117 28t-111.5 37.5t-94 50.5t-77 67t-47.5 86.5t-18.5 110.5q0 207 190.5 340t520.5 133q268 0 478 -85.5
t308 -217.5l-233 -215q-90 110 -243 170.5t-351 60.5q-157 0 -241.5 -40.5t-84.5 -110.5q0 -24 8.5 -42t33.5 -32.5t50.5 -24.5t81 -21t101 -18.5t132.5 -20.5q5 -1 7 -1q62 -9 103 -16t101.5 -19t102 -24t93 -31t86 -40.5t70 -51t56.5 -63.5t34.5 -78t13.5 -95
q0 -223 -197.5 -361.5t-534.5 -138.5q-298 0 -540 102.5t-344 250.5zM1112 1552h-350l-248 318h248l190 -131l228 131h268z" />
    <glyph glyph-name="scaron" unicode="&#x161;" horiz-adv-x="1218" 
d="M-55 201l180 209q77 -91 204 -140t281 -49q111 0 169.5 27t58.5 74q0 12 -4.5 21.5t-14.5 17.5t-21 13.5t-30 10.5t-36.5 9t-44.5 8t-49 6.5t-56 7t-60 8.5q-52 7 -91 14t-87.5 19.5t-83 27.5t-70.5 38t-58 51.5t-36 68t-14 86.5q0 164 147.5 268.5t415.5 104.5
q183 0 339 -56.5t237 -144.5l-187 -192q-71 70 -184 110.5t-238 40.5q-101 0 -151.5 -24.5t-50.5 -65.5q0 -44 89 -66q45 -11 181 -28q64 -8 112.5 -16.5t110 -24t104.5 -38t82.5 -54t59.5 -77t20 -101.5q0 -177 -157 -282.5t-424 -105.5q-202 0 -375 61t-268 163zM862 1167
h-321l-226 303h238l162 -110l196 110h260z" />
    <glyph glyph-name="Tcommaaccent" unicode="&#x162;" horiz-adv-x="1687" 
d="M1030 -205q0 -79 -80.5 -128.5t-218.5 -49.5q-95 0 -173.5 23.5t-125.5 60.5l105 131q71 -57 180 -57q98 0 98 45q0 56 -188 53l57 127h-86l164 1178h-637l41 292h1618l-41 -292h-639l-164 -1178h-111l-18 -43q101 -9 160 -52.5t59 -109.5z" />
    <glyph glyph-name="tcommaaccent" unicode="&#x163;" horiz-adv-x="1079" 
d="M217 358l64 451h-246l39 270h245l41 299h324l-43 -299h449l-39 -270h-447l-55 -385q-10 -84 33 -122t141 -38q114 0 242 49l26 -264q-162 -65 -340 -65q-30 0 -84 4l-12 -31q101 -9 160 -52.5t59 -109.5q0 -79 -80.5 -128.5t-218.5 -49.5q-95 0 -173.5 23.5t-125.5 60.5
l105 131q71 -57 180 -57q98 0 98 45q0 56 -188 53l63 141q-121 41 -178 128.5t-39 215.5z" />
    <glyph glyph-name="Tcaron" unicode="&#x164;" horiz-adv-x="1687" 
d="M1743 1178h-639l-164 -1178h-342l164 1178h-637l41 292h1618zM1161 1552h-350l-248 318h248l190 -131l228 131h268z" />
    <glyph glyph-name="tcaron" unicode="&#x165;" horiz-adv-x="1079" 
d="M217 358l64 451h-246l39 270h245l41 299h324l-43 -299h449l-39 -270h-447l-55 -385q-10 -84 33 -122t141 -38q114 0 242 49l26 -264q-162 -65 -340 -65q-223 0 -341.5 98t-92.5 276zM737 1167l97 344h350l-226 -344h-221z" />
    <glyph glyph-name="Tbar" unicode="&#x166;" horiz-adv-x="1687" 
d="M1358 588h-336l-82 -588h-342l82 588h-336l41 293h336l41 297h-637l41 292h1618l-41 -292h-639l-41 -297h336z" />
    <glyph glyph-name="tbar" unicode="&#x167;" horiz-adv-x="1079" 
d="M217 358l14 109h-239l33 246h241l17 121h-244l35 245h245l41 299h324l-43 -299h449l-37 -245h-447l-16 -121h446l-32 -246h-449l-6 -43q-10 -84 33 -122t141 -38q114 0 242 49l26 -264q-162 -65 -340 -65q-223 0 -341.5 98t-92.5 276z" />
    <glyph glyph-name="Utilde" unicode="&#x168;" horiz-adv-x="1697" 
d="M825 -23q-377 0 -572 190t-149 511l111 792h342l-108 -765q-30 -204 68.5 -316.5t322.5 -112.5q208 0 316.5 105.5t139.5 323.5l109 765h342l-113 -792q-47 -345 -244.5 -523t-564.5 -178zM827 1905q71 0 140 -26.5t124.5 -52.5t94.5 -26t64 25.5t40 79.5h217
q-27 -163 -105 -258t-196 -95q-56 0 -112 16.5t-93 36t-79 36t-74 16.5q-79 0 -105 -105h-217q25 161 104.5 257t196.5 96z" />
    <glyph glyph-name="utilde" unicode="&#x169;" horiz-adv-x="1376" 
d="M1350 1079l-152 -1079h-328l21 129q-149 -152 -375 -152q-106 0 -193 35.5t-145 99t-83 157.5t-9 206l84 604h328l-74 -530q-20 -138 38.5 -214.5t184.5 -76.5q125 0 203.5 80t99.5 219l72 522h328zM647 1489q47 0 91 -15.5t72 -33.5t63 -33.5t67 -15.5q65 0 92 98h199
q-26 -149 -98 -235.5t-183 -86.5q-47 0 -91.5 15t-73 33.5t-63.5 33.5t-65 15q-65 0 -94 -97h-196q24 147 96.5 234.5t183.5 87.5z" />
    <glyph glyph-name="Umacron" unicode="&#x16a;" horiz-adv-x="1697" 
d="M825 -23q-377 0 -572 190t-149 511l111 792h342l-108 -765q-30 -204 68.5 -316.5t322.5 -112.5q208 0 316.5 105.5t139.5 323.5l109 765h342l-113 -792q-47 -345 -244.5 -523t-564.5 -178zM1403 1563h-817l35 247h815z" />
    <glyph glyph-name="umacron" unicode="&#x16b;" horiz-adv-x="1376" 
d="M1350 1079l-152 -1079h-328l21 129q-149 -152 -375 -152q-106 0 -193 35.5t-145 99t-83 157.5t-9 206l84 604h328l-74 -530q-20 -138 38.5 -214.5t184.5 -76.5q125 0 203.5 80t99.5 219l72 522h328zM1157 1194h-758l35 244h756z" />
    <glyph glyph-name="Ubreve" unicode="&#x16c;" horiz-adv-x="1697" 
d="M825 -23q-377 0 -572 190t-149 511l111 792h342l-108 -765q-30 -204 68.5 -316.5t322.5 -112.5q208 0 316.5 105.5t139.5 323.5l109 765h342l-113 -792q-47 -345 -244.5 -523t-564.5 -178zM1030 1757q79 0 131 31t58 82h237q-19 -152 -132.5 -241t-307.5 -89
q-197 0 -304.5 92.5t-93.5 237.5h236q-6 -50 45 -81.5t131 -31.5z" />
    <glyph glyph-name="ubreve" unicode="&#x16d;" horiz-adv-x="1376" 
d="M1350 1079l-152 -1079h-328l21 129q-149 -152 -375 -152q-106 0 -193 35.5t-145 99t-83 157.5t-9 206l84 604h328l-74 -530q-20 -138 38.5 -214.5t184.5 -76.5q125 0 203.5 80t99.5 219l72 522h328zM809 1368q153 0 180 102h221q-21 -149 -126 -228.5t-291 -78.5
q-195 0 -291.5 82t-77.5 225h221q0 -48 41.5 -75t122.5 -27z" />
    <glyph glyph-name="Uring" unicode="&#x16e;" horiz-adv-x="1697" 
d="M825 -23q-377 0 -572 190t-149 511l111 792h342l-108 -765q-30 -204 68.5 -316.5t322.5 -112.5q208 0 316.5 105.5t139.5 323.5l109 765h342l-113 -792q-47 -345 -244.5 -523t-564.5 -178zM1012 1487q-121 0 -199 74.5t-78 183.5q0 117 85.5 203t219.5 86
q122 0 199.5 -74t77.5 -182q0 -119 -85 -205t-220 -86zM1020 1655q46 0 78 32.5t32 81.5q0 41 -27.5 69t-68.5 28q-47 0 -79.5 -33t-32.5 -80q0 -43 27.5 -70.5t70.5 -27.5z" />
    <glyph glyph-name="uring" unicode="&#x16f;" horiz-adv-x="1376" 
d="M1350 1079l-152 -1079h-328l21 129q-149 -152 -375 -152q-106 0 -193 35.5t-145 99t-83 157.5t-9 206l84 604h328l-74 -530q-20 -138 38.5 -214.5t184.5 -76.5q125 0 203.5 80t99.5 219l72 522h328zM815 1599q100 0 164.5 -62.5t64.5 -150.5q0 -96 -72 -166.5t-179 -70.5
q-101 0 -165.5 61.5t-64.5 151.5q0 95 73 166t179 71zM797 1288q40 0 66 27t26 65q0 34 -22.5 57t-57.5 23q-39 0 -64.5 -27.5t-25.5 -64.5q0 -35 22 -57.5t56 -22.5z" />
    <glyph glyph-name="Uhungarumlaut" unicode="&#x170;" horiz-adv-x="1697" 
d="M825 -23q-377 0 -572 190t-149 511l111 792h342l-108 -765q-30 -204 68.5 -316.5t322.5 -112.5q208 0 316.5 105.5t139.5 323.5l109 765h342l-113 -792q-47 -345 -244.5 -523t-564.5 -178zM1083 1550l236 320h381l-352 -320h-265zM586 1550l225 320h389l-352 -320h-262z
" />
    <glyph glyph-name="uhungarumlaut" unicode="&#x171;" horiz-adv-x="1376" 
d="M1350 1079l-152 -1079h-328l21 129q-149 -152 -375 -152q-106 0 -193 35.5t-145 99t-83 157.5t-9 206l84 604h328l-74 -530q-20 -138 38.5 -214.5t184.5 -76.5q125 0 203.5 80t99.5 219l72 522h328zM834 1167l229 303h362l-331 -303h-260zM377 1167l229 303h361
l-330 -303h-260z" />
    <glyph glyph-name="Uogonek" unicode="&#x172;" horiz-adv-x="1697" 
d="M1075 4q-159 -33 -216.5 -62t-57.5 -71q0 -27 28.5 -42t81.5 -15q52 0 109 16l-27 -186q-74 -19 -141 -19q-125 0 -199.5 50t-74.5 132q0 104 108 179q-312 34 -467.5 218t-114.5 474l111 792h342l-108 -765q-30 -204 68.5 -316.5t322.5 -112.5q208 0 316.5 105.5
t139.5 323.5l109 765h342l-113 -792q-79 -577 -559 -674z" />
    <glyph glyph-name="uogonek" unicode="&#x173;" horiz-adv-x="1376" 
d="M700 -193q0 136 174 222l17 100q-149 -152 -375 -152q-106 0 -193 35.5t-145 99t-83 157.5t-9 206l84 604h328l-74 -530q-20 -138 38.5 -214.5t184.5 -76.5q125 0 203.5 80t99.5 219l72 522h328l-152 -1079h-31q-135 -32 -190 -62.5t-55 -64.5q0 -28 29 -43.5t83 -15.5
q52 0 109 16l-27 -186q-78 -19 -141 -19q-125 0 -200 50t-75 132z" />
    <glyph glyph-name="Wcircumflex" unicode="&#x174;" horiz-adv-x="2416" 
d="M1163 1470h346l154 -1071l547 1071h354l-758 -1470h-383l-151 1059l-520 -1059h-379l-244 1470h346l168 -1071zM1577 1870l250 -320h-248l-190 131l-228 -131h-270l338 320h348z" />
    <glyph glyph-name="wcircumflex" unicode="&#x175;" horiz-adv-x="1925" 
d="M887 1079h291l120 -686l363 686h348l-608 -1079h-293l-135 684l-363 -684h-307l-235 1079h342l120 -686zM1260 1470l225 -303h-236l-164 111l-196 -111h-260l311 303h320z" />
    <glyph glyph-name="Ycircumflex" unicode="&#x176;" horiz-adv-x="1775" 
d="M928 883l579 587h414l-852 -860l-86 -610h-342l86 610l-612 860h395zM1247 1870l250 -320h-248l-190 131l-228 -131h-270l338 320h348z" />
    <glyph glyph-name="ycircumflex" unicode="&#x177;" horiz-adv-x="1378" 
d="M748 -51q-118 -189 -221.5 -259.5t-268.5 -70.5q-159 0 -278 51l83 250q83 -39 170 -39q57 0 94.5 24t73.5 81l29 47l-362 1046h354l231 -733l451 733h358zM981 1470l225 -303h-235l-164 111l-197 -111h-260l312 303h319z" />
    <glyph glyph-name="Ydieresis" unicode="&#x178;" horiz-adv-x="1775" 
d="M928 883l579 587h414l-852 -860l-86 -610h-342l86 610l-612 860h395zM604 1550l41 289h328l-41 -289h-328zM1126 1550l41 289h328l-41 -289h-328z" />
    <glyph glyph-name="Zacute" unicode="&#x179;" horiz-adv-x="1642" 
d="M1536 293l-41 -293h-1501l37 258l1106 920h-969l39 292h1483l-37 -256l-1108 -921h991zM772 1550l272 320h469l-434 -320h-307z" />
    <glyph glyph-name="zacute" unicode="&#x17a;" horiz-adv-x="1296" 
d="M1194 270l-37 -270h-1167l35 242l757 567h-671l39 270h1153l-35 -243l-760 -566h686zM563 1167l246 303h426l-385 -303h-287z" />
    <glyph glyph-name="Zdotaccent" unicode="&#x17b;" horiz-adv-x="1642" 
d="M1536 293l-41 -293h-1501l37 258l1106 920h-969l39 292h1483l-37 -256l-1108 -921h991zM786 1550l41 289h351l-41 -289h-351z" />
    <glyph glyph-name="zdotaccent" unicode="&#x17c;" horiz-adv-x="1296" 
d="M1194 270l-37 -270h-1167l35 242l757 567h-671l39 270h1153l-35 -243l-760 -566h686zM575 1190l39 280h332l-39 -280h-332z" />
    <glyph glyph-name="Zcaron" unicode="&#x17d;" horiz-adv-x="1642" 
d="M1536 293l-41 -293h-1501l37 258l1106 920h-969l39 292h1483l-37 -256l-1108 -921h991zM1137 1552h-351l-247 318h247l191 -131l227 131h269z" />
    <glyph glyph-name="zcaron" unicode="&#x17e;" horiz-adv-x="1296" 
d="M1194 270l-37 -270h-1167l35 242l757 567h-671l39 270h1153l-35 -243l-760 -566h686zM899 1167h-321l-226 303h238l162 -110l196 110h260z" />
    <glyph glyph-name="florin" unicode="&#x192;" horiz-adv-x="1673" 
d="M600 449l68 208h-287l33 228h325l54 164q72 225 211.5 334.5t375.5 109.5q132 0 239.5 -32.5t170.5 -84.5l-154 -229q-103 76 -239 76q-201 0 -269 -201l-45 -137h324l-31 -228h-364l-76 -235q-72 -226 -211.5 -335.5t-376.5 -109.5q-131 0 -237.5 32.5t-171.5 84.5
l153 230q106 -76 242 -76q201 0 266 201z" />
    <glyph glyph-name="AEacute" unicode="&#x1fc;" horiz-adv-x="2938" 
d="M1401 1470h1608l-41 -292h-1090l-39 -283h973l-41 -289h-973l-45 -313h1092l-43 -293h-1426l45 315h-759l-320 -315h-432zM944 596h516l84 592zM1980 1550l273 320h469l-434 -320h-308z" />
    <glyph glyph-name="aeacute" unicode="&#x1fd;" horiz-adv-x="2209" 
d="M1518 -23q-159 0 -289 55.5t-213 153.5q-194 -209 -545 -209q-211 0 -338 85t-127 233q0 154 127.5 255t355.5 101h437l8 60q9 60 -51 96.5t-178 36.5q-116 0 -194.5 -39.5t-115.5 -106.5l-282 80q68 150 226 237t386 87q290 0 428 -129q178 129 426 129
q267 0 429.5 -143.5t162.5 -362.5q0 -56 -17 -145h-935q23 -100 108.5 -157.5t204.5 -57.5q103 0 186 44t125 123l279 -112q-79 -149 -239 -231.5t-365 -82.5zM1563 850q-109 0 -196 -54.5t-126 -144.5h610q-8 84 -85 141.5t-203 57.5zM539 217q140 0 242 56.5t114 140.5
l4 37h-381q-96 0 -143 -34.5t-47 -86.5q0 -54 55 -83.5t156 -29.5zM1071 1167l246 303h426l-385 -303h-287z" />
    <glyph glyph-name="Oslashacute" unicode="&#x1fe;" horiz-adv-x="1832" 
d="M903 -23q-304 0 -520 142l-213 -178l-168 190l193 162q-125 173 -125 391q0 160 66.5 307t183.5 258t290.5 177.5t374.5 66.5q311 0 533 -150l196 166l168 -192l-180 -154q115 -165 115 -377q0 -160 -66 -307t-183 -258t-290.5 -177.5t-374.5 -66.5zM971 1204
q-244 0 -399.5 -144t-155.5 -358q0 -114 51 -208l786 645q-118 65 -282 65zM1473 768q0 107 -46 197l-780 -639q117 -60 271 -60q245 0 400 144t155 358zM874 1550l273 320h469l-434 -320h-308z" />
    <glyph glyph-name="oslashacute" unicode="&#x1ff;" horiz-adv-x="1372" 
d="M133 -66l-143 162l139 121q-86 125 -86 289q0 123 49.5 232.5t137 189.5t213.5 127t272 47q212 0 368 -92l156 135l145 -160l-141 -123q86 -125 86 -289q0 -123 -49.5 -232.5t-137 -189.5t-213.5 -127t-272 -47q-209 0 -370 93zM705 846q-160 0 -256.5 -98t-96.5 -234
q0 -59 23 -113l481 416q-72 29 -151 29zM1020 563q0 53 -21 111l-481 -412q69 -29 150 -29q107 0 189 47t122.5 121t40.5 162zM621 1167l245 303h426l-385 -303h-286z" />
    <glyph glyph-name="uni0218" unicode="&#x218;" horiz-adv-x="1603" 
d="M-55 330l233 231q92 -133 275 -214t401 -81q167 1 257.5 46t90.5 124q0 40 -22.5 67t-86.5 46.5t-112.5 28.5t-165.5 27q-55 8 -84 13q-71 12 -122.5 22t-117 28t-111.5 37.5t-94 50.5t-77 67t-47.5 86.5t-18.5 110.5q0 207 190.5 340t520.5 133q268 0 478 -85.5
t308 -217.5l-233 -215q-90 110 -243 170.5t-351 60.5q-157 0 -241.5 -40.5t-84.5 -110.5q0 -24 8.5 -42t33.5 -32.5t50.5 -24.5t81 -21t101 -18.5t132.5 -20.5q5 -1 7 -1q62 -9 103 -16t101.5 -19t102 -24t93 -31t86 -40.5t70 -51t56.5 -63.5t34.5 -78t13.5 -95
q0 -223 -197.5 -361.5t-534.5 -138.5q-298 0 -540 102.5t-344 250.5zM504 -252l24 184h328l-17 -112q-37 -258 -364 -258l18 121q111 0 125 65h-114z" />
    <glyph glyph-name="uni0219" unicode="&#x219;" horiz-adv-x="1218" 
d="M-55 201l180 209q77 -91 204 -140t281 -49q111 0 169.5 27t58.5 74q0 12 -4.5 21.5t-14.5 17.5t-21 13.5t-30 10.5t-36.5 9t-44.5 8t-49 6.5t-56 7t-60 8.5q-52 7 -91 14t-87.5 19.5t-83 27.5t-70.5 38t-58 51.5t-36 68t-14 86.5q0 164 147.5 268.5t415.5 104.5
q183 0 339 -56.5t237 -144.5l-187 -192q-71 70 -184 110.5t-238 40.5q-101 0 -151.5 -24.5t-50.5 -65.5q0 -44 89 -66q45 -11 181 -28q64 -8 112.5 -16.5t110 -24t104.5 -38t82.5 -54t59.5 -77t20 -101.5q0 -177 -157 -282.5t-424 -105.5q-202 0 -375 61t-268 163zM327 -252
l25 184h328l-17 -112q-37 -258 -364 -258l18 121q111 0 125 65h-115z" />
    <glyph glyph-name="uni021A" unicode="&#x21a;" horiz-adv-x="1687" 
d="M1743 1178h-639l-164 -1178h-342l164 1178h-637l41 292h1618zM571 -252l25 184h327l-16 -112q-37 -258 -364 -258l18 121q111 0 125 65h-115z" />
    <glyph glyph-name="uni021B" unicode="&#x21b;" horiz-adv-x="1079" 
d="M217 358l64 451h-246l39 270h245l41 299h324l-43 -299h449l-39 -270h-447l-55 -385q-10 -84 33 -122t141 -38q114 0 242 49l26 -264q-162 -65 -340 -65q-223 0 -341.5 98t-92.5 276zM346 -252l25 184h327l-16 -112q-37 -258 -365 -258l19 121q111 0 125 65h-115z" />
    <glyph glyph-name="uni0237" unicode="&#x237;" horiz-adv-x="530" 
d="M358 33q-30 -215 -147.5 -314.5t-333.5 -99.5q-161 0 -287 45l78 238q88 -27 170 -27q87 0 133.5 38.5t59.5 129.5l145 1036h328z" />
    <glyph glyph-name="circumflex" unicode="&#x2c6;" horiz-adv-x="1228" 
d="M905 1470l225 -303h-235l-164 111l-196 -111h-261l312 303h319z" />
    <glyph glyph-name="caron" unicode="&#x2c7;" horiz-adv-x="1228" 
d="M864 1167h-321l-226 303h238l162 -110l196 110h261z" />
    <glyph glyph-name="breve" unicode="&#x2d8;" horiz-adv-x="1228" 
d="M737 1368q154 0 181 102h221q-21 -149 -126.5 -228.5t-291.5 -78.5q-195 0 -291.5 82t-77.5 225h221q0 -48 41.5 -75t122.5 -27z" />
    <glyph glyph-name="dotaccent" unicode="&#x2d9;" horiz-adv-x="1228" 
d="M541 1190l39 280h331l-39 -280h-331z" />
    <glyph glyph-name="ring" unicode="&#x2da;" horiz-adv-x="1228" 
d="M743 1599q101 0 165.5 -62.5t64.5 -150.5q0 -96 -72.5 -166.5t-179.5 -70.5q-101 0 -165 61.5t-64 151.5q0 95 72.5 166t178.5 71zM725 1288q40 0 66 27t26 65q0 34 -22.5 57t-57.5 23q-39 0 -64.5 -27.5t-25.5 -64.5q0 -35 22 -57.5t56 -22.5z" />
    <glyph glyph-name="ogonek" unicode="&#x2db;" horiz-adv-x="1228" 
d="M244 -193q0 95 95.5 172.5t295.5 116.5l76 -96q-135 -32 -190.5 -62.5t-55.5 -64.5q0 -28 29.5 -43.5t83.5 -15.5q51 0 108 16l-27 -186q-78 -19 -141 -19q-125 0 -199.5 50t-74.5 132z" />
    <glyph glyph-name="tilde" unicode="&#x2dc;" horiz-adv-x="1228" 
d="M573 1489q47 0 91 -15.5t72 -33.5t63 -33.5t67 -15.5q65 0 92 98h199q-26 -149 -97.5 -235.5t-182.5 -86.5q-47 0 -91.5 15t-73 33.5t-63.5 33.5t-65 15q-66 0 -95 -97h-196q24 147 96.5 234.5t183.5 87.5z" />
    <glyph glyph-name="hungarumlaut" unicode="&#x2dd;" horiz-adv-x="1228" 
d="M659 1167l230 303h362l-331 -303h-261zM203 1167l229 303h361l-330 -303h-260z" />
    <glyph glyph-name="gravecmb" unicode="&#x300;" horiz-adv-x="0" 
d="M280 1167h-258l-302 303h398z" />
    <glyph glyph-name="acutecmb" unicode="&#x301;" horiz-adv-x="0" 
d="M-336 1167l246 303h426l-385 -303h-287z" />
    <glyph glyph-name="circumflexcmb" unicode="&#x302;" horiz-adv-x="0" 
d="M203 1470l225 -303h-235l-164 111l-197 -111h-260l311 303h320z" />
    <glyph glyph-name="tildecmb" unicode="&#x303;" horiz-adv-x="0" 
d="M-152 1489q47 0 91 -15.5t72 -33.5t63 -33.5t67 -15.5q65 0 92 98h199q-26 -149 -97.5 -235.5t-182.5 -86.5q-47 0 -91.5 15t-73 33.5t-63.5 33.5t-65 15q-66 0 -95 -97h-196q24 147 96.5 234.5t183.5 87.5z" />
    <glyph glyph-name="macroncmb" unicode="&#x304;" horiz-adv-x="0" 
d="M362 1194h-757l35 244h755z" />
    <glyph glyph-name="brevecmb" unicode="&#x306;" horiz-adv-x="0" 
d="M-7 1368q153 0 180 102h222q-21 -149 -126.5 -228.5t-291.5 -78.5q-195 0 -291.5 82t-77.5 225h221q0 -48 41.5 -75t122.5 -27z" />
    <glyph glyph-name="dotaccentcmb" unicode="&#x307;" horiz-adv-x="0" 
d="M-185 1190l39 280h331l-39 -280h-331z" />
    <glyph glyph-name="dieresiscmb" unicode="&#x308;" horiz-adv-x="0" 
d="M-435 1190l39 280h327l-36 -280h-330zM69 1190l39 280h327l-39 -280h-327z" />
    <glyph glyph-name="ringcmb" unicode="&#x30a;" horiz-adv-x="0" 
d="M11 1599q101 0 165.5 -62.5t64.5 -150.5q0 -96 -72.5 -166.5t-179.5 -70.5q-101 0 -165.5 61.5t-64.5 151.5q0 95 73 166t179 71zM-7 1288q40 0 66 27t26 65q0 34 -22.5 57t-57.5 23q-39 0 -64.5 -27.5t-25.5 -64.5q0 -35 22 -57.5t56 -22.5z" />
    <glyph glyph-name="hungarumlautcmb" unicode="&#x30b;" horiz-adv-x="0" 
d="M-68 1167l230 303h362l-331 -303h-261zM-524 1167l229 303h361l-330 -303h-260z" />
    <glyph glyph-name="caroncmb" unicode="&#x30c;" horiz-adv-x="0" 
d="M119 1167h-322l-225 303h238l161 -110l197 110h260z" />
    <glyph glyph-name="commaturncmb" unicode="&#x312;" horiz-adv-x="0" 
d="M162 1352l-25 -185h-327l16 113q37 258 364 258l-18 -121q-111 0 -125 -65h115z" />
    <glyph glyph-name="commaaccentcmb" unicode="&#x326;" horiz-adv-x="0" 
d="M-162 -252l25 184h327l-16 -112q-37 -258 -364 -258l18 121q111 0 125 65h-115z" />
    <glyph glyph-name="cedillacmb" unicode="&#x327;" horiz-adv-x="0" 
d="M299 -205q0 -79 -80.5 -128.5t-218.5 -49.5q-95 0 -173.5 23.5t-125.5 60.5l104 131q71 -57 181 -57q98 0 98 45q0 56 -188 53l67 152h146l-29 -68q101 -9 160 -52.5t59 -109.5z" />
    <glyph glyph-name="ogonekcmb" unicode="&#x328;" horiz-adv-x="0" 
d="M-233 -193q0 95 95.5 172.5t295.5 116.5l75 -96q-135 -32 -190 -62.5t-55 -64.5q0 -28 29 -43.5t83 -15.5q52 0 109 16l-27 -186q-78 -19 -141 -19q-125 0 -199.5 50t-74.5 132z" />
    <glyph glyph-name="baht" unicode="&#xe3f;" horiz-adv-x="1675" 
d="M616 -209l267 1884h276l-266 -1884h-277zM469 877h688q101 0 160 50.5t59 121.5q0 70 -55 109.5t-148 39.5h-657zM41 0l207 1470h942q226 0 357.5 -97.5t131.5 -264.5q0 -119 -68 -218t-194 -145q96 -40 153.5 -122.5t57.5 -194.5q0 -184 -145 -306t-396 -122h-1046z
M434 618l-49 -344h719q104 0 165.5 54.5t61.5 132.5q0 71 -55.5 114t-151.5 43h-690z" />
    <glyph glyph-name="Wgrave" unicode="&#x1e80;" horiz-adv-x="2416" 
d="M1163 1470h346l154 -1071l547 1071h354l-758 -1470h-383l-151 1059l-520 -1059h-379l-244 1470h346l168 -1071zM1501 1550h-272l-342 320h432z" />
    <glyph glyph-name="wgrave" unicode="&#x1e81;" horiz-adv-x="1925" 
d="M887 1079h291l120 -686l363 686h348l-608 -1079h-293l-135 684l-363 -684h-307l-235 1079h342l120 -686zM1208 1167h-258l-301 303h398z" />
    <glyph glyph-name="Wacute" unicode="&#x1e82;" horiz-adv-x="2416" 
d="M1163 1470h346l154 -1071l547 1071h354l-758 -1470h-383l-151 1059l-520 -1059h-379l-244 1470h346l168 -1071zM1194 1550l272 320h469l-434 -320h-307z" />
    <glyph glyph-name="wacute" unicode="&#x1e83;" horiz-adv-x="1925" 
d="M887 1079h291l120 -686l363 686h348l-608 -1079h-293l-135 684l-363 -684h-307l-235 1079h342l120 -686zM911 1167l246 303h426l-385 -303h-287z" />
    <glyph glyph-name="Wdieresis" unicode="&#x1e84;" horiz-adv-x="2416" 
d="M1163 1470h346l154 -1071l547 1071h354l-758 -1470h-383l-151 1059l-520 -1059h-379l-244 1470h346l168 -1071zM926 1550l41 289h327l-41 -289h-327zM1448 1550l41 289h328l-41 -289h-328z" />
    <glyph glyph-name="wdieresis" unicode="&#x1e85;" horiz-adv-x="1925" 
d="M887 1079h291l120 -686l363 686h348l-608 -1079h-293l-135 684l-363 -684h-307l-235 1079h342l120 -686zM645 1190l39 280h328l-37 -280h-330zM1149 1190l39 280h328l-39 -280h-328z" />
    <glyph glyph-name="Germandbls" unicode="&#x1e9e;" horiz-adv-x="1861" 
d="M1188 -23q-220 0 -382.5 79t-240.5 225l217 231q155 -254 418 -254q130 0 213.5 64t83.5 161q0 86 -73.5 134.5t-225.5 48.5h-360l30 221l408 299h-727l-166 -1186h-342l207 1470h1521l-39 -268l-471 -344l-194 49h192q146 0 258.5 -33.5t180.5 -92.5t102.5 -133
t34.5 -161q0 -221 -176.5 -365.5t-468.5 -144.5z" />
    <glyph glyph-name="Ygrave" unicode="&#x1ef2;" horiz-adv-x="1775" 
d="M928 883l579 587h414l-852 -860l-86 -610h-342l86 610l-612 860h395zM1223 1550h-273l-342 320h432z" />
    <glyph glyph-name="ygrave" unicode="&#x1ef3;" horiz-adv-x="1378" 
d="M748 -51q-118 -189 -221.5 -259.5t-268.5 -70.5q-159 0 -278 51l83 250q83 -39 170 -39q57 0 94.5 24t73.5 81l29 47l-362 1046h354l231 -733l451 733h358zM950 1167h-258l-301 303h397z" />
    <glyph glyph-name="thinspace" unicode="&#x2009;" horiz-adv-x="204" 
 />
    <glyph glyph-name="endash" unicode="&#x2013;" horiz-adv-x="1110" 
d="M72 475l39 266h946l-39 -266h-946z" />
    <glyph glyph-name="emdash" unicode="&#x2014;" horiz-adv-x="1998" 
d="M72 475l39 266h1835l-39 -266h-1835z" />
    <glyph glyph-name="quoteleft" unicode="&#x2018;" horiz-adv-x="471" 
d="M512 1163l-49 -346h-377l47 338q21 149 136 231t286 84l-25 -167q-145 -9 -161 -121l-4 -19h147z" />
    <glyph glyph-name="quoteright" unicode="&#x2019;" horiz-adv-x="471" 
d="M129 1124l49 346h377l-47 -337q-21 -149 -136 -231.5t-286 -84.5l24 168q146 9 162 121l4 18h-147z" />
    <glyph glyph-name="quotesinglbase" unicode="&#x201a;" horiz-adv-x="471" 
d="M-27 25l49 346h377l-47 -338q-21 -149 -136 -231.5t-286 -84.5l25 168q146 9 162 121l4 19h-148z" />
    <glyph glyph-name="quotedblleft" unicode="&#x201c;" horiz-adv-x="946" 
d="M512 1163l-49 -346h-377l47 338q21 149 136 231t286 84l-25 -167q-145 -9 -161 -121l-4 -19h147zM987 1163l-49 -346h-377l47 338q21 149 136 231t286 84l-24 -167q-146 -9 -162 -121l-4 -19h147z" />
    <glyph glyph-name="quotedblright" unicode="&#x201d;" horiz-adv-x="946" 
d="M606 1124l49 346h377l-47 -337q-21 -149 -136 -231.5t-286 -84.5l25 168q145 9 161 121l4 18h-147zM131 1124l49 346h377l-47 -337q-21 -149 -136 -231.5t-286 -84.5l24 168q146 9 162 121l4 18h-147z" />
    <glyph glyph-name="quotedblbase" unicode="&#x201e;" horiz-adv-x="946" 
d="M450 25l50 346h376l-47 -338q-21 -149 -136 -231.5t-286 -84.5l25 168q146 9 162 121l4 19h-148zM-25 25l49 346h377l-47 -338q-21 -149 -136 -231.5t-286 -84.5l25 168q146 9 162 121l4 19h-148z" />
    <glyph glyph-name="dagger" unicode="&#x2020;" horiz-adv-x="860" 
d="M313 569l64 451h-277l33 237h277l36 254h242l-37 -254h277l-33 -237h-277l-63 -451h-242z" />
    <glyph glyph-name="daggerdbl" unicode="&#x2021;" horiz-adv-x="847" 
d="M301 569l25 174h-263l33 222h260l23 153h-262l30 221h263l24 172h254l-24 -172h262l-33 -221h-260l-23 -153h262l-30 -222h-262l-25 -174h-254z" />
    <glyph glyph-name="bullet" unicode="&#x2022;" horiz-adv-x="905" 
d="M465 991q161 0 271 -108.5t110 -276.5q0 -164 -110.5 -272.5t-270.5 -108.5q-163 0 -275 108.5t-112 272.5q0 168 111.5 276.5t275.5 108.5z" />
    <glyph glyph-name="ellipsis" unicode="&#x2026;" horiz-adv-x="1525" 
d="M-4 0l51 367h377l-51 -367h-377zM498 0l51 367h377l-52 -367h-376zM1001 0l52 367h377l-52 -367h-377z" />
    <glyph glyph-name="guilsinglleft" unicode="&#x2039;" horiz-adv-x="653" 
d="M53 389l41 287l545 289l-45 -316l-229 -127l192 -129l-41 -293z" />
    <glyph glyph-name="guilsinglright" unicode="&#x203a;" horiz-adv-x="653" 
d="M598 676l-41 -287l-545 -289l45 316l230 127l-193 129l41 293z" />
    <glyph glyph-name="fraction" unicode="&#x2044;" horiz-adv-x="329" 
d="M721 1470h293l-1350 -1470h-293z" />
    <glyph glyph-name="uni2070" unicode="&#x2070;" horiz-adv-x="1052" 
d="M575 645q-198 0 -324 110.5t-126 278.5q0 89 36 170.5t100 143.5t158.5 98.5t205.5 36.5q198 0 323 -110t125 -279q0 -89 -35.5 -170.5t-99 -143.5t-158 -98.5t-205.5 -36.5zM612 1282q-100 0 -165.5 -68t-65.5 -167q-1 -91 56.5 -146t148.5 -55q100 0 165.5 67.5
t67.5 167.5q0 91 -57.5 146t-149.5 55z" />
    <glyph glyph-name="uni2074" unicode="&#x2074;" horiz-adv-x="983" 
d="M791 657h-236l27 183h-512l26 180l486 450h323l-63 -446h178l-25 -184h-178zM367 1024h239l35 252z" />
    <glyph glyph-name="uni2075" unicode="&#x2075;" horiz-adv-x="925" 
d="M336 983l-213 31l115 456h723l-29 -194h-529l-26 -107q93 41 215 41q158 0 254 -68.5t96 -185.5q0 -132 -115 -221.5t-321 -89.5q-156 0 -283 59t-164 156l224 96q25 -53 91 -85.5t150 -32.5q82 0 126 29.5t44 72.5q0 44 -43.5 70t-118.5 26q-110 0 -196 -53z" />
    <glyph glyph-name="uni2076" unicode="&#x2076;" horiz-adv-x="1013" 
d="M1069 1331l-158 -133q-40 46 -110 73t-152 27q-110 0 -184 -48t-90 -120q108 78 272 78q163 0 269 -74.5t106 -185.5q0 -128 -121.5 -215.5t-335.5 -87.5q-213 0 -327 91.5t-115 271.5q1 95 36 180t100 151t167.5 105t228.5 39q135 0 247.5 -40t166.5 -112zM563 823
q97 0 154 32t57 79q0 45 -52 72.5t-140 27.5q-98 0 -154.5 -32t-56.5 -78q0 -45 51.5 -73t140.5 -28z" />
    <glyph glyph-name="uni2077" unicode="&#x2077;" horiz-adv-x="937" 
d="M723 1276h-379l-22 -150h-209l49 344h876l-28 -208q-174 -122 -270 -271t-122 -334h-256q57 387 361 619z" />
    <glyph glyph-name="uni2078" unicode="&#x2078;" horiz-adv-x="987" 
d="M600 1483q192 0 297 -65t107 -169q0 -58 -38.5 -104t-109.5 -76q67 -26 103.5 -70t35.5 -104q0 -112 -120.5 -181t-333.5 -69q-205 0 -329 64t-124 174q1 70 53 123.5t140 80.5q-99 61 -99 152q0 112 114.5 178t303.5 66zM588 1163q82 0 127 21.5t45 56.5q0 34 -43.5 54
t-118.5 20q-81 0 -127.5 -22.5t-46.5 -57.5q0 -34 44.5 -53t119.5 -19zM551 991q-101 0 -156 -24t-55 -64q0 -39 52 -60.5t149 -21.5q99 0 155 23.5t56 62.5t-53 61.5t-148 22.5z" />
    <glyph glyph-name="uni2079" unicode="&#x2079;" horiz-adv-x="1013" 
d="M90 797l160 133q41 -46 110 -73.5t150 -27.5q110 0 185 49t91 121q-105 -79 -276 -79q-163 0 -267 74.5t-104 185.5q0 127 122 215t335 88t327 -92t115 -273q-1 -95 -36 -179.5t-100.5 -150.5t-167.5 -104.5t-228 -38.5q-135 0 -248.5 40t-167.5 112zM598 1305
q-97 0 -154 -32t-57 -79q0 -45 52.5 -72.5t140.5 -27.5q98 0 154.5 32t56.5 78q0 45 -52 73t-141 28z" />
    <glyph glyph-name="uni2080" unicode="&#x2080;" horiz-adv-x="1052" 
d="M449 -258q-198 0 -324.5 110.5t-126.5 278.5q0 89 36 170.5t100 143.5t158.5 98.5t205.5 36.5q198 0 323 -110.5t125 -279.5q0 -89 -35.5 -170.5t-99 -143t-157.5 -98t-205 -36.5zM485 379q-100 0 -165.5 -68.5t-65.5 -167.5q-1 -91 56.5 -145.5t148.5 -54.5
q100 0 165.5 67.5t67.5 167.5q0 91 -57.5 146t-149.5 55z" />
    <glyph glyph-name="uni2081" unicode="&#x2081;" horiz-adv-x="770" 
d="M-80 -246l29 203h254l43 295h-252l24 178l107 4q99 1 148.5 33t72.5 100h193l-86 -610h217l-27 -203h-723z" />
    <glyph glyph-name="uni2082" unicode="&#x2082;" horiz-adv-x="933" 
d="M-25 -70l428 207q99 49 138 85.5t39 72.5q0 40 -37.5 63t-98.5 23q-81 0 -138.5 -43.5t-80.5 -122.5l-221 51q33 141 154.5 227.5t300.5 86.5q166 0 269 -71.5t103 -191.5q0 -87 -58.5 -157.5t-186.5 -130.5l-164 -78h379l-27 -197h-823z" />
    <glyph glyph-name="uni2083" unicode="&#x2083;" horiz-adv-x="970" 
d="M416 -258q-186 0 -314.5 62.5t-169.5 164.5l224 97q22 -60 91.5 -96t174.5 -36q79 0 122.5 22t43.5 60q0 62 -137 62h-181l27 176h172q72 0 108.5 18t36.5 50q0 30 -37 46.5t-102 16.5q-92 0 -161 -29.5t-107 -81.5l-189 105q61 97 182.5 149t284.5 52q183 0 288.5 -63
t105.5 -165q0 -67 -43 -117t-119 -73q64 -22 99.5 -65.5t35.5 -104.5q0 -106 -112 -178t-324 -72z" />
    <glyph glyph-name="uni2084" unicode="&#x2084;" horiz-adv-x="983" 
d="M664 -246h-236l27 183h-512l26 180l486 450h323l-63 -446h178l-25 -184h-178zM240 121h239l35 252z" />
    <glyph glyph-name="uni2085" unicode="&#x2085;" horiz-adv-x="925" 
d="M209 80l-213 31l115 456h723l-29 -194h-529l-26 -107q93 41 215 41q158 0 254 -68.5t96 -185.5q0 -132 -115 -221.5t-321 -89.5q-156 0 -283 59t-164 156l224 96q25 -53 91 -86t150 -33q82 0 126 30t44 73q0 44 -43 70t-118 26q-111 0 -197 -53z" />
    <glyph glyph-name="uni2086" unicode="&#x2086;" horiz-adv-x="1013" 
d="M942 428l-158 -133q-40 46 -110 73t-152 27q-110 0 -184 -48t-90 -120q108 78 272 78q163 0 269 -74.5t106 -185.5q0 -128 -121.5 -215.5t-335.5 -87.5q-213 0 -327 91t-115 271q1 95 36 180t100 151.5t167.5 105.5t228.5 39q135 0 247.5 -40t166.5 -112zM436 -80
q97 0 154 32t57 79q0 45 -52 72.5t-140 27.5q-97 0 -154 -32.5t-57 -78.5q0 -45 51.5 -72.5t140.5 -27.5z" />
    <glyph glyph-name="uni2087" unicode="&#x2087;" horiz-adv-x="935" 
d="M596 373h-379l-22 -150h-209l49 344h876l-28 -209q-174 -122 -269.5 -270.5t-121.5 -333.5h-256q57 388 360 619z" />
    <glyph glyph-name="uni2088" unicode="&#x2088;" horiz-adv-x="987" 
d="M473 580q192 0 297 -65t107 -169q0 -58 -38.5 -104t-109.5 -76q67 -26 103.5 -70t35.5 -104q0 -112 -120.5 -181t-333.5 -69q-205 0 -329 64t-124 174q1 70 53 123.5t140 80.5q-99 61 -99 152q0 112 114.5 178t303.5 66zM461 260q82 0 127 21.5t45 56.5q0 34 -43.5 54
t-118.5 20q-81 0 -127.5 -22.5t-46.5 -57.5q0 -34 44.5 -53t119.5 -19zM424 88q-101 0 -156 -24t-55 -64q0 -39 52 -60.5t149 -21.5q99 0 155 23.5t56 62.5t-52.5 61.5t-148.5 22.5z" />
    <glyph glyph-name="uni2089" unicode="&#x2089;" horiz-adv-x="1013" 
d="M-37 -106l160 133q41 -46 110 -73.5t150 -27.5q110 0 185 49t91 121q-107 -80 -276 -80q-163 0 -267 74.5t-104 185.5q0 127 122 215.5t335 88.5t327 -92t115 -273q-1 -95 -36 -179.5t-100.5 -150.5t-167.5 -104.5t-228 -38.5q-135 0 -248.5 40t-167.5 112zM471 401
q-97 0 -154 -31.5t-57 -78.5q0 -45 52.5 -73t140.5 -28q97 0 154 32.5t57 78.5q0 45 -52 72.5t-141 27.5z" />
    <glyph glyph-name="franc" unicode="&#x20a3;" horiz-adv-x="1761" 
d="M-14 260l36 262h1020l-39 -262h-1017zM567 0h-336l207 1470h1411l-41 -282h-1073l-39 -277h957l-39 -284h-959z" />
    <glyph glyph-name="naira" unicode="&#x20a6;" horiz-adv-x="2174" 
d="M27 469l30 213h475l-30 -213h-475zM72 788l30 213h475l-30 -213h-475zM1698 788l30 213h476l-31 -213h-475zM1653 469l30 213h475l-30 -213h-475zM1986 1470l-206 -1470h-301l-758 1038l-146 -1038h-331l206 1470h347l718 -987l140 987h331z" />
    <glyph glyph-name="peseta" unicode="&#x20a7;" horiz-adv-x="2140" 
d="M633 350h547q212 0 369.5 78.5t239 215.5t81.5 314q0 229 -164.5 370.5t-433.5 141.5h-822l-206 -1470h340zM672 633l80 555h487q142 0 221.5 -62.5t79.5 -173.5q0 -139 -94.5 -229t-263.5 -90h-510zM74 797h2064l33 229h-2065z" />
    <glyph glyph-name="won" unicode="&#x20a9;" horiz-adv-x="2273" 
d="M27 469l30 213h459l-31 -213h-458zM72 788l30 213h422l-31 -213h-421zM2226 469h-457l31 213h457zM2271 788h-420l29 213h422zM1112 1470h303l166 -1130h-47l434 1130h342l-598 -1470h-352l-160 1118h59l-477 -1118h-373l-184 1470h332l115 -1130h-45z" />
    <glyph glyph-name="dong" unicode="&#x20ab;" horiz-adv-x="1452" 
d="M907 262l-14 -94h293l184 1302h-293l-78 -550q-47 58 -136 94.5t-204 36.5q-129 0 -237.5 -39.5t-180.5 -107t-112.5 -156.5t-40.5 -187q0 -177 129 -294t350 -117q111 0 200 31.5t140 80.5zM-2 -236l33 236h1130l-33 -236h-1130zM715 1124h796l35 236h-797zM692 819
q119 0 192.5 -57t73.5 -146q0 -102 -86.5 -169.5t-220.5 -67.5q-119 0 -191.5 56.5t-72.5 146.5q0 102 85.5 169.5t219.5 67.5z" />
    <glyph glyph-name="Euro" unicode="&#x20ac;" horiz-adv-x="1822" 
d="M29 481l30 205h185q0 39 8 105h-178l28 204h211q101 223 323 360.5t507 137.5q284 0 484 -127t247 -336l-297 -135q-37 145 -157.5 227t-299.5 82q-147 0 -265 -55t-191 -154h581l-76 -204h-594q-8 -39 -8 -91v-14h563l-73 -205h-434q61 -103 176 -159t262 -56
q310 0 461 293l266 -149q-105 -208 -300 -320.5t-444 -112.5q-291 0 -499.5 137t-274.5 367h-241z" />
    <glyph glyph-name="peso" unicode="&#x20b1;" horiz-adv-x="2138" 
d="M637 383h569q306 0 486 161.5t180 426.5q0 229 -158.5 364t-421.5 135h-842l-206 -1470h340zM676 666l76 522h514q131 0 203.5 -58t72.5 -161q0 -135 -90.5 -219t-245.5 -84h-530zM51 643h494l30 213h-493zM590 961l30 213h-493l-31 -213h494zM1735 1174l-31 -213h457
l30 213h-456zM1689 856l-30 -213h456l31 213h-457z" />
    <glyph glyph-name="uni20B9" unicode="&#x20b9;" horiz-adv-x="1687" 
d="M588 610l370 -610h383l-397 637zM84 842h1605l37 262h-1605zM33 477h780q176 0 317.5 71.5t219 190.5t77.5 260q0 113 -69 211h385l35 260h-1606l-35 -260h733q117 0 179.5 -59t62.5 -152q0 -111 -83.5 -186.5t-225.5 -75.5h-733z" />
    <glyph glyph-name="uni20BA" unicode="&#x20ba;" horiz-adv-x="1628" 
d="M207 0l207 1470h342l-166 -1177h229q418 0 481 459h340q-25 -187 -82.5 -323.5t-156 -234t-245 -146t-343.5 -48.5h-606zM24 510l37 252l1073 543l-34 -252zM-31 147l35 254l1079 541l-37 -252z" />
    <glyph glyph-name="uni20BD" unicode="&#x20bd;" horiz-adv-x="1855" 
d="M86 856l-39 -272h1280q261 0 411 132.5t150 338.5q0 189 -128.5 302t-362.5 113h-942l-207 -1470h342l168 1198h604q95 0 144.5 -39t49.5 -112q0 -81 -59.5 -136t-167.5 -55h-1243zM-8 209h1175l39 270h-1177z" />
    <glyph glyph-name="trademark" unicode="&#x2122;" horiz-adv-x="1935" 
d="M555 766h-236l70 496h-258l29 208h751l-28 -208h-258zM1470 766h-129l-143 432l-59 -432h-213l98 704h297l129 -368l229 368h308l-99 -704h-215l62 432z" />
    <glyph glyph-name="uni2153" unicode="&#x2153;" horiz-adv-x="2207" 
d="M47 657l29 203h254l43 295h-252l24 178l107 4q99 1 148.5 33t72.5 100h193l-86 -610h217l-27 -203h-723zM1628 1470h293l-1350 -1470h-292zM1688 -12q-186 0 -314.5 62.5t-169.5 164.5l223 96q22 -60 92 -95.5t175 -35.5q79 0 122.5 22t43.5 60q0 62 -138 62h-180l27 176
h172q145 0 145 67q0 30 -37 47t-102 17q-92 0 -161 -29.5t-107 -81.5l-189 105q61 97 182.5 148.5t284.5 51.5q183 0 288 -62.5t105 -164.5q0 -67 -42.5 -117t-118.5 -73q64 -22 99.5 -65.5t35.5 -104.5q0 -106 -112 -178t-324 -72z" />
    <glyph glyph-name="uni2154" unicode="&#x2154;" horiz-adv-x="2328" 
d="M102 834l428 206q99 49 138 85.5t39 72.5q0 40 -37.5 63t-98.5 23q-81 0 -138.5 -43.5t-80.5 -122.5l-221 51q33 141 154.5 227.5t300.5 86.5q166 0 269 -71t103 -191q0 -174 -245 -289l-164 -78h379l-27 -197h-823zM1749 1470h293l-1350 -1470h-293zM1810 -12
q-186 0 -314 62.5t-169 164.5l223 96q22 -60 92 -95.5t175 -35.5q79 0 122 21.5t43 60.5q0 62 -137 62h-180l27 176h172q145 0 145 67q0 30 -37 47t-102 17q-92 0 -161 -29.5t-107 -81.5l-189 105q61 97 182.5 148.5t284.5 51.5q183 0 288 -62.5t105 -164.5q0 -67 -43 -117
t-119 -73q64 -22 100 -66t36 -104q0 -106 -112.5 -178t-324.5 -72z" />
    <glyph glyph-name="uni215B" unicode="&#x215b;" horiz-adv-x="2224" 
d="M47 657l29 203h254l43 295h-252l24 178l107 4q99 1 148.5 33t72.5 100h193l-86 -610h217l-27 -203h-723zM1628 1470h293l-1350 -1470h-292zM1743 825q192 0 296.5 -64.5t106.5 -168.5q0 -119 -147 -180q67 -26 103.5 -70t35.5 -104q0 -111 -121 -180.5t-334 -69.5
q-206 0 -329 64t-123 173q1 70 53 124t139 81q-98 61 -98 152q0 112 114.5 177.5t303.5 65.5zM1731 506q82 0 127 21.5t45 56.5q0 34 -43.5 53.5t-118.5 19.5q-81 0 -127.5 -22t-46.5 -57q0 -34 44.5 -53t119.5 -19zM1694 334q-101 0 -156 -24t-55 -64q0 -39 51.5 -60.5
t148.5 -21.5q99 0 155 23.5t56 62.5t-52.5 61.5t-147.5 22.5z" />
    <glyph glyph-name="uni215C" unicode="&#x215c;" horiz-adv-x="2312" 
d="M545 645q-186 0 -314.5 62.5t-169.5 164.5l224 97q22 -60 91.5 -95.5t174.5 -35.5q79 0 122.5 22t43.5 60q0 61 -137 61h-181l27 176h172q72 0 108.5 18t36.5 50q0 30 -37 46.5t-102 16.5q-92 0 -161.5 -29t-106.5 -81l-189 104q61 97 182.5 149t284.5 52
q183 0 288.5 -63t105.5 -165q0 -67 -43 -117t-119 -73q64 -22 99.5 -65.5t35.5 -104.5q0 -106 -112 -178t-324 -72zM1716 1470h293l-1350 -1470h-292zM1833 825q192 0 296.5 -64.5t106.5 -168.5q0 -119 -147 -180q67 -26 103.5 -70t35.5 -104q0 -112 -120.5 -181t-333.5 -69
q-206 0 -329.5 64t-123.5 173q1 70 53 124t139 81q-98 61 -98 152q0 112 114.5 177.5t303.5 65.5zM1821 506q82 0 127 21.5t45 56.5q0 34 -43.5 53.5t-118.5 19.5q-81 0 -127.5 -22t-46.5 -57q0 -34 44.5 -53t119.5 -19zM1784 334q-101 0 -156 -24t-55 -64q0 -39 52 -60.5
t149 -21.5q99 0 155 23.5t56 62.5t-52.5 61.5t-148.5 22.5z" />
    <glyph glyph-name="uni215D" unicode="&#x215d;" horiz-adv-x="2254" 
d="M336 983l-213 31l115 456h723l-29 -194h-529l-26 -107q93 41 215 41q158 0 254 -68.5t96 -185.5q0 -132 -115 -221.5t-321 -89.5q-156 0 -283 59t-164 156l224 96q25 -53 91 -85.5t150 -32.5q82 0 126 29.5t44 72.5q0 44 -43.5 70t-118.5 26q-110 0 -196 -53zM1659 1470
h293l-1350 -1470h-293zM1776 825q192 0 296.5 -64.5t106.5 -168.5q0 -119 -147 -180q67 -26 103.5 -70t35.5 -104q0 -111 -121 -180.5t-334 -69.5q-206 0 -329 64t-123 173q1 70 53 124t139 81q-98 61 -98 152q0 112 114.5 177.5t303.5 65.5zM1763 506q82 0 127 21.5
t45 56.5q0 34 -43 53.5t-118 19.5q-81 0 -128 -22t-47 -57q0 -34 44.5 -53t119.5 -19zM1726 334q-101 0 -155.5 -24t-54.5 -64q0 -39 51.5 -60.5t148.5 -21.5q99 0 155 23.5t56 62.5t-52.5 61.5t-148.5 22.5z" />
    <glyph glyph-name="uni215E" unicode="&#x215e;" horiz-adv-x="2142" 
d="M723 1276h-379l-22 -150h-209l49 344h876l-28 -208q-174 -122 -270 -271t-122 -334h-256q57 387 361 619zM1546 1470h293l-1350 -1470h-292zM1661 825q192 0 296.5 -64.5t106.5 -168.5q0 -119 -147 -180q67 -26 103.5 -70t35.5 -104q0 -112 -120.5 -181t-333.5 -69
q-206 0 -329.5 64t-123.5 173q1 70 53 124t139 81q-98 61 -98 152q0 112 114.5 177.5t303.5 65.5zM1649 506q82 0 127 21.5t45 56.5q0 34 -43.5 53.5t-118.5 19.5q-81 0 -127.5 -22t-46.5 -57q0 -34 44.5 -53t119.5 -19zM1612 334q-101 0 -156 -24t-55 -64q0 -39 52 -60.5
t149 -21.5q99 0 154.5 23.5t55.5 62.5t-52.5 61.5t-147.5 22.5z" />
    <glyph glyph-name="arrowleft" unicode="&#x2190;" horiz-adv-x="1658" 
d="M395 760l483 -545l-204 -192l-635 718l635 719l204 -192l-483 -545l-98 160h1360v-283h-1360z" />
    <glyph glyph-name="arrowup" unicode="&#x2191;" horiz-adv-x="1531" 
d="M633 1145l581 -537l193 203l-756 682l-756 -682l193 -203l581 537l-161 90v-1235h288v1235z" />
    <glyph glyph-name="arrowright" unicode="&#x2192;" horiz-adv-x="1656" 
d="M1319 760l-484 -545l205 -192l635 718l-635 719l-205 -192l484 -545l98 160h-1360v-283h1360z" />
    <glyph glyph-name="arrowdown" unicode="&#x2193;" horiz-adv-x="1531" 
d="M764 326l581 536l193 -203l-756 -682l-755 682l192 203l582 -536l-162 -90v1234h289v-1234z" />
    <glyph glyph-name="arrowleftright" unicode="&#x2194;" horiz-adv-x="2060" 
d="M297 883h1524l-99 -160l-475 545l205 192l627 -719l-627 -718l-205 192l475 545l99 -160h-1524l98 160l475 -545l-205 -192l-626 718l626 719l205 -192l-475 -545z" />
    <glyph glyph-name="arrowupdown" unicode="&#x2195;" horiz-adv-x="1624" 
d="M956 1276v-1401l-147 94l584 477l178 -215l-758 -614l-760 614l180 215l584 -477l-147 -94v1401l147 -94l-575 -486l-181 215l752 623l750 -623l-179 -215l-575 486z" />
    <glyph glyph-name="arrowNW" unicode="&#x2196;" horiz-adv-x="1800" 
d="M520 1233l-188 -49l1208 -1207l199 203l-1207 1209l-47 -191h779v272h-1016v-1015h272v778z" />
    <glyph glyph-name="arrowNE" unicode="&#x2197;" horiz-adv-x="1581" 
d="M1180 1233l188 -49l-1208 -1207l-199 203l1206 1209l47 -191h-778v272h1016v-1015h-272v778z" />
    <glyph glyph-name="arrowSE" unicode="&#x2198;" horiz-adv-x="1800" 
d="M1183 238l189 49l-1208 1206l-199 -203l1206 -1208l47 190h-778v-272h1016v1016h-273v-778z" />
    <glyph glyph-name="arrowSW" unicode="&#x2199;" horiz-adv-x="1581" 
d="M457 238l-189 49l1209 1206l198 -203l-1206 -1208l-47 190h778v-272h-1016v1016h273v-778z" />
    <glyph glyph-name="minus" unicode="&#x2212;" 
d="M127 590l37 276h1401l-39 -276h-1399z" />
    <glyph glyph-name="commaaccent" unicode="&#xf6c3;" horiz-adv-x="1228" 
d="M340 -252l24 184h328l-16 -112q-37 -258 -365 -258l19 121q110 0 124 65h-114z" />
    <glyph glyph-name="CR" horiz-adv-x="565" 
 />
    <glyph glyph-name="idotaccent" horiz-adv-x="530" 
d="M190 1190l39 280h332l-39 -280h-332zM504 1079l-152 -1079h-327l151 1079h328z" />
    <glyph glyph-name="a.ord" horiz-adv-x="1026" 
d="M420 680q-144 0 -233 61t-89 166q0 107 88.5 175t249.5 81l324 27l2 12q5 41 -35.5 65.5t-122.5 24.5q-157 0 -209 -96l-221 53q51 111 166.5 174.5t282.5 63.5q191 0 294.5 -78t83.5 -217l-38 -270q-5 -33 14 -43.5t76 0.5l-25 -183q-113 -23 -191 2t-104 84
q-123 -102 -313 -102zM731 989l6 41l-272 -26q-123 -12 -123 -76q0 -33 36 -51.5t101 -18.5q101 0 172.5 37.5t79.5 93.5z" />
    <glyph glyph-name="b.ord" horiz-adv-x="1101" 
d="M393 788l-12 -92h-250l148 1055h249l-51 -362q45 45 115.5 71.5t148.5 26.5q175 0 279 -105.5t104 -265.5q0 -116 -53.5 -214.5t-156.5 -160t-236 -61.5q-177 0 -285 108zM666 1286q-105 0 -173.5 -64.5t-68.5 -156.5q0 -83 60.5 -133.5t156.5 -50.5q105 0 173.5 64.5
t68.5 156.5q0 83 -60.5 133.5t-156.5 50.5z" />
    <glyph glyph-name="c.ord" horiz-adv-x="966" 
d="M127 1059q0 181 136.5 304.5t352.5 123.5q166 0 279 -76.5t141 -189.5l-229 -86q-9 64 -65.5 106.5t-139.5 42.5q-102 0 -166.5 -63.5t-64.5 -155.5q0 -84 60 -133t149 -49q80 0 136.5 38t80.5 99l207 -88q-45 -117 -158.5 -184.5t-276.5 -67.5q-196 0 -319 105.5
t-123 273.5z" />
    <glyph glyph-name="d.ord" horiz-adv-x="1099" 
d="M860 1378l53 373h248l-147 -1055h-250l12 84q-45 -46 -115 -73t-149 -27q-175 0 -280 106t-105 265q0 115 54 214t157.5 160.5t236.5 61.5q176 0 285 -109zM588 881q105 0 173 64t68 157q0 84 -61 134t-156 50q-105 0 -173 -64t-68 -155q0 -84 60.5 -135t156.5 -51z" />
    <glyph glyph-name="e.ord" horiz-adv-x="1015" 
d="M582 874q70 0 127 30t86 83l215 -80q-57 -107 -174 -167t-265 -60q-194 0 -319 106.5t-125 272.5q0 180 137 304t352 124q194 0 311 -104t117 -261q0 -46 -10 -102h-663q15 -68 72.5 -107t138.5 -39zM604 1296q-74 0 -131.5 -35t-85.5 -94h414q-5 53 -59 91t-138 38z" />
    <glyph glyph-name="f.ord" horiz-adv-x="720" 
d="M307 1483q44 284 385 284q125 0 219 -32l-55 -187q-82 21 -151 21q-141 0 -150 -86l-2 -13h281l-29 -204h-281l-80 -570h-245l77 570h-170l29 204h170z" />
    <glyph glyph-name="g.ord" horiz-adv-x="1099" 
d="M774 791l4 22q-93 -96 -258 -96q-171 0 -281 97.5t-110 256.5q0 84 32 160t88.5 132.5t139.5 90t180 33.5q186 0 289 -111l12 94h252l-96 -667q-25 -174 -160.5 -277.5t-355.5 -103.5q-159 0 -277.5 54t-160.5 142l168 125q38 -62 111.5 -95.5t168.5 -33.5q111 0 176 45
t78 132zM588 905q101 0 170 60t69 149q0 81 -61 130.5t-156 49.5q-101 0 -169 -61t-68 -150q0 -79 60.5 -128.5t154.5 -49.5z" />
    <glyph glyph-name="h.ord" horiz-adv-x="1079" 
d="M131 696l148 1055h249l-51 -371q107 107 271 107q156 0 245 -96.5t66 -257.5l-60 -437h-249l51 367q13 96 -28.5 149.5t-129.5 53.5q-87 0 -142 -53.5t-69 -149.5l-51 -367h-250z" />
    <glyph glyph-name="i.ord" horiz-adv-x="464" 
d="M248 1542l28 209h252l-28 -209h-252zM489 1470l-108 -774h-250l109 774h249z" />
    <glyph glyph-name="j.ord" horiz-adv-x="466" 
d="M248 1542l28 209h254l-30 -209h-252zM383 725q-22 -156 -106.5 -227.5t-243.5 -71.5q-119 0 -211 29l59 184q75 -21 127 -21q61 0 89.5 26t37.5 91l105 735h249z" />
    <glyph glyph-name="k.ord" horiz-adv-x="1040" 
d="M528 1751l-82 -588l394 307h344l-422 -321l321 -453h-295l-223 305l-157 -120l-27 -185h-250l148 1055h249z" />
    <glyph glyph-name="l.ord" horiz-adv-x="468" 
d="M528 1751l-147 -1055h-250l148 1055h249z" />
    <glyph glyph-name="m.ord" horiz-adv-x="1644" 
d="M1024 1071l-51 -375h-250l51 377q13 92 -25 143.5t-120 51.5q-80 0 -132 -51.5t-65 -145.5l-51 -375h-250l109 774h249l-14 -90q101 107 260 107q86 0 155 -35.5t101 -97.5q133 133 318 133q163 0 251.5 -95.5t65.5 -252.5l-61 -443h-250l51 377q12 93 -26 144t-119 51
t-132 -51.5t-65 -145.5z" />
    <glyph glyph-name="n.ord" horiz-adv-x="1079" 
d="M131 696l109 774h249l-14 -90q107 107 273 107q156 0 245 -96.5t66 -257.5l-60 -437h-249l51 367q13 96 -28.5 149.5t-129.5 53.5q-87 0 -142 -53.5t-69 -149.5l-51 -367h-250z" />
    <glyph glyph-name="o.ord" horiz-adv-x="1036" 
d="M571 680q-196 0 -320 104t-124 275q0 182 136 305t349 123q197 0 322 -104.5t125 -274.5q0 -182 -137 -305t-351 -123zM604 1284q-106 0 -169.5 -64t-63.5 -153q0 -85 59.5 -134.5t151.5 -49.5q106 0 169.5 64.5t63.5 154.5q0 84 -59.5 133t-151.5 49z" />
    <glyph glyph-name="p.ord" horiz-adv-x="1101" 
d="M393 788l-49 -348h-248l144 1030h249l-12 -81q45 45 115.5 71.5t148.5 26.5q175 0 279 -105.5t104 -265.5q0 -116 -53.5 -214.5t-156.5 -160t-236 -61.5q-177 0 -285 108zM666 1286q-105 0 -173.5 -64.5t-68.5 -156.5q0 -83 60.5 -133.5t156.5 -50.5q105 0 173.5 64.5
t68.5 156.5q0 83 -60.5 133.5t-156.5 50.5z" />
    <glyph glyph-name="q.ord" horiz-adv-x="1101" 
d="M860 1378l12 92h250l-143 -1030h-250l47 340q-45 -46 -115 -73t-149 -27q-175 0 -280 106t-105 265q0 115 54 214t157.5 160.5t236.5 61.5q176 0 285 -109zM588 881q105 0 173 64t68 157q0 84 -61 134t-156 50q-105 0 -173 -64t-68 -155q0 -84 60.5 -135t156.5 -51z" />
    <glyph glyph-name="r.ord" horiz-adv-x="757" 
d="M858 1466l-35 -239q-44 8 -92 8q-130 0 -210 -57t-97 -174l-43 -308h-250l109 774h249l-18 -131q105 136 301 136q34 0 86 -9z" />
    <glyph glyph-name="s.ord" horiz-adv-x="901" 
d="M43 831l127 164q56 -62 149 -96.5t201 -34.5q156 0 156 64q0 28 -38 39.5t-133 23.5q-31 4 -48 6q-54 7 -92.5 14.5t-84 24t-74 39t-48 59t-19.5 83.5q0 119 108 194.5t304 75.5q129 0 241 -38.5t175 -100.5l-138 -146q-55 48 -136 76.5t-169 28.5q-135 0 -135 -60
q0 -30 71 -45q27 -5 100 -15l18 -3q55 -6 96.5 -13.5t93 -24t84 -39t55.5 -59.5t23 -85q0 -129 -115 -206t-311 -77q-144 0 -268 41t-193 110z" />
    <glyph glyph-name="t.ord" horiz-adv-x="802" 
d="M236 952l43 314h-170l28 204h172l29 211h246l-29 -211h313l-28 -204h-316l-37 -260q-6 -57 23.5 -83t97.5 -26q76 0 172 35l21 -201q-128 -47 -252 -47q-161 0 -246 70t-67 198z" />
    <glyph glyph-name="u.ord" horiz-adv-x="1071" 
d="M1094 1470l-109 -774h-250l13 90q-101 -106 -269 -106q-154 0 -242 97.5t-65 258.5l61 434h250l-53 -372q-12 -96 28 -149.5t126 -53.5t140.5 54t66.5 151l53 370h250z" />
    <glyph glyph-name="v.ord" horiz-adv-x="1015" 
d="M649 696h-260l-258 774h270l158 -509l313 509h273z" />
    <glyph glyph-name="w.ord" horiz-adv-x="1413" 
d="M723 1470h221l82 -477l252 477h266l-438 -774h-225l-93 478l-251 -478h-238l-168 774h260l84 -477z" />
    <glyph glyph-name="x.ord" horiz-adv-x="1038" 
d="M449 1470l165 -221l222 221h313l-395 -380l303 -394h-301l-176 238l-240 -238h-313l411 398l-288 376h299z" />
    <glyph glyph-name="y.ord" horiz-adv-x="1013" 
d="M639 670q-88 -141 -164.5 -192.5t-198.5 -51.5q-117 0 -204 37l63 186q61 -26 119 -26q40 0 67 15.5t50 53.5l18 29l-258 749h272l158 -512l313 512h271z" />
    <glyph glyph-name="z.ord" horiz-adv-x="991" 
d="M967 901l-27 -205h-844l27 185l524 385h-467l29 204h835l-26 -184l-526 -385h475z" />
    <glyph glyph-name="caron.Slovak" horiz-adv-x="1228" 
d="M489 1126l97 344h350l-225 -344h-222z" />
    <glyph glyph-name="commaturn" horiz-adv-x="1228" 
d="M891 1352l-25 -185h-327l16 113q37 258 365 258l-19 -121q-111 0 -125 -65h115z" />
    <glyph glyph-name="guilsinglleft.cap" horiz-adv-x="653" 
d="M82 592l41 287l545 288l-45 -315l-230 -127l193 -129l-41 -293z" />
    <glyph glyph-name="guilsinglright.cap" horiz-adv-x="653" 
d="M627 879l-41 -287l-545 -289l45 315l229 127l-192 129l41 293z" />
    <glyph glyph-name="guillemotleft.cap" horiz-adv-x="1216" 
d="M82 592l41 287l545 288l-45 -315l-230 -127l193 -129l-41 -293zM645 592l41 287l545 288l-45 -315l-230 -127l193 -129l-41 -293z" />
    <glyph glyph-name="guillemotright.cap" horiz-adv-x="1216" 
d="M1190 879l-41 -287l-545 -289l45 315l229 127l-192 129l41 293zM627 879l-41 -287l-545 -289l45 315l229 127l-192 129l41 293z" />
    <glyph glyph-name="slash.cap" horiz-adv-x="1202" 
d="M-66 -125l1029 1712h358l-1028 -1712h-359z" />
    <glyph glyph-name="backslash.cap" horiz-adv-x="1202" 
d="M1079 -125h-329l-574 1712h330z" />
    <glyph glyph-name="bar.cap" horiz-adv-x="577" 
d="M37 -125l242 1712h317l-242 -1712h-317z" />
    <glyph glyph-name="periodcentered.cap" horiz-adv-x="540" 
d="M84 555l51 367h377l-51 -367h-377z" />
    <glyph glyph-name="bullet.cap" horiz-adv-x="905" 
d="M483 1116q161 0 271 -108.5t110 -276.5q0 -164 -110.5 -272.5t-270.5 -108.5q-163 0 -275 108.5t-112 272.5q0 168 111.5 276.5t275.5 108.5z" />
    <glyph glyph-name="hyphen.cap" horiz-adv-x="770" 
d="M88 586l43 295h606l-41 -295h-608z" />
    <glyph glyph-name="endash.cap" horiz-adv-x="1110" 
d="M90 600l39 266h946l-39 -266h-946z" />
    <glyph glyph-name="emdash.cap" horiz-adv-x="1998" 
d="M90 600l39 266h1835l-39 -266h-1835z" />
    <glyph glyph-name="parenleft.cap" horiz-adv-x="831" 
d="M977 1569q-286 -213 -426.5 -461.5t-140.5 -521.5q0 -422 325 -729h-334q-165 125 -255.5 319t-90.5 424q0 299 151 555.5t412 413.5h359z" />
    <glyph glyph-name="parenright.cap" horiz-adv-x="831" 
d="M-96 -143q286 213 426.5 461.5t140.5 521.5q0 421 -326 729h334q165 -125 255.5 -319.5t90.5 -424.5q0 -299 -151 -555t-412 -413h-358z" />
    <glyph glyph-name="bracketleft.cap" horiz-adv-x="772" 
d="M508 1319l-170 -1213h352l-35 -249h-669l241 1712h670l-37 -250h-352z" />
    <glyph glyph-name="bracketright.cap" horiz-adv-x="772" 
d="M313 106l170 1213h-352l35 250h669l-241 -1712h-670l37 249h352z" />
    <glyph glyph-name="braceleft.cap" horiz-adv-x="886" 
d="M47 582l37 262h96q109 0 129 131l33 235q50 359 438 359h232l-37 -250h-152q-89 0 -134.5 -43t-57.5 -131l-29 -197q-14 -98 -58 -155t-116 -88q62 -32 91 -88.5t16 -153.5l-27 -182q-11 -89 24 -132t130 -43h145l-37 -249h-192q-194 0 -296.5 98t-80.5 260l35 236
q9 70 -10 100.5t-66 30.5h-113z" />
    <glyph glyph-name="braceright.cap" horiz-adv-x="886" 
d="M889 844l-37 -262h-96q-109 0 -129 -131l-33 -236q-50 -358 -439 -358h-231l37 249h151q89 0 135 43.5t58 131.5l29 196q14 98 58 155.5t116 88.5q-62 32 -91 88.5t-16 153.5l27 182q11 89 -24 131.5t-130 42.5h-145l37 250h192q194 0 296.5 -98.5t80.5 -260.5l-35 -235
q-9 -70 10 -100.5t66 -30.5h113z" />
    <glyph glyph-name="at.cap" horiz-adv-x="2207" 
d="M1649 487q112 0 202.5 110t90.5 265q0 208 -181 328.5t-499 120.5q-176 0 -327 -38.5t-259.5 -105.5t-186 -157.5t-115.5 -195.5t-38 -218q0 -249 195 -385.5t552 -136.5q189 0 368.5 38t322.5 107l110 -211q-337 -180 -811 -180q-478 0 -747 202.5t-269 557.5
q0 151 53 293.5t157.5 264t248.5 212.5t339 142.5t417 51.5q277 0 489 -84.5t328.5 -238.5t116.5 -355q0 -171 -81.5 -312t-221.5 -220.5t-308 -79.5q-222 0 -303 137q-63 -62 -157.5 -98.5t-200.5 -36.5q-180 0 -282.5 97t-102.5 257q0 100 42.5 194t115.5 165t178 113.5
t223 42.5q110 0 189.5 -36t123.5 -96l39 113h289l-172 -508q-20 -62 -0.5 -90.5t72.5 -28.5zM1059 500q118 0 195 74.5t77 168.5q0 71 -49 113.5t-135 42.5q-118 0 -195.5 -75t-77.5 -169q0 -70 49.5 -112.5t135.5 -42.5z" />
    <glyph glyph-name="Euro.lt" 
d="M47 481l31 205h108q4 61 11 105h-105l29 204h131q93 225 291.5 361.5t466.5 136.5q257 0 431.5 -127t217.5 -342l-295 -111q-33 141 -132.5 216t-244.5 75q-129 0 -231 -56t-166 -153h487l-67 -204h-504q-10 -55 -10 -105h477l-70 -205h-368q46 -104 143 -159.5
t221 -55.5q143 0 243 74.5t169 218.5l264 -133q-98 -215 -276.5 -332t-421.5 -117q-265 0 -443.5 135.5t-228.5 368.5h-158z" />
    <glyph glyph-name="dollar.lt" 
d="M-45 326l225 227q73 -97 201 -164.5t287 -95.5l47 334q-84 12 -146 24t-131.5 32t-117.5 47.5t-88.5 65.5t-61 91.5t-20.5 120.5q0 198 181.5 328.5t502.5 136.5l28 202h273l-31 -219q192 -29 339 -98t218 -162l-221 -213q-128 148 -375 197l-43 -306q102 -14 178.5 -31
t154.5 -47.5t128.5 -71t82 -102.5t31.5 -141q0 -212 -185 -343t-515 -138l-29 -209h-270l31 225q-230 30 -411.5 115t-262.5 195zM469 1047q0 -59 63 -87t224 -51l41 293q-161 -4 -244.5 -46.5t-83.5 -108.5zM1270 442q0 66 -68.5 96.5t-220.5 53.5l-45 -320
q167 6 250.5 50.5t83.5 119.5z" />
    <glyph glyph-name="cent.lt" 
d="M166 506q0 120 46.5 228.5t130 192t206 138t268.5 68.5l29 204h260l-31 -213q179 -30 296.5 -120.5t152.5 -215.5l-254 -126q-22 70 -81.5 122t-148.5 76l-86 -614q99 23 172 76.5t107 126.5l223 -144q-71 -137 -210 -220.5t-328 -102.5l-27 -189h-260l26 197
q-226 37 -358.5 174.5t-132.5 341.5zM463 528q0 -104 62.5 -175.5t168.5 -100.5l86 616q-146 -29 -231.5 -123t-85.5 -217z" />
    <glyph glyph-name="sterling.lt" 
d="M217 573l31 215h182q-59 122 -59 220q0 95 45.5 182.5t127 155.5t205 108.5t267.5 40.5q266 0 422.5 -122.5t156.5 -334.5q0 -89 -32 -176h-297q18 59 18 109q0 115 -79.5 175t-211.5 60q-145 0 -223 -69t-78 -170q0 -71 53 -179h406l-31 -215h-301q4 -36 4 -55
q0 -80 -30 -166q146 -80 260 -80q210 0 254 222h299q-31 -243 -174.5 -380t-366.5 -137q-123 0 -217.5 42.5t-181.5 115.5q-148 -158 -349 -158q-137 0 -219 67.5t-82 182.5q0 123 95 202t245 79q104 0 199 -37q-2 44 -20 102h-318zM240 248q0 -29 27 -46.5t71 -17.5
q94 0 160 86q-77 54 -148 54q-51 0 -80.5 -22t-29.5 -54z" />
    <glyph glyph-name="yen.lt" 
d="M197 354l28 213h430l11 68l-23 37h-403l30 213h246l-350 585h399l303 -552l455 552h410l-516 -585h245l-30 -213h-402l-33 -37l-10 -68h430l-31 -213h-428l-49 -354h-331l49 354h-430z" />
    <glyph glyph-name="florin.lt" 
d="M582 449l67 208h-284l30 228h326l53 164q72 225 210.5 334.5t371.5 109.5q130 0 235 -32t170 -85l-155 -229q-103 76 -234 76q-195 0 -260 -201l-45 -137h324l-33 -228h-363l-75 -235q-72 -225 -210.5 -335t-371.5 -110q-130 0 -235.5 32t-170.5 85l156 230
q103 -76 234 -76q195 0 260 201z" />
    <glyph glyph-name="baht.lt" 
d="M577 -209l265 1884h268l-266 -1884h-267zM450 877h648q101 0 161 50.5t60 121.5q0 70 -56 109.5t-149 39.5h-618zM31 0l206 1470h887q226 0 358 -97.5t132 -264.5q0 -119 -68 -218t-194 -145q96 -40 153.5 -122.5t57.5 -194.5q0 -184 -145 -306t-396 -122h-991zM414 618
l-50 -344h682q102 0 165 54.5t63 132.5q0 71 -56 114t-153 43h-651z" />
    <glyph glyph-name="dong.lt" 
d="M989 262l-14 -94h293l184 1302h-293l-78 -550q-47 58 -136 94.5t-204 36.5q-129 0 -238 -39.5t-181 -107t-112 -156.5t-40 -187q0 -177 129 -294t350 -117q111 0 200 31.5t140 80.5zM80 -236l33 236h1130l-33 -236h-1130zM797 1124h796l35 236h-797zM774 819
q119 0 191.5 -57t72.5 -146q0 -102 -85.5 -169.5t-219.5 -67.5q-119 0 -191.5 56.5t-72.5 146.5q0 102 85.5 169.5t219.5 67.5z" />
    <glyph glyph-name="franc.lt" 
d="M16 260l39 262h873l-37 -262h-875zM506 0h-336l207 1470h1302l-39 -282h-968l-37 -277h850l-41 -284h-850z" />
    <glyph glyph-name="naira.lt" 
d="M1567 1470l-207 -1470h-301l-463 979l-137 -979h-332l207 1470h344l428 -913l129 913h332zM63 788l31 213h365l-31 -213h-365zM20 469l29 213h367l-31 -213h-365zM1235 469l29 213h364l-29 -213h-364zM1278 788l31 213h364l-31 -213h-364z" />
    <glyph glyph-name="peseta.lt" 
d="M504 350h360q152 0 276 46.5t207 128t128 194t45 244.5q0 234 -145 370.5t-427 136.5h-627l-206 -1470h340zM543 629l79 563h295q131 0 202 -63.5t71 -176.5q0 -62 -21 -119t-60.5 -103t-103 -73.5t-141.5 -27.5h-321zM53 797h1602l32 229h-1603z" />
    <glyph glyph-name="peso.lt" 
d="M1370 1174l-31 -213h336l31 213h-336zM455 961l30 213h-375l-30 -213h375zM504 383h354q295 0 470 163.5t175 422.5q0 233 -150 367t-429 134h-607l-207 -1470h340zM543 666l73 522h281q132 0 204 -60t72 -165q0 -126 -89 -211.5t-240 -85.5h-301zM35 643h377l30 213
h-377zM1325 856l-31 -213h336l31 213h-336z" />
    <glyph glyph-name="uni20BD.lt" 
d="M86 856l-39 -272h1065q261 0 411 132.5t150 338.5q0 189 -129.5 302t-363.5 113h-834l-207 -1470h340l168 1198h498q95 0 144.5 -39t49.5 -112q0 -81 -59.5 -136t-165.5 -55h-1028zM-8 209h940l37 270h-940z" />
    <glyph glyph-name="uni20B9.lt" 
d="M506 610l370 -610h383l-397 637zM100 842h1506l36 262h-1507zM49 477h682q176 0 317.5 71.5t219 190.5t77.5 260q0 113 -69 211h383l37 260h-1508l-35 -260h635q117 0 179.5 -59t62.5 -152q0 -111 -83.5 -186.5t-225.5 -75.5h-635z" />
    <glyph glyph-name="uni20BA.lt" 
d="M223 0l207 1470h342l-166 -1177h234q199 0 304.5 110.5t141.5 348.5h342q-52 -379 -243 -565.5t-556 -186.5h-606zM61 512l39 264l1043 543l-39 -264zM6 137l37 264l1046 541l-36 -264z" />
    <glyph glyph-name="won.lt" 
d="M16 469l31 213h313l-28 -213h-316zM61 788l31 213h291l-31 -213h-291zM1646 788h-288l30 213h289zM1601 469h-313l31 213h313zM803 1292h229l84 -970h-102l376 1148h320l-506 -1470h-264l-90 1020h82l-373 -1020h-276l-93 1470h308l57 -1148h-111z" />
    <glyph glyph-name="zero.slash" horiz-adv-x="1775" 
d="M952 1206q-161 0 -287.5 -69.5t-194 -186t-67.5 -256.5q0 -198 130 -314t345 -116q161 0 287.5 69.5t194 186t67.5 256.5q0 198 -129.5 314t-345.5 116zM874 -23q-175 0 -325.5 54t-255 147.5t-164 223.5t-59.5 280q0 160 64 307t177 259t281 178.5t364 66.5
q234 0 418.5 -92t285.5 -252.5t101 -360.5q0 -128 -40 -248.5t-118 -222t-184.5 -178t-247 -119.5t-297.5 -43zM450 260l-137 215l1067 735l137 -215z" />
    <glyph glyph-name="zero.lt" 
d="M807 -23q-158 0 -293 51t-229.5 141.5t-147.5 219t-53 279.5q0 128 36 250t106.5 225.5t166.5 182t223.5 123t270.5 44.5q212 0 376 -87t254.5 -244t90.5 -359q0 -161 -57.5 -310t-159 -263.5t-254 -183.5t-330.5 -69zM879 1196q-130 0 -233 -70t-158.5 -186.5
t-55.5 -255.5q0 -192 105.5 -301t277.5 -109q130 0 233 70t158.5 186.5t55.5 255.5q0 192 -105.5 301t-277.5 109z" />
    <glyph glyph-name="zero.slash.lt" 
d="M883 1217q-136 0 -245 -74t-167.5 -196t-58.5 -265q0 -201 109.5 -314.5t289.5 -113.5q102 0 190.5 43t149 116t95 170.5t34.5 204.5q0 201 -108.5 315t-288.5 114zM805 -23q-211 0 -375.5 87t-255 244.5t-90.5 359.5q0 160 58 309t160.5 264t255.5 183.5t331 68.5
q320 0 519.5 -192t199.5 -498q0 -128 -36 -250t-106.5 -226t-166.5 -182.5t-223.5 -123t-270.5 -44.5zM485 291l-145 203l868 686l144 -203z" />
    <glyph glyph-name="one.lt" 
d="M63 0l41 287h578l94 671h-565l37 259l334 12q155 4 234.5 62.5t113.5 185.5h262l-168 -1190h506l-39 -287h-1428z" />
    <glyph glyph-name="two.lt" 
d="M57 264l838 412q180 88 257 165t77 158q0 94 -88 148.5t-228 54.5q-184 0 -314 -96.5t-177 -253.5l-301 80q68 250 284 405.5t529 155.5q291 0 465 -125.5t174 -337.5q0 -159 -109.5 -290.5t-347.5 -243.5l-426 -203h819l-43 -293h-1448z" />
    <glyph glyph-name="three.lt" 
d="M821 -23q-320 0 -532.5 124t-261.5 319l309 133q36 -130 165 -210.5t326 -80.5q168 0 270.5 55.5t102.5 145.5q0 151 -307 151h-281l41 273h273q147 0 231 44.5t84 121.5q0 73 -79.5 113t-217.5 40q-177 0 -305 -64.5t-193 -176.5l-274 137q99 187 303.5 289t489.5 102
q294 0 469.5 -112t175.5 -289q0 -121 -85 -213t-229 -131q124 -36 193.5 -116.5t69.5 -193.5q0 -93 -48 -175.5t-138 -146.5t-233 -101.5t-319 -37.5z" />
    <glyph glyph-name="four.lt" 
d="M1231 0h-328l49 344h-923l37 264l933 862h439l-119 -852h287l-37 -274h-289zM469 618h522l78 560z" />
    <glyph glyph-name="five.lt" 
d="M432 614l-270 58l205 798h1235l-41 -292h-969l-70 -267q178 90 412 90q297 0 468 -130.5t171 -338.5q0 -112 -51 -211.5t-145 -176.5t-240.5 -122t-325.5 -45q-190 0 -358.5 52.5t-284.5 149.5t-148 220l314 138q33 -118 172 -197.5t323 -79.5q179 0 290.5 72.5
t111.5 177.5q0 99 -102.5 159t-276.5 60q-229 0 -420 -115z" />
    <glyph glyph-name="six.lt" 
d="M1647 1192l-236 -197q-64 102 -176 162t-260 60q-208 0 -354.5 -111t-188.5 -287q201 176 500 176q280 0 455.5 -136t175.5 -341q0 -106 -49.5 -202.5t-141 -172.5t-236 -121t-321.5 -45q-347 0 -536 165.5t-189 478.5q0 136 37.5 264t114 238t183.5 192.5t254 130
t318 47.5q222 0 393 -80.5t257 -220.5zM817 248q188 0 298 72t110 178q0 103 -105 164t-278 61q-190 0 -300 -71t-110 -177q0 -104 106 -165.5t279 -61.5z" />
    <glyph glyph-name="seven.lt" 
d="M1292 1184h-848l-41 -283h-290l82 569h1525l-43 -305q-325 -254 -502 -533.5t-227 -631.5h-346q102 711 690 1184z" />
    <glyph glyph-name="eight.lt" 
d="M915 1493q304 0 476 -113t172 -293q0 -111 -76 -194.5t-223 -134.5q144 -45 226.5 -134t82.5 -208q0 -193 -204 -316t-572 -123q-351 0 -559.5 115.5t-208.5 310.5q0 134 108 235.5t299 145.5q-211 102 -211 289q0 192 188 306t502 114zM883 895q168 0 257 50.5t89 129.5
q0 77 -85.5 120.5t-242.5 43.5q-170 0 -259 -50.5t-89 -129.5q0 -76 87 -120t243 -44zM809 633q-212 0 -324 -57t-112 -146q0 -88 112 -139t310 -51q214 0 327 57t113 145q0 90 -113 140.5t-313 50.5z" />
    <glyph glyph-name="nine.lt" 
d="M47 279l235 196q64 -102 176 -161.5t261 -59.5q208 0 354 110.5t188 286.5q-201 -176 -499 -176q-280 0 -455.5 136t-175.5 341q0 84 30.5 163t93 148t150 120t209.5 80.5t264 29.5q347 0 536 -165t189 -478q0 -136 -37.5 -264t-114 -238.5t-183.5 -193t-254 -130
t-318 -47.5q-221 0 -392 81t-257 221zM876 1223q-188 0 -297.5 -72t-109.5 -178q0 -103 105 -164t278 -61q190 0 299.5 70.5t109.5 176.5q0 104 -106 166t-279 62z" />
    <glyph glyph-name="period.tab" horiz-adv-x="819" 
d="M145 0l52 367h376l-51 -367h-377z" />
    <glyph glyph-name="comma.tab" horiz-adv-x="819" 
d="M145 0l52 367h376l-53 -377q-19 -143 -122.5 -222t-295.5 -79l23 168q152 3 168 110l4 33h-152z" />
    <glyph glyph-name="colon.tab" horiz-adv-x="819" 
d="M145 0l52 367h376l-51 -367h-377zM240 674l51 366h377l-52 -366h-376z" />
    <glyph glyph-name="semicolon.tab" horiz-adv-x="819" 
d="M145 0l52 367h376l-53 -377q-19 -143 -122.5 -222t-295.5 -79l23 168q152 3 168 110l4 33h-152zM240 674l51 366h377l-52 -366h-376z" />
    <glyph glyph-name="space.tab" horiz-adv-x="819" 
 />
    <glyph glyph-name="zero.dnom" horiz-adv-x="1052" 
d="M483 -12q-198 0 -324 110.5t-126 278.5q0 89 36 170.5t99.5 143t158 98t205.5 36.5q198 0 323.5 -110t125.5 -279q0 -89 -35.5 -170.5t-99 -143t-158 -98t-205.5 -36.5zM520 625q-100 0 -165.5 -68.5t-65.5 -167.5q-1 -91 56.5 -146t148.5 -55q100 0 165.5 68t67.5 168
q0 91 -57.5 146t-149.5 55z" />
    <glyph glyph-name="one.dnom" horiz-adv-x="770" 
d="M-45 0l29 203h254l43 295h-252l24 178l107 4q99 1 148.5 33t72.5 100h192l-86 -610h218l-27 -203h-723z" />
    <glyph glyph-name="two.dnom" horiz-adv-x="933" 
d="M10 176l428 207q99 48 137.5 85t38.5 73q0 41 -37 63.5t-98 22.5q-81 0 -138.5 -43.5t-80.5 -122.5l-221 51q33 141 154 227t301 86q166 0 269 -71t103 -191q0 -174 -245 -289l-164 -77h379l-27 -197h-823z" />
    <glyph glyph-name="three.dnom" horiz-adv-x="972" 
d="M453 -12q-186 0 -314.5 62.5t-169.5 164.5l224 96q22 -60 91.5 -95.5t174.5 -35.5q79 0 122.5 22t43.5 60q0 62 -138 62h-180l27 176h172q145 0 145 67q0 30 -37 47t-102 17q-92 0 -161 -29.5t-107 -81.5l-189 105q61 97 182.5 148.5t284.5 51.5q183 0 288 -62.5
t105 -164.5q0 -67 -42.5 -117t-118.5 -73q64 -22 99.5 -65.5t35.5 -104.5q0 -106 -112 -178t-324 -72z" />
    <glyph glyph-name="four.dnom" horiz-adv-x="983" 
d="M698 0h-235l26 182h-512l27 180l485 451h324l-63 -446h178l-25 -185h-178zM274 367h240l35 251z" />
    <glyph glyph-name="five.dnom" horiz-adv-x="925" 
d="M244 326l-213 30l114 457h723l-28 -195h-529l-26 -106q93 41 215 41q158 0 254 -68.5t96 -185.5q0 -132 -115 -221.5t-321 -89.5q-156 0 -283 59t-164 156l223 96q25 -53 91.5 -86t150.5 -33q82 0 126 30t44 73q0 44 -43.5 70t-118.5 26q-110 0 -196 -53z" />
    <glyph glyph-name="six.dnom" horiz-adv-x="1013" 
d="M977 674l-158 -133q-40 46 -110 73t-152 27q-110 0 -184 -48t-90 -120q108 78 272 78q163 0 269 -74.5t106 -185.5q0 -128 -121.5 -215.5t-335.5 -87.5q-213 0 -327 91t-115 271q1 95 36 180t100 151t167.5 105t228.5 39q135 0 247.5 -39.5t166.5 -111.5zM471 166
q97 0 154 31.5t57 78.5q0 45 -52.5 73t-140.5 28q-97 0 -153.5 -32t-56.5 -79q0 -45 51.5 -72.5t140.5 -27.5z" />
    <glyph glyph-name="seven.dnom" horiz-adv-x="937" 
d="M631 618h-379l-23 -149h-209l50 344h876l-28 -209q-174 -123 -270 -271t-122 -333h-256q57 386 361 618z" />
    <glyph glyph-name="eight.dnom" horiz-adv-x="987" 
d="M508 825q192 0 296.5 -64.5t106.5 -168.5q0 -119 -147 -180q67 -26 103.5 -70t35.5 -104q0 -112 -120.5 -181t-333.5 -69q-206 0 -329.5 64t-123.5 173q1 70 53 124t139 81q-98 61 -98 152q0 112 114.5 177.5t303.5 65.5zM496 506q82 0 127 21.5t45 56.5q0 34 -43.5 53.5
t-118.5 19.5q-81 0 -127.5 -22t-46.5 -57q0 -34 44.5 -53t119.5 -19zM459 334q-101 0 -156 -24t-55 -64q0 -39 52 -60.5t149 -21.5q99 0 154.5 23.5t55.5 62.5t-52.5 61.5t-147.5 22.5z" />
    <glyph glyph-name="nine.dnom" horiz-adv-x="1013" 
d="M-2 139l160 133q41 -45 110 -72.5t150 -27.5q110 0 185 49t91 121q-107 -80 -276 -80q-163 0 -267 74.5t-104 185.5q0 127 122 215t335 88t327 -91.5t115 -272.5q-1 -95 -36 -179.5t-100.5 -150.5t-167.5 -104.5t-228 -38.5q-136 0 -249 39.5t-167 111.5zM506 647
q-97 0 -154 -31.5t-57 -78.5q0 -45 52 -73t140 -28q97 0 154 32.5t57 78.5q0 45 -51.5 72.5t-140.5 27.5z" />
    <glyph glyph-name="percent.lt" 
d="M512 1493q147 0 240.5 -89.5t93.5 -234.5q0 -106 -49 -196.5t-139.5 -145.5t-202.5 -55q-147 0 -240.5 89.5t-93.5 234.5q0 163 110.5 280t280.5 117zM1606 1470l-1244 -1470h-274l1241 1470h277zM467 967q68 0 113 55.5t45 130.5q0 64 -34 103.5t-91 39.5
q-68 0 -113 -55t-45 -131q0 -64 33.5 -103.5t91.5 -39.5zM1239 698q147 0 240.5 -89t93.5 -234q0 -163 -110.5 -280.5t-280.5 -117.5q-147 0 -240.5 89.5t-93.5 234.5q0 106 49 196.5t139.5 145.5t202.5 55zM1352 360q0 64 -34.5 104t-90.5 40q-66 0 -112 -56t-46 -131
q0 -64 34 -103.5t91 -39.5q68 0 113 55t45 131z" />
    <glyph glyph-name="colon.mid" horiz-adv-x="622" 
d="M76 217l51 367h377l-51 -367h-377zM170 891l51 366h377l-51 -366h-377z" />
    <glyph glyph-name="commaaboverightcmb" horiz-adv-x="0" 
d="M-223 1126l96 344h350l-225 -344h-221z" />
    </font>
</defs>
</svg>
