<svg width="635" height="322" viewBox="0 0 635 322" fill="none" xmlns="http://www.w3.org/2000/svg">
<path d="M12.9133 265.382L12.6465 268.259L407.173 304.852L407.44 301.975L12.9133 265.382Z" fill="#421C0E"/>
<path d="M305.331 205.792L305.084 208.671L629.825 236.542L630.072 233.663L305.331 205.792Z" fill="#421C0E"/>
<path d="M450.044 18.7004L314.941 215.634L317.323 217.268L452.426 20.3344L450.044 18.7004Z" fill="#421C0E"/>
<path d="M431.194 19.6199L428.936 21.4233L614.239 253.459L616.498 251.655L431.194 19.6199Z" fill="#421C0E"/>
<path d="M184.488 54.4333C184.488 54.4333 253.844 249.764 338.584 304.417L599.192 232.514C599.192 232.514 515.148 161.99 458.927 40.9555C458.927 40.9555 383.659 82.5969 184.488 54.4333Z" fill="#FFF2E4"/>
<path opacity="0.1" d="M184.488 54.4333C184.488 54.4333 253.844 249.764 338.584 304.417L599.192 232.514C599.192 232.514 515.148 161.99 458.927 40.9555C458.927 40.9555 383.659 82.5969 184.488 54.4333Z" fill="#AA3E39"/>
<path d="M338.587 304.411C297.68 292.663 37.7831 273.655 37.7831 273.655C128.828 225.067 184.483 54.4272 184.483 54.4272C184.485 54.4434 184.494 54.4582 184.507 54.4687C185.574 57.476 254.516 250.174 338.587 304.411Z" fill="#FFF2E4"/>
<path opacity="0.1" d="M338.587 304.411C297.68 292.663 37.7831 273.655 37.7831 273.655C128.828 225.067 184.483 54.4272 184.483 54.4272C184.485 54.4434 184.494 54.4582 184.507 54.4687C185.574 57.476 254.516 250.174 338.587 304.411Z" fill="#AA3E39"/>
<path opacity="0.1" d="M338.587 304.411C304.972 294.765 123.406 280.19 59.8156 275.312C46.0283 274.256 37.7831 273.655 37.7831 273.655C128.828 225.067 184.483 54.4272 184.483 54.4272C184.485 54.4434 184.494 54.4582 184.507 54.4687C184.681 54.9736 186.69 60.5875 190.312 69.8661C208.633 117.062 268.325 259.081 338.587 304.411Z" fill="#AA3E39"/>
<path opacity="0.1" d="M566.142 226.284L343.408 277.152C285.361 219.605 232.735 96.8584 217.204 58.554C337.072 71.9011 406.233 58.663 437.831 49.0238C480.515 144.895 566.142 226.284 566.142 226.284Z" fill="#AA3E39"/>
<path d="M361.234 186.15C361.234 186.15 338.291 153.6 333.297 129.181C333.297 129.181 390.055 125.919 414.288 117.14C414.288 117.14 434.174 155.057 443.698 165.499C443.698 165.499 414.089 180.708 361.234 186.15Z" fill="#FFF2E4"/>
<path d="M190.312 69.8661C180.841 108.778 140.767 216.898 59.8156 275.312C46.0283 274.256 37.7831 273.655 37.7831 273.655C128.828 225.067 184.483 54.4272 184.483 54.4272C184.485 54.4434 184.494 54.4582 184.507 54.4687C184.681 54.9736 186.69 60.5875 190.312 69.8661Z" fill="#FFF2E4"/>
<path opacity="0.1" d="M190.312 69.8661C180.841 108.778 140.767 216.898 59.8156 275.312C46.0283 274.256 37.7831 273.655 37.7831 273.655C128.828 225.067 184.483 54.4272 184.483 54.4272C184.485 54.4434 184.494 54.4582 184.507 54.4687C184.681 54.9736 186.69 60.5875 190.312 69.8661Z" fill="#AA3E39"/>
<path opacity="0.4" d="M205.39 287.589C193.676 286.495 181.877 285.427 170.231 284.395C194.531 219.402 190.311 69.866 190.311 69.866C204.576 169.08 206.176 244.782 205.39 287.589Z" fill="#AA3E39"/>
<path d="M202.553 20.4316L25.9199 278.092L28.3033 279.726L204.937 22.0654L202.553 20.4316Z" fill="#421C0E"/>
<path d="M177.305 21.7945L174.896 23.3896L376.939 328.41L379.347 326.815L177.305 21.7945Z" fill="#421C0E"/>
</svg>
